<svg width="343" height="297" viewBox="0 0 343 297" fill="none" xmlns="http://www.w3.org/2000/svg">
<path fill-rule="evenodd" clip-rule="evenodd" d="M69.8218 239.517C68.1013 240.56 68.9219 240.845 70.1091 241.798C71.3253 240.828 70.8042 240.388 69.8218 239.517ZM44.1725 334.145C45.0242 332.872 45.0499 332.513 44.1004 331.553C43.1199 332.6 42.9181 332.912 44.1725 334.145ZM59.5664 323.032C60.4315 322.254 61.1511 321.607 61.8703 320.96C61.1214 319.931 57.4004 321.785 59.5664 323.032ZM68.4609 230.694C67.2548 231.839 66.8637 232.84 68.518 233.203C69.976 232.47 69.9958 231.718 68.4609 230.694ZM110.161 306.869C109.652 307.294 109.063 307.737 109.088 307.775C110.311 310.892 113.309 308.488 110.161 306.869ZM118.425 210.148C116.794 208.767 116.377 207.022 114.753 209.258C116.131 210.202 116.552 211.498 118.425 210.148ZM100.25 280.363C98.8997 282.906 102.279 283.224 103.791 281.645C103.058 280.65 101.549 280.888 100.25 280.363ZM83.8517 248.058C85.8009 246.55 86.972 245.111 84.458 244.026C82.3385 243.91 85.0872 246.592 83.065 246.763C83.2332 247.04 83.4011 247.316 83.8517 248.058ZM50.7066 259.482C48.98 258.159 48.4558 257.568 47.1401 259.321C48.5975 260.429 48.9095 261.215 50.7066 259.482ZM59.5844 257.583C58.1911 261.489 65.1581 263.395 63.9019 258.447C63.3997 251.268 56.5032 248.878 59.5844 257.583ZM116.008 321.05C122.074 319.267 107.995 310.494 105.812 310.782C103.886 315.79 112.577 318.701 116.008 321.05ZM24.8885 311.026C22.8495 307.093 16.4552 304.577 12.3917 304.898C11.6016 309.449 18.9631 310.423 21.4511 313.032C23.5065 314.736 23.9293 312.63 24.8885 311.026ZM59.3731 335.289C62.8594 342.487 69.417 326.09 67.6626 323.434C63.2862 323.508 61.2188 331.184 59.3731 335.289ZM184.219 305.799C183.727 294.515 177.436 308.329 177.965 313.099C181.237 322.899 183.622 309.1 184.219 305.799ZM116.607 259.428C96.3736 259.539 119.983 266.995 125.256 265.143C127.871 260.307 118.761 260.414 116.607 259.428ZM77.0856 302.839C94.047 301.57 102.588 272.071 79.8514 271.033C55.5239 269.521 48.1554 304.539 77.0856 302.839ZM144.616 302.515C144.63 290.428 157.747 297.233 151.032 301.845C150.589 301.963 150.477 303.312 150.213 304.094C157.416 307.024 156.315 294.024 150.625 293.276C135.772 292.053 140.444 320.486 154.354 314.674C172.143 305.812 162.744 280.275 143.794 286.973C128.744 289.729 124.551 311.976 136.626 320.744C144.96 323.368 165.014 324.062 163.077 311.558C149.702 326.389 124.12 315.163 136.067 295.371C140.68 289.359 150.386 287.303 156.704 291.319C168.803 300.927 146.65 322.899 144.616 302.515ZM-5.70451 345.161C5.70856 320.938 43.0778 336.813 25.946 360.129C16.0187 372.575 -10.1838 353.492 2.88597 341.844C7.99997 338.691 14.8968 337.694 19.7119 342.04C27.331 346.567 16.1737 360.076 11.9371 351.322C10.7252 348.318 12.9131 342.93 16.643 345.077C17.6986 345.7 17.8604 347.55 16.7165 347.977C13.2904 349.666 19.5895 351.671 19.8007 348.479C20.5945 338.1 5.9369 343.631 8.84955 351.85C12.0266 364.192 28.4349 354.902 25.2572 344.479C13.1359 321.363 -20.152 347.686 5.04611 364.16C25.7979 379.062 45.3423 350.489 27.334 334.318C17.6928 323.869 -4.09906 330.745 -5.70451 345.161ZM91.8744 221.854C100.331 225.151 100.108 211.732 91.1756 213.3C85.0411 215.307 86.3764 227.152 90.0549 230.786C98.371 234.327 107.302 223.233 104.102 215.178C100.394 204.747 83.9137 204.814 79.9695 214.931C71.7466 235.771 95.2178 251.178 110.418 235.393C114.653 233.634 114.382 218.245 110.603 222.902C109.986 243.061 79.7552 241.53 82.8226 220.012C82.1874 210.634 96.0442 206.511 100.226 215.591C105.414 223.575 87.2229 233.122 91.8744 221.854ZM76.65 339.589C75.0595 338.391 73.9486 339.197 73.2202 340.595C72.2436 345.481 80.6018 344.203 76.65 339.589ZM-16.2967 293.954C-17.3212 291.246 -9.9964 293.025 -5.13914 287.684C2.70494 279.123 -13.8178 286.447 -15.4737 289.623C-16.1355 288.697 -16.2271 286.735 -15.1684 286.225C-17.1854 283.739 -14.9764 277.516 -15.43 273.738C-14.1488 269.129 -10.8206 267.438 -6.95828 265.271C-3.21315 268.25 -1.51429 272.91 2.65335 275.641C34.3984 297.427 50.4221 259.589 34.6595 234.396C33.7833 230.644 42.426 226.471 45.7425 226.295C45.1811 222.121 48.5318 224.887 49.868 222.395C53.7084 215.655 57.4508 238.721 60.2438 230.899C55.0748 215.494 53.9349 216.919 70.3756 210.671C66.6521 214.655 68.9152 215.38 72.6008 212.754C75.2274 210.644 75.3101 207.547 75.4209 204.51C80.8283 202.697 84.5667 198.96 89.1123 195.878C91.5835 193.285 93.3159 199.176 95.1317 195.838C95.1778 195.733 95.8711 195.906 96.2606 195.963C105.954 195.302 101.715 204.354 108.488 198.646C115.846 201.331 116.143 201.996 119.816 207.765C125.017 207.583 122.298 205.132 127.063 210.087C133.446 213.932 137.921 221.096 144.546 225.017C147.698 232.883 143.794 230.256 138.531 235.144C127.286 246.049 133.956 267.646 150.79 266.959C159.619 270.914 169.829 256.23 175.33 265.423C176.459 270.732 179.752 275.265 183.416 279.218C190.121 289.241 195.394 301.128 202.191 311.488C199.845 337.918 167.838 347.351 146.63 355.374C144.656 357.21 145.071 332.184 140.327 342.653C142.517 362.201 150.089 353.316 128.507 360.737C126.545 361.208 125.159 361.201 123.522 361.282C122.078 362.966 115.16 365.438 115.084 362.129C116.394 345.464 96.2924 338.097 84.6174 349.223C73.6656 355.683 79.8578 368.034 76.501 369.446C73.0932 369.794 69.6411 370.396 66.2547 369.692C63.5392 370.157 59.0743 373.608 58.2271 368.946C55.2748 353 47.7464 353.188 53.4611 369.675C53.8064 374.879 2.08889 376.135 1.11476 369.665C-8.58052 358.848 -11.7533 344.272 -13.0489 331.026C-12.3681 329.833 -11.9871 328.649 -13.1789 327.523C-10.6762 325.898 -7.13656 324.456 -4.81952 321.818C-3.03395 318.111 -8.22243 318.679 -9.67769 320.859C-15.2804 325.388 -16.101 297.407 -16.2967 293.954Z" fill="#1F3D84"/>
<path fill-rule="evenodd" clip-rule="evenodd" d="M325.024 368.402C323.518 363.04 319.19 357.646 314.1 355.513C316.025 360.798 320.516 364.954 325.024 368.402ZM258.905 307.932C257.204 314.314 273.077 307.07 277.932 311.227C288.462 313.444 262.154 282.87 258.905 307.932ZM268.553 312.726C263.355 313.301 257.319 312.888 256.329 319.31C255.964 321.117 252.808 326.639 256.66 325.976C266.928 325.773 293.723 313.108 268.553 312.726ZM285.468 325.506C285.269 318.331 283.198 315.28 277.915 321.926C271.77 329.617 253.629 324.703 252.409 333.86C250.923 338.298 273.355 331.858 278.748 335.375C282.921 335.344 285.739 329.481 285.468 325.506ZM249.749 360.1C250.923 371.403 257.203 374.317 263.704 363.657C271.132 356.342 280.021 351.914 290.389 350.547C291.667 350.378 292.246 349.836 291.732 348.507C282.512 331.578 278.312 343.164 266.115 348.705C261.64 353.6 247.637 352.185 249.749 360.1ZM272.141 295.477C271.715 297.883 284.941 304.517 283.783 311.998C286.987 319.636 291.293 328.02 284.639 335.75C282.913 338.611 287.822 338.806 288.891 340.666C294.905 349.382 295.366 350.01 306.091 349.549C311.188 351.364 303.914 337.436 305.609 333.93C302.247 326.405 293.146 323.559 293.292 312.627C293.024 287.7 300.589 294.493 272.141 295.477ZM128.508 360.736C133.653 357.819 140.526 359.22 144.688 354.9C149.061 355.918 153.687 352.842 157.664 350.924C169.608 347.982 179.243 341.899 188.865 334.716C196.271 329.386 202.006 320.857 202.191 311.488C197.629 305.345 195.104 297.378 190.241 291.414C188.686 289.033 187.21 286.471 186.945 283.535C183.379 279.766 180.198 275.724 177.694 271.241C171.449 262.482 173.081 251.629 173.028 241.008C174.792 239.899 176.901 240.116 178.717 239.749C178.851 237.488 181.202 237.352 182.249 235.989C184.122 231.98 185.392 237.674 185.941 232.847C187.582 233.166 189.026 231.846 188.94 230.463C191.351 227.094 195.484 229.495 196.663 224.934C202.473 223.603 208.758 227.148 214.013 225.089C232.01 227.603 223.493 225.665 227.064 235.199C228.931 233.066 230.041 230.387 231.54 227.993C232.409 228.667 232.901 229.661 234.536 228.816C244.304 229.081 253.773 232.528 263.524 233.185C262.733 233.329 261.942 233.472 260.541 233.726C279.572 239.798 303.247 241.897 313.529 260.483C324.263 270.803 317.228 290.645 314.438 303.582C311.408 302.222 299.784 294.075 297.545 297.462C293.626 307.454 294.783 320.362 303.744 327.315C307.923 329.167 307.763 310.33 318.856 308.359C309.917 320.29 296.945 335.038 325.748 333.798C349.506 330.938 316.972 341.372 309.276 333.345C305.767 333.778 309.483 346.086 310.579 349.159C312.419 351.624 315.718 346.293 317.831 345.566C323.325 342.171 330.539 338.109 336.962 339.843C329.322 343.293 320.241 344.178 314.224 351.028C313.539 351.69 313.348 352.016 314.356 352.528C324.875 356.339 325.026 369.497 333.616 374.358C332.002 375.906 329.921 375.263 328.037 375.542C312.65 363.945 311.245 340.299 302.412 370.848C297.29 371.859 305.362 356.064 307.874 354.175C310 350.214 299.843 352.126 297.37 351.389C294.319 351.535 296.354 355.48 296.131 357.341C295.869 363.748 294.361 377.722 286.692 377.917C290.422 373.123 299.539 352.837 289.785 352.56C276.622 355.101 265.971 362.514 258.481 373.257C230.227 370.228 202.276 367.656 174.42 362.908C152.89 358.317 150.367 354.983 128.508 360.736Z" fill="#2C6B95"/>
<path fill-rule="evenodd" clip-rule="evenodd" d="M160.859 103.84C161.392 102.362 162.173 101.243 160.829 100.575C158.564 101.426 159.413 102.052 160.859 103.84ZM118.061 97.2327C118.015 95.8929 115.988 97.183 115.093 97.2395C114.499 99.8374 117.261 98.6923 118.061 97.2327ZM127.386 97.8094C125.346 96.5559 121.989 97.734 122.818 100.333C125.438 103.21 126.773 101.463 127.386 97.8094ZM111.286 48.0127C113.324 46.787 110.415 45.2664 110.259 44.2489C110.623 42.6563 107.93 41.1162 106.712 41.5582C110.166 46.7772 104.205 44.5731 111.286 48.0127ZM161.913 65.8332C154.869 63.8221 159.398 86.5722 158.342 91.4532C157.414 94.1769 168.397 94.2441 167.424 91.449C167.198 84.8574 167.092 78.2436 167.417 71.6545C167.726 65.9932 167.77 65.9327 161.913 65.8332ZM116.143 107.968C113.94 108.845 115.025 111.229 116.893 111.606C116.985 110.74 117.189 109.88 116.901 109.031C119.049 109.446 121.207 105.325 118.768 104.085C116.286 95.1376 113.283 102.957 116.143 107.968ZM98.0222 35.6285C95.7333 37.2978 99.3111 37.4559 98.8675 38.7024C98.8511 38.7482 99.7672 39.1731 100.279 39.312C99.6402 34.242 101.661 35.2537 103.079 30.6113C100.879 31.4661 99.7458 34.0509 98.0222 35.6285ZM132.665 57.0333C127.548 63.5137 158.669 58.3649 164.151 59.9704C180.364 60.6289 196.617 59.9557 212.833 60.8383C214.502 60.9152 214.635 60.17 214.53 58.8445C213.531 42.7812 214.724 26.6394 214.688 10.5491C214.604 6.83454 208.59 9.54113 206.161 9.0133C203.095 9.63637 197.957 8.94797 195.523 10.2659C193.32 13.0375 193.024 8.40244 191.296 9.59943C184.115 11.5181 176.102 8.47602 168.523 10.6688C166.128 12.1137 165.27 9.76367 162.923 10.1382C158.665 11.1676 153.871 9.47427 150.109 11.1789C141.69 11.4134 134.704 10.8425 126.462 11.4131C124.522 11.2983 127.768 16.3946 126.513 18.508C125.609 19.5466 125.351 18.3578 125.48 17.4118C123.477 15.3863 123.479 15.3905 123.288 12.3979C117.439 9.57776 115.012 18.2232 110.857 22.0263C115.041 20.307 112.624 24.3367 115.779 25.3029C113.212 28.0684 119.001 37.6122 112.606 36.3185C110.902 36.6402 109.184 34.0713 108.762 32.7882C110.746 32.1948 109.038 29.8912 107.964 29.6259C103.872 28.0244 104.639 30.4452 106.003 33.4171C105.475 34.6336 106.547 35.0503 107.146 35.703C107.036 38.3928 106.229 41.8772 109.882 39.8285C110.391 38.3733 113.096 36.7245 113.634 39.0214C112.813 42.5675 114.647 40.6662 116.833 40.7795C117.686 42.8209 115.43 44.2801 117.174 46.1688C115.545 47.2498 116.959 47.5041 117.658 47.9526C116.838 49.3419 114.069 48.2963 112.524 48.767C111.736 49.1441 111.839 49.83 112.825 49.8709C125.988 50.8799 110.461 50.9317 121.566 58.3484C122.218 60.5183 124.354 60.0519 126.122 60.0394C127.284 59.5921 127.753 57.7654 129.461 58.353C129.739 56.2955 124.494 56.0286 127.537 53.7467C129.776 51.1509 132.763 53.5132 133.943 49.8126C136.806 49.1419 134.633 56.4783 132.665 57.0333ZM157.767 115.58C154.25 113.825 157.151 120.661 153.661 116.327C153.143 115.769 152.704 115.211 152.105 116.212C149.793 117.73 152.216 113.438 149.094 115.125C147.923 115.275 148.117 113.859 148.735 113.523C150.312 113.831 149.739 112.522 150.042 111.891C153.083 110.818 153.004 112.018 155.178 113.174C155.017 110.749 152.257 108.739 157.228 108.933C153.23 106.08 159.211 106.243 156.086 103.393C151.028 101.426 158.065 98.8434 155.733 98.1345C148.527 97.8595 142.105 96.7959 134.51 97.6986C134.609 98.6108 137.007 98.5586 137.579 97.9614C139.065 101.166 134.856 102.208 135.408 104.815C143.388 105.685 133.407 97.8867 144.861 102.635C146.874 101.109 144.986 99.74 149.164 100.361C151.57 102.255 147.171 106.286 150.419 105.715C152.992 103.382 152.438 106.381 154.788 106.48C153.975 107.441 152.67 108.305 152.453 109.386C151.159 113.365 147.709 110.094 148.74 107.325C148.553 105.657 147.148 106.507 146.32 106.383C144.727 106.059 145.891 108.387 145.055 108.913C142.614 108.862 140.297 105.628 138.885 109.161C137.839 111.221 139.67 113.304 136.885 113.708C134.336 113.76 132.665 109.574 135.492 108.954C135.037 108.077 134.548 104.841 133.435 106.038C131.818 105.443 130.088 105.945 130.493 106.615C131.893 109.272 131.859 118.577 128.931 114.094C131.638 111.332 127.429 108.016 124.465 109.392C125.961 113.118 125.213 117.422 121.779 112.624C123.987 111.521 119.687 108.648 123.578 108.05C124.04 107.898 124.527 107.293 124.653 106.806C124.797 105.949 124.142 104.975 123.365 104.528C124.548 103.669 123.391 103.343 122.981 102.847C120.479 103.977 121.315 106.525 120.626 108.623C120.857 114.953 123.19 113.011 115.233 112.835C118.765 115.572 118.076 115.371 117.859 119.592C118.107 120.937 115.102 122.145 115.207 123.855C114.527 131.46 116.633 139.331 114.639 146.574C114.314 149.002 114.493 149.076 117.256 148.753C122.861 148.372 128.58 149.246 133.253 146.691C133.611 150.625 143.718 145.912 137.125 146.803C136.737 145.635 138.011 144.754 138.312 145.001C140.286 146.617 142.034 144.258 143.863 144.886C140.527 151.68 168.691 146.085 174.871 147.879C185.46 147.308 196.968 149.346 207.12 147.024C214.976 139.802 222.742 132.46 230.893 125.572C233.034 121.9 223.768 116.966 221.983 113.279C216.377 109.659 214.102 99.1975 206.914 99.6084C194.485 98.2163 181.877 99.9692 170.035 98.5488L170.062 98.5485C163.791 96.8234 163.587 102.746 169.362 99.0519C171.192 99.9479 168.976 102.425 171.509 102.313C171.463 103.205 171.42 106.199 170.181 105.008C168.715 102.608 166.555 105.93 169.351 106.289C169.575 108.152 167.223 108.979 166.483 107.134C165.563 103.915 164.606 109.82 162.657 106.608C162.469 107.787 162.271 108.96 161.214 109.738C162.973 110.365 163.296 112.354 160.887 111.645C157.29 109.424 157.856 113.093 157.767 115.58ZM173.027 241.009C172.962 248.263 172.991 255.517 173.083 262.771C166.103 260.222 166.9 251.097 166.738 244.93C167.961 223.028 167.529 200.993 167.223 179.04C165.923 173.123 170.152 155.964 165.473 153.607C163.397 154.393 158.353 152.478 158.225 155.494C156.965 184.057 158.786 212.984 156.782 241.443C145.432 231.572 152.991 214.724 150.987 201.169C149.704 194.227 156.528 143.922 144.656 154.051C132.791 151.582 140.733 159.934 134.928 169.572C131.502 178.274 126.642 186.356 123.994 195.443C122.907 199.172 123.159 202.647 123.611 206.275C121.362 209.661 117.384 207.297 118.101 203.642C118.59 185.728 135.31 170.739 134.04 153.645C127.753 153.665 120.412 153.827 113.702 153.115C103.587 150.927 110.849 129.527 109.037 121.293C109.355 118.031 106.24 119.322 104.811 120.761C88.1249 134.069 85.5465 158.835 90.6916 178.314C92.1985 183.115 94.47 187.681 96.4977 192.309C97.0157 197.44 91.9078 193.223 91.4899 190.414C86.5331 179.682 82.6561 168.311 76.7802 158.05C60.9888 135.705 27.8361 118.494 1.86347 132.96C-14.246 153.821 67.9662 183.877 74.4222 203.446C80.4774 208.885 63.3083 220.402 70.3727 210.672C64.9266 211.599 60.5675 215.435 55.67 217.802C-2.57221 243.689 -1.38682 175.59 55.6581 194.917C57.3411 195.59 58.4028 200.271 55.6611 198.308C-1.87892 185.283 10.6646 238.154 61.0609 209.378C72.4367 202.814 41.3223 209.363 41.735 204.631C43.7074 200.205 53.0718 202.595 57.5682 201.299C61.4437 200.948 64.7022 203.167 67.5511 205.495C81.2024 202.588 0.271143 161.175 -3.05881 145.966C-14.8257 117.374 36.408 122.341 50.8881 130.661C76.3577 140.509 85.4916 172.29 84.6548 156.272C84.7198 138.823 93.0606 121.152 108.467 113.478C111.126 107.27 105.922 94.7783 115.015 93.1463C123.733 91.1901 147.589 96.5251 151.538 90.0826C151.579 82.8918 151.65 75.7034 151.657 68.5151C152.452 63.4322 145.388 67.0375 142.404 65.9257C135.348 64.566 125.441 68.6433 120.176 63.0366C112.197 55.0747 102.616 48.2847 94.3168 40.531C84.779 34.8849 116.038 8.04252 121.685 6.18919C152.039 5.53376 183.641 4.69211 214.991 5.28587C224.383 7.53057 218.623 40.868 220.641 50.0156C222.464 67.0348 217.207 65.6574 202.671 65.7026C196.584 67.1258 176.254 62.8769 174.25 67.8251C176.563 73.8238 170.529 91.7549 176.709 93.5038C202.245 94.5814 208.133 88.7006 226.436 109.918C245.318 125.855 234.55 128.585 220.344 141.256C203.79 156.337 206.807 153.652 184.861 153.562C181.556 154.5 173.184 151.425 173.013 156.187C172.757 170.032 172.435 183.921 173.043 197.672C172.073 211.222 173.063 219.839 172.776 234.278C173.564 236.463 170.891 238.772 173.027 241.009Z" fill="#0A1328"/>
<path fill-rule="evenodd" clip-rule="evenodd" d="M196.663 224.934C186.8 237.636 197.679 204.655 200.261 201.692C207.252 185.925 219.687 173.706 233.236 163.41C288.523 126.348 319.395 146.225 260.629 195.056C258.507 198.237 263.192 195.985 266.804 194.743C283.714 189.508 305.297 185.553 320.373 197.226C349.328 228.853 277.036 234.767 258.254 232.243C384.654 221.102 293.845 164.019 242.077 214.845C236.168 220.946 231.652 228.15 227.066 235.2C222.747 223.533 243.924 208.627 250.77 199.431C263.104 184.991 280.06 173.876 288.608 156.587C291.06 136.057 250.051 156.811 241.993 162.147C219.698 175.719 200.763 197.933 196.663 224.934Z" fill="#0A1328"/>
<path fill-rule="evenodd" clip-rule="evenodd" d="M-3.43777 263.895C-3.11754 254.874 3.25847 267.768 6.31612 268.692C20.9148 272.753 37.6827 254.279 26.1924 241.408C23.8399 237.911 29.2341 236.444 31.0014 234.019C38.3372 243.879 38.0353 259.578 34.1613 270.642C24.9734 285.169 3.32075 276.737 -3.43777 263.895Z" fill="#1F3D84"/>
<path fill-rule="evenodd" clip-rule="evenodd" d="M318.855 308.357C307.681 310.399 307.997 329.093 303.745 327.317C295.411 321.512 291.279 301.933 299.764 296.583C305.341 298.423 309.515 300.534 314.437 303.584C315.815 305.369 319.013 305.906 318.855 308.357Z" fill="#21D6F7"/>
<path fill-rule="evenodd" clip-rule="evenodd" d="M-3.43777 263.895C3.31312 276.735 24.9804 285.172 34.1595 270.642C38.042 259.573 38.3299 243.887 31.0038 234.019C35.8825 227.851 40.1799 247.163 39.9848 251.369C45.0872 276.397 23.2492 290.962 2.65128 275.641C0.209374 273.161 -11.4302 263.236 -3.43777 263.895Z" fill="#2DDFFF"/>
<path fill-rule="evenodd" clip-rule="evenodd" d="M2.44779 257.171C6.62397 253.491 10.0419 249.354 14.5587 246.18C19.5637 247.163 14.3212 255.142 10.962 252.963C10.9568 261.862 24.4039 250.112 18.3112 244.035C20.087 242.615 22.4333 241.05 23.9893 243.626C35.5489 257.037 6.55651 276.415 2.44779 257.171Z" fill="#1F3D84"/>
<path fill-rule="evenodd" clip-rule="evenodd" d="M260.677 87.8181C273.778 86.6297 272.464 69.7125 258.339 74.1738C254.21 78.4318 251.908 87.2717 260.677 87.8181ZM264.572 69.2335C282.297 70.1786 273.755 95.9305 258.753 92.5243C242.262 90.0909 252.166 68.3454 264.572 69.2335Z" fill="#0A1328"/>
<path fill-rule="evenodd" clip-rule="evenodd" d="M2.44777 257.171C6.55709 276.417 35.551 257.034 23.9881 243.627C22.426 241.059 20.0928 242.608 18.3127 244.035C21.8499 248.901 18.4812 255.643 12.5344 256.021C10.3303 256.075 10.9583 254.46 10.9613 252.964C13.8569 253.637 15.5921 252.651 16.5341 248.808C16.8907 247.12 16.2286 246.296 14.559 246.18C16.9246 243.488 19.5011 241.168 23.292 240.708C25.1881 237.968 25.4122 238.609 26.1922 241.409C40.4648 255.522 12.2157 280.684 1.54354 263.689C-2.36217 258.673 -5.62283 261.391 2.44777 257.171Z" fill="#2DDFFF"/>
<path fill-rule="evenodd" clip-rule="evenodd" d="M65.3744 92.0871C62.8736 90.9154 62.4899 86.6431 60.602 84.961C59.808 84.4747 57.0862 86.9365 55.6932 87.1901C54.0768 87.1141 52.787 86.1507 54.0468 84.5861C64.7184 78.2428 53.6805 76.3027 58.7771 71.3548C63.2717 70.8035 62.2704 80.0729 67.4268 75.2596C75.7041 70.2342 73.2387 79.5628 66.921 80.8047C63.6646 83.5824 74.4625 91.573 65.3744 92.0871Z" fill="#0A1328"/>
<path fill-rule="evenodd" clip-rule="evenodd" d="M184.952 185.46C185.212 188.562 189.955 190.306 190.139 186.556C189.676 182.403 186.764 182.375 184.952 185.46ZM195.335 186.329C195.369 196.459 181.397 195.878 181.058 186.773C181.333 177.827 195.01 175.265 195.335 186.329Z" fill="#0A1328"/>
<path fill-rule="evenodd" clip-rule="evenodd" d="M47.3529 220.757C50.1254 219.772 52.8976 218.787 55.6701 217.802C56.9422 222.767 61.2494 227.519 59.8363 232.836C55.7333 230.89 54.972 225.42 52.7041 221.796C50.8394 218.752 49.3757 225.576 46.7121 223.315C46.8467 222.443 49.3402 222.16 47.3529 220.757Z" fill="#2DDFFF"/>
<path fill-rule="evenodd" clip-rule="evenodd" d="M173.028 241.009C170.733 237.967 173.666 233.892 173.968 239.425C177.593 239.391 179.979 236.352 183.126 234.643C182.326 237.092 179.086 236.994 178.717 239.749C176.902 240.133 174.791 239.876 173.028 241.009Z" fill="#2DDFFF"/>
<path fill-rule="evenodd" clip-rule="evenodd" d="M45.5541 226.095C40.0218 227.569 48.5302 220.279 45.5147 226.134L45.5541 226.095Z" fill="#2DDFFF"/>
<path fill-rule="evenodd" clip-rule="evenodd" d="M185.846 232.898C185.342 233.581 185.66 234.134 186.038 234.774C183.07 235.461 182.796 232.57 185.846 232.898Z" fill="#2DDFFF"/>
<path fill-rule="evenodd" clip-rule="evenodd" d="M189.073 230.554C188.574 232.064 187.739 233.114 185.941 232.848C186.985 232.083 188.029 231.319 189.073 230.554Z" fill="#2DDFFF"/>
<path fill-rule="evenodd" clip-rule="evenodd" d="M172.875 220.593C171.776 218.842 172.428 217.054 172.761 215.274C172.799 217.048 172.837 218.821 172.875 220.593Z" fill="#2DDFFF"/>
<path fill-rule="evenodd" clip-rule="evenodd" d="M172.752 213.802C171.01 213.97 171.225 213.723 172.405 212.668C173.249 211.863 172.725 213.255 172.752 213.802Z" fill="#2DDFFF"/>
<path fill-rule="evenodd" clip-rule="evenodd" d="M172.741 228.469C172.808 227.539 172.875 226.61 172.942 225.683C174.092 226.701 173.301 227.577 172.741 228.469Z" fill="#2DDFFF"/>
<path fill-rule="evenodd" clip-rule="evenodd" d="M172.855 193.08C172.846 191.851 172.837 190.621 172.828 189.394C172.837 190.624 172.846 191.852 172.855 193.08Z" fill="#2DDFFF"/>
<path fill-rule="evenodd" clip-rule="evenodd" d="M192.486 227.384C193.251 228.282 191.466 228.227 190.873 228.613C191.411 228.203 191.949 227.793 192.486 227.384Z" fill="#2DDFFF"/>
<path fill-rule="evenodd" clip-rule="evenodd" d="M172.598 210.171C172.697 209.183 172.797 208.195 172.896 207.208C172.796 208.196 172.697 209.184 172.598 210.171Z" fill="#2DDFFF"/>
<path fill-rule="evenodd" clip-rule="evenodd" d="M30.2109 234.808C29.8509 235.123 29.4913 235.439 29.1323 235.753C29.4922 235.437 29.8516 235.122 30.2109 234.808Z" fill="#2DDFFF"/>
<path fill-rule="evenodd" clip-rule="evenodd" d="M190.37 229.38C189.94 229.767 189.511 230.153 189.081 230.54C188.886 229.459 189.478 229.253 190.37 229.38Z" fill="#2DDFFF"/>
<path fill-rule="evenodd" clip-rule="evenodd" d="M268.779 233.178C269.624 233.108 270.468 233.037 271.313 232.966C270.469 233.037 269.624 233.108 268.779 233.178Z" fill="#2C6B95"/>
<path fill-rule="evenodd" clip-rule="evenodd" d="M172.985 223.584C172.862 223.4 172.636 223.251 172.935 223.134C173.27 223.308 173.363 223.387 172.985 223.584Z" fill="#2DDFFF"/>
<path fill-rule="evenodd" clip-rule="evenodd" d="M172.776 201.451C172.789 201.088 172.801 200.726 172.813 200.364C172.8 200.727 172.788 201.089 172.776 201.451Z" fill="#2DDFFF"/>
<path fill-rule="evenodd" clip-rule="evenodd" d="M172.719 195.439C172.774 195.08 172.828 194.722 172.883 194.365C172.828 194.724 172.774 195.081 172.719 195.439Z" fill="#2DDFFF"/>
<path fill-rule="evenodd" clip-rule="evenodd" d="M192.531 224.47C192.499 224.77 192.466 225.07 192.434 225.368C192.466 225.067 192.499 224.768 192.531 224.47Z" fill="#2DDFFF"/>
<path fill-rule="evenodd" clip-rule="evenodd" d="M172.88 232.766C172.922 232.478 172.965 232.19 173.008 231.906C172.966 232.195 172.923 232.48 172.88 232.766Z" fill="#2DDFFF"/>
<path fill-rule="evenodd" clip-rule="evenodd" d="M172.853 234.651C172.66 234.551 172.637 234.442 172.776 234.277C172.972 234.38 172.993 234.479 172.853 234.651Z" fill="#2DDFFF"/>
<path fill-rule="evenodd" clip-rule="evenodd" d="M173.064 197.856C172.916 197.782 172.88 197.762 173.043 197.671C173.163 197.738 173.185 197.768 173.064 197.856Z" fill="#2DDFFF"/>
<path fill-rule="evenodd" clip-rule="evenodd" d="M172.882 205.92C172.667 205.855 172.664 205.757 172.779 205.585C172.981 205.663 173.007 205.744 172.882 205.92Z" fill="#2DDFFF"/>
<path fill-rule="evenodd" clip-rule="evenodd" d="M144.615 302.515C146.645 322.91 168.811 300.912 156.703 291.319C150.382 287.302 140.685 289.362 136.066 295.371C124.118 315.172 149.714 326.384 163.076 311.558C165 324.071 144.977 323.361 136.627 320.743C120.205 308.131 134.71 280.749 154.511 286.648C172.488 291.126 161.355 323.557 145.093 312.995C135.213 305.688 147.499 282.569 154.96 298.236C158.084 303.059 148.391 307.946 151.03 301.844C157.749 297.233 144.628 290.429 144.615 302.515Z" fill="#2DDFFF"/>
<path fill-rule="evenodd" clip-rule="evenodd" d="M90.6923 222.439C94.2912 239.148 112.225 206.854 88.5496 211.088C80.4335 213.994 81.6021 229.327 86.913 233.93C95.3463 241.449 111.704 234.897 110.604 222.903C114.401 218.246 114.638 233.632 110.416 235.392C95.2107 251.177 71.746 235.766 79.9713 214.931C85.5701 200.208 111.455 209.232 103.301 224.252C101.248 230.308 90.7574 235.095 88.0154 228.002C87.6234 223.196 85.02 215.244 91.1765 213.298C96.0243 212.784 101.088 217.474 96.8156 221.274C92.8616 225.384 88.3219 218.534 95.2764 217.245C90.591 215.375 89.8873 218.436 90.6923 222.439Z" fill="#2DDFFF"/>
<path fill-rule="evenodd" clip-rule="evenodd" d="M79.6114 281.652C77.4024 283.686 76.6249 292.052 80.5462 289.733C86.7143 284.231 79.4197 274.991 72.9485 279.526C59.1582 301.426 103.793 296.66 86.7116 277.275C66.6982 263.764 48.0422 300.467 77.4876 299.178C78.97 297.54 71.1269 296.503 70.2208 294.122C61.9035 283.926 76.4295 268.45 84.2651 281.477C88.7029 296.698 67.3875 293.265 79.6114 281.652ZM77.0856 302.839C48.1484 304.539 55.5349 269.511 79.8538 271.034C102.59 272.078 94.0458 301.57 77.0856 302.839Z" fill="#2DDFFF"/>
<path fill-rule="evenodd" clip-rule="evenodd" d="M144.547 225.017C153.49 231.771 145.941 233.825 140.031 238.136C129.308 249.483 141.49 267.201 156.04 263.099C165.92 259.058 179.043 257.648 161.637 266.018C141.331 273.464 123.079 252.108 138.533 235.142C143.869 230.187 147.678 232.946 144.547 225.017Z" fill="#2DDFFF"/>
<path fill-rule="evenodd" clip-rule="evenodd" d="M102.804 196.928C102.995 191.681 106.757 155.747 112.557 162.175C110.596 174.225 108.238 186.344 108.488 198.645C106.434 201.431 102.286 200.822 102.804 196.928Z" fill="#0A1328"/>
<path fill-rule="evenodd" clip-rule="evenodd" d="M116.607 259.427C118.761 260.41 127.87 260.309 125.257 265.143C119.972 266.993 96.3795 259.538 116.607 259.427Z" fill="#2DDFFF"/>
<path fill-rule="evenodd" clip-rule="evenodd" d="M184.219 305.799C183.624 309.097 181.234 322.903 177.962 313.099C177.435 308.33 183.728 294.515 184.219 305.799Z" fill="#2DDFFF"/>
<path fill-rule="evenodd" clip-rule="evenodd" d="M59.5843 257.582C56.5028 248.87 63.4033 251.277 63.9012 258.447C65.1562 263.393 58.1919 261.49 59.5843 257.582Z" fill="#2DDFFF"/>
<path fill-rule="evenodd" clip-rule="evenodd" d="M90.6924 222.439C89.8871 218.432 90.5932 215.378 95.2765 217.245C90.0837 218.192 93.167 220.825 90.6924 222.439Z" fill="#2C6B95"/>
<path fill-rule="evenodd" clip-rule="evenodd" d="M50.7065 259.481C48.9102 261.214 48.5958 260.429 47.1399 259.321C48.4566 257.567 48.9795 258.158 50.7065 259.481Z" fill="#2DDFFF"/>
<path fill-rule="evenodd" clip-rule="evenodd" d="M83.8516 248.058C83.401 247.316 83.2331 247.04 83.0649 246.763C85.0871 246.592 82.3384 243.91 84.4582 244.026C86.9718 245.114 85.8005 246.549 83.8516 248.058Z" fill="#2C6B95"/>
<path fill-rule="evenodd" clip-rule="evenodd" d="M100.25 280.363C101.549 280.887 103.057 280.649 103.791 281.644C102.279 283.224 98.8995 282.904 100.25 280.363Z" fill="#2C6B95"/>
<path fill-rule="evenodd" clip-rule="evenodd" d="M118.425 210.148C116.553 211.498 116.129 210.201 114.753 209.258C116.377 207.022 116.795 208.767 118.425 210.148Z" fill="#2C6B95"/>
<path fill-rule="evenodd" clip-rule="evenodd" d="M124.739 208.026C124.62 207.791 124.501 207.555 124.382 207.319C127.685 207.936 125.049 208.809 127.069 210.087C126.288 209.398 125.514 208.712 124.739 208.026Z" fill="#0A1328"/>
<path fill-rule="evenodd" clip-rule="evenodd" d="M68.4609 230.694C69.9958 231.718 69.9762 232.471 68.5176 233.204C66.8636 232.838 67.2544 231.839 68.4609 230.694Z" fill="#2C6B95"/>
<path fill-rule="evenodd" clip-rule="evenodd" d="M69.8217 239.517C70.8038 240.389 71.3255 240.829 70.1084 241.798C68.9215 240.844 68.1012 240.56 69.8217 239.517Z" fill="#2C6B95"/>
<path fill-rule="evenodd" clip-rule="evenodd" d="M45.5147 226.134C45.5904 226.188 45.666 226.241 45.7414 226.295C45.6624 226.244 45.5897 226.05 45.5147 226.134Z" fill="#2DDFFF"/>
<path fill-rule="evenodd" clip-rule="evenodd" d="M272.144 295.475C300.636 294.497 293.006 287.707 293.289 312.628C293.154 323.582 302.236 326.387 305.61 333.929C303.92 337.536 311.171 351.227 306.092 349.552C295.308 349.97 294.967 349.455 288.892 340.665C287.819 338.818 282.916 338.6 284.641 335.751C291.299 328.006 286.983 319.646 283.782 311.999C284.139 304.147 274.541 300.122 272.144 295.475Z" fill="#21D6F7"/>
<path fill-rule="evenodd" clip-rule="evenodd" d="M258.905 307.933C262.166 282.871 288.451 313.44 277.934 311.228C273.022 307.057 257.26 314.329 258.905 307.933Z" fill="#21D6F7"/>
<path fill-rule="evenodd" clip-rule="evenodd" d="M271.645 296.039C271.419 295.793 271.191 295.548 270.965 295.303C271.677 295.443 272.514 295.297 271.645 296.039Z" fill="#21D6F7"/>
<path fill-rule="evenodd" clip-rule="evenodd" d="M168.315 258.332C152.359 270.919 125.435 258.235 140.032 238.135C143.558 235.965 150.055 228.866 151.807 235.78C141.61 235.809 141.835 248.995 149.589 252.437C157.16 256.977 167.123 244.766 168.315 258.332Z" fill="#1F3D84"/>
<path fill-rule="evenodd" clip-rule="evenodd" d="M162.694 250.534C151.035 262.496 133.055 238.696 151.808 235.779C157.626 240.474 147.218 236.746 146.758 241.477C147.599 260.284 165.269 240.599 162.694 250.534Z" fill="#2DDFFF"/>
<path fill-rule="evenodd" clip-rule="evenodd" d="M153.687 241.537C153.485 241.69 153.489 241.783 153.699 241.923C153.804 241.751 153.954 241.596 153.687 241.537ZM160.969 246.934C155.878 252.984 145.581 249.8 146.758 241.476C147.365 236.337 159.958 238.691 155.174 242.555C151.01 245.052 161.45 242.356 160.969 246.934Z" fill="#1F3D84"/>
<path fill-rule="evenodd" clip-rule="evenodd" d="M121.505 52.0066C120.939 49.6545 117.816 47.8653 121.611 47.2373C119.429 49.8523 123.593 48.7139 124.538 50.6851C127.049 48.1611 127.036 51.9282 128.41 52.2487C129.429 53.3529 124.356 55.0072 127.867 56.4841C131.583 58.227 127.458 58.3259 126.123 60.0394C125.342 60.268 124.153 59.9451 124.878 59.05C125.521 58.7352 126.405 58.5866 125.61 57.6417C125.118 57.0568 124.533 56.5568 123.649 57.3304C121.342 59.55 118.502 56.4179 117.744 53.9879C121.149 55.7448 127.452 50.8957 121.505 52.0066Z" fill="#2DDFFF"/>
<path fill-rule="evenodd" clip-rule="evenodd" d="M175.62 24.1476C174.207 24.9774 168.188 27.5228 170.295 24.1663C171.816 23.5887 171.429 22.9598 170.607 22.0128C164.321 14.4258 171.265 17.6578 165.956 11.3767C170.897 8.95952 166.66 14.9994 170.229 16.056C174.916 19.4961 168.259 19.7642 175.62 24.1476Z" fill="#2C6B95"/>
<path fill-rule="evenodd" clip-rule="evenodd" d="M154.788 106.479C154.401 106.449 153.844 106.569 153.661 106.361C152.403 103.201 151.416 106.145 149.035 105.712C151.219 99.7943 145.779 96.6292 155.734 98.1345C155.84 98.1385 157.009 98.5479 155.883 99.243C152.392 100.939 156.562 104.095 154.788 106.479Z" fill="#2DDFFF"/>
<path fill-rule="evenodd" clip-rule="evenodd" d="M176.86 102.684C176.179 101.233 176.441 98.6911 174.268 99.0761C175.598 97.8202 177.187 99.7208 178.687 99.5944C181.829 98.8633 185.103 98.4252 188.347 99.2086C179.904 99.3316 188.432 104.189 178.662 103.422C179.543 101.789 177.879 102.566 176.86 102.684Z" fill="#2DDFFF"/>
<path fill-rule="evenodd" clip-rule="evenodd" d="M135.343 52.4396C136.585 51.2606 137.774 53.1756 138.621 52.6719C139.315 52.1441 141.755 47.6107 141.264 50.643C139.865 58.6056 138.631 53.7849 134.319 57.0792C132.285 57.6156 135.175 53.6405 135.343 52.4396Z" fill="#21D6F7"/>
<path fill-rule="evenodd" clip-rule="evenodd" d="M162.694 250.534C162.391 247.52 164.462 246.379 166.739 244.929C166.454 249.614 168.604 255.113 162.694 250.534Z" fill="#2C6B95"/>
<path fill-rule="evenodd" clip-rule="evenodd" d="M161.097 112.441C156.997 111.022 160.757 111.512 162.929 111.651C162.364 111.023 162.198 109.707 161.215 109.737C163.011 108.64 161.891 105.303 164.041 107.868C162.748 111.59 168.652 110.116 167.908 113.055C165.006 111.222 164.346 115.14 161.097 112.441Z" fill="#2C6B95"/>
<path fill-rule="evenodd" clip-rule="evenodd" d="M115.835 142.578C120.055 140.741 119.525 147.93 116.149 148.092C114.913 148.396 116.767 148.561 117.26 148.751C112.361 150.014 115.267 144.941 115.835 142.578Z" fill="#2C6B95"/>
<path fill-rule="evenodd" clip-rule="evenodd" d="M144.422 143.069C145.602 141.289 147.933 143.115 148.599 140.69C149.933 143.909 145.44 145.195 146.435 148.07C141.655 148.265 143.774 146.208 144.422 143.069Z" fill="#2DDFFF"/>
<path fill-rule="evenodd" clip-rule="evenodd" d="M121.817 112.657C119.461 110.45 120.361 104.635 122.98 102.847C123.391 103.343 124.548 103.668 123.365 104.528C124.779 105.252 125.209 107.396 123.577 108.049C119.666 108.644 124.015 111.524 121.78 112.624C121.781 112.624 121.817 112.657 121.817 112.657Z" fill="#2DDFFF"/>
<path fill-rule="evenodd" clip-rule="evenodd" d="M111.286 48.012C104.303 44.6564 110.108 46.6947 106.712 41.5578C107.918 41.1079 110.63 42.6617 110.259 44.2482C110.413 45.263 113.327 46.7903 111.286 48.012Z" fill="#2DDFFF"/>
<path fill-rule="evenodd" clip-rule="evenodd" d="M150.042 111.891C148.321 109.725 152.323 112.617 152.453 109.385C152.67 108.304 153.975 107.441 154.788 106.479C155.226 106.712 158.512 109.395 155.908 108.938C152.266 109.246 155.601 111.606 155.179 113.173C152.993 112.017 153.103 110.815 150.042 111.891Z" fill="#2DDFFF"/>
<path fill-rule="evenodd" clip-rule="evenodd" d="M106.003 33.4167C105.587 31.9847 104.722 30.5832 104.58 29.1218C109.13 28.6398 112.331 32.9771 106.003 33.4167Z" fill="#2DDFFF"/>
<path fill-rule="evenodd" clip-rule="evenodd" d="M154.766 10.7038C157.256 13.0447 154.849 16.4189 153.997 14.2328C153.174 11.4829 151.984 9.66372 150.023 12.8203C149.888 9.48452 152.584 10.5029 154.766 10.7038Z" fill="#2C6B95"/>
<path fill-rule="evenodd" clip-rule="evenodd" d="M140.657 11.2524C138.434 12.7635 141.097 13.6805 141.285 15.1968C140.181 16.8972 133.057 9.403 140.657 11.2524Z" fill="#2C6B95"/>
<path fill-rule="evenodd" clip-rule="evenodd" d="M118.37 13.745C120.383 12.0654 121.333 13.6488 120.998 15.8709C118.333 17.898 113.551 14.1809 118.37 13.745Z" fill="#2C6B95"/>
<path fill-rule="evenodd" clip-rule="evenodd" d="M146.376 100.303C146.461 97.3875 144.086 98.1056 142.491 97.6714C145.916 94.7487 153.118 100.927 146.376 100.303Z" fill="#2C6B95"/>
<path fill-rule="evenodd" clip-rule="evenodd" d="M138.262 102.048C141.29 104.223 136.781 105.216 135.409 104.815C134.586 103.473 137.407 100.404 138.262 102.048Z" fill="#2DDFFF"/>
<path fill-rule="evenodd" clip-rule="evenodd" d="M149.853 121.081C144.993 122.584 149.704 116.383 147.978 116.216C149.284 114.438 149.856 116.976 150.904 116.712C156.765 117.113 145.482 117.911 149.853 121.081Z" fill="#2DDFFF"/>
<path fill-rule="evenodd" clip-rule="evenodd" d="M98.0223 35.6279C99.7459 34.0499 100.879 31.4663 103.078 30.6104C102.442 32.6902 100.576 37.4137 98.0223 35.6279Z" fill="#2C6B95"/>
<path fill-rule="evenodd" clip-rule="evenodd" d="M124.021 115.166C125.634 119.826 122.944 115.267 120.737 115.132C118.256 114.799 120.699 112.871 121.817 112.656C122.379 113.322 123.328 114.369 124.021 115.166Z" fill="#21D6F7"/>
<path fill-rule="evenodd" clip-rule="evenodd" d="M121.566 58.3479C122.968 58.0613 124.584 55.9625 125.61 57.6418C126.405 58.5863 125.521 58.735 124.878 59.0497C124.53 61.0398 121.995 59.9683 121.566 58.3479Z" fill="#2C6B95"/>
<path fill-rule="evenodd" clip-rule="evenodd" d="M98.0223 35.6279C100.357 35.5744 102.026 40.6857 98.8676 38.7023C99.3111 37.4552 95.7333 37.2974 98.0223 35.6279Z" fill="#2DDFFF"/>
<path fill-rule="evenodd" clip-rule="evenodd" d="M170.062 98.5475C168.448 99.63 165.578 101.887 164.713 98.8882C166.387 98.0264 168.265 98.5746 170.062 98.5475Z" fill="#2DDFFF"/>
<path fill-rule="evenodd" clip-rule="evenodd" d="M120.108 113.444C119.727 114.226 119.198 115.063 120.736 115.133C115.758 116.16 113.419 111.071 120.108 113.444Z" fill="#2DDFFF"/>
<path fill-rule="evenodd" clip-rule="evenodd" d="M117.408 48.5474C118.343 51.5101 113.616 49.8344 111.83 49.5224C113.01 47.9026 115.617 48.9305 117.408 48.5474Z" fill="#2C6B95"/>
<path fill-rule="evenodd" clip-rule="evenodd" d="M133.55 110.134C132.998 106.261 134.122 104.089 135.492 108.952C135.546 109.177 134.232 109.732 133.55 110.134Z" fill="#2C6B95"/>
<path fill-rule="evenodd" clip-rule="evenodd" d="M128.721 116.842C128.692 113.705 132.946 115.118 133.247 117.385C131.92 118.702 130.252 117.146 128.721 116.842Z" fill="#2DDFFF"/>
<path fill-rule="evenodd" clip-rule="evenodd" d="M119.769 54.0607C118.443 54.1316 117.293 53.9279 116.246 53.0689C117.901 50.9637 120.828 50.7012 119.769 54.0607Z" fill="#21D6F7"/>
<path fill-rule="evenodd" clip-rule="evenodd" d="M152.797 117.475C151.708 116.368 152.534 114.799 153.661 116.326C156.907 118.147 153.766 121.541 152.797 117.475Z" fill="#21D6F7"/>
<path fill-rule="evenodd" clip-rule="evenodd" d="M115.199 133.998C116.274 132.309 118.188 132.612 118.773 134.124C118.779 135.177 117.878 135.393 116.787 135.077C115.333 135.517 115.029 136.072 115.199 133.998Z" fill="#2C6B95"/>
<path fill-rule="evenodd" clip-rule="evenodd" d="M106.003 33.4162C108.214 32.6296 109.337 32.8014 109.046 35.0883C107.658 35.9363 105.442 35.5208 106.003 33.4162Z" fill="#2C6B95"/>
<path fill-rule="evenodd" clip-rule="evenodd" d="M116.143 107.968C117.165 108.98 117.156 110.278 116.893 111.606C115.025 111.229 113.94 108.844 116.143 107.968Z" fill="#21D6F7"/>
<path fill-rule="evenodd" clip-rule="evenodd" d="M110.884 38.0691C109.491 36.895 108.129 36.9689 108.985 35.1552C109.5 35.2816 110.208 35.8048 110.094 34.6216C111.144 36.3638 115.647 38.1613 110.884 38.0691Z" fill="#2C6B95"/>
<path fill-rule="evenodd" clip-rule="evenodd" d="M133.603 57.251C131.197 59.927 134.041 59.4319 136.215 59.9087C132.561 60.7299 129.126 58.4138 133.603 57.251Z" fill="#21D6F7"/>
<path fill-rule="evenodd" clip-rule="evenodd" d="M118.061 97.2318C117.26 98.6919 114.498 99.8355 115.092 97.2385C115.988 97.1814 118.016 95.8926 118.061 97.2318Z" fill="#2DDFFF"/>
<path fill-rule="evenodd" clip-rule="evenodd" d="M155.396 104.627C154.207 100.754 159.816 105.958 155.247 106.675C155.495 106.112 155.304 105.28 155.396 104.627Z" fill="#1F3D84"/>
<path fill-rule="evenodd" clip-rule="evenodd" d="M141.377 97.5702C139 97.5931 136.977 98.5687 134.651 98.2222C135.125 96.4877 139.549 97.8037 141.377 97.5702Z" fill="#2C6B95"/>
<path fill-rule="evenodd" clip-rule="evenodd" d="M170.944 105.426C171.178 107.124 169.825 105.898 169.351 106.29C166.373 105.338 168.472 102.776 170.944 105.426Z" fill="#21D6F7"/>
<path fill-rule="evenodd" clip-rule="evenodd" d="M160.859 103.84C159.413 102.052 158.565 101.426 160.83 100.576C162.173 101.246 161.393 102.359 160.859 103.84Z" fill="#2DDFFF"/>
<path fill-rule="evenodd" clip-rule="evenodd" d="M134.144 49.5912C133.939 48.3252 133.488 47.4692 135.308 47.5293C135.043 48.432 135.508 50.0375 134.144 49.5912Z" fill="#21D6F7"/>
<path fill-rule="evenodd" clip-rule="evenodd" d="M151.101 153.998C149.27 153.901 147.439 153.804 145.607 153.707C146.452 152.913 147.142 151.996 148.438 153.333C148.979 153.891 150.193 153.796 151.101 153.998Z" fill="#1F3D84"/>
<path fill-rule="evenodd" clip-rule="evenodd" d="M150.904 116.712C149.855 116.975 149.283 114.437 147.979 116.215C146.347 114.64 147.697 114.515 149.095 115.124C151.065 114.156 151.127 115.248 150.904 116.712Z" fill="#21D6F7"/>
<path fill-rule="evenodd" clip-rule="evenodd" d="M144.422 143.07C144.257 143.471 144.344 145.505 143.864 144.886C141.642 144.477 143.118 141.588 144.422 143.07Z" fill="#21D6F7"/>
<path fill-rule="evenodd" clip-rule="evenodd" d="M133.252 116.988C132.367 116.05 131.542 115.071 131.159 113.818C133.6 114.406 133.6 114.406 133.252 116.988Z" fill="#2C6B95"/>
<path fill-rule="evenodd" clip-rule="evenodd" d="M137.319 147.756C136.649 146.302 138.391 146.844 139.37 146.685C139.979 147.935 138.16 147.538 137.319 147.756Z" fill="#2DDFFF"/>
<path fill-rule="evenodd" clip-rule="evenodd" d="M138.262 102.048C137.192 101.387 137.661 100.327 137.753 99.2759C138.521 100.25 139.269 100.959 138.262 102.048Z" fill="#2C6B95"/>
<path fill-rule="evenodd" clip-rule="evenodd" d="M117.173 46.168C118.055 46.5673 118.908 46.9739 117.658 47.9517C116.959 47.5032 115.546 47.249 117.173 46.168Z" fill="#2C6B95"/>
<path fill-rule="evenodd" clip-rule="evenodd" d="M157.716 115.621C158.082 116.343 159.036 117.022 157.832 117.325C157.81 116.885 156.849 115.131 157.716 115.621Z" fill="#2DDFFF"/>
<path fill-rule="evenodd" clip-rule="evenodd" d="M173.523 99.1998C172.36 98.9827 171.198 98.7654 170.035 98.5483L173.523 99.1998Z" fill="#2DDFFF"/>
<path fill-rule="evenodd" clip-rule="evenodd" d="M157.945 112.841C157.886 113.754 157.825 114.668 157.766 115.58C157.827 114.666 157.886 113.754 157.945 112.841Z" fill="#2DDFFF"/>
<path fill-rule="evenodd" clip-rule="evenodd" d="M159.578 110.95C159.146 111.745 158.94 111.942 158.377 111.127C158.778 111.068 159.178 111.009 159.578 110.95Z" fill="#2DDFFF"/>
<path fill-rule="evenodd" clip-rule="evenodd" d="M115.292 136.422C115.26 137.045 115.227 137.668 115.195 138.29C115.227 137.667 115.26 137.045 115.292 136.422Z" fill="#2C6B95"/>
<path fill-rule="evenodd" clip-rule="evenodd" d="M151.286 157.088C151.276 156.55 151.267 156.012 151.257 155.475C151.267 156.013 151.276 156.551 151.286 157.088Z" fill="#1F3D84"/>
<path fill-rule="evenodd" clip-rule="evenodd" d="M118.9 12C118.674 12.3966 118.448 12.7931 118.223 13.1894C118.449 12.7928 118.674 12.3962 118.9 12Z" fill="#2C6B95"/>
<path fill-rule="evenodd" clip-rule="evenodd" d="M143.781 153.78C143.376 153.844 142.972 153.908 142.568 153.972C142.972 153.908 143.377 153.844 143.781 153.78Z" fill="#1F3D84"/>
<path fill-rule="evenodd" clip-rule="evenodd" d="M133.404 57.0986C133.159 57.0766 132.913 57.0546 132.666 57.0327C133.023 56.8696 133.997 56.3919 133.404 57.0986Z" fill="#2C6B95"/>
<path fill-rule="evenodd" clip-rule="evenodd" d="M137.85 59.9346C137.928 59.9446 138.006 59.9546 138.082 59.964C137.977 60.0665 137.923 60.064 137.85 59.9346Z" fill="#21D6F7"/>
<path fill-rule="evenodd" clip-rule="evenodd" d="M154.584 102.696C154.411 102.522 154.188 102.408 154.517 102.28C154.654 102.392 154.684 102.546 154.584 102.696Z" fill="#1F3D84"/>
<path fill-rule="evenodd" clip-rule="evenodd" d="M144.655 154.051C144.655 154.052 144.653 154.053 144.652 154.054L144.655 154.051Z" fill="#1F3D84"/>
<path fill-rule="evenodd" clip-rule="evenodd" d="M47.1293 157.397C65.5427 162.933 78.701 179.15 81.9101 196.771C74.5948 192.892 73.4658 178.619 64.9263 173.654C60.792 170.346 55.9311 167.354 53.0908 162.879C50.4745 162.757 41.8334 159.32 47.1293 157.397Z" fill="#0A1328"/>
<path fill-rule="evenodd" clip-rule="evenodd" d="M79.6115 281.652C67.3824 293.285 88.7145 296.676 84.2633 281.476C76.4271 268.449 61.9027 283.931 70.2208 294.123C71.1211 296.523 78.974 297.516 77.488 299.177C48.0324 300.461 66.712 263.762 86.7131 277.276C103.787 296.679 59.157 301.409 72.9485 279.524C79.4216 274.998 86.7149 284.226 80.5456 289.732C76.6313 292.048 77.3955 283.694 79.6115 281.652Z" fill="#1F3D84"/>
<path fill-rule="evenodd" clip-rule="evenodd" d="M238.911 186.919C228.819 198.447 219.325 210.024 211.3 223.11C197.251 231.316 233.92 180.576 238.911 186.919Z" fill="#0A1328"/>
<path fill-rule="evenodd" clip-rule="evenodd" d="M251.926 226.262C252.275 219.653 291.203 202.817 285.13 213.046C273.125 215.235 263.172 221.373 251.926 226.262Z" fill="#0A1328"/>
<path fill-rule="evenodd" clip-rule="evenodd" d="M137.705 37.9476C136.747 40.9646 134.901 35.9312 134.376 34.6976C136.073 33.5189 135.763 32.8665 133.859 32.5997C132.421 32.3979 130.77 31.6177 130.344 34.0251C130.612 35.788 127.785 38.6036 127.862 35.7484C130.1 34.2607 127.856 33.8694 127.25 33.0909C129.122 31.5105 126.909 30.1252 126.098 28.1735C122.904 24.8494 128.81 28.4989 129.975 26.4924C132.688 25.5717 138.566 24.2797 132.464 27.7046C132.922 28.5634 133.389 29.4184 133.835 30.2839C134.691 32.1443 138.542 27.3526 137.087 34.5678C136.374 35.8619 137.052 36.9026 137.705 37.9476Z" fill="#2C6B95"/>
<path fill-rule="evenodd" clip-rule="evenodd" d="M123.023 40.0421C120.573 39.4771 119.959 37.7031 119.053 35.6526C117.819 34.9822 115.559 34.3976 118.995 33.577C119.988 32.0158 118.199 29.6615 118.024 27.8912C118.851 27.3777 120.564 29.1657 120.701 26.8594C120.589 30.5776 122.167 33.9259 125.995 35.6239C124.085 38.8241 123.282 36.1883 121.071 36.7339C121.43 38.4724 122.436 37.8921 123.683 37.5798C125.136 39.4298 125.89 39.5845 123.023 40.0421Z" fill="#2C6B95"/>
<path fill-rule="evenodd" clip-rule="evenodd" d="M120.701 26.859C120.564 29.1654 118.85 27.3774 118.023 27.8906C115.737 29.9054 115.69 25.3785 115.671 23.9299C115.803 23.1234 114.846 20.8173 117.165 22.7491C117.221 18.1492 123.88 15.9567 120.817 21.8311C119.846 23.8493 118.23 25.4093 120.701 26.859Z" fill="#0A1328"/>
<path fill-rule="evenodd" clip-rule="evenodd" d="M121.611 47.2372C117.67 49.3897 121.352 44.9608 119.138 42.872C118.662 41.0584 121.944 40.9189 123.069 39.9829C121.846 50.2362 126.993 36.0223 126.198 44.1927C124.148 44.824 123.929 47.2088 121.611 47.2372Z" fill="#2C6B95"/>
<path fill-rule="evenodd" clip-rule="evenodd" d="M142.28 27.3037C141.159 27.5241 141.045 26.9166 140.989 25.9769C140.919 24.8022 141.716 25.5477 142.056 25.3362C143.341 24.5363 144.568 23.6428 145.813 22.7847C154.23 24.304 145.941 26.0258 142.28 27.3037Z" fill="#2C6B95"/>
<path fill-rule="evenodd" clip-rule="evenodd" d="M133.871 21.0627C133.524 22.9517 135.507 22.9886 135.723 24.4042C132.978 27.0372 125.413 22.1983 130.792 19.8623C131.43 21.2568 132.467 21.6314 133.871 21.0627Z" fill="#2C6B95"/>
<path fill-rule="evenodd" clip-rule="evenodd" d="M133.871 21.0623C132.069 22.1687 129.455 19.6779 131.992 18.7731C128.387 18.3161 129.014 12.6098 132.872 16.4472C133.244 19.1538 135.454 19.0649 133.871 21.0623Z" fill="#0A1328"/>
<path fill-rule="evenodd" clip-rule="evenodd" d="M162.568 30.9918C162.115 30.134 162.004 28.9886 162.993 28.5786C165.394 27.5886 164.195 24.8668 167.78 26.5275C167.261 27.842 165.09 27.7501 166.354 29.0707C165.892 29.6034 165.58 30.2271 165.271 30.8557C164.686 32.4004 159.848 33.6242 162.568 30.9918Z" fill="#0A1328"/>
<path fill-rule="evenodd" clip-rule="evenodd" d="M140.776 37.1843C138.833 38.6381 138.845 37.2036 138.891 35.1378C139.213 34.6109 137.258 32.7829 139.824 33.4881C139.854 32.8992 140.507 32.1735 141.302 32.1396C141.376 34.2509 144.765 34.0873 144.33 36.5475C143.03 36.115 141.719 35.6271 140.776 37.1843Z" fill="#2C6B95"/>
<path fill-rule="evenodd" clip-rule="evenodd" d="M147.751 51.8066C149.133 52.5772 153.458 52.7963 151.924 54.2708C149.773 53.17 139.684 57.0107 147.751 51.8066Z" fill="#21D6F7"/>
<path fill-rule="evenodd" clip-rule="evenodd" d="M133.913 29.0625C134.596 29.8126 134.924 28.3399 134.124 28.1427C133.629 28.1913 133.695 28.7096 133.913 29.0625ZM135.745 30.0706C134.137 32.3192 133.345 29.1062 132.464 27.7037C134.621 26.6408 136.514 24.3539 137.874 27.7413C136.796 28.7078 134.068 28.1818 135.745 30.0706Z" fill="#21D6F7"/>
<path fill-rule="evenodd" clip-rule="evenodd" d="M148.569 23.3358C144.374 22.902 147.559 22.5574 146.949 19.6508C146.657 18.9029 147.218 17.8231 147.393 16.8936C149.397 17.0578 149.748 21.5518 148.569 23.3358Z" fill="#21D6F7"/>
<path fill-rule="evenodd" clip-rule="evenodd" d="M175.62 24.1476C174.642 23.0578 177.699 22.7357 178.487 22.5449C177.757 24.0588 178.19 27.0456 179.81 24.7185C180.112 24.2407 180.123 23.3228 180.898 24.184C181.582 28.224 176.698 26.9195 175.62 24.1476Z" fill="#2DDFFF"/>
<path fill-rule="evenodd" clip-rule="evenodd" d="M156.333 37.6374C154.943 36.6089 150.079 33.0661 153.314 32.2153C154.983 34.0916 157.335 34.4271 156.333 37.6374Z" fill="#21D6F7"/>
<path fill-rule="evenodd" clip-rule="evenodd" d="M160.882 32.6408C158.53 35.2586 159.869 30.3238 155.001 30.822C155.421 29.3255 157.813 29.4211 158.894 29.6397C160.794 30.2344 158.569 33.1281 160.925 32.6863L160.882 32.6408Z" fill="#21D6F7"/>
<path fill-rule="evenodd" clip-rule="evenodd" d="M140.777 37.1847C141.325 35.0395 146.678 36.7479 144.576 37.8502C140.425 40.6066 141.299 41.3496 140.777 37.1847Z" fill="#2DDFFF"/>
<path fill-rule="evenodd" clip-rule="evenodd" d="M164.394 26.1684C165.246 28.3743 162.954 28.0623 162.091 29.5942C161.227 28.7226 162.68 26.742 160.59 26.4578C161.454 26.4217 163.344 23.9985 164.394 26.1684Z" fill="#2C6B95"/>
<path fill-rule="evenodd" clip-rule="evenodd" d="M180.443 16.3086C179.675 16.0457 176.228 16.9912 177.346 15.5027C176.157 11.7804 180.54 13.9229 180.443 16.3086Z" fill="#2C6B95"/>
<path fill-rule="evenodd" clip-rule="evenodd" d="M145.045 29.0303C144.123 29.7367 143.299 31.2033 141.96 29.9074C141.115 29.0908 140.763 31.6997 140.391 30.1113C139.986 28.384 141.606 28.5538 142.714 28.414C143.884 27.1324 144.121 29.3802 145.045 29.0303Z" fill="#2C6B95"/>
<path fill-rule="evenodd" clip-rule="evenodd" d="M148.689 40.8519C147.176 42.915 146.753 42.603 146.195 40.3614C146.566 38.4222 147.621 39.934 148.689 40.8519Z" fill="#2C6B95"/>
<path fill-rule="evenodd" clip-rule="evenodd" d="M134.028 21.0263C133.865 20.3764 135.325 19.7601 133.945 18.9837C130.866 13.2442 141.622 20.4518 134.028 21.0263Z" fill="#2DDFFF"/>
<path fill-rule="evenodd" clip-rule="evenodd" d="M140.161 32.5079C139.575 34.8707 137.764 31.5524 138.892 35.1385C135.166 35.0878 138.062 28.0914 140.161 32.5079Z" fill="#0A1328"/>
<path fill-rule="evenodd" clip-rule="evenodd" d="M145.045 29.0302C141.679 27.6449 141.551 27.4098 145.468 25.9365C145.626 27.0141 147.075 29.2424 145.045 29.0302Z" fill="#0A1328"/>
<path fill-rule="evenodd" clip-rule="evenodd" d="M164.021 16.1433C160.577 14.884 161.172 14.8678 163.995 13.4904C166.256 12.258 164.563 15.4069 164.021 16.1433Z" fill="#2DDFFF"/>
<path fill-rule="evenodd" clip-rule="evenodd" d="M193.526 16.7923C192.917 18.1566 191.778 17.2209 191.013 16.7572C189.776 13.9218 192.222 15.5919 193.526 16.7923Z" fill="#2C6B95"/>
<path fill-rule="evenodd" clip-rule="evenodd" d="M126.333 29.0444C128.175 30.4917 128.602 32.346 126.978 33.1153C125.817 32.2816 125.285 30.308 126.333 29.0444Z" fill="#2DDFFF"/>
<path fill-rule="evenodd" clip-rule="evenodd" d="M180.443 16.3094C180.122 15.5358 181.69 16.7884 182.561 15.897C182.799 18.8768 179.421 20.0701 180.443 16.3094Z" fill="#21D6F7"/>
<path fill-rule="evenodd" clip-rule="evenodd" d="M135.273 16.9006C134.619 16.7068 132.872 17.318 132.872 16.4479C134.502 14.0378 135.782 13.7245 135.273 16.9006Z" fill="#21D6F7"/>
<path fill-rule="evenodd" clip-rule="evenodd" d="M124.157 23.7116C124.394 21.4746 126.366 21.3876 126.012 23.7763C126.441 26.569 124.338 24.7016 124.157 23.7116Z" fill="#2C6B95"/>
<path fill-rule="evenodd" clip-rule="evenodd" d="M132.257 47.4494C130.173 46.4221 131.904 45.151 132.208 43.6206C134.209 44.7184 132.932 45.8113 132.257 47.4494Z" fill="#21D6F7"/>
<path fill-rule="evenodd" clip-rule="evenodd" d="M118.551 18.7885C117.543 23.0944 116.14 20.7246 116.281 17.5088C116.978 18.0629 117.655 18.6172 118.551 18.7885Z" fill="#2C6B95"/>
<path fill-rule="evenodd" clip-rule="evenodd" d="M119.969 23.5284C121.233 21.0788 124.464 22.6089 122.664 25.6207C121.805 24.4188 121.803 23.198 119.969 23.5284Z" fill="#2C6B95"/>
<path fill-rule="evenodd" clip-rule="evenodd" d="M163.985 32.0778C165.2 30.694 165.171 33.2196 165.768 34.1705C163.703 33.9733 161.649 34.2318 163.985 32.0778Z" fill="#21D6F7"/>
<path fill-rule="evenodd" clip-rule="evenodd" d="M136.507 20.2564C136.656 17.8691 141.016 21.2421 138.682 21.889C137.877 21.5248 137.197 20.8196 136.507 20.2564Z" fill="#2C6B95"/>
<path fill-rule="evenodd" clip-rule="evenodd" d="M140.881 40.4147C142.746 39.4775 142.456 41.2041 141.701 42.3392C140.328 42.6322 140.434 41.4728 140.881 40.4147Z" fill="#2C6B95"/>
<path fill-rule="evenodd" clip-rule="evenodd" d="M137.087 34.5674C139.398 34.7371 139.455 36.7715 137.703 37.9502C137.052 36.9024 136.374 35.8621 137.087 34.5674Z" fill="#2DDFFF"/>
<path fill-rule="evenodd" clip-rule="evenodd" d="M125.555 30.6611C126.306 32.0898 127.228 33.7304 125.021 33.162C124.574 32.2886 124.29 31.2531 125.555 30.6611Z" fill="#2C6B95"/>
<path fill-rule="evenodd" clip-rule="evenodd" d="M159.868 18.2617C160.392 18.8845 162.593 19.8385 161.251 20.1572C160.441 19.5329 158.376 19.3693 159.868 18.2617Z" fill="#2DDFFF"/>
<path fill-rule="evenodd" clip-rule="evenodd" d="M178.487 22.5448C176.286 23.2454 176.127 22.8088 176.625 20.6621C177.246 21.2901 177.866 21.9174 178.487 22.5448Z" fill="#2C6B95"/>
<path fill-rule="evenodd" clip-rule="evenodd" d="M134.32 57.08C135.253 55.8599 136.489 55.5298 137.945 55.844C137.215 57.657 135.869 57.6665 134.32 57.08Z" fill="#2C6B95"/>
<path fill-rule="evenodd" clip-rule="evenodd" d="M147.393 16.894C147.175 16.1632 145.447 14.7409 146.49 14.439C146.696 15.1875 147.942 16.3201 147.393 16.894Z" fill="#21D6F7"/>
<path fill-rule="evenodd" clip-rule="evenodd" d="M122.99 24.5179C122.935 23.6002 124.141 23.2962 124.391 24.1946C124.355 24.7273 123.398 24.3888 122.99 24.5179Z" fill="#2DDFFF"/>
<path fill-rule="evenodd" clip-rule="evenodd" d="M163.985 32.0771C163.285 32.8141 162.882 34.0266 162.183 32.6544C162.784 32.4621 163.384 32.2698 163.985 32.0771Z" fill="#2C6B95"/>
<path fill-rule="evenodd" clip-rule="evenodd" d="M133.534 25.0412C133.921 25.1129 135.27 24.5683 135.034 25.2509C134.592 25.1376 133.715 25.4634 133.534 25.0412Z" fill="#21D6F7"/>
<path fill-rule="evenodd" clip-rule="evenodd" d="M166.388 29.0072C165.835 28.3969 165.484 27.8483 166.758 27.7974C166.635 28.2012 166.511 28.6042 166.388 29.0072Z" fill="#2C6B95"/>
<path fill-rule="evenodd" clip-rule="evenodd" d="M135.287 16.8498C135.454 16.6236 135.622 16.3974 135.789 16.1709C135.622 16.3968 135.454 16.6233 135.287 16.8498Z" fill="#2DDFFF"/>
<path fill-rule="evenodd" clip-rule="evenodd" d="M130.88 18.7324C131.25 18.7462 131.621 18.7599 131.992 18.7739C131.491 19.0288 131.08 19.5002 130.88 18.7324Z" fill="#2C6B95"/>
<path fill-rule="evenodd" clip-rule="evenodd" d="M124.226 21.7294C123.361 21.7819 123.732 21.0554 124.267 21.6937L124.226 21.7294Z" fill="#2DDFFF"/>
<path fill-rule="evenodd" clip-rule="evenodd" d="M124.846 21.9729C124.692 22.2593 124.539 22.5456 124.387 22.8314C124.331 22.2022 123.95 21.3666 124.846 21.9729Z" fill="#2DDFFF"/>
<path fill-rule="evenodd" clip-rule="evenodd" d="M162.568 30.9922C162.378 31.1592 162.189 31.3262 162 31.4922C161.654 30.9946 162.199 31.0978 162.568 30.9922Z" fill="#2C6B95"/>
<path fill-rule="evenodd" clip-rule="evenodd" d="M162.674 33.8813C162.613 34.0929 162.552 34.3042 162.491 34.5157C162.536 34.3066 162.692 34.0743 162.674 33.8813Z" fill="#21D6F7"/>
<path fill-rule="evenodd" clip-rule="evenodd" d="M140.822 37.4185C141.789 37.6697 141.509 37.8474 140.831 38.337C140.829 38.0318 140.826 37.725 140.822 37.4185Z" fill="#2C6B95"/>
<path fill-rule="evenodd" clip-rule="evenodd" d="M126.134 44.2408C126.246 44.3766 126.359 44.5125 126.471 44.648C126.357 44.5387 126.273 44.1437 126.134 44.2408Z" fill="#2C6B95"/>
<path fill-rule="evenodd" clip-rule="evenodd" d="M161.598 32.4883C161.389 32.5744 161.116 32.5808 160.881 32.6409C161.076 32.7294 161.368 32.5151 161.598 32.4883Z" fill="#2C6B95"/>
<path fill-rule="evenodd" clip-rule="evenodd" d="M165.063 31.1915L165.04 30.9447C165.466 30.7463 165.496 31.1292 165.063 31.1915Z" fill="#2C6B95"/>
<path fill-rule="evenodd" clip-rule="evenodd" d="M165.839 29.7479C166.011 29.522 166.183 29.2961 166.354 29.0708C166.182 29.2967 166.011 29.5223 165.839 29.7479Z" fill="#2C6B95"/>
<path fill-rule="evenodd" clip-rule="evenodd" d="M135.559 24.6258C135.475 24.4484 135.561 24.4195 135.723 24.4043C135.737 24.5362 135.698 24.6158 135.559 24.6258Z" fill="#21D6F7"/>
<path fill-rule="evenodd" clip-rule="evenodd" d="M146.97 114.929C151.576 118.888 144.64 116.333 143.95 119.833C144.763 122.703 142.064 119.338 141.988 121.811C141.903 123.097 142.306 123.785 143.701 123.573C143.967 126.297 141.81 124.532 143.182 128.462C140.03 130.849 139.833 127.206 136.936 128.316C133.388 130.47 133.594 126.23 137.154 127.31C140.296 126.579 133.289 120.971 140.953 116.713C143.069 115.189 143.192 115.36 141.719 113.417C148.266 112.038 140.344 119.428 146.97 114.929Z" fill="#0A1328"/>
<path fill-rule="evenodd" clip-rule="evenodd" d="M126.073 123.611C126.222 127.407 125.832 130.87 127.045 134.601C125.062 133.24 124.763 130.872 122.434 130.259C120.9 128.219 121.323 132.444 120.263 130.148C120.485 127.144 115.076 125.326 120.378 124.624C120.932 124.587 121.741 127.045 122.048 124.452C122.704 123.283 124.858 123.661 126.073 123.611Z" fill="#0A1328"/>
<path fill-rule="evenodd" clip-rule="evenodd" d="M132.176 134.538C133.176 139.307 125.818 150.298 127.554 143.339C128.024 143.005 125.762 142.483 127.132 141.453C127.226 141.382 127.196 141.143 127.223 140.983C125.125 142.831 125.502 139.447 124.223 139.563C124.8 138.368 125.377 137.172 125.89 136.111C125.242 137.781 128.574 138.924 127.23 136.899C128.275 134.887 128.968 137.299 129.991 135.765C130.719 135.356 131.448 134.947 132.176 134.538Z" fill="#0A1328"/>
<path fill-rule="evenodd" clip-rule="evenodd" d="M197.497 115.059C196.05 115.077 193.767 116.007 192.895 114.445C192.541 113.119 194.821 114.342 195.066 113.009C195.988 110.193 198.68 108.997 201.44 108.646C203.73 107.718 203.297 110.51 205.19 110.82C206.984 111.987 201.958 113.862 201.069 113.588C199.971 110.801 197.971 113.076 196.89 113.257C195.402 113.468 197.107 114.549 197.497 115.059Z" fill="#2DDFFF"/>
<path fill-rule="evenodd" clip-rule="evenodd" d="M128.721 116.843C132.265 117.361 132.828 120.441 133.463 123.502C130.636 121.913 128.439 127.375 126.928 123.72C126.896 123.61 126.37 123.644 126.073 123.611C122.281 120.633 129.882 121.585 128.214 118.413C128.024 118.134 128.534 117.379 128.721 116.843Z" fill="#0A1328"/>
<path fill-rule="evenodd" clip-rule="evenodd" d="M187.756 137.259C185.769 139.146 184.023 140.161 185.016 136.753C188.98 135.465 186.287 135.433 184.737 135.18C184.211 133.084 190.344 134.293 187.174 132.607C187.022 129.137 191.383 135.335 190.903 137.039C189.793 137.775 189.312 139.016 187.756 137.259Z" fill="#2DDFFF"/>
<path fill-rule="evenodd" clip-rule="evenodd" d="M164.12 113.816C165.841 114.856 166.005 115.664 168.145 113.804C168.335 117.301 163.629 120.721 160.491 122.654C159.862 116.942 164.057 120.68 164.12 113.816Z" fill="#21D6F7"/>
<path fill-rule="evenodd" clip-rule="evenodd" d="M149.958 127.828C142.723 125.223 153.09 121.117 152.049 126.607C151.769 127.725 151.371 128.644 149.958 127.828Z" fill="#0A1328"/>
<path fill-rule="evenodd" clip-rule="evenodd" d="M152.797 117.475C154.126 118.901 153.236 121.197 154.989 122.05C155.227 122.106 155.291 122.894 155.435 123.344C153.429 123.406 153.296 121.346 152.427 120.005C150.819 118.023 151.82 122.75 149.854 121.081C147.053 118.622 150.834 117.738 152.797 117.475Z" fill="#2C6B95"/>
<path fill-rule="evenodd" clip-rule="evenodd" d="M143.701 123.573C141.334 124.281 141.412 119.788 143.634 121.033C144.275 121.168 144.103 121.034 143.951 119.833C144.121 118.13 146.415 117.633 147.932 117.575C148.242 121.037 144.52 120.524 143.701 123.573Z" fill="#2C6B95"/>
<path fill-rule="evenodd" clip-rule="evenodd" d="M164.12 113.816C163.754 114.932 163.636 116.308 163.023 117.173C165.594 116.333 161.823 120.072 161.984 118.003C158.881 115.741 160.682 110.795 164.12 113.816Z" fill="#2DDFFF"/>
<path fill-rule="evenodd" clip-rule="evenodd" d="M130.397 130.186C129.858 124.837 130.883 129.838 132.387 125.816C132.649 128.92 136.825 133.646 130.397 130.186Z" fill="#2C6B95"/>
<path fill-rule="evenodd" clip-rule="evenodd" d="M171.197 146.581C170.32 144.654 168.152 144.399 168.898 143.138C169.725 141.415 170.901 142.47 171.981 142.587C176.21 142.694 171.572 144.033 172.032 145.821C172.068 145.941 171.626 146.201 171.197 146.581Z" fill="#2DDFFF"/>
<path fill-rule="evenodd" clip-rule="evenodd" d="M128.362 135.733C126.863 136.446 128.229 137.847 126.857 138.044C126.21 138.029 125.768 136.578 125.89 136.111C125.377 137.173 124.8 138.369 124.223 139.564C124.332 135.133 124.32 130.903 128.362 135.733Z" fill="#2C6B95"/>
<path fill-rule="evenodd" clip-rule="evenodd" d="M147.022 139.346C144.663 136.719 148.491 131.821 149.422 135.183C144.716 134.722 152.235 139.112 147.022 139.346Z" fill="#21D6F7"/>
<path fill-rule="evenodd" clip-rule="evenodd" d="M139.302 133.092C143.241 134.008 138.612 136.385 137.997 133.574C136.757 133.736 135.424 134.209 136.01 132.038C136.777 129.586 138.727 132.137 139.302 133.092Z" fill="#0A1328"/>
<path fill-rule="evenodd" clip-rule="evenodd" d="M191.742 118.636C189.404 120.746 191.259 125.899 188.174 122.042C188.557 121.137 188.602 120.586 187.587 120.234C188.232 118.093 190.357 120.383 191.742 118.636Z" fill="#2DDFFF"/>
<path fill-rule="evenodd" clip-rule="evenodd" d="M122.728 147.188C118.832 146.493 124.881 144.455 121.944 142.968C124.982 140.299 124.097 145.687 122.728 147.188Z" fill="#2C6B95"/>
<path fill-rule="evenodd" clip-rule="evenodd" d="M187.067 126.303C185.819 127.651 185.098 129.65 183.03 129.75C182.45 127.435 184.854 125.653 187.067 126.303Z" fill="#2DDFFF"/>
<path fill-rule="evenodd" clip-rule="evenodd" d="M127.157 120.792C124.868 122.193 123.988 121.324 121.336 120.07C123.679 120.072 124.531 119.559 123.174 117.974C127.445 115.259 122.942 121.096 127.157 120.792Z" fill="#2C6B95"/>
<path fill-rule="evenodd" clip-rule="evenodd" d="M130.397 130.186C133.288 131.44 130.327 133.214 128.618 131.565C125.932 131.231 128.009 127.045 130.397 130.186Z" fill="#0A1328"/>
<path fill-rule="evenodd" clip-rule="evenodd" d="M149.738 134.59C145.53 133.714 148.938 132.72 144.615 133.958C145.38 131.325 150.907 131.3 149.738 134.59Z" fill="#2DDFFF"/>
<path fill-rule="evenodd" clip-rule="evenodd" d="M135.711 143.179C130.307 145.368 135.406 137.71 136.375 142.479C137.073 143.554 136.679 143.618 135.711 143.179Z" fill="#21D6F7"/>
<path fill-rule="evenodd" clip-rule="evenodd" d="M168.195 118.734C168.049 120.634 163.962 125.626 165.326 121.049C166.131 120.212 166.447 118.219 168.195 118.734Z" fill="#21D6F7"/>
<path fill-rule="evenodd" clip-rule="evenodd" d="M145.737 132.248C144.447 134.605 141.53 136.344 138.914 135.224C141.155 134.156 143.451 133.212 145.737 132.248Z" fill="#2C6B95"/>
<path fill-rule="evenodd" clip-rule="evenodd" d="M192.255 131.195C190.161 129.143 191.662 128.737 193.257 127.496C194.55 128.058 192.685 129.643 192.255 131.195Z" fill="#21D6F7"/>
<path fill-rule="evenodd" clip-rule="evenodd" d="M130.373 132.716C130.645 132.362 130.917 132.008 131.189 131.654C130.769 133.691 132.757 133.148 133.932 133.698C132.702 133.781 130.292 136.439 129.837 135.213C129.855 134.787 126.688 133.728 130.078 133.905C130.156 133.909 130.274 133.13 130.373 132.716Z" fill="#2C6B95"/>
<path fill-rule="evenodd" clip-rule="evenodd" d="M175.88 110.717C178.66 111.649 176.882 112.139 175.263 113.108C174.062 112.345 174.568 111.528 175.88 110.717Z" fill="#2DDFFF"/>
<path fill-rule="evenodd" clip-rule="evenodd" d="M164.759 138.427C165.982 139.405 161.962 142.627 161.397 139.63C161.653 138.187 164.62 139.59 164.759 138.427Z" fill="#2DDFFF"/>
<path fill-rule="evenodd" clip-rule="evenodd" d="M147.022 139.346C148.788 138.805 149.246 138.764 148.599 140.69C147.127 143.85 143.996 141.483 147.022 139.346Z" fill="#0A1328"/>
<path fill-rule="evenodd" clip-rule="evenodd" d="M134.763 129.135C136.713 128.532 139.252 126.69 140.018 129.651C138.569 129.299 135.261 130.327 134.763 129.135Z" fill="#2DDFFF"/>
<path fill-rule="evenodd" clip-rule="evenodd" d="M148.232 132.186C144.893 132.729 148.528 129.149 146.335 127.956C148.948 127.323 148.1 130.686 148.232 132.186Z" fill="#2C6B95"/>
<path fill-rule="evenodd" clip-rule="evenodd" d="M168.145 113.805C166.224 115.321 165.841 115.327 164.446 113.866C164.966 111.451 167.708 112.309 168.145 113.805Z" fill="#2DDFFF"/>
<path fill-rule="evenodd" clip-rule="evenodd" d="M120.378 124.625C119.256 125.383 115.237 125.208 117.644 123.422C118.468 120.41 118.898 123.156 120.378 124.625Z" fill="#2C6B95"/>
<path fill-rule="evenodd" clip-rule="evenodd" d="M120.775 130.886C121.327 130.673 121.22 128.719 122.435 130.258C122.245 131.346 120.291 132.407 122.38 133.563C121.574 135.939 119.843 132.426 120.775 130.886Z" fill="#2C6B95"/>
<path fill-rule="evenodd" clip-rule="evenodd" d="M176.86 102.684C181.63 101.955 176.954 104.29 174.865 103.417C171.22 101.886 175.061 101.644 176.86 102.684Z" fill="#2C6B95"/>
<path fill-rule="evenodd" clip-rule="evenodd" d="M195.138 119.849C194.221 119.092 193.433 118.442 192.645 117.792C193.869 116.474 197.011 118.472 195.138 119.849Z" fill="#2DDFFF"/>
<path fill-rule="evenodd" clip-rule="evenodd" d="M118.424 136.602C119.332 137.345 119.489 139.264 120.858 139.982C118.779 141.66 117.505 137.956 118.424 136.602Z" fill="#21D6F7"/>
<path fill-rule="evenodd" clip-rule="evenodd" d="M143.181 128.462C143.473 127.291 141.45 125.668 143.876 124.917C146.192 125.983 143.884 127.08 143.181 128.462Z" fill="#2C6B95"/>
<path fill-rule="evenodd" clip-rule="evenodd" d="M149.958 127.828C151.371 128.644 151.769 127.725 152.05 126.608C152.64 127.806 152.726 131.698 151.216 129.446C149.653 129.761 149.949 128.691 149.958 127.828Z" fill="#2DDFFF"/>
<path fill-rule="evenodd" clip-rule="evenodd" d="M205.884 115.14C206.411 116.26 208.37 117.498 206.768 118.05C205.504 116.972 204.073 117.093 205.884 115.14Z" fill="#2DDFFF"/>
<path fill-rule="evenodd" clip-rule="evenodd" d="M176.414 127.913C174.988 129.503 174.67 128.714 173.493 127.732C174.697 127.39 175.321 126.665 176.414 127.913Z" fill="#2DDFFF"/>
<path fill-rule="evenodd" clip-rule="evenodd" d="M127.349 145.594C128.863 144.429 129.093 145.366 129.346 146.9C128.433 148.135 127.9 146.397 127.349 145.594Z" fill="#2C6B95"/>
<path fill-rule="evenodd" clip-rule="evenodd" d="M138.914 135.223C144.99 135.862 135.841 138.758 138.54 135.168C138.664 135.389 138.761 135.258 138.914 135.223Z" fill="#0A1328"/>
<path fill-rule="evenodd" clip-rule="evenodd" d="M139.302 133.092C138.825 132.277 137.926 131.624 139.325 131.427C139.317 131.982 139.309 132.537 139.302 133.092Z" fill="#2DDFFF"/>
<path fill-rule="evenodd" clip-rule="evenodd" d="M210.808 109.545C211.388 109.885 211.809 110.211 211.261 110.658C210.559 110.518 210.398 110.285 210.808 109.545Z" fill="#2DDFFF"/>
<path fill-rule="evenodd" clip-rule="evenodd" d="M197.474 115.079C198.117 115.427 198.354 116.007 198.536 116.675C197.965 116.273 197.579 115.686 197.474 115.079Z" fill="#2DDFFF"/>
<path fill-rule="evenodd" clip-rule="evenodd" d="M151.723 130.343C151.409 130.563 151.064 131.561 150.741 131.072C151.07 130.849 151.398 130.501 151.723 130.343Z" fill="#2DDFFF"/>
<path fill-rule="evenodd" clip-rule="evenodd" d="M125.071 122.475C125.402 122.853 125.734 123.23 126.065 123.608C125.064 123.665 124.815 123.476 125.071 122.475Z" fill="#2C6B95"/>
<path fill-rule="evenodd" clip-rule="evenodd" d="M168.118 118.668C168.213 118.536 168.307 118.404 168.402 118.272C168.307 118.389 168.263 118.832 168.118 118.668Z" fill="#21D6F7"/>
<path fill-rule="evenodd" clip-rule="evenodd" d="M138.888 135.208C138.643 135.485 138.508 135.099 138.42 134.894C138.708 134.505 138.727 134.963 138.888 135.208Z" fill="#2C6B95"/>
<path fill-rule="evenodd" clip-rule="evenodd" d="M130.373 132.716C130.274 133.13 130.156 133.909 130.078 133.905C126.688 133.728 129.855 134.787 129.837 135.213C128.288 139.2 124.746 129.432 126.294 127.435C130.201 126.689 125.436 131.578 128.617 131.565C129.241 131.643 129.79 132.314 130.373 132.716Z" fill="#2DDFFF"/>
<path fill-rule="evenodd" clip-rule="evenodd" d="M133.471 121.725C131.901 120.705 131.095 118.283 133.247 117.386C134.815 118.852 135.2 120.184 133.471 121.725Z" fill="#2C6B95"/>
<path fill-rule="evenodd" clip-rule="evenodd" d="M137.573 125.478C139.957 127.322 136.424 127.549 135.054 127.144C135.613 126.161 136.14 125.136 137.573 125.478Z" fill="#2C6B95"/>
<path fill-rule="evenodd" clip-rule="evenodd" d="M133.471 121.724C134.334 120.413 134.436 122.233 134.912 122.966C133.366 123.769 133.369 123.242 133.471 121.724Z" fill="#1F3D84"/>
<path fill-rule="evenodd" clip-rule="evenodd" d="M146.139 115.199C145.575 115.832 145.022 116.429 144.155 116.616C143.666 115.118 144.931 114.107 146.139 115.199Z" fill="#2C6B95"/>
<path fill-rule="evenodd" clip-rule="evenodd" d="M119.769 54.0603C119.515 52.0806 122.849 50.684 124.086 52.3746C123.229 53.5923 121.066 54.9307 119.769 54.0603Z" fill="#2C6B95"/>
<path fill-rule="evenodd" clip-rule="evenodd" d="M119.441 48.3364C119.836 48.8642 120.231 49.3924 120.626 49.9205C119.452 49.9748 119.242 49.3084 119.441 48.3364Z" fill="#2C6B95"/>
<path fill-rule="evenodd" clip-rule="evenodd" d="M120.601 54.5322C120.732 54.3936 120.893 54.3146 121.081 54.2969C121.023 54.8036 120.995 54.966 120.601 54.5322Z" fill="#21D6F7"/>
<path fill-rule="evenodd" clip-rule="evenodd" d="M155.395 104.627C155.213 105.308 155.81 106.929 154.731 106.544C154.952 105.905 155.174 105.266 155.395 104.627Z" fill="#0A1328"/>
<path fill-rule="evenodd" clip-rule="evenodd" d="M118.743 104.107C118.745 105.316 118.747 106.524 118.749 107.733C118.048 106.117 115.269 103.337 118.743 104.107Z" fill="#2DDFFF"/>
<path fill-rule="evenodd" clip-rule="evenodd" d="M116.8 104.303C116.557 104.083 115.57 103.885 116.042 103.575C116.387 103.794 117.277 103.833 116.8 104.303Z" fill="#2DDFFF"/>
<path fill-rule="evenodd" clip-rule="evenodd" d="M123.683 37.5793C122.436 37.8907 121.43 38.4731 121.071 36.7346C122.162 35.9012 122.833 37.0911 123.683 37.5793Z" fill="#2DDFFF"/>
<path fill-rule="evenodd" clip-rule="evenodd" d="M163.315 116.918C163.218 117.003 163.12 117.087 163.023 117.172C162.996 116.996 163.171 116.869 163.315 116.918Z" fill="#21D6F7"/>
</svg>
