<svg width="186" height="221" viewBox="0 0 186 221" fill="none" xmlns="http://www.w3.org/2000/svg">
<path fill-rule="evenodd" clip-rule="evenodd" d="M44.5306 145.789C45.0823 145.415 45.7175 145.038 44.8781 144.762C44.3169 145.042 43.7942 145.253 44.5306 145.789ZM36.6816 159.111C37.4637 158.568 38.6828 158.213 37.5255 157.956C37.0331 158.21 36.2506 158.402 36.6816 159.111ZM23.321 173.174C22.5464 172.593 22.2344 172.302 21.8118 173.187C22.1195 173.893 22.506 173.556 23.321 173.174ZM40.8164 190.519C40.4142 190.992 39.1967 191.567 40.1667 191.803C40.8292 191.403 41.7844 191.276 40.8164 190.519ZM70.2695 133.545C69.5946 133 69.3135 132.446 68.699 133.362C69.3835 133.81 69.5792 134.658 70.2695 133.545ZM45.9824 150.212C46.0361 149.581 45.9859 149.081 45.2204 149.157C43.9315 149.365 45.7811 151.454 45.9824 150.212ZM54.2485 152.268C53.1287 151.057 52.9724 151.557 52.3646 152.704C52.8466 153.535 53.4738 152.62 54.2485 152.268ZM34.6271 158.272C33.4986 159.066 33.7253 159.265 34.7432 159.802C35.5338 159.473 35.0544 158.87 34.6271 158.272ZM40.1705 158.215C39.7339 159.286 40.1976 159.804 40.9696 160.216C43.7896 161.1 41.9147 155.089 40.0366 155.486C38.7553 155.731 40.1182 157.594 40.1705 158.215ZM69.2452 191.012C72.7753 190.449 64.5521 184.964 63.8636 185.878C63.259 188.357 67.4669 189.839 69.2452 191.012ZM16.3087 182.38C14.4522 184.638 19.6604 185.867 20.917 187.127C24.8485 185.578 18.295 182.609 16.3087 182.38ZM104.495 182.254C103.629 177.544 101.091 185.003 101.26 186.778C103.1 192.239 104.194 184.029 104.495 182.254ZM43.692 192.058C42.117 193.518 41.0227 195.77 40.2273 197.825C40.0722 201.321 43.1266 198.39 43.3537 196.493C43.6222 195.256 46.0197 192.309 43.692 192.058ZM74.288 160.851C72.0086 158.949 68.7499 159.262 65.9945 159.445C62.7163 160.994 75.6907 164.158 74.288 160.851ZM49.3246 181.745C58.3458 180.182 62.0407 165.933 50.6724 165.216C37.8095 164.237 34.5374 182.421 49.3246 181.745ZM86.7267 173.075C77.5136 171.928 72.5079 184.865 79.5631 190.603C84.2135 192.076 89.7937 192.716 93.3168 188.668C95.0608 184.997 92.6866 186.771 90.9061 188.224C84.5411 192.066 75.9727 187.73 78.4927 179.816C81.3956 170.885 97.203 174.736 90.6117 183.72C85.9789 190.577 80.7815 179.114 86.6004 177.811C87.5866 178.016 88.3215 179.203 88.2837 180.287C88.2541 181.278 86.2018 180.869 86.9306 182.182C89.8825 183.651 90.1586 178.919 88.4482 177.441C82.7456 173.242 79.9902 185.228 84.9955 187.314C94.7011 191.283 98.0011 172.216 86.7267 173.075ZM6.80503 201.385C4.24946 211.361 20.4116 222.321 26.728 209.408C30.7039 196.732 13.0367 189.631 6.80503 201.385ZM56.1496 140.271C61.0936 141.072 61.2447 134.78 56.2459 135.437C53.2871 136.757 53.888 142.539 55.9292 144.423C59.3268 145.937 62.1506 142.647 63.4207 139.921C64.9807 132.272 53.3473 129.338 50.6296 136.356C44.5273 152.824 71.0965 155.081 67.3148 139.81C66.2096 138.797 66.5926 141.36 66.3055 141.969C65.6524 148.323 54.8449 149.895 52.7213 143.864C52.1108 139.89 51.1779 134.238 56.7207 134.045C66.8267 134.099 57.7092 148.061 56.1496 140.271ZM49.2715 202.008C50.3353 200.417 47.0645 199.689 47.0664 201.422C46.8714 202.561 49.1688 203.462 49.2715 202.008ZM62.5058 170.21C63.2927 172.234 62.7629 169.073 61.6376 169.763C60.0975 170.46 61.6045 171.38 62.5058 170.21ZM7.82736 213.245C7.25444 212.526 6.94227 211.616 6.46904 210.806C6.16637 210.372 5.86611 209.936 5.56223 209.503C4.77035 205.672 0.750132 196.047 4.29319 193.546C5.2104 192.895 7.65151 191.73 6.99369 190.337C5.66297 188.657 4.57264 191.56 3.18989 191.224C2.60204 189.952 3.02249 188.154 1.98539 186.93C1.42168 183.255 1.08568 179.568 0.952515 175.854C2.38594 177.667 10.5444 172.169 6.71847 171.553C0.281725 174.854 1.52483 175.879 1.31234 168.661C0.992026 166.221 4.13922 161.121 6.70716 162.811C9.14797 167.272 13.9556 170.553 19.0374 170.82C33.5621 171.303 31.0474 153.066 27.2893 145.082C39.6921 138.136 33.2055 137.355 40.2393 145.488C41.7185 142.8 36.8413 139.045 38.7965 137.217C44.6231 133.413 50.5011 130.053 56.0746 126.08C57.7211 127.979 60.4002 125.775 62.1631 128.041C63.6237 127.712 72.3738 130.607 71.3369 132.41C70.9691 132.918 71.2111 133.079 71.7195 132.988C74.0243 132.52 75.3529 135.115 77.1615 136.156C77.2945 136.267 77.4581 136.573 77.4097 136.636C76.6572 137.615 77.5423 137.149 77.8688 137.168C90.8471 147.333 80.5284 142.085 78.4786 151.127C74.7708 162.42 90.046 166.587 97.3113 160.138C100.12 160.985 100.216 164.396 101.78 166.462C103.009 168.658 105.323 170.254 106.126 172.658C113.925 186.47 118.799 189.995 102.827 200.856C97.4315 204.531 91.363 206.553 85.2996 208.579C84.3251 209.038 84.3164 203.012 83.5479 201.837C83.158 200.64 82.1265 200.969 81.8287 201.933C81.3615 204.139 82.6334 206.269 83.2039 208.325C85.5256 209.635 79.1968 209.803 78.4931 210.813C76.9567 210.013 76.1451 211.608 74.8511 212.013C72.7471 210.765 71.5519 213.537 69.4667 213.158C69.0463 213.044 68.6771 212.922 68.7578 212.336C69.2707 207.745 65.8478 203.035 61.0642 202.777C52.5266 202.639 49.1894 208.935 48.9725 215.864C41.4653 215.473 39.6611 220.043 37.8199 210.408C36.4187 208.012 35.2675 210.778 35.9974 212.371C35.9628 213.78 38.018 216.154 36.4297 216.987C32.0222 217.868 27.7844 217.217 23.371 217.772C17.7393 217.956 11.0626 219.008 7.82736 213.245Z" fill="#851F55"/>
<path fill-rule="evenodd" clip-rule="evenodd" d="M170.954 208.419C170.967 208.376 170.98 208.333 170.993 208.29C170.896 208.345 170.805 208.383 170.954 208.419ZM177.182 215.933C176.255 212.941 174.327 210.095 171.477 208.824C172.401 211.75 175.004 213.876 177.182 215.933ZM149.788 185.152C159.614 189.775 149.549 176.378 145.285 179.355C139.989 186.501 142.777 186.203 149.788 185.152ZM147.024 186.623C143.197 186.674 141.291 188.534 140.878 192.283C140.792 196.667 164.907 186.467 147.024 186.623ZM147.479 198.669C140.845 199.665 138.384 198.408 138.015 206.386C137.864 207 138.128 207.176 138.542 207.23C143.327 205.769 147.765 202.722 152.097 200.16C153.456 198.561 148.733 199.136 147.479 198.669ZM156.886 193.068C155.282 185.269 153.364 193.138 148.678 193.594C146.28 195.14 139.258 193.813 139.931 197.382C139.711 198.656 139.778 198.758 140.96 198.538C144.992 197.787 149.023 197.618 153.078 198.412C155.403 198.466 156.73 195.285 156.886 193.068ZM138.068 211.103C137.942 213.255 140.87 218.989 143.203 215.767C144.785 213.006 147.308 211.27 149.834 209.566C151.686 207.134 160.268 207.085 159.814 204.991C158.719 203.2 155.666 198.721 153.415 201.093C150.864 203.185 147.718 204.606 144.873 206.296C142.466 207.968 137.585 207.387 138.068 211.103ZM149.822 177.515C147.508 177.951 155.587 180.693 156.465 188.505C161.162 193.682 154.965 198.005 156.46 199.816C158.244 200.672 159.252 202.368 160.445 203.873C161.271 204.966 161.833 206.513 163.706 205.464C164.83 205.249 168.645 206.798 168.275 204.947C165.582 195.763 169.425 199.359 162.393 192.045C155.528 179.63 170.331 175.909 149.822 177.515ZM84.5478 207.714C84.9351 209.98 88.7623 207.385 90.0339 206.82C99.0803 203.606 110.632 198.677 113.483 188.454C114.508 184.919 110.74 182.262 109.862 179.054C106.994 174.807 105.114 170.445 101.775 166.509C100.21 164.441 100.118 161.036 97.3114 160.187C96.8043 158.158 95.6045 155.912 93.8677 154.444C93.408 152.734 95.1581 152.199 96.195 151.197C98.7225 148.886 102.152 148.662 104.464 146.058C109.899 141.845 111.875 140.072 119.06 142.093C121.576 140.492 124.59 143.453 127.594 142.66C131.834 144.49 136.857 143.157 141.052 145.471C153.378 148.882 170.389 150.813 173.919 165.207C174.186 170.929 173.04 176.421 171.592 181.932C169.585 181.142 167.937 179.561 165.716 179.071C161.16 176.638 161.949 183.388 161.885 186.118C161.269 188.113 166.21 197.514 167.278 193.333C168.151 190.004 170.558 184.421 174.29 184.783C170.35 187.897 164.187 196.097 172.5 197.352C175.123 198.015 177.768 197.904 180.376 197.089C186.688 197.948 172.119 200.316 170.307 197.906C166.315 195.55 168.731 202.763 169.264 204.808C169.814 207.409 171.575 204.515 172.907 204.065C174.599 202.293 184.259 198.53 182.564 201.324C179.137 202.151 172.019 203.666 171.601 207.21C176.765 209.434 177.292 215.725 181.448 218.604C176.208 220.08 173.216 212.74 170.269 209.257C166.13 205.764 164.702 227.538 164.415 217.017C164.369 208.972 173.983 206.531 163.445 206.698C160.386 206.452 162.655 211.157 161.874 213.063C161.373 215.216 159.835 221.275 157.24 220.309C159.162 217.653 163.766 208.358 159.237 207.101C154.652 208.556 149.903 209.683 146.545 213.365C140.936 220.116 144.808 217.446 135.635 217.241C123.531 215.851 111.563 215.037 99.577 212.605C92.7044 211.496 85.991 208.345 79.2909 210.605C80.2555 209.319 81.9597 210.037 83.2118 209.385C83.6979 209.139 84.2621 208.738 83.218 208.352C82.553 207.209 83.694 207.655 84.5478 207.714Z" fill="#2F5DCA"/>
<path fill-rule="evenodd" clip-rule="evenodd" d="M123.45 134.89C122.852 134.498 122.557 133.958 121.979 134.612C122.591 135.244 122.716 135.955 123.45 134.89ZM66.5424 34.2589C63.9242 33.3754 74.7468 53.8208 75.2231 48.55C76.7441 43.2505 78.2237 37.9397 79.7361 32.6382C80.0516 30.155 76.5058 28.9041 75.0609 27.2369C73.5225 26.4943 74.416 26.0572 73.9139 24.9626C72.6961 25.4583 73.2212 26.0967 71.627 25.2648C67.1887 23.1694 64.0571 28.3405 65.3475 32.202C65.7978 32.9821 67.1339 32.5082 67.9286 32.736C68.6916 32.7973 68.2236 32.1019 68.4727 31.8728C69.1778 31.603 69.7221 30.3669 70.2224 31.3644C70.8355 34.4231 66.8003 32.741 69.9866 36.7325C68.7091 36.6689 68.1139 35.7368 67.7401 34.6041C67.2017 35.456 66.6499 35.1523 66.5424 34.2589ZM120.95 141.588C120.279 141.67 119.503 141.288 118.971 142.062C118.925 142.127 118.487 141.922 118.232 141.843C120.038 137.303 121.908 132.784 123.578 128.191C129.924 108.262 137.018 86.3337 132.578 65.3472C130.062 59.2461 124.398 66.8786 122.074 69.4328C118.665 73.5293 118.294 79.0867 116.707 83.9916C116.795 87.5442 109.017 101.202 115.777 97.8475C121.725 99.3434 101.805 101.708 101.051 107.23C100.206 107.571 100.229 105.549 99.2553 106.878C97.2077 108.422 95.0936 109.73 93.2968 111.712C92.102 111.52 91.9857 112.299 91.9771 113.176C88.3735 117.707 85.111 121.961 83.9086 127.818C83.0189 130.603 81.7825 127.975 82.5076 126.408C82.4562 125.085 84.6292 122.596 82.928 121.962C77.0925 120.068 70.9385 119.052 65.3971 116.356C61.4855 114.682 61.1364 109.895 60.7368 106.179C54.8665 106.041 56.8853 112.533 56.6788 116.614C56.2588 120.001 58.7634 124.437 57.5547 127.175C53.1594 122.357 55.2088 113.133 54.8153 106.714C50.8321 102.059 46.7069 96.3445 49.5515 89.9154C50.1179 88.0446 52.6592 85.5289 54.8427 86.8358C55.2754 87.2901 54.6499 87.4242 54.456 87.7269C54.2106 88.3664 54.5405 89.3739 54.2746 90.1072C52.3696 89.9044 53.7381 87.5941 52.1215 89.2516C50.9914 89.8328 49.7087 92.8499 51.1796 93.4453C51.3491 93.4664 51.6415 93.7819 51.6116 93.8836C51.3774 94.6407 50.8378 93.5784 50.5032 94.3436C50.6634 97.9957 52.2524 101.537 55.3329 103.531C58.7129 105.985 62.0166 102.967 62.722 99.314C64.6452 96.5497 64.6757 101.372 63.9509 102.614C60.1634 111.863 67.2101 116.438 75.4715 117.883C78.5103 118.115 82.8719 121.407 85.3404 119.316C90.6867 110.058 99.7032 103.666 109.452 99.6615C112.544 95.5752 112.352 89.2749 114.421 84.4682C117.571 73.1172 120.405 61.6694 123.9 50.4229C124.884 44.3635 129.259 37.4074 126.427 31.5184C118.498 24.735 106.576 24.1729 96.8125 21.1233C84.7795 18.5961 85.4502 22.056 82.2849 32.268C80.5966 34.799 72.3144 74.0943 70.0991 66.4962C70.1913 63.8941 74.1656 57.029 72.1007 55.7336C66.2351 55.6253 62.355 59.9794 61.7477 65.5607C60.1962 67.712 64.8712 68.1345 62.6307 70.1893C61.7557 83.5177 89.2663 89.4649 76.2248 69.7808C75.0872 67.8399 76.439 66.9722 77.3825 68.7556C88.7517 82.4042 75.5589 90.3854 64.584 79.4327C62.5368 77.7155 63.0319 75.3698 60.3544 77.2543C63.9778 66.6038 48.2123 76.3174 60.8557 91.0952C61.2921 91.595 62.9419 93.8116 62.7586 91.7266C64.2077 96.1927 69.9731 93.5158 69.8976 89.6182C69.4005 86.6156 72.3963 86.1637 72.572 89.065C68.9279 109.441 46.5875 83.2734 55.79 73.1567C56.7723 71.5213 58.5107 71.7906 59.915 70.8605C59.7119 70.2434 58.6021 70.3113 59.2668 69.7414C59.109 63.3988 60.9957 56.3032 67.6162 53.7471C68.984 52.3313 74.3706 54.1944 73.4946 51.9064C68.2952 44.8128 61.5485 35.1505 64.0749 25.9973C70.1447 16.2894 80.6127 31.4618 81.0381 28.259C83.5494 8.17653 110.307 24.0655 122.263 25.8849C135.781 29.7958 127.454 44.4108 125.343 53.5939C124.64 57.5298 118.705 70.6174 125.358 62.9112C139.772 53.0114 136.876 82.5775 135.654 90.0959C132.733 107.745 128.011 125.133 120.95 141.588Z" fill="#0A1328"/>
<path fill-rule="evenodd" clip-rule="evenodd" d="M99.1524 94.3583C99.13 94.2071 99.0408 93.9557 99.0949 93.9195C100.896 93.1613 99.2977 91.7314 100.431 90.9655C102.433 90.5874 101.212 94.5304 102.726 93.4442C103.92 90.9807 104.514 88.1135 105.029 85.4773C103.764 84.9059 106.11 84.2984 105.946 82.5378C106.843 80.806 104.29 78.6675 106.243 78.14C106.561 78.4667 106.515 79.5767 106.974 78.9776C107.273 77.6487 108.385 75.61 106.352 76.9147C105.669 76.2912 106.511 73.6237 107.594 74.3742C109.427 74.4888 109.654 67.7826 110.685 65.9724C110.825 65.4635 111.007 65.1277 110.108 65.2439C109.366 65.3399 108.56 64.4641 107.781 65.339C107.712 65.4174 107.239 65.3078 107.229 65.2428C106.619 63.749 104.612 64.188 103.314 63.7575C100.194 63.3979 97.1481 61.1008 94.3312 62.0982C93.8229 60.419 88.5923 60.3242 86.8429 59.9057C86.504 61.6593 86.3743 59.8624 86.1686 59.8359C81.1001 56.2787 82.9803 63.4152 81.15 65.9444C77.2435 67.4189 81.2945 59.7914 81.3967 57.7857C81.7597 55.4898 97.7888 59.0602 97.8823 61.2859C98.8396 61.6809 98.7362 60.5491 99.2371 60.0532C102.864 60.5275 106.651 61.5225 110.409 62.4436C111.716 62.6113 114.14 64.2467 112.89 65.4294C112.083 70.4114 110.063 75.1442 108.917 80.0779C107.297 85.5093 105.666 90.9378 104.131 96.3942C102.916 100.936 96.9967 97.2558 93.7994 97.2356C84.5644 96.3732 81.4789 91.1235 93.187 94.5082C95.2871 94.3926 101.746 98.2726 102.16 95.7009C103.013 95.1593 103.147 94.8252 102.135 94.5946C100.968 94.5812 100.264 96.4965 99.309 95.7121C99.3784 94.91 100.893 93.9723 99.1524 94.3583Z" fill="#0A1328"/>
<path fill-rule="evenodd" clip-rule="evenodd" d="M40.04 57.1311C38.444 51.6303 36.9885 58.4486 37.3614 60.0588C38.3302 60.0999 39.9947 58.5185 40.04 57.1311ZM37.1835 44.5571C32.1041 44.2077 34.0315 50.6499 36.9508 49.9448C37.1093 48.4398 40.1307 44.4654 37.1835 44.5571ZM37.461 42.5694C40.1867 43.1745 39.5469 40.5085 40.7617 38.912C42.711 37.5856 42.0262 40.8907 41.7628 41.8945C41.1113 44.9026 47.2167 45.2544 46.2114 48.9229C43.9929 51.6803 41.3985 38.4439 39.4051 51.3804C39.4708 53.909 44.0255 54.2265 41.9413 59.3069C40.3561 63.5995 35.5302 61.0871 35.2756 65.8361C33.9324 68.5148 31.9757 65.1496 33.1591 63.5069C33.5054 60.8529 28.9583 59.9709 28.9844 56.8395C28.9631 55.8645 28.3904 53.797 29.9026 53.7278C30.9707 53.7332 31.4269 54.637 31.2589 55.5682C31.0142 57.0418 33.3401 60.133 34.4707 58.8282C34.6128 56.3985 37.3053 53.5258 34.8257 51.7743C29.739 48.3865 31.6044 41.5817 37.461 42.5694Z" fill="#0A1328"/>
<path fill-rule="evenodd" clip-rule="evenodd" d="M155.145 128.685C155.127 127.086 153.498 125.518 152.091 126.057C152.34 127.99 154.417 132.668 155.145 128.685ZM146.521 124.192C147.348 124.251 148.164 124.227 147.616 123.215C145.917 114.536 139.33 124.041 146.521 124.192ZM147.276 126.267C142.045 127.41 138.169 120.702 143.624 117.682C146.199 116.381 142.138 114.053 143.889 112.373C144.987 112.301 145.488 113.942 146.046 114.703C147.175 117.302 153.967 113.287 153.499 117.774C146.606 116.767 147.123 117.355 150.384 123.065C152.319 124.715 155.716 122.359 157.216 127.098C158.769 130.155 155.428 131.877 155.695 134.188C156.315 135.276 157.222 136.76 156.038 137.777C154.872 138.143 153.89 136.564 153.543 135.581C152.673 133.858 144.389 135.931 145.045 130.815C146.716 129.162 147.853 133.06 149.862 132.4C153.267 133.154 149.776 125.302 147.276 126.267Z" fill="#0A1328"/>
<path fill-rule="evenodd" clip-rule="evenodd" d="M143.594 217.703C143.974 213.012 157.886 204.73 160.829 207.896C161.627 221.305 154.889 222.359 144.193 218.375C143.993 218.151 143.793 217.927 143.594 217.703Z" fill="#21D5F6"/>
<path fill-rule="evenodd" clip-rule="evenodd" d="M35.1009 104.465C33.8408 95.0833 25.0483 98.9893 23.055 105.751C21.236 107.036 19.7707 104.843 17.8383 106.058C16.2636 106.708 13.9054 106.715 13.2376 108.512C8.08963 116.167 25.7531 122.443 31.0981 118.982C33.6088 114.699 36.7092 108.756 35.1009 104.465ZM36.9995 106.552C36.5326 112.366 35.4178 120.556 28.9909 121.825C22.0356 122.049 13.0086 119.198 10.4929 112.086C9.52737 103.609 18.1839 105.425 22.0889 102.798C26.5712 93.7738 37.568 96.0934 36.9995 106.552Z" fill="#0A1328"/>
<path fill-rule="evenodd" clip-rule="evenodd" d="M7.64392 160.459C9.75404 158.625 10.8782 163.257 12.6996 164.154C20.2317 165.691 28.9742 156.75 22.9349 149.925C22.4485 149.39 22.4369 148.934 23.0514 148.481C29.11 140.632 30.8757 165.84 24.6038 167.615C18.6563 171.053 9.22673 166.801 7.64392 160.459Z" fill="#851F55"/>
<path fill-rule="evenodd" clip-rule="evenodd" d="M181.402 218.595C177.216 215.715 176.703 209.434 171.502 207.209C171.969 203.678 179.015 202.133 182.521 201.324C185.552 198.098 187.454 219.405 181.402 218.595Z" fill="#21D5F6"/>
<path fill-rule="evenodd" clip-rule="evenodd" d="M51.0241 212.228C51.2704 214.959 50.2238 215.928 54.0418 215.544C55.3151 215.46 55.5343 215.271 55.2398 214.021C54.9648 208.072 65.4866 207.178 65.8749 213.499C71.2867 202.24 51.2506 201.331 51.0241 212.228ZM8.29663 214.078C12.7376 219.972 21.1774 217.957 27.5371 217.326C39.2591 217.768 36.875 218.314 35.7484 210.429C38.7111 206.628 37.9511 217.288 40.7531 216.879C43.4358 215.456 47.2098 216.934 49.5126 215.394C46.5322 206.042 61.4395 197.848 67.0016 206.352C69.1215 208.171 67.8948 212.207 69.3353 213.221C67.8717 214.252 65.3812 213.808 63.5626 214.28C64.5051 212.376 63.8551 211.053 61.7877 210.68C58.024 209.163 53.8892 216.365 59.8632 215.298C49.0593 216.91 37.9994 217.635 27.0302 218.306C20.8941 217.823 11.1431 221.45 8.29663 214.078Z" fill="#32DFFF"/>
<path fill-rule="evenodd" clip-rule="evenodd" d="M160.865 70.4712C160.746 67.5943 167.117 66.7784 169.645 66.0208C171.966 66.1691 170.969 70.4656 171.402 72.1547C173.629 78.5977 166.596 77.9903 162.569 80.521C157.567 83.1472 155.773 70.1066 151.096 72.6734C142.719 75.5524 148.703 71.2409 152.509 70.0736C155.347 69.5885 157.01 74.1292 159.204 75.6529C159.209 75.826 159.537 75.9761 159.643 76.2103C159.605 76.3393 159.818 76.3852 159.891 76.5411C161.89 80.3557 166.004 76.3233 169.128 75.6233C169.837 75.1077 169.549 74.4033 169.191 73.9908C168.45 72.8187 169.343 71.3726 168.916 70.0065C168.197 69.3797 168.885 67.901 167.615 69.134C166.401 71.4113 165.356 69.1842 163.528 70.1416C162.655 70.4071 161.777 70.5156 160.865 70.4712Z" fill="#0A1328"/>
<path fill-rule="evenodd" clip-rule="evenodd" d="M181.947 196.991C174.405 198.937 163.028 197.398 171.271 187.832C173.932 183.91 176.121 185.303 178.054 189.096C179.12 191.902 181.502 193.928 181.947 196.991Z" fill="#21D5F6"/>
<path fill-rule="evenodd" clip-rule="evenodd" d="M173.623 184.279C167.616 186.219 167.694 196.777 165.529 193.762C161.841 190.662 161.248 185.755 161.987 181.236C162.021 174.949 172.23 181.697 173.623 184.279Z" fill="#21D5F6"/>
<path fill-rule="evenodd" clip-rule="evenodd" d="M7.72829 161.689C20.1406 177.532 33.7108 165.222 26.9248 148.467C23.7521 140.135 31.6011 151.374 30.2788 157.499C32.2999 168.619 19.5342 174.807 11.1957 167.883C9.84404 166.812 3.60266 160.92 7.72829 161.689Z" fill="#32DFFF"/>
<path fill-rule="evenodd" clip-rule="evenodd" d="M86.9904 40.2503C81.3875 45.883 91.4282 54.0383 95.2634 46.8068C98.0937 42.1344 91.1472 36.3455 86.9904 40.2503ZM89.9924 51.9704C82.4407 51.5312 80.5144 39.3272 88.6239 37.4695C99.7366 34.4696 101.253 52.5798 89.9924 51.9704Z" fill="#0A1328"/>
<path fill-rule="evenodd" clip-rule="evenodd" d="M165.313 219.788C165.059 214.874 168.437 203.347 172.561 212.706C183.694 223.393 174.64 218.733 165.313 219.788Z" fill="#21D5F6"/>
<path fill-rule="evenodd" clip-rule="evenodd" d="M10.7448 158.246C12.8208 156.075 14.8246 153.701 17.5136 152.274C18.6374 154.213 17.2723 156.398 15.1495 156.011C14.98 160.693 23.0166 153.327 18.4413 151.355C21.8473 147.233 24.5532 155.628 22.3514 158.11C19.6839 162.263 11.8657 164.939 10.7448 158.246Z" fill="#851F55"/>
<path fill-rule="evenodd" clip-rule="evenodd" d="M118.979 9.549C117.877 11.3612 127.453 7.85913 125.469 7.107C119.233 2.06242 119.478 0.927709 118.979 9.549ZM116.558 10.5844C117.516 8.38657 116.02 -1.96143 120.55 0.913179C122.126 3.04929 131.366 6.39726 128.278 9.03834C125.283 9.4323 115.681 16.9725 116.558 10.5844Z" fill="#0A1328"/>
<path fill-rule="evenodd" clip-rule="evenodd" d="M183.089 200.165C172.855 199.864 168.463 213.611 168.074 197.712C168.089 196.592 169.634 197.796 170.221 197.882C174.329 201.218 182.828 195.474 183.089 200.165Z" fill="#21D5F6"/>
<path fill-rule="evenodd" clip-rule="evenodd" d="M158.608 220.235C165.853 211.434 156.406 204.858 167.999 206.921C169.989 206.523 163.915 212.676 164.324 216.936C164.735 221.899 163.199 218.928 160.227 220.309C160 220.563 159.165 220.274 158.608 220.235Z" fill="#21D5F6"/>
<path fill-rule="evenodd" clip-rule="evenodd" d="M10.7491 158.248C12.0111 166.232 23.7732 160.994 23.1973 154.848C23.0817 151.639 19.3086 149.873 23.4771 147.95C23.065 148.695 22.0692 149.152 22.9487 149.982C28.575 156.005 21.2471 165.38 14.014 164.163C12.1238 164.755 11.2259 162.573 10.1665 161.393C9.31168 160.083 9.41255 160.017 7.80701 160.162C8.31561 158.795 9.54756 158.545 10.7491 158.248Z" fill="#32DFFF"/>
<path fill-rule="evenodd" clip-rule="evenodd" d="M101.243 50.0269C104.141 51.2772 115.352 50.9294 115.026 54.8271C114.426 56.3726 93.5053 50.5205 101.243 50.0269Z" fill="#0A1328"/>
<path fill-rule="evenodd" clip-rule="evenodd" d="M83.6216 105.694C86.4294 105.378 89.1409 110.438 85.0015 107.939C81.0873 105.728 78.4277 112.901 82.8656 113.673C83.5598 113.832 84.6854 113.884 84.5288 114.908C78.4924 119.327 75.0392 105.874 83.6216 105.694Z" fill="#0A1328"/>
<path fill-rule="evenodd" clip-rule="evenodd" d="M115.927 47.9053C114.221 46.9986 98.7936 45.3256 102.802 42.8459C104.528 43.5264 121.847 45.1518 115.927 47.9053Z" fill="#0A1328"/>
<path fill-rule="evenodd" clip-rule="evenodd" d="M100.713 26.1987C102.479 26.937 115.424 27.6927 111.026 30.7685C109.695 30.5348 94.8985 27.7959 100.713 26.1987Z" fill="#0A1328"/>
<path fill-rule="evenodd" clip-rule="evenodd" d="M59.9087 215.218C54.6662 216.328 57.2518 210.211 60.7543 210.473C64.7716 210.13 65.1947 215.313 60.913 214.293C60.0988 214.205 60.2578 214.938 59.9087 215.218Z" fill="#851F55"/>
<path fill-rule="evenodd" clip-rule="evenodd" d="M169.989 79.0775C173.012 79.0262 174.268 83.9254 171.203 84.6149C168.425 84.9018 167.175 79.5882 169.989 79.0775Z" fill="#0A1328"/>
<path fill-rule="evenodd" clip-rule="evenodd" d="M161.873 83.5936C162.366 81.2132 165.233 79.1907 166.454 82.2805C168.147 86.391 162.482 88.0832 161.873 83.5936Z" fill="#0A1328"/>
<path fill-rule="evenodd" clip-rule="evenodd" d="M38.118 137.831C38.5633 139.517 42.3318 145.286 39.6644 145.174C37.9935 144.183 37.5319 138.693 35.3938 139.927C33.423 141.564 31.1728 142.78 28.8606 143.943C31.4338 141.51 34.8224 139.429 38.118 137.831Z" fill="#32DFFF"/>
<path fill-rule="evenodd" clip-rule="evenodd" d="M51.1062 98.0865C51.1714 96.8753 49.9641 94.8679 50.9663 94.0608C51.2506 94.338 51.512 94.3883 51.6365 93.9677C49.8078 92.9375 50.8499 91.7898 51.2154 90.0627C51.8475 89.2527 51.9836 90.9827 51.7976 91.2596C51.0994 92.162 51.4527 92.3787 52.3464 92.4799C52.6279 92.7146 53.4729 93.4109 52.6672 93.7542C52.3305 94.6442 52.6692 94.8506 53.5086 94.9571C53.2373 93.9713 54.3325 93.5897 54.8637 94.121C55.4303 94.7454 54.2178 95.073 54.5778 95.5196C55.0105 96.0042 57.0858 96.7174 55.5692 97.333C54.3489 99.1525 53.5984 98.7077 52.724 96.9241C52.1042 97.1968 50.8711 97.1404 51.1062 98.0865Z" fill="#2F5DCA"/>
<path fill-rule="evenodd" clip-rule="evenodd" d="M1.17197 172.361C2.05506 172.924 1.05359 173.749 1.44953 174.385C3.19576 173.399 4.93509 172.384 6.71508 171.451C11.1978 172.228 -2.18187 181.102 1.17197 172.361Z" fill="#32DFFF"/>
<path fill-rule="evenodd" clip-rule="evenodd" d="M1.93176 186.956C3.2742 187.945 1.93298 192.065 4.10751 191.031C5.15749 189.305 8.51038 189.781 6.55177 191.765C3.55431 194.219 2.4691 194.071 2.81066 198.217C1.46746 194.505 3.11852 190.672 1.93176 186.956Z" fill="#32DFFF"/>
<path fill-rule="evenodd" clip-rule="evenodd" d="M108.112 66.9052C107.636 65.2789 109.403 66.1701 109.484 67.0555C108.848 67.8995 108.648 69.8916 107.404 69.7693C106.958 69.3522 107.228 68.4881 106.897 67.9599C105.03 69.9657 103.735 65.0884 106.542 65.7583C107.751 65.8584 105.458 67.9269 108.112 66.9052Z" fill="#0A1328"/>
<path fill-rule="evenodd" clip-rule="evenodd" d="M18.4664 151.377C23.0668 153.356 14.9857 160.735 15.154 156.045C19.151 156.557 16.789 152.769 18.4664 151.377Z" fill="#32DFFF"/>
<path fill-rule="evenodd" clip-rule="evenodd" d="M169.054 75.6851C166.823 77.0061 164.067 77.3335 164.754 74.0406C165.614 73.8424 165.814 75.0155 166.575 75.0219C167.954 73.7318 167.835 75.4537 169.054 75.6851Z" fill="#32DFFF"/>
<path fill-rule="evenodd" clip-rule="evenodd" d="M90.5409 67.553C88.8034 68.1415 91.6923 69.034 90.6414 70.0358C87.5522 72.4584 87.4345 66.0674 90.5409 67.553Z" fill="#2F5DCA"/>
<path fill-rule="evenodd" clip-rule="evenodd" d="M90.54 67.6332C87.0989 67.0356 93.9706 63.9968 93.6414 66.9985C93.6845 68.7966 91.7983 65.8237 91.5437 67.6136C91.5259 67.6911 90.8887 67.6299 90.54 67.6332Z" fill="#0A1328"/>
<path fill-rule="evenodd" clip-rule="evenodd" d="M86.7486 65.1475C88.507 61.4725 89.4392 65.2331 87.5592 66.3426C86.8431 70.4075 84.921 67.226 86.7486 65.1475Z" fill="#0A1328"/>
<path fill-rule="evenodd" clip-rule="evenodd" d="M93.8528 82.2501C93.7607 82.0762 93.6416 82.2069 93.5124 82.2525C93.6054 82.4241 93.724 82.2964 93.8528 82.2501ZM95.2272 82.4526C96.2507 84.6017 93.358 81.9657 93.8364 83.8837C91.965 88.8761 92.2991 76.7022 95.2272 82.4526Z" fill="#32DFFF"/>
<path fill-rule="evenodd" clip-rule="evenodd" d="M66.3976 93.951C64.6401 94.5093 63.3112 93.3371 62.7754 91.7097C62.9697 93.5208 61.6685 92.1291 61.175 91.4075C62.4636 90.827 64.0682 91.2433 64.789 92.6694C65.1899 93.4626 65.7286 93.6953 66.3976 93.951Z" fill="#2F5DCA"/>
<path fill-rule="evenodd" clip-rule="evenodd" d="M1.04079 177.49C1.08972 180.67 1.52268 183.81 1.93174 186.956C0.437991 184.132 0.352495 180.598 1.04079 177.49Z" fill="#32DFFF"/>
<path fill-rule="evenodd" clip-rule="evenodd" d="M62.4256 71.3752C61.7363 69.8724 64.6521 69.4392 62.655 67.928C63.529 67.319 64.3438 68.5995 64.7223 67.3426C64.7886 67.1521 65.2795 67.1103 65.5757 67.0002C65.7273 68.8564 62.9476 69.5415 63.113 71.1443C63.771 71.8573 62.8069 73.0424 62.4256 71.3752Z" fill="#21D5F6"/>
<path fill-rule="evenodd" clip-rule="evenodd" d="M95.195 82.5047C94.5408 80.1602 92.8317 81.8703 93.1452 80.7327C92.4349 80.2033 93.0098 77.8715 94.2736 79.1076C93.7417 80.0341 94.8626 80.1489 95.0707 80.7121C96.1783 78.9901 96.23 82.3826 95.195 82.5047Z" fill="#2F5DCA"/>
<path fill-rule="evenodd" clip-rule="evenodd" d="M83.5342 65.2048C83.6005 64.1333 85.6652 63.6706 84.5805 63.5279C83.9962 63.6928 84.6074 62.4756 84.7914 62.3557C85.1316 62.1974 86.4907 62.1878 86.0032 62.8699C84.4742 63.7582 89.3419 64.0659 83.5342 65.2048Z" fill="#0A1328"/>
<path fill-rule="evenodd" clip-rule="evenodd" d="M3.61143 200.991C4.09339 203.624 4.70098 206.23 5.3591 208.825C3.76115 207.227 3.42129 203.423 3.61143 200.991Z" fill="#32DFFF"/>
<path fill-rule="evenodd" clip-rule="evenodd" d="M99.2019 95.7249C100.391 96.6116 101.517 93.3894 102.956 95.0813C101.532 95.6188 101.806 98.394 99.2019 95.7249Z" fill="#32DFFF"/>
<path fill-rule="evenodd" clip-rule="evenodd" d="M164.696 73.9286C163.837 74.442 163.073 74.5037 162.199 73.9802C162.977 72.2462 165.172 72.8529 164.771 70.7539C165.308 71.496 164.595 73.0044 164.696 73.9286Z" fill="#32DFFF"/>
<path fill-rule="evenodd" clip-rule="evenodd" d="M89.6349 60.3088C91.8991 61.2209 90.6425 65.9236 89.2463 62.5105C90.3529 61.9264 89.8359 61.0917 89.6349 60.3088Z" fill="#2F5DCA"/>
<path fill-rule="evenodd" clip-rule="evenodd" d="M103.782 76.4409C101.944 76.2663 103.62 74.0646 104.499 73.5283C104.053 74.6586 105.736 76.7162 103.782 76.4409Z" fill="#2F5DCA"/>
<path fill-rule="evenodd" clip-rule="evenodd" d="M97.0643 95.5609C95.859 95.2941 95.6833 95.2021 96.2417 94.1403C96.3018 93.3864 96.475 93.2064 97.1049 93.7676C98.3713 94.2496 98.3974 95.2657 97.0643 95.5609Z" fill="#32DFFF"/>
<path fill-rule="evenodd" clip-rule="evenodd" d="M104.67 76.9556C105.447 80.7382 100.24 79.6542 104.464 76.9641C104.523 77.0004 104.614 76.9959 104.67 76.9556Z" fill="#0A1328"/>
<path fill-rule="evenodd" clip-rule="evenodd" d="M165.073 71.0053C164.602 70.4307 164.297 69.9531 163.505 70.1194C165.373 68.522 169.234 73.1135 165.073 71.0053Z" fill="#2F5DCA"/>
<path fill-rule="evenodd" clip-rule="evenodd" d="M66.0712 57.982C67.3308 54.1334 69.2996 60.4741 66.8907 58.6733C67.2163 57.6865 66.4348 58.0981 66.0712 57.982Z" fill="#2F5DCA"/>
<path fill-rule="evenodd" clip-rule="evenodd" d="M95.7724 79.8942C95.2506 80.9659 93.7923 80.1085 94.2201 78.9269C95.0947 78.5617 96.8232 78.7106 95.7724 79.8942Z" fill="#0A1328"/>
<path fill-rule="evenodd" clip-rule="evenodd" d="M99.2017 59.9946C98.6996 60.4929 98.801 61.5865 97.8411 61.2107C95.9876 59.3556 97.17 59.4611 99.2017 59.9946Z" fill="#2F5DCA"/>
<path fill-rule="evenodd" clip-rule="evenodd" d="M56.1253 79.2404C55.3486 78.9953 56.168 77.7744 56.1266 77.1228C56.2555 78.4318 56.816 77.1485 57.3944 76.9556C57.5965 77.9609 56.6163 78.5024 56.1253 79.2404Z" fill="#2F5DCA"/>
<path fill-rule="evenodd" clip-rule="evenodd" d="M95.6067 68.3058C94.4844 65.7131 96.6657 68.5845 96.5678 66.5105C97.2978 67.1155 96.8384 68.0101 95.6067 68.3058Z" fill="#2F5DCA"/>
<path fill-rule="evenodd" clip-rule="evenodd" d="M104.914 68.7316C103.895 70.1662 103.609 69.1486 102.792 68.2644C103.377 67.2268 104.066 68.2509 104.914 68.7316Z" fill="#2F5DCA"/>
<path fill-rule="evenodd" clip-rule="evenodd" d="M70.9673 213.025C72.2429 212.269 73.3339 211.241 74.8842 212.07C73.5574 212.309 72.425 213.284 70.9673 213.025Z" fill="#32DFFF"/>
<path fill-rule="evenodd" clip-rule="evenodd" d="M66.8299 58.6768C67.9531 59.0604 68.058 60.356 66.7621 60.472C66.0432 59.6611 66.0521 59.4224 66.8299 58.6768Z" fill="#32DFFF"/>
<path fill-rule="evenodd" clip-rule="evenodd" d="M55.1366 126.899C54.4288 127.388 53.7213 127.877 53.0149 128.365C53.4035 127.408 54.0622 126.849 55.1366 126.899Z" fill="#0A1328"/>
<path fill-rule="evenodd" clip-rule="evenodd" d="M61.8279 65.5447L61.829 65.5617C62.4871 65.1891 62.5061 64.1452 63.2778 64.7224C63.8715 66.1029 62.9151 66.0186 61.8279 65.5447Z" fill="#2F5DCA"/>
<path fill-rule="evenodd" clip-rule="evenodd" d="M75.7307 211.552C76.6854 210.302 79.6906 210.294 77.1547 211.62C76.8257 211.563 75.4825 212.014 75.7307 211.552Z" fill="#2F5DCA"/>
<path fill-rule="evenodd" clip-rule="evenodd" d="M104.588 71.0803C105.231 71.3738 106.45 71.2196 105.931 72.5152C105.468 73.7392 104.884 71.4859 104.588 71.0803Z" fill="#2F5DCA"/>
<path fill-rule="evenodd" clip-rule="evenodd" d="M83.5406 65.2728C84.4019 64.9506 85.2494 65.8532 85.3294 66.3247C84.5293 66.8734 83.4406 66.1121 83.5406 65.2728Z" fill="#2F5DCA"/>
<path fill-rule="evenodd" clip-rule="evenodd" d="M97.8299 76.9556C98.5435 77.7429 99.0152 78.3007 97.8091 78.5876C96.8329 78.2907 97.3091 77.6234 97.8299 76.9556Z" fill="#2F5DCA"/>
<path fill-rule="evenodd" clip-rule="evenodd" d="M53.7094 98.3572C54.3304 98.9311 54.6244 98.2249 55.0452 98.009C56.146 99.7965 53.2934 100.399 53.7094 98.3572Z" fill="#21D5F6"/>
<path fill-rule="evenodd" clip-rule="evenodd" d="M161.064 78.098C160.067 76.8523 161.66 77.5585 161.229 75.6499C162.47 76.0956 161.634 77.4166 161.064 78.098Z" fill="#21D5F6"/>
<path fill-rule="evenodd" clip-rule="evenodd" d="M66.8052 60.4979C68.619 59.3461 68.4085 63.9037 66.2344 62.2131C67.3835 61.9926 67.4614 61.7583 66.8052 60.4979Z" fill="#21D5F6"/>
<path fill-rule="evenodd" clip-rule="evenodd" d="M105.54 68.6513C107.047 68.375 106.379 71.2217 104.751 70.2086C105.1 69.5744 106.108 69.34 105.54 68.6513Z" fill="#32DFFF"/>
<path fill-rule="evenodd" clip-rule="evenodd" d="M111.279 71.2435C111.605 70.427 111.931 69.6104 112.258 68.7954C113.529 69.6454 112.01 70.6862 111.279 71.2435Z" fill="#21D5F6"/>
<path fill-rule="evenodd" clip-rule="evenodd" d="M59.7479 87.0743C58.9737 86.4439 58.6904 85.3051 59.725 84.9526C60.6103 84.9628 59.5335 85.89 60.1958 86.0503C60.0743 86.328 59.9529 86.6058 59.7479 87.0743Z" fill="#2F5DCA"/>
<path fill-rule="evenodd" clip-rule="evenodd" d="M54.7902 93.7195C53.7573 94.1285 54.6705 91.6991 55.2238 91.3176C55.4641 92.187 55.0835 92.9318 54.7902 93.7195Z" fill="#32DFFF"/>
<path fill-rule="evenodd" clip-rule="evenodd" d="M54.2925 93.2763C54.5139 94.3536 53.3665 93.7927 52.6894 93.7033C53.4665 93.369 52.7306 93.0361 52.6884 92.7026C53.3153 92.6477 54.0216 92.3815 54.2925 93.2763Z" fill="#0A1328"/>
<path fill-rule="evenodd" clip-rule="evenodd" d="M92.0209 88.0404C92.3984 87.7173 92.7489 87.0744 93.1633 87.6004C92.7155 88.37 92.6076 89.4063 92.0209 88.0404Z" fill="#32DFFF"/>
<path fill-rule="evenodd" clip-rule="evenodd" d="M95.4482 85.5338C94.1984 85.8664 93.6773 84.9778 94.6425 84.1365C94.8914 84.5686 95.1407 85.0007 95.4482 85.5338Z" fill="#2F5DCA"/>
<path fill-rule="evenodd" clip-rule="evenodd" d="M95.4481 89.7339C94.6802 90.7721 94.4645 89.7404 93.9792 89.0766C94.4312 88.1371 94.9205 89.2223 95.4481 89.7339Z" fill="#21D5F6"/>
<path fill-rule="evenodd" clip-rule="evenodd" d="M1.36296 168.677C1.94213 169.734 1.31365 170.746 1.21993 171.778C0.662297 170.721 1.11039 169.703 1.36296 168.677Z" fill="#32DFFF"/>
<path fill-rule="evenodd" clip-rule="evenodd" d="M62.893 72.386C62.893 72.386 62.9908 72.4081 62.9904 72.4078C63.5292 73.0118 64.0646 73.6173 63.6228 74.5076C63.3827 73.7519 61.7258 72.8307 62.893 72.386Z" fill="#2F5DCA"/>
<path fill-rule="evenodd" clip-rule="evenodd" d="M56.8336 80.897C56.4026 80.2255 58.2371 80.0563 58.727 80.3761C58.4266 81.3791 57.6161 80.9562 56.8336 80.897Z" fill="#2F5DCA"/>
<path fill-rule="evenodd" clip-rule="evenodd" d="M62.4807 85.5735C61.9223 85.9019 61.3447 86.9548 61.0171 86.0848C60.9324 85.2084 61.8846 85.0614 62.4807 85.5735Z" fill="#2F5DCA"/>
<path fill-rule="evenodd" clip-rule="evenodd" d="M101.813 82.2141C100.991 83.1007 100.853 82.5295 100.344 81.8435C100.677 81.0664 101.229 81.9194 101.813 82.2141Z" fill="#2F5DCA"/>
<path fill-rule="evenodd" clip-rule="evenodd" d="M85.6905 67.1633C86.3481 67.9989 85.7964 68.2213 85.0031 68.6322C85.2447 68.1642 85.1536 67.3971 85.6905 67.1633Z" fill="#2F5DCA"/>
<path fill-rule="evenodd" clip-rule="evenodd" d="M95.3071 75.4867C94.8984 74.921 95.2397 74.5926 95.615 74.3442C96.538 74.6014 95.9811 74.9853 95.3071 75.4867Z" fill="#32DFFF"/>
<path fill-rule="evenodd" clip-rule="evenodd" d="M66.2027 62.104C69.1913 62.8629 65.4747 63.684 65.9509 62.4512C66.1384 62.4378 66.0301 62.1902 66.2027 62.104Z" fill="#2F5DCA"/>
<path fill-rule="evenodd" clip-rule="evenodd" d="M6.50146 210.783C6.77347 211.328 7.04548 211.872 7.31749 212.415C7.04533 211.871 6.77347 211.327 6.50146 210.783Z" fill="#32DFFF"/>
<path fill-rule="evenodd" clip-rule="evenodd" d="M5.53536 209.478L6.50145 210.784C5.65782 210.689 5.46555 210.169 5.53536 209.478Z" fill="#32DFFF"/>
<path fill-rule="evenodd" clip-rule="evenodd" d="M64.7656 58.8273C65.1466 58.6137 65.5274 58.4004 65.9081 58.187C65.8166 58.8819 65.2939 58.8597 64.7656 58.8273Z" fill="#32DFFF"/>
<path fill-rule="evenodd" clip-rule="evenodd" d="M104.651 77.0807C104.594 77.1267 104.502 77.1327 104.443 77.0903C102.663 76.215 106.261 76.3051 104.651 77.0807Z" fill="#32DFFF"/>
<path fill-rule="evenodd" clip-rule="evenodd" d="M25.1068 146.481C24.889 146.699 24.6713 146.917 24.454 147.134C24.6719 146.915 24.8893 146.698 25.1068 146.481Z" fill="#32DFFF"/>
<path fill-rule="evenodd" clip-rule="evenodd" d="M75.7003 211.76C76.1901 211.706 76.6797 211.653 77.1692 211.6C76.7394 212.296 76.2318 212.155 75.7003 211.76Z" fill="#32DFFF"/>
<path fill-rule="evenodd" clip-rule="evenodd" d="M99.0386 94.3369C99.4145 94.2807 99.774 94.1289 100.018 94.4773C99.6622 94.7181 99.3782 94.4874 99.0386 94.3369Z" fill="#32DFFF"/>
<path fill-rule="evenodd" clip-rule="evenodd" d="M28.0445 144.522C27.881 144.686 27.7176 144.849 27.5549 145.012C27.7188 144.848 27.8816 144.685 28.0445 144.522Z" fill="#32DFFF"/>
<path fill-rule="evenodd" clip-rule="evenodd" d="M3.2373 199.849C3.29174 200.067 3.34618 200.284 3.40051 200.502C3.34607 200.284 3.29164 200.066 3.2373 199.849Z" fill="#32DFFF"/>
<path fill-rule="evenodd" clip-rule="evenodd" d="M56.2564 81.6885C56.0308 81.1083 56.0296 80.9627 56.6053 81.0666C56.489 81.2738 56.3726 81.4811 56.2564 81.6885Z" fill="#2F5DCA"/>
<path fill-rule="evenodd" clip-rule="evenodd" d="M95.4481 61.6592C95.8586 61.3145 96.1882 61.3914 96.4273 61.9408C96.101 61.8469 95.7746 61.753 95.4481 61.6592Z" fill="#2F5DCA"/>
<path fill-rule="evenodd" clip-rule="evenodd" d="M7.64391 160.517C7.62494 160.734 7.60584 160.952 7.58674 161.169C7.22142 160.908 7.21589 160.687 7.64391 160.517Z" fill="#32DFFF"/>
<path fill-rule="evenodd" clip-rule="evenodd" d="M15.9674 153.009C15.7495 153.118 15.5318 153.227 15.3146 153.335C15.5323 153.226 15.7499 153.118 15.9674 153.009Z" fill="#32DFFF"/>
<path fill-rule="evenodd" clip-rule="evenodd" d="M84.5136 65.2049C84.5042 64.6621 84.7665 64.622 85.1661 64.8362C84.9486 64.9591 84.7311 65.0819 84.5136 65.2049Z" fill="#2F5DCA"/>
<path fill-rule="evenodd" clip-rule="evenodd" d="M96.7538 61.9407C97.0802 62.0493 97.4065 62.1583 97.733 62.2671C97.4067 62.1583 97.0803 62.0495 96.7538 61.9407Z" fill="#2F5DCA"/>
<path fill-rule="evenodd" clip-rule="evenodd" d="M86.3086 68.2294C86.5263 68.2259 86.744 68.2225 86.9614 68.2192C86.7437 68.2227 86.5261 68.2259 86.3086 68.2294Z" fill="#851F55"/>
<path fill-rule="evenodd" clip-rule="evenodd" d="M160.512 69.2849C160.53 69.557 160.549 69.829 160.567 70.1009C160.24 69.8539 160.058 69.5954 160.512 69.2849Z" fill="#2F5DCA"/>
<path fill-rule="evenodd" clip-rule="evenodd" d="M56.4421 80.5181C55.9271 80.617 55.8303 80.4509 56.0958 80.0564C56.2114 80.2107 56.3267 80.3644 56.4421 80.5181Z" fill="#2F5DCA"/>
<path fill-rule="evenodd" clip-rule="evenodd" d="M84.2055 63.5883C84.4879 63.5282 84.7399 63.6558 85.003 63.7391C84.736 63.8449 84.0677 64.1057 84.2055 63.5883Z" fill="#2F5DCA"/>
<path fill-rule="evenodd" clip-rule="evenodd" d="M100.181 60.3087C99.9628 60.2543 99.7447 60.1996 99.5283 60.1455C99.7472 60.2001 99.9642 60.2545 100.181 60.3087Z" fill="#2F5DCA"/>
<path fill-rule="evenodd" clip-rule="evenodd" d="M106.22 76.9509C106.383 76.8995 106.546 76.848 106.709 76.7969C106.546 76.8484 106.383 76.8999 106.22 76.9509Z" fill="#32DFFF"/>
<path fill-rule="evenodd" clip-rule="evenodd" d="M144.072 218.392C144.072 218.392 144.019 218.339 144.019 218.339C143.99 218.361 143.96 218.383 143.931 218.406C143.978 218.401 144.025 218.397 144.072 218.392Z" fill="#2F5DCA"/>
<path fill-rule="evenodd" clip-rule="evenodd" d="M60.3673 77.282L60.514 77.6084C60.4771 77.497 60.4161 77.3844 60.3673 77.282Z" fill="#0A1328"/>
<path fill-rule="evenodd" clip-rule="evenodd" d="M61.7057 65.0416C61.7328 64.8783 61.76 64.715 61.787 64.552C61.7599 64.7153 61.7328 64.8785 61.7057 65.0416Z" fill="#2F5DCA"/>
<path fill-rule="evenodd" clip-rule="evenodd" d="M38.816 137.341C38.6526 137.396 38.4888 137.45 38.3264 137.505C38.4905 137.45 38.6533 137.396 38.816 137.341Z" fill="#32DFFF"/>
<path fill-rule="evenodd" clip-rule="evenodd" d="M62.3175 67.8096C62.2083 67.7593 62.099 67.7094 61.9911 67.6594C62.1009 67.7099 62.2091 67.7596 62.3175 67.8096Z" fill="#2F5DCA"/>
<path fill-rule="evenodd" clip-rule="evenodd" d="M60.8487 90.9912C60.6851 90.882 60.5214 90.7732 60.3591 90.6648C60.5235 90.774 60.6861 90.8826 60.8487 90.9912Z" fill="#2F5DCA"/>
<path fill-rule="evenodd" clip-rule="evenodd" d="M87.5574 66.3472C87.3046 66.063 87.5533 66.0905 87.7775 66.0208C87.7039 66.1301 87.6306 66.2387 87.5574 66.3472Z" fill="#851F55"/>
<path fill-rule="evenodd" clip-rule="evenodd" d="M23.9643 147.623C23.8009 147.678 23.6372 147.732 23.4747 147.786C23.6385 147.732 23.8014 147.677 23.9643 147.623Z" fill="#32DFFF"/>
<path fill-rule="evenodd" clip-rule="evenodd" d="M92.7406 79.4036C92.7873 79.5258 92.9264 79.6414 92.7496 79.73C92.7168 79.6123 92.6015 79.4972 92.7406 79.4036Z" fill="#32DFFF"/>
<path fill-rule="evenodd" clip-rule="evenodd" d="M3.0741 198.87C3.15773 198.979 3.3215 199.054 3.18474 199.196C3.14786 199.087 3.11098 198.978 3.0741 198.87Z" fill="#32DFFF"/>
<path fill-rule="evenodd" clip-rule="evenodd" d="M159.719 76.2821C159.611 76.2906 159.587 76.2643 159.621 76.161C159.731 76.1515 159.748 76.1776 159.719 76.2821Z" fill="#21D5F6"/>
<path fill-rule="evenodd" clip-rule="evenodd" d="M67.8665 56.3468L68.1929 56.2737C68.0841 56.298 67.9754 56.3225 67.8665 56.3468Z" fill="#2F5DCA"/>
<path fill-rule="evenodd" clip-rule="evenodd" d="M123.546 135.546C123.583 135.437 123.619 135.328 123.656 135.219C123.619 135.329 123.583 135.437 123.546 135.546Z" fill="#2F5DCA"/>
<path fill-rule="evenodd" clip-rule="evenodd" d="M67.3549 93.8583C67.3148 93.865 67.2746 93.8715 67.2355 93.8781C67.2725 93.8025 67.2963 93.797 67.3549 93.8583Z" fill="#2F5DCA"/>
<path fill-rule="evenodd" clip-rule="evenodd" d="M159.896 76.6189C159.776 76.6287 159.744 76.5908 159.77 76.4756C159.888 76.4693 159.921 76.5009 159.896 76.6189Z" fill="#21D5F6"/>
<path fill-rule="evenodd" clip-rule="evenodd" d="M66.0541 62.2671C66.0833 62.3685 66.032 62.4171 65.9229 62.4303C65.8998 62.3286 65.9431 62.2744 66.0541 62.2671Z" fill="#21D5F6"/>
<path fill-rule="evenodd" clip-rule="evenodd" d="M60.9609 91.2956C60.869 91.2872 60.849 91.2611 60.8893 91.1765C60.9975 91.1822 61.0163 91.1961 60.9609 91.2956Z" fill="#2F5DCA"/>
<path fill-rule="evenodd" clip-rule="evenodd" d="M88.2671 65.6945C88.3759 65.6399 88.4847 65.5857 88.5935 65.5312C88.4845 65.5858 88.3759 65.6401 88.2671 65.6945Z" fill="#851F55"/>
<path fill-rule="evenodd" clip-rule="evenodd" d="M99.4679 95.1239C99.5198 95.2088 99.4991 95.2014 99.416 95.1866C99.3885 95.1087 99.3797 95.0953 99.4679 95.1239Z" fill="#32DFFF"/>
<path fill-rule="evenodd" clip-rule="evenodd" d="M1.19153 167.698C1.24319 167.811 1.33789 167.911 1.2282 168.024C1.17001 167.903 1.02876 167.803 1.19153 167.698Z" fill="#32DFFF"/>
<path fill-rule="evenodd" clip-rule="evenodd" d="M93.0212 80.7746C93.0616 80.7665 93.1017 80.7582 93.142 80.75C93.0844 80.7866 93.025 80.899 93.0212 80.7746Z" fill="#32DFFF"/>
<path fill-rule="evenodd" clip-rule="evenodd" d="M5.35901 209.151C5.4135 209.26 5.46786 209.369 5.52221 209.478C5.46773 209.369 5.41337 209.26 5.35901 209.151Z" fill="#32DFFF"/>
<path fill-rule="evenodd" clip-rule="evenodd" d="M61.6348 67.3172C61.4543 67.2607 61.4603 67.2456 61.633 67.1726C61.6743 67.2211 61.6755 67.2674 61.6348 67.3172Z" fill="#2F5DCA"/>
<path fill-rule="evenodd" clip-rule="evenodd" d="M159.236 75.8029C159.113 75.812 159.089 75.7729 159.12 75.6589C159.241 75.6583 159.276 75.6805 159.236 75.8029Z" fill="#21D5F6"/>
<path fill-rule="evenodd" clip-rule="evenodd" d="M61.7211 66.021C61.6945 65.8964 61.5856 65.7693 61.772 65.6946C61.7983 65.8194 61.9073 65.946 61.7211 66.021Z" fill="#2F5DCA"/>
<path fill-rule="evenodd" clip-rule="evenodd" d="M7.48071 212.742C7.58977 212.851 7.69863 212.96 7.80712 213.068C7.69826 212.959 7.58958 212.851 7.48071 212.742Z" fill="#32DFFF"/>
<path fill-rule="evenodd" clip-rule="evenodd" d="M86.7982 65.2048C86.8527 65.2592 86.9073 65.3139 86.9614 65.368C86.9069 65.3135 86.8526 65.2592 86.7982 65.2048Z" fill="#851F55"/>
<path fill-rule="evenodd" clip-rule="evenodd" d="M121.285 141.811C121.285 141.811 121.348 141.848 121.348 141.848C121.347 141.849 121.285 141.811 121.285 141.811Z" fill="#0A1328"/>
<path fill-rule="evenodd" clip-rule="evenodd" d="M27.367 145.057C27.3547 145.156 27.3389 145.175 27.2531 145.114C27.2671 145.034 27.2947 145.022 27.367 145.057Z" fill="#32DFFF"/>
<path fill-rule="evenodd" clip-rule="evenodd" d="M7.19935 205.125C8.63701 192.967 31.2858 200.481 19.2978 209.66C14.398 212.035 11.7241 203.745 16.465 202.079C18.72 201.221 21.1036 204.789 18.948 206.008C15.8746 205.717 19.4249 204.797 18.3278 203.829C16.8405 202.611 15.2206 204.062 15.4042 205.898C16.108 210.42 22.2774 207.017 20.7248 203.577C18.6058 197.969 7.12573 200.51 9.28745 206.729C13.8565 218.088 29.4764 212.959 23.8219 201.295C20.2854 194.638 11.8556 196.878 7.56787 201.48C5.82003 201.072 10.0919 197.539 11.4679 196.821C19.7255 191.571 29.9866 200.71 26.7949 209.472C22.7212 219.643 7.20388 215.031 7.19935 205.125Z" fill="#32DFFF"/>
<path fill-rule="evenodd" clip-rule="evenodd" d="M86.6415 172.992C97.8762 172.135 94.5857 191.234 84.9159 187.259C79.9297 185.168 82.6754 173.159 88.3574 177.365C90.0592 178.85 89.7871 183.586 86.8442 182.117C86.1202 180.798 88.1604 181.214 88.193 180.218C88.2305 179.131 87.4983 177.943 86.5159 177.738C80.714 179.047 85.9027 190.526 90.5124 183.655C97.0806 174.657 81.3266 170.795 78.4371 179.747C75.9296 187.675 84.4635 192.022 90.8058 188.169C92.5765 186.704 94.9486 184.959 93.2079 188.616C89.6977 192.669 84.1364 192.032 79.5036 190.553C72.4765 184.805 77.4612 171.84 86.6415 172.992Z" fill="#32DFFF"/>
<path fill-rule="evenodd" clip-rule="evenodd" d="M58.6306 138.467C58.4678 137.99 58.2681 138.375 57.9837 138.513C58.1154 138.824 58.3934 138.511 58.6306 138.467ZM56.1182 140.308C56.3285 145.571 62.6303 140.375 61.4587 137.215C59.7168 131.992 50.8346 133.83 52.2025 139.753C50.7276 150.256 67.0508 149.99 66.5509 139.991C66.6242 139.504 67.0488 139.473 67.3084 139.85C69.0321 142.825 67.4787 146.691 64.6349 148.298C56.4382 154.218 46.8382 145.512 50.5867 136.409C53.312 129.424 64.9694 132.339 63.4063 139.96C62.1344 142.674 59.3016 145.953 55.8978 144.444C53.8494 142.568 53.2507 136.809 56.2148 135.494C62.5818 134.936 59.6356 142.489 56.6898 139.343C56.5022 138.215 57.4468 137.928 58.3119 137.567C55.6328 136.295 55.8469 138.499 56.1182 140.308Z" fill="#32DFFF"/>
<path fill-rule="evenodd" clip-rule="evenodd" d="M49.012 179.576C49.8359 180.342 50.1881 178.833 50.9323 179.027C39.4253 179.97 45.8356 160.575 53.0085 170.763C53.8432 172.859 51.9992 177.217 49.4881 175.778C48.2493 174.652 48.3976 170.993 50.1842 170.754C49.8054 171.939 49.3555 172.999 49.7233 174.282C52.3089 178.111 54.1838 165.432 46.8692 169.738C40.6449 181.22 62.16 178.15 54.5548 168.571C44.7402 160.542 33.9234 180.357 49.012 179.576ZM49.3527 181.714C34.63 182.391 37.8978 164.138 50.6952 165.125C62.0084 165.846 58.332 180.146 49.3527 181.714Z" fill="#32DFFF"/>
<path fill-rule="evenodd" clip-rule="evenodd" d="M96.5173 158.423C100.491 164.245 73.4113 166.901 78.4494 151.07C78.4221 144.42 92.2209 142.122 83.3305 146.883C72.4206 155.949 86.7825 166.11 96.5173 158.423Z" fill="#32DFFF"/>
<path fill-rule="evenodd" clip-rule="evenodd" d="M58.2374 126.856C60.235 125.475 70.7342 129.407 72.5645 131.93C73.6828 132.049 74.6248 131.604 74.885 132.808C75.3034 134.137 76.7275 135.025 78.0263 135.533C78.6974 135.639 77.8853 135.973 78.0478 136.169C78.7066 136.901 79.4054 137.484 77.9179 137.247C77.5916 137.229 76.7067 137.692 77.4589 136.718C77.5075 136.655 77.3439 136.351 77.2107 136.241C75.404 135.2 74.0728 132.629 71.7702 133.088C71.2618 133.178 71.0198 133.018 71.3871 132.513C72.4404 130.689 64.0992 128.17 62.626 128.117C61.1484 127.247 59.965 127.065 58.2374 126.856Z" fill="#2F5DCA"/>
<path fill-rule="evenodd" clip-rule="evenodd" d="M74.2314 160.894C74.2398 164.289 67.8666 161.205 65.8691 160.901C63.8326 158.025 73.2477 159.369 74.2314 160.894Z" fill="#32DFFF"/>
<path fill-rule="evenodd" clip-rule="evenodd" d="M43.6998 192.015C45.9911 192.264 43.6294 195.189 43.3678 196.418C43.1439 198.299 40.1373 201.213 40.2904 197.741C41.0728 195.701 42.1506 193.464 43.6998 192.015Z" fill="#32DFFF"/>
<path fill-rule="evenodd" clip-rule="evenodd" d="M104.424 182.276C104.123 184.031 103.019 192.168 101.169 186.757C100.997 185.003 103.554 177.608 104.424 182.276Z" fill="#32DFFF"/>
<path fill-rule="evenodd" clip-rule="evenodd" d="M16.3614 182.386C18.3327 182.612 24.8533 185.577 20.9433 187.119C19.6973 185.867 14.513 184.633 16.3614 182.386Z" fill="#32DFFF"/>
<path fill-rule="evenodd" clip-rule="evenodd" d="M69.2661 191.036C67.4774 189.869 63.2364 188.387 63.8457 185.919C64.5021 184.989 72.8353 190.477 69.2661 191.036Z" fill="#32DFFF"/>
<path fill-rule="evenodd" clip-rule="evenodd" d="M84.4445 207.677C81.895 207.854 81.6142 203.924 81.7757 201.913C83.5491 198.762 84.8301 206.372 84.4445 207.677Z" fill="#32DFFF"/>
<path fill-rule="evenodd" clip-rule="evenodd" d="M40.1543 158.238C40.101 157.61 38.7311 155.724 40.0191 155.476C41.9085 155.074 43.7955 161.157 40.9583 160.263C40.1814 159.844 39.7151 159.323 40.1543 158.238Z" fill="#32DFFF"/>
<path fill-rule="evenodd" clip-rule="evenodd" d="M85.4926 144.033C83.2336 143.193 81.2451 139.719 79.454 137.831C81.6368 139.613 84.8063 141.292 85.4926 144.033Z" fill="#2F5DCA"/>
<path fill-rule="evenodd" clip-rule="evenodd" d="M9.11274 200.812C7.98377 203.387 5.16643 206.431 6.875 201.323C7.95354 201.89 8.37877 199.723 9.11274 200.812Z" fill="#2F5DCA"/>
<path fill-rule="evenodd" clip-rule="evenodd" d="M56.1 140.279C55.8378 138.479 55.6295 136.288 58.2242 137.554C56.2762 137.907 56.0697 140.29 58.2374 140.182C57.5245 140.215 56.8122 140.247 56.1 140.279Z" fill="#2F5DCA"/>
<path fill-rule="evenodd" clip-rule="evenodd" d="M49.2612 201.977C48.6276 204.372 45.3473 200.725 47.9933 200.368C49.315 200.09 48.0293 201.872 49.2612 201.977Z" fill="#2F5DCA"/>
<path fill-rule="evenodd" clip-rule="evenodd" d="M34.6797 158.395C35.1113 158.968 35.5963 159.549 34.7967 159.864C33.7681 159.348 33.5395 159.157 34.6797 158.395Z" fill="#32DFFF"/>
<path fill-rule="evenodd" clip-rule="evenodd" d="M54.3205 152.238C53.5159 152.588 52.8621 153.499 52.3621 152.671C52.9941 151.529 53.1564 151.032 54.3205 152.238Z" fill="#2F5DCA"/>
<path fill-rule="evenodd" clip-rule="evenodd" d="M45.9806 150.165C45.7673 151.419 43.8043 149.31 45.1721 149.1C45.9843 149.023 46.0376 149.528 45.9806 150.165Z" fill="#2F5DCA"/>
<path fill-rule="evenodd" clip-rule="evenodd" d="M62.4804 170.161C61.7308 170.604 61.0416 171.391 61.0118 170.059C61.2651 169.762 62.5017 169.277 62.4804 170.161Z" fill="#2F5DCA"/>
<path fill-rule="evenodd" clip-rule="evenodd" d="M70.3145 133.563C69.5978 134.604 69.3931 133.811 68.6825 133.392C69.3214 132.535 69.6135 133.053 70.3145 133.563Z" fill="#2F5DCA"/>
<path fill-rule="evenodd" clip-rule="evenodd" d="M49.2077 201.97C48.3673 201.836 48.6995 200.983 48.6083 200.338C49.2356 200.704 49.7234 201.127 49.2077 201.97Z" fill="#32DFFF"/>
<path fill-rule="evenodd" clip-rule="evenodd" d="M40.8405 190.546C41.8363 191.316 40.8534 191.445 40.1721 191.852C39.1746 191.611 40.4266 191.027 40.8405 190.546Z" fill="#2F5DCA"/>
<path fill-rule="evenodd" clip-rule="evenodd" d="M23.3116 173.145C22.5195 173.53 22.1412 173.869 21.8428 173.158C22.2546 172.268 22.5575 172.561 23.3116 173.145Z" fill="#32DFFF"/>
<path fill-rule="evenodd" clip-rule="evenodd" d="M36.6582 159.048C36.2201 158.346 37.0156 158.156 37.5162 157.905C38.6924 158.16 37.4535 158.51 36.6582 159.048Z" fill="#2F5DCA"/>
<path fill-rule="evenodd" clip-rule="evenodd" d="M44.573 145.828C43.8196 145.317 44.3544 145.116 44.9288 144.849C45.7872 145.113 45.1376 145.471 44.573 145.828Z" fill="#2F5DCA"/>
<path fill-rule="evenodd" clip-rule="evenodd" d="M62.4807 170.146C62.7283 170.453 63.2772 170.671 62.7475 170.962C62.6565 170.696 62.5763 170.391 62.4807 170.146Z" fill="#2F5DCA"/>
<path fill-rule="evenodd" clip-rule="evenodd" d="M79.4395 137.994C79.3017 137.743 78.5877 137.399 78.8645 137.178C79.0043 137.438 79.5497 137.735 79.4395 137.994Z" fill="#2F5DCA"/>
<path fill-rule="evenodd" clip-rule="evenodd" d="M7.27917 205.071C7.25012 205.18 7.22123 205.289 7.1925 205.398C7.22139 205.289 7.25028 205.18 7.27917 205.071Z" fill="#2F5DCA"/>
<path fill-rule="evenodd" clip-rule="evenodd" d="M84.5133 207.683C84.6222 207.574 84.731 207.465 84.8397 207.356C84.7308 207.465 84.622 207.574 84.5133 207.683Z" fill="#2F5DCA"/>
<path fill-rule="evenodd" clip-rule="evenodd" d="M149.734 177.516C170.275 175.911 155.445 179.625 162.323 192.052C169.337 199.327 165.536 195.844 168.21 204.961C168.6 206.849 164.744 205.225 163.636 205.478C161.761 206.527 161.198 204.979 160.371 203.886C159.176 202.38 158.167 200.683 156.382 199.828C155.96 199.475 155.469 199.317 156.182 198.438C159.111 195.2 158.15 190.737 155.833 187.133C155.508 185.471 155.412 183.843 154.047 182.663C153.717 180.459 148.213 178.651 149.734 177.516Z" fill="#21D5F6"/>
<path fill-rule="evenodd" clip-rule="evenodd" d="M138.078 211.031C137.593 207.314 142.49 207.895 144.903 206.222C147.757 204.532 150.913 203.111 153.471 201.019C155.744 198.636 158.772 203.133 159.888 204.916C160.451 206.963 151.663 207.1 149.88 209.495C147.345 211.198 144.815 212.934 143.228 215.696C140.878 218.923 137.965 213.178 138.078 211.031Z" fill="#21D5F6"/>
<path fill-rule="evenodd" clip-rule="evenodd" d="M86.7751 145.175C87.638 145.929 88.3129 147.036 86.7116 147.189C78.8336 149.947 87.3576 160.322 93.8718 154.382C101.8 160.708 84.5826 163.83 81.3072 158.325C77.2361 153.009 81.0964 146.874 86.7751 145.175Z" fill="#851F55"/>
<path fill-rule="evenodd" clip-rule="evenodd" d="M156.976 192.992C156.829 195.205 155.478 198.379 153.151 198.327C149.076 197.534 145.025 197.702 140.973 198.452C139.786 198.672 139.718 198.57 139.94 197.299C139.243 193.746 146.335 195.052 148.729 193.516C153.436 193.063 155.364 185.207 156.976 192.992Z" fill="#21D5F6"/>
<path fill-rule="evenodd" clip-rule="evenodd" d="M147.387 198.706C148.66 199.156 153.344 198.611 152.005 200.184C147.674 202.724 143.235 205.744 138.452 207.193C138.037 207.139 137.774 206.964 137.924 206.355C138.295 198.444 140.759 199.694 147.387 198.706Z" fill="#21D5F6"/>
<path fill-rule="evenodd" clip-rule="evenodd" d="M146.958 186.631C164.796 186.475 140.77 196.574 140.819 192.237C141.238 188.523 143.132 186.681 146.958 186.631Z" fill="#21D5F6"/>
<path fill-rule="evenodd" clip-rule="evenodd" d="M149.709 185.164C142.717 186.196 139.902 186.544 145.208 179.393C149.471 176.43 159.528 189.766 149.709 185.164Z" fill="#21D5F6"/>
<path fill-rule="evenodd" clip-rule="evenodd" d="M93.7745 154.393C89.6739 158.002 82.8254 155.684 83.5937 149.657C83.7562 147.111 86.9322 147.987 87.68 146.318C89.097 146.66 89.6758 147.662 89.8061 149.018C88.5848 148.466 87.2029 148.107 85.9332 148.806C83.9998 149.964 85.3566 153.272 86.9787 153.961C89.9529 155.477 92.1793 152.666 94.9585 151.949C94.2956 152.936 93.403 152.799 93.7745 154.393Z" fill="#32DFFF"/>
<path fill-rule="evenodd" clip-rule="evenodd" d="M177.214 216.006C175.033 213.928 172.427 211.779 171.502 208.825C174.356 210.109 176.285 212.982 177.214 216.006Z" fill="#21D5F6"/>
<path fill-rule="evenodd" clip-rule="evenodd" d="M170.952 208.324C170.79 208.285 170.889 208.244 170.994 208.184C170.98 208.231 170.966 208.277 170.952 208.324Z" fill="#21D5F6"/>
<path fill-rule="evenodd" clip-rule="evenodd" d="M93.341 111.665C95.2005 113.12 94.9818 110.624 95.8756 110.413C96.6993 111.401 94.958 112.492 94.7242 113.487C94.8951 114.035 96.0157 114.359 96.6672 114.061C97.7021 114.214 98.4062 115.659 97.4305 116.288C96.7049 116.119 96.2894 114.783 95.4334 115.678C94.8803 115.453 94.4998 114.747 93.7115 115.159C93.5126 114.715 93.1089 114.249 93.1538 113.83C93.2766 112.688 92.6454 112.963 92.0209 113.109C92.0295 112.244 92.1457 111.475 93.341 111.665Z" fill="#2F5DCA"/>
<path fill-rule="evenodd" clip-rule="evenodd" d="M90.528 115.128C90.8413 115.147 91.4021 115.253 91.4303 115.172C91.8419 114.191 93.1693 115.496 92.982 116.187C92.3424 117.229 91.917 115.684 91.1151 117.836C91.017 117.944 90.8928 118.028 90.7806 118.123C89.9608 116.874 89.6658 118.308 89.118 118.45C86.7348 119.226 90.0656 116.116 90.528 115.128Z" fill="#32DFFF"/>
<path fill-rule="evenodd" clip-rule="evenodd" d="M102.038 105.353C102.079 106.099 101.938 107.241 102.95 106.427C104.757 105.084 103.808 108.485 102.267 107.433C100.347 107.076 102.01 107.192 101.666 105.873C101.622 105.772 101.906 105.53 102.038 105.353Z" fill="#32DFFF"/>
<path fill-rule="evenodd" clip-rule="evenodd" d="M123.519 134.831C122.786 135.907 122.661 135.187 122.051 134.549C122.627 133.889 122.922 134.434 123.519 134.831Z" fill="#2F5DCA"/>
<path fill-rule="evenodd" clip-rule="evenodd" d="M87.9023 118.595C89.3581 118.398 88.7405 119.603 87.6324 119.551C87.2973 119.076 87.4492 118.781 87.9023 118.595Z" fill="#2F5DCA"/>
<path fill-rule="evenodd" clip-rule="evenodd" d="M66.8872 35.1753C66.7783 34.8488 66.6696 34.5225 66.5608 34.196C66.6698 34.5227 66.7785 34.849 66.8872 35.1753Z" fill="#32DFFF"/>
<path fill-rule="evenodd" clip-rule="evenodd" d="M92.0209 113.187C91.9122 113.296 91.8035 113.405 91.6945 113.513C91.8033 113.405 91.912 113.296 92.0209 113.187Z" fill="#2F5DCA"/>
<path fill-rule="evenodd" clip-rule="evenodd" d="M100.834 107.271C100.725 107.249 100.616 107.226 100.507 107.204C100.632 107.172 100.741 107.194 100.834 107.271Z" fill="#32DFFF"/>
<path fill-rule="evenodd" clip-rule="evenodd" d="M14.6355 115.677C15.1534 115.6 16.2312 114.065 15.0078 114.791C14.9795 114.811 14.5365 114.253 14.3168 113.943C14.0037 113.5 14.2363 113.422 14.6561 113.242C14.9088 113.134 13.9679 112.574 14.7461 112.144C15.3867 111.189 16.1902 111.698 16.9466 111.636C15.6205 112.71 18.6954 117.111 14.6355 115.677Z" fill="#2F5DCA"/>
<path fill-rule="evenodd" clip-rule="evenodd" d="M22.9452 105.68C23.609 105.837 25.4934 105.789 24.1386 106.327C23.2094 107.222 22.4833 110.083 21.0637 108.088C19.7604 107.366 20.5003 106.509 21.6593 107.245C20.8699 106.082 22.0713 106.091 22.9452 105.68Z" fill="#21D5F6"/>
<path fill-rule="evenodd" clip-rule="evenodd" d="M13.1929 108.524C13.9209 108.809 15.5413 107.81 15.0652 109.285C14.565 111.466 13.9524 109.386 13.1929 108.524Z" fill="#2F5DCA"/>
<path fill-rule="evenodd" clip-rule="evenodd" d="M21.3626 106.43C22.4969 108.464 20.2088 105.988 20.3707 107.638C18.3191 107.655 21.517 105.409 17.7626 106.084C19.0289 105.523 20.2462 105.465 21.3626 106.43Z" fill="#2F5DCA"/>
<path fill-rule="evenodd" clip-rule="evenodd" d="M35.4576 106.985C35.1487 104.512 34.987 103.631 36.0415 106.462C35.847 106.637 35.6524 106.811 35.4576 106.985Z" fill="#2F5DCA"/>
<path fill-rule="evenodd" clip-rule="evenodd" d="M35.0405 104.537C35.0005 104.211 34.9606 103.884 34.9209 103.558C34.9609 103.885 35.0007 104.211 35.0405 104.537Z" fill="#2F5DCA"/>
<path fill-rule="evenodd" clip-rule="evenodd" d="M14.1721 115.146C14.2813 115.255 14.3904 115.364 14.4985 115.472C14.389 115.362 14.2806 115.254 14.1721 115.146Z" fill="#2F5DCA"/>
<path fill-rule="evenodd" clip-rule="evenodd" d="M35.1276 109.433C35.0446 109.381 35.0408 109.327 35.1163 109.27C35.1848 109.344 35.3176 109.405 35.1276 109.433Z" fill="#2F5DCA"/>
<path fill-rule="evenodd" clip-rule="evenodd" d="M51.2196 212.138C51.1995 206.166 59.7803 202.03 64.497 205.553C66.4347 206.115 68.4381 213.833 65.7432 213.021C65.6556 206.817 54.7974 208.447 55.4255 213.921C55.7198 215.165 55.501 215.353 54.2305 215.436C50.4241 215.818 51.4609 214.855 51.2196 212.138Z" fill="#851F55"/>
<path fill-rule="evenodd" clip-rule="evenodd" d="M87.3044 40.4981C86.8307 37.8183 96.7186 39.195 89.3714 40.0759C90.1643 40.3264 90.8796 40.5525 91.5951 40.7784C91.3797 41.1938 91.2355 41.652 91.9203 41.6299C93.2544 41.716 93.7739 40.5637 92.304 40.4679C92.9154 39.3215 93.3912 40.0341 94.1424 40.664C92.8643 41.6474 93.8287 42.8588 92.3295 42.6613C91.8015 41.3261 91.4674 43.0416 90.7976 42.4669C90.4784 41.788 90.809 40.6366 89.8078 41.2004C88.8481 41.2719 88.0998 40.3345 87.3044 40.4981Z" fill="#32DFFF"/>
<path fill-rule="evenodd" clip-rule="evenodd" d="M86.9249 40.2344C87.0788 41.1102 86.7527 41.5182 85.819 41.3329C86.1877 40.9667 86.5563 40.6004 86.9249 40.2344Z" fill="#32DFFF"/>
<path fill-rule="evenodd" clip-rule="evenodd" d="M52.811 93.7656C53.659 93.8063 53.7561 94.1298 53.6132 94.9081C52.8128 94.8065 52.4902 94.6102 52.811 93.7656Z" fill="#32DFFF"/>
<path fill-rule="evenodd" clip-rule="evenodd" d="M102.105 95.7242C101.83 95.5154 102.042 95.5655 102.303 95.5681C102.241 95.6222 102.174 95.6746 102.105 95.7242Z" fill="#0A1328"/>
<path fill-rule="evenodd" clip-rule="evenodd" d="M9.11279 200.863C10.6571 196.282 21.3132 195.234 23.7371 201.217C27.2809 206.712 22.5391 215.126 15.743 212.85C1.45013 206.578 13.8259 194.425 20.6581 203.493C22.1993 210.079 11.6099 208.5 16.6267 203.336C21.0716 203.487 15.516 205.831 18.8896 205.919C21.0329 204.702 18.6638 201.142 16.4195 201.999C13.6815 203.006 13.0931 206.855 15.1115 208.901C26.1819 214.252 24.8545 191.188 9.11279 200.863Z" fill="#851F55"/>
<path fill-rule="evenodd" clip-rule="evenodd" d="M11.8872 199.359C12.105 199.196 12.3224 199.033 12.54 198.87C12.3223 199.033 12.1048 199.196 11.8872 199.359Z" fill="#2F5DCA"/>
<path fill-rule="evenodd" clip-rule="evenodd" d="M12.8665 198.79C13.0298 198.789 13.1933 198.787 13.3561 198.786C13.1924 198.787 13.0294 198.789 12.8665 198.79Z" fill="#2F5DCA"/>
<path fill-rule="evenodd" clip-rule="evenodd" d="M13.8456 198.612C14.0088 198.621 14.1724 198.63 14.3352 198.638C14.1717 198.629 14.0087 198.62 13.8456 198.612Z" fill="#2F5DCA"/>
<path fill-rule="evenodd" clip-rule="evenodd" d="M58.7269 138.432C58.4875 138.484 58.2071 138.854 58.0741 138.486C58.3612 138.322 58.5626 137.867 58.7269 138.432Z" fill="#2F5DCA"/>
<path fill-rule="evenodd" clip-rule="evenodd" d="M48.9157 179.589C33.8042 180.365 44.6471 160.632 54.4659 168.63C62.0759 178.179 40.5387 181.219 46.7708 169.79C54.0995 165.505 52.2118 178.132 49.6268 174.318C49.2591 173.039 49.7105 171.984 50.0897 170.804C48.3011 171.041 48.1519 174.686 49.3924 175.807C51.9079 177.239 53.7506 172.902 52.9158 170.813C46.3024 161.992 39.9969 175.796 48.9157 179.589Z" fill="#851F55"/>
<path fill-rule="evenodd" clip-rule="evenodd" d="M48.9632 179.555C48.7078 178.537 50.2441 179.167 50.8933 179.004C50.1453 178.811 49.7912 180.323 48.9632 179.555Z" fill="#2F5DCA"/>
<path fill-rule="evenodd" clip-rule="evenodd" d="M92.5105 152.995C86.6665 159.127 80.7557 145.92 89.8989 149.107C89.9947 149.395 90.2335 149.727 90.1617 149.963C89.3858 151.558 93.4692 151.332 92.2106 152.857C92.3277 152.88 92.4639 152.861 92.5105 152.995Z" fill="#851F55"/>
<path fill-rule="evenodd" clip-rule="evenodd" d="M88.1066 131.635C89.7072 130.143 89.4473 127.984 87.0399 129.615C87.4543 130.012 88.2656 130.131 87.9084 130.789C85.0367 131.684 85.3016 128.408 87.6284 128.493C87.292 128.011 86.7925 128.132 86.2887 128.148C86.5126 127.566 86.1701 126.126 87.0434 126.215C89.1531 126.859 86.742 127.279 89.2285 128.37C89.5953 127.733 89.9288 124.869 90.3703 125.524C89.9799 126.832 91.5027 126.161 90.2548 128.051C90.2002 128.664 90.5387 128.553 90.8783 128.28C90.776 129.292 90.3849 130.32 90.2922 131.287C90.1978 131.401 90.0989 131.513 90.0067 131.628C89.4123 132.44 88.8244 132.1 88.1066 131.635Z" fill="#0A1328"/>
<path fill-rule="evenodd" clip-rule="evenodd" d="M90.5549 118.638C91.1602 119.261 91.7349 119.557 92.5706 118.878C93.9512 117.752 96.2069 120.103 93.5891 120.175C92.9779 120.525 93.2669 120.698 93.8124 120.864C93.4205 121.444 93.2861 122.52 92.1714 121.707C91.7308 120.413 91.1742 120.205 89.9831 120.882C89.1 120.488 90.8937 118.867 90.5549 118.638Z" fill="#2F5DCA"/>
<path fill-rule="evenodd" clip-rule="evenodd" d="M101.418 116.509C101.365 116.624 101.233 116.718 101.398 116.808C101.45 116.692 101.588 116.596 101.418 116.509ZM102.629 118.239C100.949 118.401 100.983 118.639 99.7681 119.715C99.2483 119.188 98.9514 117.887 99.4805 117.235C99.4502 117.903 100.097 117.749 100.372 117.462C101.113 113.773 101.794 115.916 102.629 118.239Z" fill="#32DFFF"/>
<path fill-rule="evenodd" clip-rule="evenodd" d="M108.26 111.952C108.382 115.11 110.666 112.925 110.023 115.45C108.677 115.838 107.505 110.806 106.806 113.489C106.392 115.157 106.219 113.629 105.908 112.897C105.634 112.24 109.34 110.505 108.26 111.952Z" fill="#2F5DCA"/>
<path fill-rule="evenodd" clip-rule="evenodd" d="M96.6433 114.178C93.7393 115.121 95.1466 111.352 96.7186 111.229C96.993 111.756 97.3309 112.783 98.0669 112.46C98.7002 111.694 98.8592 112.552 99.2018 112.76C98.8892 114.277 96.693 112.262 96.6433 114.178Z" fill="#32DFFF"/>
<path fill-rule="evenodd" clip-rule="evenodd" d="M90.2256 131.245C90.7487 130.735 92.4356 131.001 92.8367 129.671C92.8479 130.562 92.3783 134.351 91.3477 132.368C91.1647 131.777 91.3986 130.783 90.2256 131.245Z" fill="#2F5DCA"/>
<path fill-rule="evenodd" clip-rule="evenodd" d="M94.9703 119.797C93.2459 118.163 96.5645 119.096 96.0466 117.267C96.8848 119.173 97.8878 120.183 94.9703 119.797Z" fill="#21D5F6"/>
<path fill-rule="evenodd" clip-rule="evenodd" d="M99.3649 112.697C99.0107 112.49 98.8463 111.638 98.1912 112.399C94.7712 111.449 99.3119 109.04 99.3649 112.697Z" fill="#2F5DCA"/>
<path fill-rule="evenodd" clip-rule="evenodd" d="M105.989 106.169C108.266 106.42 106.531 107.99 108.015 109.406C107.125 109.76 104.994 106.607 105.989 106.169Z" fill="#32DFFF"/>
<path fill-rule="evenodd" clip-rule="evenodd" d="M90.3009 125.593C89.8573 124.414 91.5048 122.76 91.8218 124.661C93.6589 125.803 91.3557 125.925 90.3009 125.593Z" fill="#32DFFF"/>
<path fill-rule="evenodd" clip-rule="evenodd" d="M89.9335 120.909C91.7024 119.472 93.1904 122.65 90.7093 121.939C89.7693 122.505 89.8791 121.939 89.9335 120.909Z" fill="#32DFFF"/>
<path fill-rule="evenodd" clip-rule="evenodd" d="M110.789 106.004C111.501 105.065 114.463 103.997 114.2 105.998C113.834 105.852 113.486 106.891 113.021 105.897C112.475 105.051 111.636 106.532 110.789 106.004Z" fill="#32DFFF"/>
<path fill-rule="evenodd" clip-rule="evenodd" d="M92.0209 122.135C92.8938 121.7 93.2398 122.602 93.819 120.978C94.9623 121.187 94.5041 119.959 94.9294 120.046C95.2299 120.793 93.1073 124.905 93.0308 122.624C92.8255 122.393 92.0333 122.612 92.0209 122.135Z" fill="#21D5F6"/>
<path fill-rule="evenodd" clip-rule="evenodd" d="M110.751 105.855C112.034 105.698 111.448 107.06 111.598 107.907C110.173 108.247 109.599 107.018 110.751 105.855Z" fill="#2F5DCA"/>
<path fill-rule="evenodd" clip-rule="evenodd" d="M108.831 103.281C108.331 103.567 109.051 104.3 107.999 104.202C107.209 104.128 106.991 103.702 107.043 103.304C107.368 102.782 108.354 102.367 108.831 103.281Z" fill="#32DFFF"/>
<path fill-rule="evenodd" clip-rule="evenodd" d="M88.3369 122.979C89.1158 123.356 90.6552 123.062 89.46 123.939C89.6138 125.716 87.9063 124.305 88.3369 122.979Z" fill="#21D5F6"/>
<path fill-rule="evenodd" clip-rule="evenodd" d="M90.5519 118.664C90.5476 118.998 90.1654 119.77 89.546 120.695C88.5433 119.261 88.6522 117.811 90.5519 118.664Z" fill="#0A1328"/>
<path fill-rule="evenodd" clip-rule="evenodd" d="M90.2118 125.591C91.1121 125.697 93.4629 125.659 92.0897 126.896C91.5737 126.094 89.4929 126.972 90.2118 125.591Z" fill="#2F5DCA"/>
<path fill-rule="evenodd" clip-rule="evenodd" d="M88.2445 123.077C88.2775 123.742 88.4095 126.008 87.3118 124.703C86.8903 123.655 87.1722 122.659 88.2445 123.077Z" fill="#2F5DCA"/>
<path fill-rule="evenodd" clip-rule="evenodd" d="M94.5678 127.712C94.2631 126.94 93.5593 126.409 94.3228 125.754C95.5001 126.363 95.6149 126.74 94.5678 127.712Z" fill="#32DFFF"/>
<path fill-rule="evenodd" clip-rule="evenodd" d="M108.246 111.677C108.724 110.78 107.158 111.773 107.883 110.345C109.179 109.761 110.165 112.051 108.246 111.677Z" fill="#32DFFF"/>
<path fill-rule="evenodd" clip-rule="evenodd" d="M111.418 104.211C110.288 103.955 110.259 103.907 110.822 103.202C111.62 102.716 112.523 103.676 111.418 104.211Z" fill="#32DFFF"/>
<path fill-rule="evenodd" clip-rule="evenodd" d="M85.1662 134.241C84.601 133.525 84.1728 133.246 84.0238 132.445C85.1937 132.464 84.9942 133.22 85.1662 134.241Z" fill="#21D5F6"/>
<path fill-rule="evenodd" clip-rule="evenodd" d="M108.341 111.73C108.85 111.755 109.387 111.827 109.42 111.065C111.398 112.491 108.693 112.804 108.341 111.73Z" fill="#21D5F6"/>
<path fill-rule="evenodd" clip-rule="evenodd" d="M102.14 109.508C101.862 110.667 101.575 109.813 101.16 109.285C101.456 108.7 101.88 108.929 102.14 109.508Z" fill="#2F5DCA"/>
<path fill-rule="evenodd" clip-rule="evenodd" d="M94.7861 116.423C93.9811 115.136 96.6127 116.047 96.2248 117.267C95.7721 117.038 94.6437 117.426 94.8984 116.486C94.9002 116.393 94.8684 116.385 94.7861 116.423Z" fill="#0A1328"/>
<path fill-rule="evenodd" clip-rule="evenodd" d="M87.9762 131.629C88.2169 131.86 89.1248 132.045 88.5916 132.279C88.0672 133.66 87.8486 132.575 87.9762 131.629Z" fill="#2F5DCA"/>
<path fill-rule="evenodd" clip-rule="evenodd" d="M110.463 107.99C111.358 107.894 112.003 108.077 112.911 108.342C111.89 108.415 111.175 108.682 110.463 107.99Z" fill="#21D5F6"/>
<path fill-rule="evenodd" clip-rule="evenodd" d="M86.2191 128.226C86.7442 128.211 87.2634 128.094 87.6142 128.558C86.5156 128.075 85.5099 130.423 86.2191 128.226Z" fill="#21D5F6"/>
<path fill-rule="evenodd" clip-rule="evenodd" d="M96.7538 122.327C96.4597 122.557 96.149 123.386 95.9377 122.735C96.2026 122.596 96.5117 122.471 96.7538 122.327Z" fill="#32DFFF"/>
<path fill-rule="evenodd" clip-rule="evenodd" d="M90.8784 128.329C89.8398 129.045 90.2474 127.636 90.688 127.223C90.7513 127.591 90.8148 127.96 90.8784 128.329Z" fill="#2F5DCA"/>
<path fill-rule="evenodd" clip-rule="evenodd" d="M90.0624 124.775C90.0611 125.235 89.8714 125.649 89.7459 126.08C89.6992 125.442 89.2316 124.751 90.0624 124.775Z" fill="#2F5DCA"/>
<path fill-rule="evenodd" clip-rule="evenodd" d="M89.2463 132.263C89.4565 132.052 89.6663 131.84 89.8763 131.629C89.9911 132.278 89.6566 132.322 89.2463 132.263Z" fill="#2F5DCA"/>
<path fill-rule="evenodd" clip-rule="evenodd" d="M92.396 152.193C92.2706 152.03 92.1453 151.866 92.0209 151.703C92.5823 151.76 92.9579 151.703 92.396 152.193Z" fill="#32DFFF"/>
<path fill-rule="evenodd" clip-rule="evenodd" d="M92.0225 122.327C92.633 122.319 92.2584 122.495 91.9094 122.653C91.5409 122.548 91.6911 122.406 92.0225 122.327Z" fill="#32DFFF"/>
<path fill-rule="evenodd" clip-rule="evenodd" d="M96.7538 122.327C96.8701 122.275 96.9837 122.058 97.0802 122.226C96.9752 122.262 96.8399 122.285 96.7538 122.327Z" fill="#32DFFF"/>
<path fill-rule="evenodd" clip-rule="evenodd" d="M94.6481 121.674C94.9278 121.714 94.7427 122.004 94.6321 121.698L94.6481 121.674Z" fill="#21D5F6"/>
<path fill-rule="evenodd" clip-rule="evenodd" d="M96.1009 116.614C95.9921 116.588 95.8833 116.562 95.7745 116.535C95.9344 116.37 95.9938 116.475 96.1009 116.614Z" fill="#2F5DCA"/>
<path fill-rule="evenodd" clip-rule="evenodd" d="M92.4735 152.823C92.3771 152.81 92.2804 152.797 92.1841 152.783C92.3011 152.726 92.6179 152.623 92.4735 152.823Z" fill="#32DFFF"/>
<path fill-rule="evenodd" clip-rule="evenodd" d="M111.195 108.539C111.195 108.539 111.2 108.532 111.2 108.532L111.195 108.539Z" fill="#21D5F6"/>
<path fill-rule="evenodd" clip-rule="evenodd" d="M89.899 131.629C90.0079 131.52 90.117 131.411 90.2255 131.303C90.1168 131.412 90.0079 131.52 89.899 131.629Z" fill="#2F5DCA"/>
<path fill-rule="evenodd" clip-rule="evenodd" d="M69.7402 28.9735C69.0082 28.0615 68.53 27.7006 69.7855 27.1782C70.4996 27.5652 69.9918 28.2308 69.7402 28.9735Z" fill="#2F5DCA"/>
<path fill-rule="evenodd" clip-rule="evenodd" d="M69.7401 37.2969C69.8632 37.9533 70.1391 38.5943 69.8824 39.2553C68.6003 39.0376 68.885 37.7498 69.7401 37.2969Z" fill="#2F5DCA"/>
<path fill-rule="evenodd" clip-rule="evenodd" d="M69.664 37.4366C69.7176 37.3978 69.7714 37.3589 69.8249 37.3201C69.7754 37.3651 69.6429 37.363 69.664 37.4366Z" fill="#2F5DCA"/>
<path fill-rule="evenodd" clip-rule="evenodd" d="M95.2849 115.787C94.486 116.094 94.0379 116.042 93.6528 115.257C94.3685 114.94 94.8299 115.354 95.2849 115.787Z" fill="#21D5F6"/>
<path fill-rule="evenodd" clip-rule="evenodd" d="M94.8102 117.104C97.0329 117.208 95.989 118.588 94.6321 118.736C94.6919 118.193 94.751 117.648 94.8102 117.104Z" fill="#2F5DCA"/>
<path fill-rule="evenodd" clip-rule="evenodd" d="M90.442 118.573C89.9884 118.556 89.5347 118.538 89.0831 118.52C89.6225 118.39 89.9115 117.078 90.7152 118.221C90.6242 118.338 90.5332 118.455 90.442 118.573Z" fill="#2F5DCA"/>
<path fill-rule="evenodd" clip-rule="evenodd" d="M94.6533 116.495C94.744 116.454 94.7739 116.462 94.7742 116.565C94.6748 116.61 94.6498 116.614 94.6533 116.495Z" fill="#21D5F6"/>
<path fill-rule="evenodd" clip-rule="evenodd" d="M32.7774 107.351C31.5658 109.882 31.9174 114.707 28.5341 115.309C29.0351 112.523 30.9566 110.05 30.8804 107.012C30.5871 105.249 32.6485 105.575 32.7774 107.351Z" fill="#0A1328"/>
<path fill-rule="evenodd" clip-rule="evenodd" d="M20.3332 111.065C21.5576 111.085 22.394 114.03 20.8104 113.465C19.6708 112.42 19.7107 113.999 18.9483 114.493C17.4037 109.839 19.6393 112.97 20.3332 111.065Z" fill="#2F5DCA"/>
<path fill-rule="evenodd" clip-rule="evenodd" d="M20.3227 111.065C19.3785 110.969 19.6427 110.042 20.4458 109.923C20.6218 110.332 20.5228 110.782 20.3227 111.065Z" fill="#21D5F6"/>
<path fill-rule="evenodd" clip-rule="evenodd" d="M25.4264 109.861C25.1407 110.199 24.6767 110.325 24.3211 110.576C24.0626 110.173 25.5456 109.103 25.4264 109.861Z" fill="#32DFFF"/>
<path fill-rule="evenodd" clip-rule="evenodd" d="M87.3384 40.3892C87.4781 40.3357 87.7155 40.2038 87.7433 40.2409C88.4692 41.3198 90.1859 40.4402 89.5892 42.0163C90.6562 44.4108 85.478 43.352 87.6725 42.6383C88.3009 42.5953 88.2196 42.0998 88.0732 41.6272C86.7391 41.9119 87.7268 40.7099 87.3384 40.3892Z" fill="#2F5DCA"/>
<path fill-rule="evenodd" clip-rule="evenodd" d="M87.4148 43.544C89.5294 43.2802 88.0829 44.2204 89.0831 44.9303C88.8679 45.6005 86.7555 44.4483 87.4148 43.544Z" fill="#32DFFF"/>
<path fill-rule="evenodd" clip-rule="evenodd" d="M91.7219 40.6643C92.1712 40.3388 93.5316 40.1453 93.3001 41.1001C93.0319 41.6125 90.89 41.9033 91.7219 40.6643Z" fill="#2F5DCA"/>
<path fill-rule="evenodd" clip-rule="evenodd" d="M88.0379 130.201C86.1229 129.418 88.3553 128.509 89.4095 129.361C88.9872 130.122 88.8307 131.304 88.0379 130.201Z" fill="#32DFFF"/>
<path fill-rule="evenodd" clip-rule="evenodd" d="M94.5462 119.878C94.9789 121.004 93.6709 121.019 93.0001 120.62C93.3606 120.101 93.9754 120.045 94.5462 119.878Z" fill="#0A1328"/>
</svg>
