<svg width="218" height="221" viewBox="0 0 218 221" fill="none" xmlns="http://www.w3.org/2000/svg">
<path fill-rule="evenodd" clip-rule="evenodd" d="M76.9035 133.185C75.868 133.55 77.4636 134.633 77.992 133.917C77.6363 133.678 77.2805 133.439 76.9035 133.185ZM120.627 174.68C119.638 174.021 119.178 173.775 118.773 174.815C119.116 175.962 119.754 175.216 120.627 174.68ZM71.4568 154.672C70.49 154.024 69.6742 153.726 69.3579 154.836C69.8804 156.247 70.5612 155.49 71.4568 154.672ZM60.3108 135.088C58.6198 135.027 57.1806 136.198 58.4486 137.664C59.3666 136.881 59.6726 136.299 60.3108 135.088ZM52.5109 197.909C50.8005 197.972 49.3145 197.212 48.0068 197.979C49.5122 199.736 50.617 199.958 52.5109 197.909ZM93.0051 192.996C90.5874 192.694 88.4271 191.1 88.1754 194.49C86.8601 198.282 91.3801 194.011 93.0051 192.996ZM22.5517 150.833C22.9057 151.528 22.3669 155.714 24.104 154.354C24.8103 153.394 28.2662 151.712 25.9174 150.855C24.3817 150.38 22.1911 147.708 22.5517 150.833ZM41.2174 195.568C39.1673 193.949 36.0529 188.19 35.2989 193.22C34.2358 196.424 39.1479 194.987 41.2174 195.568ZM42.6745 145.23C43.3165 146.565 42.7378 149.983 44.7645 149.336C45.5758 148.734 49.0849 148.464 47.6498 147.028C46.3417 146.071 44.0657 142.947 42.6745 145.23ZM82.7003 196.438C82.6364 198.964 85.0558 199.31 85.6969 196.782C85.934 196.228 85.6685 195.396 86.6441 195.235C86.9042 195.192 86.3278 192.248 86.0113 192.192C83.8147 192.463 82.6051 193.916 82.7003 196.438ZM55.7622 140.353C41.452 142.447 51.097 147.206 53.2078 144.405C53.8044 143.319 57.3015 141.333 55.7622 140.353ZM72.42 184.66C73.7509 183.365 81.4519 177.586 78.287 178.051C75.9093 179.673 64.9901 183.627 72.42 184.66ZM96.7644 178.775C92.7853 179.076 88.4601 181.557 88.5687 186.013C89.429 188.27 95.5517 180.216 96.7644 178.775ZM89.111 156.156C89.1146 154.585 89.2589 152.87 87.1841 154.017C84.8731 156.212 72.3835 155.061 77.7717 157.945C81.2625 157.706 89.7701 162.318 89.111 156.156ZM43.8232 190.506C45.2693 187.714 45.1336 184.474 46.0968 181.512C46.2444 179.301 49.7064 173.586 47.9398 173.036C44.576 176.454 41.1149 179.894 39.0057 184.282C37.2679 187.334 41.9284 188.576 43.8232 190.506ZM28.6649 174.142C28.2628 166.909 30.3672 159.52 32.2858 152.875C29.1868 150.986 26.8668 155.924 24.5389 157.373C23.1876 162.367 26.8157 169.247 28.6649 174.142ZM86.694 186.348C86.7401 184.724 86.0718 185.59 85.2069 186.436C81.2485 187.529 84.6806 183.578 85.8887 182.192C87.6394 180.137 85.5566 172.43 82.7464 177.007C80.3151 182.736 68.5065 185.728 79.5767 188.111C80.5049 188.469 81.2773 188.708 82.0237 187.677C82.7228 187.19 84.0454 186.948 83.9132 188.46C84.2867 191.429 87.4315 188.35 86.694 186.348ZM65.9894 196.041C73.2386 194.951 89.3196 191.51 72.9772 187.837C68.0481 189.608 63.6517 193.536 58.4136 195.124C57.0658 197.068 64.4997 195.619 65.9894 196.041ZM56.1038 164.652C65.3396 160.575 77.8304 158.908 84.3272 168.357C84.9456 169.319 85.3833 169.219 85.785 168.253C91.5379 158.114 82.002 163.847 76.3453 160.271C64.9045 154.651 61.9947 150.198 56.1038 164.652ZM31.6864 169.016C32.0499 171.605 33.635 184.965 37.608 181.657C38.9049 178.712 41.1769 176.564 43.3227 174.323C44.601 172.095 49.4774 170.68 48.4655 167.874C45.8279 163.32 43.6263 158.557 42.0215 153.54C33.6976 148.832 32.4966 163.071 31.6864 169.016ZM21.6588 160.958C17.9037 166.3 9.70723 177.083 14.8614 183.064C18.755 187.792 26.0132 193.566 31.7726 193.387C35.9185 187.483 30.439 183.408 28.0823 178.076C24.9556 172.714 23.8255 166.718 21.6588 160.958ZM70.1284 163.104C49.5751 165.285 49.3557 171.225 65.8323 181.706C70.9414 181.431 75.85 176.256 81.1922 174.887C88.871 169.675 75.0455 162.346 70.1284 163.104ZM44.4378 152.748C51.7573 169.618 48.4248 170.857 58.7234 155.169C59.7557 153.683 59.6716 153.457 58.075 152.735C54.893 151.839 52.0264 147.939 48.5799 149.915C47.4874 150.773 40.1597 152.356 44.4378 152.748ZM80.1251 200.502C82.4237 200.738 79.6446 198.533 79.8943 197.236C79.6103 195.481 79.603 195.429 77.8826 196.161C71.2793 199.285 64.0726 199.153 56.9512 199.008C55.5487 198.812 53.8554 198.529 53.6022 200.347C60.2048 205.592 72.3706 204.396 80.1251 200.502ZM98.736 187.345C99.9562 186.124 100.553 186.995 101.087 185.235C98.7514 176.972 102.275 175.376 95.5295 183.636C94.2888 185.852 88.3793 188.272 89.4595 190.483C93.4352 192.559 97.5936 190.37 98.736 187.345ZM61.6304 131.517C67.8715 108.133 53.8756 131.644 58.7067 132.775C60.0885 132.13 60.948 132.832 62.2619 132.772C62.0897 132.334 62.7248 131.49 61.6304 131.517ZM46.1691 209.671C44.8526 209.974 46.5561 210.622 46.0242 210.979C44.3543 211.738 47.0528 211.889 47.7244 212.36C45.5879 209.129 49.4423 205.387 49.9176 201.96C43.6787 195.053 45.9073 205.746 46.1691 209.671ZM63.4788 187.28C63.074 185.78 65.1663 184.251 63.4166 182.884C59.5407 180.181 55.8885 177.217 52.7863 173.633C49.8442 172.612 48.1511 186.882 46.9872 189.812C45.9501 193.327 52.6951 195.605 54.8725 193.55C57.7461 191.231 59.6006 187.19 62.6219 185.48C62.6747 186.193 62.3496 187.081 63.4696 187.294C62.7035 188.75 59.5509 190.433 60.2453 191.951C63.3024 190.438 67.518 188.937 69.7311 186.579C68.0364 184.14 65.3473 185.982 63.4788 187.28ZM60.1344 147.446C57.5382 143.797 56.8699 143.378 54.0531 147.068C55.722 149.357 58.9426 149.597 61.4008 150.656C62.1229 150.855 61.8857 150.324 61.7941 149.961C62.9624 149.988 63.5269 149.292 63.817 148.269C65.4907 148.625 66.1886 146.856 67.4291 146.11C81.1203 138.355 69.7861 139.918 61.2181 139.626C56.0313 141.05 65.0577 145.937 60.1344 147.446ZM40.5808 147.162C39.2316 147.665 37.5314 149.602 38.0771 150.89C40.9299 151.008 41.3 149.369 40.6466 146.984C40.6247 147.043 40.6027 147.103 40.5808 147.162ZM34.5644 149.559C31.0173 149.813 33.7893 152.809 34.7095 149.373C34.6611 149.435 34.6127 149.497 34.5644 149.559ZM48.13 216.065C39.2435 214.817 46.3768 202.141 42.1159 198.123C33.4511 197.665 33.8857 197.007 33.8139 205.796C33.7872 206.455 33.9761 207.187 32.9905 207.306C28.6111 205.891 30.6732 201.535 30.5657 197.995C30.2653 196.284 27.9827 195.899 26.6063 195.328C21.0473 193.974 17.4 189.758 13.2036 186.214C10.1921 185.304 14.333 196.818 8.82757 190.015C10.4656 176.057 -0.355086 166.326 8.07151 152.405C7.41853 158.914 7.82448 184.484 13.6092 168.24C14.9872 163.816 20.6053 159.824 20.8769 156.153C22.1677 144.723 11.5765 145.817 13.5581 140.188C25.9727 153.907 15.1678 126.965 25.4721 122.687C24.418 128.681 18.2638 147.258 26.1111 149.128C28.161 150.441 29.7866 149.919 31.6578 148.341C34.296 146.128 41.6196 144.851 39.347 140.247C37.1494 136.847 22.521 120.565 29.2699 118.991C31.5346 124.525 34.6183 130.158 38.7017 134.477C40.7631 130.192 36.5126 117.198 42.553 117.732C40.4264 125.464 41.5775 134.279 42.2794 141.186C42.2865 142.098 42.6785 142.356 43.3491 141.586C47.8001 138.278 45.9609 139.924 49.7987 140.133C51.3642 139.039 55.6965 139.902 55.4101 137.368C54.6685 135.969 52.1773 138.225 51.007 138.589C49.617 139.672 44.6296 138.588 47.4726 137.13C49.8078 135.325 54.2813 135.345 55.0873 132.195C55.761 127.158 57.5171 122.605 61.5523 119.223C62.3699 118.538 62.5488 117.791 61.9672 116.865C60.2446 115.113 64.8047 114.375 63.3717 116.753C63.3586 116.873 63.8598 117.21 63.9421 117.157C69.9109 112.643 77.9172 115.283 85.0625 114.902C85.9558 117.878 72.3773 112.627 66.7613 117.763C63.9901 119.514 66.0563 123.581 65.3606 126.331C65.6139 128.149 63.325 130.806 65.3371 131.972C65.0552 133.742 67.7172 133.005 66.3404 131.812C70.8718 131.021 75.4292 132.018 79.8195 133.065C82.2009 135.953 74.5417 135.474 75.5156 133.39C73.4708 135.734 64.8212 131.933 62.158 136.544C61.91 137.368 61.6148 137.836 62.9793 137.703C68.6692 136.903 74.1113 138.857 79.763 138.987C80.1206 139.23 81.5487 138.796 80.4014 140.021C81.2623 143.871 78.2356 140.589 75.944 143.219C73.0733 145.562 67.3351 146.891 66.7368 150.866C71.6758 155.402 80.3871 152.531 86.4025 151.536C88.9628 154.223 92.4962 152.931 91.0611 157.426C91.2006 160.743 97.5195 155.673 100.228 158.729C97.2132 161.408 91.3469 159.922 89.6645 163.607C88.6797 167.432 85.5303 170.793 87.1896 174.676C88.5647 176.099 87.5019 178.697 88.8902 179.683C92.1676 177.989 96.7859 177.795 99.3238 175.14C103.753 170.67 97.2957 171.163 100.255 170.103C101.788 170.208 102.452 169.494 102.845 168.038C103.972 158.915 109.762 160.162 104.209 167.452C104.049 168.798 105.057 169.706 105.508 170.805C104.023 169.688 99.9879 176.294 101.385 176.142C106.161 172.822 112.055 171.975 116.786 168.433C122.487 169.273 127.724 170.51 133.98 170.828C130.773 176.538 127.048 182.574 119.573 182.03C111.225 181.463 109.9 188.555 105.484 189.628C102.651 186.697 102.546 184.885 99.4286 189.583C98.8391 189.524 97.3257 189.807 98.4159 190.444C98.1813 190.843 97.5209 191.174 98.3706 191.672C115.512 194.932 103.218 184.958 121.131 184.091C129.32 184.285 132.415 176.572 136.337 170.809C141.832 171.387 147.701 170.773 153.389 170.724C156.457 170.953 168.01 168.259 163.843 171.906C162.475 171.503 162.409 171.567 162.546 173.158C157.386 175.803 151.26 174.89 146.706 178.906C146.183 178.767 145.81 176.591 144.723 177.46C145.577 183.326 136.348 189.689 129.911 191.283C122.567 192.823 116.47 197.565 114.088 204.775C110.837 202.467 110.872 194.649 106.963 193.592C101.061 193.357 95.0727 192.185 90.7331 197.155C90.0098 198.094 89.1893 197.777 88.1278 197.831C88.6463 199.26 86.8733 199.616 86.7497 200.877C85.1038 205.016 85.548 208.642 88.33 212.221C86.3073 212.54 85.2566 213.508 84.0806 211.207C82.4949 209.203 82.7683 213.636 81.9343 214.015C75.7409 217.552 86.3388 205.166 79.7966 203.178C76.7676 204.668 73.4781 205.28 70.2155 205.737C51.5469 208.729 53.4443 193.313 48.13 216.065Z" fill="#9391F7"/>
<path fill-rule="evenodd" clip-rule="evenodd" d="M121.083 130.269C120.1 131.169 120.649 131.268 121.341 131.875C122.117 131.199 121.698 130.936 121.083 130.269ZM119.067 105.935C119.112 102.043 116.51 110.073 114.804 108.087C114.718 108.017 114.123 108.382 114.134 108.412C114.701 111.4 115.901 109.921 118.047 109.359C120.243 109.25 119.073 107.374 119.067 105.935ZM121.208 125.683C119.307 118.676 123.389 109.71 113.031 116.249C103.511 122.164 99.6599 135.616 93.9637 145.045C99.1488 143.318 106.749 135.301 113.425 132.469C116.09 130.056 122.138 130.265 121.208 125.683ZM133.98 170.829C129.617 170.115 113.899 170.421 126.342 166.488C130.691 164.87 130.372 166.097 129.101 160.99C125.865 152.708 124.926 143.721 122.373 135.191C121.229 131.243 108.027 142.165 105.258 143.668C99.0223 147.178 91.1256 161.134 86.139 150.006C88.8206 143.768 91.5926 137.54 95.1862 131.766C95.9808 129.079 102.04 122.857 99.9695 121.787C96.2029 123.215 73.9888 129.675 84.3526 122.187C91.8107 119.81 100.585 118.072 106.698 113.174C110.34 106.895 116.493 101.459 118.984 94.8502C119.022 89.1639 119.161 83.4763 120.301 77.9041C128.017 74.4112 123.521 83.7694 124.302 88.1881C123.826 90.8275 136.624 76.4033 134.926 76.2409C135.243 75.8208 135.563 75.4219 136.113 75.3162C136.643 77.3732 139.585 76.5029 141.176 77.4123C135.28 85.5483 123.033 92.2285 124.735 103.427C124.804 105.27 124.987 105.424 126.544 104.524C135.741 99.4366 144.165 93.1715 152.663 87.0259C154.557 84.8113 148.955 81.9406 148.009 79.6362C153.965 80.8813 157.318 86.6806 158.399 92.2713C157.031 89.5929 154.62 90.8062 153.021 92.5302C145.145 98.9009 136.591 104.596 127.538 109.27C123.256 111.892 127.94 118.429 127.347 122.547C126.829 124.903 131.776 128.619 130.813 124.796C129.632 123.336 134.623 122.203 135.526 122.088C137.787 121.965 138.736 120.18 140.805 119.847C147.01 119.318 164.471 108.935 163.571 119.858C151.944 119.936 141.049 124.777 130.432 129.029C127.289 129.881 129.821 132.753 129.633 134.951C129.164 136.285 128.979 136.731 130.505 137.315C131.957 144.708 133.927 152.374 136.564 159.567C136.226 164.076 144.736 155.562 146.915 155.052C154.559 148.38 162.257 142.011 166.814 132.724C168.064 136.26 169.352 141.27 165.587 144.141C158.796 152.586 150.42 159.998 140.919 165.309C136.038 169.2 145.24 172.251 133.98 170.829Z" fill="#20D3F3"/>
<path fill-rule="evenodd" clip-rule="evenodd" d="M159.138 182.705C160.425 181.962 160.727 181.303 159.472 180.642C158.523 180.908 158.134 181.74 159.138 182.705ZM171.22 180.222C169.979 179.607 169.501 178.69 168.487 179.752C169.535 180.801 169.647 181.685 171.22 180.222ZM215.94 141.921C217.746 146.807 218.835 157.018 214.12 160.249C209.41 165.931 200.888 161.298 196.399 167.408C191.975 175.375 181.369 171.196 176.589 179.134C171.098 186.866 159.438 182.961 154.076 191.348C145.006 208.259 127.607 200.195 123.205 218.13C110.374 211.092 115.646 197.966 127.964 194.194C135.863 193.088 141.463 188.074 146.567 182.318C151.141 176.063 159.682 179.527 164.705 174.322C168.139 171.071 170.507 166.282 175.418 165.042C191.038 165.252 186.493 154.83 197.815 152.764C206.385 153.174 207.67 142.115 215.94 141.921Z" fill="#9391F7"/>
<path fill-rule="evenodd" clip-rule="evenodd" d="M56.8067 58.2219C57.4806 59.2665 55.941 62.2661 57.7879 62.642C64.2271 63.59 70.7405 62.2702 77.2966 62.5926C81.1178 61.7176 90.1657 63.8832 92.0843 61.0659C92.117 54.6685 91.7603 47.008 86.0082 43.1505C74.6263 32.5978 54.3589 42.7578 56.8067 58.2219ZM42.5537 117.733C39.3364 117.004 43.7424 103.838 39.2631 106.306C37.1942 108.177 36.2041 112.413 33.5325 113.023C30.3906 112.422 28.7631 109.51 26.9013 107.215C23.8817 105.745 22.7425 116.475 18.8427 112.978C16.5543 111.621 13.2338 104.258 11.3088 108.508C10.9648 110.174 8.22391 114.767 8.13927 110.877C14.8835 90.2747 16.6853 120.001 24.1318 103.757C27.6889 98.4232 30.4532 110.218 33.7022 108.249C35.7867 105.845 36.9917 102.065 40.4702 101.442C43.3178 99.8661 38.2638 90.4953 36.2748 91.8667C32.8363 99.9983 30.8542 98.8202 26.6698 91.9775C25.6896 90.6022 25.6383 90.5874 24.6733 91.8903C15.5835 108.187 17.2219 82.1485 10.9239 95.4088C6.10623 98.7307 11.8957 89.2855 12.657 87.8922C15.1355 84.6342 17.4803 90.7227 18.9095 92.4322C23.9247 95.757 23.1571 78.7245 30.8313 92.3903C33.5997 95.3802 34.5056 83.3443 38.1126 88.4218C42.7633 95.0727 40.3884 84.0672 40.8464 80.7349C40.3959 79.1948 41.9984 75.6813 39.9184 75.4126C28.3121 74.4129 14.1835 77.4552 3.76147 73.7181C8.88918 70.4317 17.434 74.3699 22.8473 72.0908C23.4433 69.3012 21.6156 45.9252 25.2752 50.0009C26.8529 57.04 24.2395 66.6349 26.6428 72.5045C42.6155 71.1993 38.0462 76.6418 44.9017 65.203C45.9302 63.6854 46.634 64.7458 47.9597 64.5042C54.8581 59.8494 54.2165 67.01 53.7852 54.5637C54.9892 37.5424 77.4742 30.2816 88.9966 42.443C93.725 47.3166 95.1281 54.2152 95.1241 60.7961C95.1155 61.8199 95.1611 62.2968 96.4704 62.6132C107.649 63.831 104.995 72.6766 108.88 78.9349C107.426 78.4711 105.981 79.1917 104.539 79.4163C106.04 64.6163 92.1156 63.2644 97.5648 66.4117C98.9332 67.9848 96.8673 67.3034 95.9372 67.3831C95.7869 68.2772 97.2024 68.93 95.7109 69.5747C96.3855 72.7551 93.7325 72.5619 93.7295 69.4681C93.7247 68.5344 94.241 67.4677 93.0291 66.8626C93.454 65.6656 92.4029 67.5564 91.5039 65.2272C89.4509 65.4788 89.462 66.5416 89.9142 68.1785C89.3338 68.2862 88.3305 68.6282 88.2395 68.4641C80.6101 63.3145 85.7148 71.9569 80.8961 69.5488C80.6043 63.5614 81.6709 68.3344 83.0044 65.823C78.688 64.1903 71.718 65.9618 66.5537 65.705C45.4223 64.6193 42.3963 64.8633 43.0825 87.1958C43.8873 91.7473 41.6054 97.8791 44.9017 101.446C46.2355 102.246 44.877 103.413 45.3436 104.319C44.5087 105.176 43.5514 102.501 43.4031 104.005C44.9319 106.802 41.6971 109.715 45.3135 111.868C45.8522 113.104 50.3202 112.678 48.1515 114.33C46.4146 114.028 46.6494 115.108 45.6557 115.018C42.8869 114.03 44.4351 116.946 42.5537 117.733Z" fill="#0A1328"/>
<path fill-rule="evenodd" clip-rule="evenodd" d="M147.19 218.223C135.663 221.526 113.127 222.987 133.26 208.383C139.072 206.06 145.958 205.516 149.883 200.025C160.97 182.525 166.018 191.749 176.36 182.608C179.613 178.925 183.245 175.201 188.533 175.516C196.647 175.801 198.116 163.974 207.198 166.349C210.103 166.718 212.494 164.672 214.661 163.01C213.309 166.889 213.377 175.138 208.842 175.623C202.583 175.159 200.241 181.487 195.09 183.243C188.043 184.071 186.655 193.064 179.461 193.32C169.645 192.683 167.179 203.675 158.747 205.719C152.725 207.283 147.805 211.823 147.19 218.223Z" fill="#9391F7"/>
<path fill-rule="evenodd" clip-rule="evenodd" d="M156.569 86.1811C155.141 84.3833 154.01 83.7856 156.524 82.7062C159.702 79.3182 164.092 75.6708 164.79 70.9784C172.199 60.5514 168.679 39.9509 169.951 25.8657C166.406 21.1808 157.522 20.5188 152.29 17.0418C147.278 15.792 142.207 10.8743 137.035 12.3187C127.462 16.2149 117.79 19.8641 108.059 23.3478C106.907 22.4021 107.108 47.6426 109.264 45.8043C110.042 46.0249 110.166 46.5022 109.437 47.0205C105.715 51.0359 109.47 55.3571 114.01 56.1095C114.394 56.8306 114.095 58.2596 115.685 57.7298C116.343 58.5158 115.66 58.6007 114.954 58.8489C114.358 59.0552 113.431 60.6402 113.359 58.4742C112.902 57.892 112.24 58.3717 112.099 59.0371C113.478 59.7629 111.766 60.3788 111.86 61.1387C106.698 48.9291 108.851 65.3539 111.371 69.5075C112.434 70.6269 111.67 68.5311 112.679 69.2411C112.874 69.3893 112.846 70.283 112.63 70.444C111.424 71.3427 113.321 71.9323 112.791 72.7087C115.176 72.092 112.912 75.632 116.003 78.0483C110.979 82.6221 105.246 59.1224 105.525 55.4227C106.343 47.9896 101.651 24.9737 107.304 21.4549C143.546 7.08982 134.392 6.39826 170.296 22.3514C172.997 24.7722 171.306 29.7684 171.894 33.1274C171.466 45.1274 172.556 57.5939 168.837 69.1238C170.567 71.3031 181.434 69.0244 185.282 69.6478C188.342 68.8438 194.19 71.0273 195.679 68.0924C196.372 62.4483 195.352 55.8958 197.904 50.7887C200.354 55.4296 198.197 61.9568 198.653 67.2298C198.093 71.6302 207.593 68.3918 211.109 69.3626C213.212 68.8123 220.914 69.2567 215.957 71.9517C209.608 71.9968 203.239 72.1893 196.894 72.2492C193.603 73.2377 178.69 70.0551 179.403 74.174C180.182 76.4353 178.224 81.2994 180.622 82.1637C183.104 82.1313 182.088 80.0879 182.294 78.5689C183.709 77.4879 182.28 80.9436 182.036 81.6267C181.598 83.3388 184.824 83.0175 185.886 83.8342C187.401 84.2031 188.163 87.6855 186.361 87.97C185.76 86.7801 185.61 87.64 185.33 88.1661C184.363 90.8339 183.723 85.7116 182.023 87.2128C182.674 82.6582 178.75 86.1603 180.488 88.5669C180.404 88.8391 180.385 89.3072 180.232 89.3565C178.363 89.9596 180.031 91.3287 179.606 92.5948C180.074 96.2478 181.269 91.7817 181.791 92.2554C182.193 92.4272 182.732 92.7368 182.213 93.4825C181.467 94.5547 181.542 94.6651 182.776 94.6328C187.238 95.3969 203.963 92.023 205.302 95.2136C205.745 97.9227 201.787 95.4862 200.668 97.3747C197.885 95.6868 194.981 97.9808 192.023 96.8854C189.241 96.4887 192.117 103.423 190.993 105.524C190.895 107.75 192.991 113.056 190.421 114.176C189.354 114.198 189.244 113.223 189.204 112.442C188.931 89.5848 189.558 98.6173 166.29 97.5016C164.073 97.8231 155.495 97.901 160.516 95.4967C165.445 94.6658 172.436 96.2528 176.406 94.2226C175.549 90.5999 179.311 71.6939 175.904 72.2429C173.232 72.7229 169.119 70.9008 167.217 72.8934C164.293 77.8213 160.481 82.0342 156.569 86.1811Z" fill="#0A1328"/>
<path fill-rule="evenodd" clip-rule="evenodd" d="M166.814 132.725C162.255 142.011 154.561 148.38 146.914 155.05C144.691 155.591 136.27 164.042 136.565 159.568C133.927 152.374 131.957 144.708 130.505 137.315C129.016 136.73 129.126 136.286 129.634 134.951C129.823 132.753 127.288 129.881 130.432 129.029C141.048 124.777 151.945 119.936 163.571 119.859C164.539 121.492 165.492 123.637 164.584 125.43C165.931 127.571 166.737 130.22 166.814 132.725Z" fill="#7776C8"/>
<path fill-rule="evenodd" clip-rule="evenodd" d="M113.176 78.452C124.48 77.3123 118.79 75.9752 119.083 89.775C120.181 99.3034 110.955 105.369 106.698 113.173C100.581 118.073 91.8164 119.808 84.3539 122.189C81.5501 121.469 86.6996 111.317 87.2236 108.429C90.827 99.6713 94.89 90.7149 97.618 81.8599C101.973 79.2541 107.926 78.2944 113.176 78.452Z" fill="#7776C8"/>
<path fill-rule="evenodd" clip-rule="evenodd" d="M210.679 177.679C208.897 186.541 206.271 197.731 195.842 199.377C192.92 199.759 190.114 200.661 188.025 202.955C185.212 206.217 183.124 210.214 178.208 210.156C174.986 210.365 172.482 211.823 171.663 215.269C164.542 216.639 156.858 217.172 149.496 217.45C150.745 212.585 154.413 209.124 159.274 208.268C167.794 206.928 169.556 195.695 178.766 196.067C187.071 196.699 188.451 186.616 195.998 185.547C201.437 183.651 203.933 177.259 210.679 177.679Z" fill="#9391F7"/>
<path fill-rule="evenodd" clip-rule="evenodd" d="M159.031 95.8755C158.121 104.853 169.244 116.589 154.504 115.926C146.39 117.879 138.977 120.559 131.294 123.573C129.359 123.88 132.229 125.821 130.46 126.474C127.27 127.912 123.925 108.922 127.537 109.269C136.591 104.595 145.145 98.9024 153.021 92.5301C156.221 88.6606 159.099 91.7768 159.031 95.8755Z" fill="#7776C8"/>
<path fill-rule="evenodd" clip-rule="evenodd" d="M201.944 131.985C206.783 132.326 220.509 139.499 210.281 141.078C205.509 143.234 204.405 150.01 198.391 150.021C189.509 149.525 188.527 160.698 180.861 161.598C175.699 160.223 165.882 170.213 169.958 161.053C172.012 155.114 165.103 151.799 175.129 151.503C186.879 149.179 189.149 133.828 201.944 131.985Z" fill="#9391F7"/>
<path fill-rule="evenodd" clip-rule="evenodd" d="M48.1301 216.065C53.4405 193.315 51.5541 208.728 70.2162 205.737C76.6825 205.441 84.3478 198.735 81.2403 210.688C78.4118 219.601 55.9021 219.269 48.1301 216.065Z" fill="#B54E2B"/>
<path fill-rule="evenodd" clip-rule="evenodd" d="M167.574 141.807C168.745 139.977 168.056 138.14 167.594 136.303C169.915 134.387 171.808 131.561 174.983 131.169C181.021 131.079 182.192 123 187.982 126.224C205.724 131.557 193.684 130.085 187.338 138.428C183.296 145.185 177.789 149.848 169.619 150.04C168.734 147.438 169.797 143.643 167.574 141.807Z" fill="#9391F7"/>
<path fill-rule="evenodd" clip-rule="evenodd" d="M88.3288 212.222C84.1021 207.064 86.0109 202.969 88.1292 197.832C89.2035 197.753 89.9904 198.126 90.7325 197.153C95.0748 192.184 101.059 193.358 106.963 193.593C109.923 194.301 111.458 200.826 112.765 203.676C104.996 207.484 96.7306 210.201 88.3288 212.222Z" fill="#B54E2B"/>
<path fill-rule="evenodd" clip-rule="evenodd" d="M169.145 165.933C174.136 160.01 183.884 164.332 187.447 157.124C189.898 152.909 193.561 150.533 198.392 150.021C205.674 149.483 206.837 139.794 214.662 139.901C218.07 143.026 208.56 142.573 207.4 147.143C203.376 154.849 192.381 150.619 188.922 159.043C186.379 164.628 180.509 164.038 175.418 165.042C167.918 166.93 165.822 177.798 157.38 177.524C145.943 177.306 142.347 191.408 131.631 193.208C118.04 193.709 115.252 211.54 114.089 204.774C119.143 189.179 137.015 193.578 145.486 180.048C150.258 174.993 158.525 174.938 164.213 173.208C163.488 170.431 167.593 168.231 169.145 165.933Z" fill="#B54E2B"/>
<path fill-rule="evenodd" clip-rule="evenodd" d="M27.0033 120.953C30.0014 126.827 32.8944 132.837 37.3798 137.759C39.324 139.568 41.3 142.82 38.1731 144.523C34.2779 145.974 30.2671 151.563 26.1127 149.129C22.1094 147.067 22.5044 148.047 22.4672 143.524C22.9691 136.997 22.4806 127.222 26.4271 122.598C26.0188 121.851 26.3649 121.349 27.0033 120.953Z" fill="#B54E2B"/>
<path fill-rule="evenodd" clip-rule="evenodd" d="M214.661 163.01C209.141 168.838 199.687 163.683 195.733 171.945C192.005 177.841 183.543 173.567 179.474 179.41C172.966 189.774 160.908 184.612 154.38 194.41C146.595 209.876 129.884 203.087 125.536 217.489C123.611 221.02 122.975 215.918 124.649 213.981C127.236 207.551 133.749 204.984 140.029 203.499C151.476 200.592 154.118 184.389 167.162 184.499C171.227 184.224 174.149 182.111 176.589 179.134C181.368 171.196 191.975 175.375 196.399 167.408C200.887 161.299 209.412 165.93 214.118 160.249C217.073 157.789 215.162 161.102 214.661 163.01Z" fill="#B54E2B"/>
<path fill-rule="evenodd" clip-rule="evenodd" d="M12.812 141.887C18.1504 147.355 22.2844 148.949 20.4126 157.971C16.3627 163.416 12.9805 168.353 10.4035 175.115C6.09421 164.207 6.86754 151.948 12.812 141.887Z" fill="#B54E2B"/>
<path fill-rule="evenodd" clip-rule="evenodd" d="M205.156 196.488C201.185 216.862 190.97 215.252 173.573 215.188C176.585 210.029 184.433 214.49 187.644 206.785C191.676 200.215 200.921 203.156 205.156 196.488Z" fill="#9391F7"/>
<path fill-rule="evenodd" clip-rule="evenodd" d="M210.679 177.679C203.917 177.266 201.448 183.647 195.999 185.548C188.454 186.615 187.068 196.699 178.765 196.066C169.555 195.695 167.797 206.927 159.274 208.267C151.375 208.95 152.055 216.263 147.191 218.224C147.805 211.821 152.723 207.285 158.747 205.717C167.173 203.677 169.651 192.681 179.461 193.321C186.653 193.064 188.045 184.07 195.09 183.242C197.148 182.855 198.598 181.419 199.942 179.916C201.702 176.961 212.461 172.645 210.679 177.679Z" fill="#B54E2B"/>
<mask id="mask0_57_4680" style="mask-type:luminance" maskUnits="userSpaceOnUse" x="0" y="162" width="10" height="28">
<path d="M0.408386 162.078H9.02255V189.068H0.408386V162.078Z" fill="white"/>
</mask>
<g mask="url(#mask0_57_4680)">
<path fill-rule="evenodd" clip-rule="evenodd" d="M6.92254 181.293C5.88049 181.798 6.63789 182.218 6.86092 182.934C7.57974 182.581 6.99163 181.969 6.92254 181.293ZM4.46646 162.078C4.04975 169.668 8.52371 176.235 9.02256 183.348C8.27706 187.284 9.54061 191.667 5.02942 187.158C-2.65936 180.161 0.754892 170.175 4.46646 162.078Z" fill="#B54E2B"/>
</g>
<path fill-rule="evenodd" clip-rule="evenodd" d="M12.0292 192.156C11.9318 186.578 11.5529 183.835 16.5949 189.181C19.9291 194.157 27.2119 193.904 30.5666 197.994C30.4941 200.524 30.0925 203.044 30.2375 205.585C24.0806 201.236 17.6062 197.255 12.0292 192.156Z" fill="#B54E2B"/>
<path fill-rule="evenodd" clip-rule="evenodd" d="M32.9905 207.306C35.7812 205.795 31.7051 197.922 35.7956 197.889C37.9632 198.73 42.2292 196.878 43.2984 199.131C42.6373 214.527 48.6113 218.474 32.9905 207.306Z" fill="#B54E2B"/>
<path fill-rule="evenodd" clip-rule="evenodd" d="M40.1803 117.656C37.8507 124.425 42.1874 142.785 33.7341 127.717C26.7369 117.101 29.2721 118.037 40.1803 117.656Z" fill="#B54E2B"/>
<path fill-rule="evenodd" clip-rule="evenodd" d="M205.157 196.488C200.918 203.157 191.679 200.214 187.645 206.786C183.46 213.958 178.434 211.044 171.663 215.27C173.194 207.833 182.691 212.142 185.634 205.882C187.903 202.248 191.565 199.685 195.842 199.377C199.429 200.243 207.918 189.724 205.157 196.488Z" fill="#B54E2B"/>
<path fill-rule="evenodd" clip-rule="evenodd" d="M169.62 150.041C183.366 150.724 185.796 134.918 197.383 131.168C208.85 130.896 189.916 134.951 186.952 142.542C184.082 146.901 180.568 150.838 175.128 151.501C172.75 151.534 168.735 153.893 169.62 150.041Z" fill="#B54E2B"/>
<path fill-rule="evenodd" clip-rule="evenodd" d="M166.814 132.725C167.303 129.6 164.282 126.995 164.98 124.18C165.883 128.406 174.362 119.839 181.871 124.491C180.29 126.473 178.341 128.054 175.851 128.518C172.097 128.143 168.906 133.809 166.814 132.725Z" fill="#9391F7"/>
<path fill-rule="evenodd" clip-rule="evenodd" d="M36.9205 21.6392C36.593 21.5401 35.2398 22.2801 35.1727 21.0912C35.3517 19.2946 38.1579 20.5004 39.3902 19.6996C38.4769 18.8384 35.3656 15.2573 38.4123 15.7337C44.1144 21.4812 41.3685 16.8483 46.3177 15.6514C46.449 17.19 45.2169 18.2355 44.4588 19.4437C46.0544 19.0681 49.3197 20.3474 46.544 21.3764C44.2553 21.6313 46.8968 23.0824 47.2984 23.8277C48.0615 29.545 42.5365 20.0967 41.4132 23.2983C40.3224 24.2093 39.4019 27.1306 37.6909 26.1861C36.2166 23.8743 42.4142 21.4946 36.9205 21.6392Z" fill="#0A1328"/>
<path fill-rule="evenodd" clip-rule="evenodd" d="M61.5357 19.6627C64.4021 18.9769 66.4569 21.1702 62.7336 21.7543C63.2033 23.1007 65.8983 23.9965 64.7749 25.5015C64.0234 26.2943 63.319 25.6378 62.7131 25.0925C59.9422 21.9067 59.0621 22.2931 56.8172 25.6516C55.8723 27.472 53.5022 25.8415 55.1521 24.4107C57.9602 21.6368 56.2139 21.6527 53.3072 21.7692C50.6196 20.2247 55.4744 20.1506 56.6274 19.8147C55.8306 18.4418 54.0473 17.6498 54.517 15.8252C56.9723 15.0338 58.4205 20.4184 60.3186 18.1001C63.539 13.4528 64.916 16.0884 61.5357 19.6627Z" fill="#0A1328"/>
<path fill-rule="evenodd" clip-rule="evenodd" d="M73.0048 21.8133C71.2948 22.2233 69.4476 20.9968 72.0397 20.1958C75.3321 19.9614 74.4354 19.3774 72.7576 17.2196C72.4513 14.3333 75.1001 16.5126 76.1317 17.6117C78.0162 20.0446 78.8264 17.404 80.3577 16.0146C83.3798 14.1669 80.9877 18.6228 79.9431 19.5202C81.2161 19.5522 82.4627 19.448 83.3938 20.4874C81.1566 22.4175 80.0748 21.1964 82.8907 23.9068C84.6983 27.1015 79.8352 24.9744 79.0961 23.3947C76.8308 20.5035 75.9707 27.1095 73.3279 26.2788C71.2902 24.621 78.1586 21.2822 73.0048 21.8133Z" fill="#0A1328"/>
<path fill-rule="evenodd" clip-rule="evenodd" d="M20.959 127.283C20.3125 133.157 20.3646 139.131 19.4628 144.96C9.67345 141.012 16.7624 133.287 20.959 127.283Z" fill="#B54E2B"/>
<path fill-rule="evenodd" clip-rule="evenodd" d="M191.897 31.9102C189.669 31.0983 174.675 30.6737 178.84 27.0518C183.62 28.4656 188.51 27.5706 193.297 28.5264C196.118 29.88 193.548 31.7777 191.897 31.9102Z" fill="#0A1328"/>
<path fill-rule="evenodd" clip-rule="evenodd" d="M180.092 1.54364C176.994 5.34254 174.712 12.1699 170.643 14.0747C167.977 13.2831 178.728 -4.1192 180.092 1.54364Z" fill="#0A1328"/>
<path fill-rule="evenodd" clip-rule="evenodd" d="M177.307 21.3791C172.347 20.8711 188.616 8.79606 189.603 11.0677C189.026 15.2723 180.572 18.4231 177.307 21.3791Z" fill="#0A1328"/>
<path fill-rule="evenodd" clip-rule="evenodd" d="M167.487 133.547C169.706 130.925 172.381 129.166 175.851 128.518C179.221 128.646 180.684 123.571 183.652 125.079C181.125 130.958 174.437 129.946 170.352 133.73C168.641 135.601 166.691 137.428 167.487 133.547Z" fill="#B54E2B"/>
<path fill-rule="evenodd" clip-rule="evenodd" d="M195.791 97.3692C196.228 98.5806 196.872 99.1767 198.368 99.0869C197.792 98.4725 198.012 97.846 198.254 97.1412C199.089 97.1222 200.216 99.9267 200.056 100.773C199.108 101.49 199.628 102.977 198.525 102.784C198.004 102.749 196.986 103.197 197.114 102.321C197.155 100.176 194.302 100.424 193.844 102.1C190.096 96.9441 195.583 103.011 195.791 97.3692Z" fill="#0A1328"/>
<path fill-rule="evenodd" clip-rule="evenodd" d="M19.0885 71.8875C18.0349 71.08 17.7294 70.8094 16.8 71.6424C17.5363 72.6737 17.8774 72.5106 19.0885 71.8875ZM22.4131 72.6255C20.2319 72.6459 18.0509 72.6664 15.872 72.6873C18.8566 71.8355 15.9752 71.4562 15.3558 70.3142C16.3286 71.5693 17.8415 70.4637 19.0741 70.2462C20.3488 69.4529 17.7029 72.8693 22.4131 72.6255Z" fill="#B54E2B"/>
<path fill-rule="evenodd" clip-rule="evenodd" d="M82.1641 213.865C84.1334 206.323 83.5659 214.018 86.3899 212.581C85.5912 213.226 83.5737 213.841 82.1641 213.865Z" fill="#B54E2B"/>
<path fill-rule="evenodd" clip-rule="evenodd" d="M15.428 72.5465C13.8835 72.5486 12.3389 72.5505 10.798 72.5526C12.8564 72.4751 12.4435 70.3672 10.4489 71.1121C8.1452 70.925 11.7228 68.7937 12.4437 70.5705C12.8629 71.9599 14.0359 72.4843 15.428 72.5465Z" fill="#20D3F3"/>
<path fill-rule="evenodd" clip-rule="evenodd" d="M192.121 99.9268C192.91 100.727 193.922 101.609 193.895 102.812C193.471 102.561 192.874 103.738 192.518 102.599C192.197 101.572 191.689 101.224 191.161 102.514C191.132 101.588 191.102 100.669 191.072 99.751C191.296 100.559 191.725 100.146 192.121 99.9268Z" fill="#20D3F3"/>
<path fill-rule="evenodd" clip-rule="evenodd" d="M186.909 72.3175C190.24 72.2949 193.572 72.2722 196.894 72.2494C194.155 72.8185 189.75 71.1457 187.936 73.0743C187.636 74.1436 185.897 73.2573 186.909 72.3175Z" fill="#20D3F3"/>
<path fill-rule="evenodd" clip-rule="evenodd" d="M192.121 99.9267C191.073 100.861 190.98 99.2943 190.879 98.4933C192.849 99.5524 193.425 96.41 195.702 97.2102C196.09 97.2666 195.333 97.8152 195.228 98.0382C193.189 97.0662 193.897 99.7273 192.121 99.9267Z" fill="#B54E2B"/>
<path fill-rule="evenodd" clip-rule="evenodd" d="M179.696 91.4076C178.541 89.9296 180.16 89.8814 180.489 88.5667C180.559 89.2016 181.999 91.2817 180.886 90.8747C180.293 90.6319 179.484 89.8624 179.696 91.4076Z" fill="#B54E2B"/>
<path fill-rule="evenodd" clip-rule="evenodd" d="M186.603 77.1892C185.955 79.4122 184.685 77.5542 184.645 76.2391C185.398 76.0788 185.972 76.8995 186.603 77.1892Z" fill="#0A1328"/>
<path fill-rule="evenodd" clip-rule="evenodd" d="M195.076 103.871C195.3 102.147 196.403 103.952 197.141 104.423C196.68 106.231 195.86 104.512 195.076 103.871Z" fill="#20D3F3"/>
<path fill-rule="evenodd" clip-rule="evenodd" d="M22.9015 67.2141C22.8336 70.1681 22.7917 70.6009 21.3389 67.8135C22.1015 68.2435 22.7146 68.2834 22.9015 67.2141Z" fill="#B54E2B"/>
<path fill-rule="evenodd" clip-rule="evenodd" d="M21.3554 67.798C20.1948 67.2832 20.7479 66.2834 20.4957 65.5166C20.7886 66.2525 21.0454 67.1339 21.3554 67.798Z" fill="#B54E2B"/>
<path fill-rule="evenodd" clip-rule="evenodd" d="M80.5688 214.547C81.0247 214.369 81.4804 214.192 81.9345 214.015C81.4781 214.192 81.0236 214.369 80.5688 214.547Z" fill="#B54E2B"/>
<path fill-rule="evenodd" clip-rule="evenodd" d="M191.113 105.537C190.993 105.544 190.985 105.499 191.017 105.398C191.124 105.405 191.148 105.434 191.113 105.537Z" fill="#20D3F3"/>
<path fill-rule="evenodd" clip-rule="evenodd" d="M23.1113 63.9749C23.1113 63.9749 23.0893 63.9699 23.0899 63.9693C23.0905 63.9687 23.1113 63.9749 23.1113 63.9749Z" fill="#B54E2B"/>
<path fill-rule="evenodd" clip-rule="evenodd" d="M8.47168 189.625C8.59068 189.755 8.70969 189.886 8.82811 190.016C8.70892 189.885 8.5903 189.755 8.47168 189.625Z" fill="#B54E2B"/>
<path fill-rule="evenodd" clip-rule="evenodd" d="M22.8379 72.053C22.8732 72.1242 22.7968 72.0687 22.7678 72.0727L22.8379 72.053Z" fill="#B54E2B"/>
<path fill-rule="evenodd" clip-rule="evenodd" d="M26.4352 122.598C26.4352 122.598 26.4265 122.598 26.4269 122.598C26.4275 122.598 26.4352 122.598 26.4352 122.598Z" fill="#9391F7"/>
<path fill-rule="evenodd" clip-rule="evenodd" d="M121.608 168.068C116.618 170.89 111.647 163.37 106.641 161.981C102.373 158.486 97.2434 157.961 92.993 154.664C96.2486 150.73 119.386 130.725 122.374 135.19C124.926 143.721 125.864 152.707 129.1 160.99C132.364 167.547 124.856 166.086 121.608 168.068Z" fill="#7776C8"/>
<path fill-rule="evenodd" clip-rule="evenodd" d="M169.62 150.041C170.08 157.47 166.252 164.243 161.611 169.989C155.104 169.564 143.619 173.938 139.597 168.92C138.308 163.978 146.851 163.097 149.462 159.905C152.446 157.625 154.989 154.772 157.955 152.465C164.257 148.075 168.873 134.395 169.62 150.041Z" fill="#7776C8"/>
<path fill-rule="evenodd" clip-rule="evenodd" d="M70.1284 163.104C75.0506 162.334 88.865 169.683 81.1927 174.886C75.8508 176.257 70.9411 181.429 65.832 181.708C49.3497 171.222 49.5831 165.282 70.1284 163.104Z" fill="#B54E2B"/>
<path fill-rule="evenodd" clip-rule="evenodd" d="M21.6588 160.958C23.8251 166.717 24.9564 172.715 28.0837 178.076C30.4359 183.403 35.9229 187.49 31.7718 193.385C26.0059 193.563 18.7636 187.793 14.8633 183.065C9.70167 177.07 17.9047 166.319 21.6588 160.958Z" fill="#B54E2B"/>
<path fill-rule="evenodd" clip-rule="evenodd" d="M43.45 117.082C47.0002 117.677 65.3616 111.998 61.5533 119.222C55.8097 122.742 57.0903 130.262 53.4095 134.334C49.5944 135.368 46.1946 138.895 42.9629 139.826C40.0617 133.439 40.5218 123.148 43.45 117.082Z" fill="#B54E2B"/>
<path fill-rule="evenodd" clip-rule="evenodd" d="M31.6863 169.015C32.4867 163.078 33.705 148.825 42.0216 153.539C43.626 158.557 45.828 163.32 48.4647 167.873C49.4845 170.685 44.5951 172.09 43.3233 174.323C41.1769 176.564 38.9049 178.712 37.6083 181.655C33.6221 184.994 32.0652 171.576 31.6863 169.015Z" fill="#B54E2B"/>
<path fill-rule="evenodd" clip-rule="evenodd" d="M81.5163 126.262C94.7499 125.897 107.625 113.602 95.1854 131.764C91.5928 137.54 88.8204 143.768 86.1398 150.006C82.3802 148.297 80.3167 143.774 80.4015 140.021C81.5487 138.796 80.1207 139.23 79.7635 138.988C80.8389 134.753 78.9333 130.474 81.5163 126.262Z" fill="#7776C8"/>
<path fill-rule="evenodd" clip-rule="evenodd" d="M68.8526 118.635C69.6663 119.818 73.1792 119.179 74.7976 118.761C72.8302 117.832 70.8864 118.174 68.8526 118.635ZM81.5163 126.261C79.5518 138.095 74.2892 129.203 65.337 131.972C63.3811 130.445 66.505 123.677 65.3533 120.509C67.4472 113.635 78.5076 114.804 84.245 116.296C84.1974 120.072 82.4956 122.828 81.5163 126.261Z" fill="#B54E2B"/>
<path fill-rule="evenodd" clip-rule="evenodd" d="M62.6228 185.48C58.7074 187.103 56.9279 194.867 51.937 194.283C49.7737 193.505 46.0784 192.97 46.9878 189.812C48.3351 184.415 49.2447 178.841 51.6426 173.765C52.6547 171.84 55.5949 177.442 57.1168 178.031C58.5133 180.182 67.2019 183.23 62.6228 185.48Z" fill="#B54E2B"/>
<path fill-rule="evenodd" clip-rule="evenodd" d="M100.229 158.727C106.961 159.049 104.255 163.649 102.844 168.038C102.452 169.494 101.788 170.208 100.255 170.103C90.3473 170.703 82.4817 178.15 89.6663 163.608C91.344 159.921 97.2151 161.408 100.229 158.727Z" fill="#B54E2B"/>
<path fill-rule="evenodd" clip-rule="evenodd" d="M44.1768 151.585C50.8183 148.506 51.9573 149.307 58.075 152.736C61.7183 154.418 54.2352 160.184 53.4838 162.911C52.5314 163.678 51.9444 167.648 50.6694 166.609C47.9766 161.883 45.485 156.883 44.1768 151.585Z" fill="#B54E2B"/>
<path fill-rule="evenodd" clip-rule="evenodd" d="M80.2192 142.386C80.7212 143.286 81.4407 144.13 81.6828 145.095C82.0156 148.485 86.1387 148.641 86.4053 151.535C82.7158 152.92 60.8007 155.722 68.7644 147.773C72.331 146.155 76.2737 140.953 80.2192 142.386Z" fill="#B54E2B"/>
<path fill-rule="evenodd" clip-rule="evenodd" d="M56.1038 164.652C62.0123 150.18 64.8988 154.659 76.3455 160.272C78.6135 162.679 89.2471 160.261 87.5048 163.993C83.7531 177.85 83.2055 152.407 56.1038 164.652Z" fill="#B54E2B"/>
<path fill-rule="evenodd" clip-rule="evenodd" d="M80.1252 200.502C74.7662 205.691 46.8833 203.377 55.1655 198.831C76.656 201.588 80.3774 190.014 80.1252 200.502Z" fill="#B54E2B"/>
<path fill-rule="evenodd" clip-rule="evenodd" d="M133.979 170.829C138.84 169.933 132.856 175.023 132.131 177.332C128.967 183.696 122.51 184.042 116.207 184.732C109.999 184.863 109.763 191.951 106.302 192.218C105.157 191.975 103.686 191.344 102.632 192.686C101.587 191.79 99.7389 192.172 98.3704 191.673C97.5208 191.174 98.1813 190.843 98.4147 190.444C101.431 186.762 101.883 185.997 105.489 189.632C121.908 174.569 123.169 190.062 133.979 170.829Z" fill="#B54E2B"/>
<path fill-rule="evenodd" clip-rule="evenodd" d="M65.9895 196.041C64.4745 195.631 57.0951 197.056 58.4132 195.126C63.6516 193.536 68.0484 189.608 72.9771 187.835C89.319 191.511 73.2372 194.951 65.9895 196.041Z" fill="#B54E2B"/>
<path fill-rule="evenodd" clip-rule="evenodd" d="M86.6939 186.348C87.4321 188.352 84.286 191.427 83.9129 188.46C84.0465 186.942 82.7211 187.197 82.0234 187.677C81.2774 188.708 80.5048 188.469 79.577 188.112C68.505 185.733 80.3198 182.727 82.7455 177.006C85.5571 172.43 87.6387 180.137 85.8887 182.192C84.9122 183.676 83.1181 184.736 83.3465 186.72C84.9949 187.222 86.8131 184.05 86.6939 186.348Z" fill="#B54E2B"/>
<path fill-rule="evenodd" clip-rule="evenodd" d="M28.665 174.142C26.8153 169.251 23.1887 162.365 24.5371 157.373C26.8636 155.919 29.1892 150.989 32.2839 152.874C30.3666 159.52 28.2633 166.91 28.665 174.142Z" fill="#B54E2B"/>
<path fill-rule="evenodd" clip-rule="evenodd" d="M62.0384 146.073C61.2453 144.186 57.4099 140.426 61.2184 139.626C64.1438 139.905 74.6276 138.7 74.1437 141.514C71.0448 143.668 67.7803 145.592 65.0323 148.194C63.2136 149.017 63.8958 146.128 62.0384 146.073Z" fill="#B54E2B"/>
<path fill-rule="evenodd" clip-rule="evenodd" d="M43.8233 190.506C41.9252 188.583 37.2723 187.328 39.0054 184.282C41.115 179.894 44.5761 176.455 47.9383 173.037C49.7114 173.581 46.2392 179.306 46.0978 181.512C45.1335 184.475 45.2695 187.712 43.8233 190.506Z" fill="#B54E2B"/>
<path fill-rule="evenodd" clip-rule="evenodd" d="M98.3469 188C97.2122 189.481 95.4008 191.622 93.3041 191.457C92.2814 190.97 88.6768 191.053 89.1378 189.719C92.7858 185.928 97.0101 182.789 99.6546 178.081C101.466 175.985 99.1422 183.575 101.087 185.234C100.699 186.43 98.8095 186.708 98.3469 188Z" fill="#B54E2B"/>
<path fill-rule="evenodd" clip-rule="evenodd" d="M79.8374 135.145C82.5597 143.36 67.4451 135.527 62.98 137.705C61.6149 137.836 61.9101 137.367 62.1586 136.545C65.5886 131.788 74.5795 135.109 79.8374 135.145Z" fill="#B54E2B"/>
<path fill-rule="evenodd" clip-rule="evenodd" d="M99.8682 171.279C102.669 170.967 99.9943 173.925 99.3234 175.139C96.7869 177.795 92.1671 177.988 88.8916 179.683C87.5033 178.701 88.5602 176.096 87.1884 174.676C90.1707 172.977 95.9887 172.773 99.8682 171.279Z" fill="#B54E2B"/>
<path fill-rule="evenodd" clip-rule="evenodd" d="M89.1098 156.155C89.7736 162.319 81.2621 157.705 77.7725 157.946C72.3822 155.06 84.8706 156.214 87.1833 154.016C89.2517 152.871 89.1242 154.583 89.1098 156.155Z" fill="#B54E2B"/>
<path fill-rule="evenodd" clip-rule="evenodd" d="M161.611 169.989C165.202 165.587 168.007 160.608 169.567 155.11C171.785 158.645 169.017 162.74 168.767 166.33C166.395 166.132 167.525 171.806 161.611 169.989Z" fill="#20D3F3"/>
<path fill-rule="evenodd" clip-rule="evenodd" d="M60.6517 132.333C53.7646 135.346 59.9196 122.67 62.6519 121.266C63.4222 124.705 63.0692 129.73 60.6517 132.333Z" fill="#B54E2B"/>
<path fill-rule="evenodd" clip-rule="evenodd" d="M114.845 167.248C121.334 169.193 103.049 173.829 101.387 176.141C99.9634 176.328 104.036 169.677 105.507 170.805C105.485 170.972 105.493 171.196 105.329 171.36C108.623 170.406 112.013 169.434 114.845 167.248Z" fill="#B54E2B"/>
<path fill-rule="evenodd" clip-rule="evenodd" d="M106.641 161.98C114.6 164.095 108.88 167.363 105.507 170.805C102.504 166.604 106.451 167.149 106.641 161.98Z" fill="#B54E2B"/>
<path fill-rule="evenodd" clip-rule="evenodd" d="M46.1693 209.671C46.041 207.698 44.0961 196.576 48.0017 200.444C48.6712 200.941 49.6774 201.309 49.9177 201.961C48.9687 204.019 48.2551 209.01 46.1693 209.671Z" fill="#B54E2B"/>
<path fill-rule="evenodd" clip-rule="evenodd" d="M63.4795 187.281C64.9637 185.846 69.7529 183.968 69.5158 187.177C65.7607 188.903 54.5285 196.634 63.4795 187.281Z" fill="#B54E2B"/>
<path fill-rule="evenodd" clip-rule="evenodd" d="M96.7644 178.775C95.5636 180.203 89.4307 188.268 88.5683 186.015C88.4582 181.558 92.7874 179.073 96.7644 178.775Z" fill="#B54E2B"/>
<path fill-rule="evenodd" clip-rule="evenodd" d="M72.4201 184.66C64.8797 183.819 76.8555 178.579 79.5885 177.808C77.6303 180.367 74.8537 182.588 72.4201 184.66Z" fill="#B54E2B"/>
<path fill-rule="evenodd" clip-rule="evenodd" d="M61.7941 149.961C62.2797 151.869 54.5192 148.351 54.0539 147.069C58.6649 140.636 58.5486 147.743 61.7941 149.961Z" fill="#B54E2B"/>
<path fill-rule="evenodd" clip-rule="evenodd" d="M55.7621 140.353C57.3034 141.335 53.8024 143.315 53.2081 144.404C51.0866 147.208 41.4615 142.442 55.7621 140.353Z" fill="#B54E2B"/>
<path fill-rule="evenodd" clip-rule="evenodd" d="M99.8681 171.279C96.0314 171.412 89.0135 176.152 86.7265 172.762C90.8076 172.38 96.3729 169.385 99.8681 171.279Z" fill="#7776C8"/>
<path fill-rule="evenodd" clip-rule="evenodd" d="M82.7004 196.438C82.6043 193.917 83.8156 192.462 86.0114 192.191C86.3278 192.248 86.9042 195.192 86.6443 195.234C85.6686 195.396 85.9341 196.228 85.6967 196.782C85.0569 199.308 82.634 198.966 82.7004 196.438Z" fill="#B54E2B"/>
<path fill-rule="evenodd" clip-rule="evenodd" d="M42.6744 145.23C44.0687 142.948 46.338 146.07 47.6494 147.027C49.0872 148.467 45.5743 148.73 44.7653 149.336C42.7359 149.983 43.319 146.565 42.6744 145.23Z" fill="#B54E2B"/>
<path fill-rule="evenodd" clip-rule="evenodd" d="M41.2174 195.568C39.1515 194.989 34.2338 196.422 35.2987 193.22C36.0549 188.191 39.1646 193.948 41.2174 195.568Z" fill="#B54E2B"/>
<path fill-rule="evenodd" clip-rule="evenodd" d="M92.9927 154.665C98.1312 157.129 97.7542 157.449 92.4052 158.644C89.9777 159.53 90.9447 153.344 92.9927 154.665Z" fill="#B54E2B"/>
<path fill-rule="evenodd" clip-rule="evenodd" d="M22.5518 150.833C22.1916 147.708 24.3818 150.38 25.9177 150.854C28.2675 151.714 24.8094 153.39 24.1046 154.354C22.3651 155.716 22.9086 151.526 22.5518 150.833Z" fill="#B54E2B"/>
<path fill-rule="evenodd" clip-rule="evenodd" d="M48.248 138.749C50.5315 140.541 53.7124 135.546 55.4099 137.367C56.4481 139.316 46.0384 141.681 48.248 138.749Z" fill="#B54E2B"/>
<path fill-rule="evenodd" clip-rule="evenodd" d="M93.0051 192.996C91.3855 194.009 86.8564 198.284 88.175 194.489C88.4261 191.1 90.5885 192.694 93.0051 192.996Z" fill="#B54E2B"/>
<path fill-rule="evenodd" clip-rule="evenodd" d="M48.248 138.749C47.7731 140.138 46.2146 138.935 45.4783 140.303C45.3138 140.561 44.7487 140.53 44.424 140.726C39.2083 144.424 44.9829 136.514 48.248 138.749Z" fill="#20D3F3"/>
<path fill-rule="evenodd" clip-rule="evenodd" d="M40.5549 147.137C41.6158 149.531 40.6116 150.989 38.0774 150.89C37.4908 149.569 39.3399 147.67 40.5549 147.137Z" fill="#B54E2B"/>
<path fill-rule="evenodd" clip-rule="evenodd" d="M52.5107 197.909C50.6186 199.958 49.5105 199.736 48.0067 197.979C49.314 197.211 50.8007 197.972 52.5107 197.909Z" fill="#B54E2B"/>
<path fill-rule="evenodd" clip-rule="evenodd" d="M63.7417 115.201C64.9354 115.101 66.1291 115.001 67.3226 114.901C65.9483 115.793 62.41 118.875 63.7417 115.201Z" fill="#B54E2B"/>
<path fill-rule="evenodd" clip-rule="evenodd" d="M146.514 178.956C145.165 181.269 143.956 178.727 144.723 177.46C145.61 176.798 146.3 178.209 146.514 178.956Z" fill="#20D3F3"/>
<path fill-rule="evenodd" clip-rule="evenodd" d="M60.3107 135.088C59.6729 136.298 59.366 136.882 58.4483 137.664C57.1809 136.197 58.6194 135.028 60.3107 135.088Z" fill="#B54E2B"/>
<path fill-rule="evenodd" clip-rule="evenodd" d="M46.1691 209.671C47.9582 209.353 46.0152 211.046 47.5423 211.48C48.1724 212.891 46.9079 212.002 46.1736 211.707C44.9509 211.669 45.4233 211.381 46.0242 210.979C46.5559 210.623 44.8526 209.974 46.1691 209.671Z" fill="#7776C8"/>
<path fill-rule="evenodd" clip-rule="evenodd" d="M44.1768 151.585C44.5912 152.688 44.3171 152.889 43.1914 152.914C42.9558 151.959 43.1461 151.588 44.1768 151.585Z" fill="#20D3F3"/>
<path fill-rule="evenodd" clip-rule="evenodd" d="M80.125 200.502C79.8903 199.955 79.1327 199.342 80.3162 198.972C81.1335 199.634 81.5544 200.765 80.125 200.502Z" fill="#20D3F3"/>
<path fill-rule="evenodd" clip-rule="evenodd" d="M120.627 174.679C119.755 175.216 119.115 175.962 118.773 174.815C119.178 173.775 119.638 174.021 120.627 174.679Z" fill="#7776C8"/>
<path fill-rule="evenodd" clip-rule="evenodd" d="M62.6229 185.48C63.2968 185.151 64.0227 184.552 64.0584 185.586C63.143 185.914 63.4747 186.654 63.4791 187.28C62.3668 187.136 62.6676 186.175 62.6229 185.48Z" fill="#20D3F3"/>
<path fill-rule="evenodd" clip-rule="evenodd" d="M104.294 188.812C103.628 188.12 102.962 187.429 102.296 186.736C103.828 186.318 103.777 187.82 104.294 188.812Z" fill="#7776C8"/>
<path fill-rule="evenodd" clip-rule="evenodd" d="M34.5517 149.547C34.6062 150.447 33.2797 151.674 32.7065 150.69C33.0313 149.86 33.6958 149.443 34.5517 149.547Z" fill="#B54E2B"/>
<path fill-rule="evenodd" clip-rule="evenodd" d="M65.3377 131.972C66.1627 131.69 66.5665 131.923 66.94 132.688C65.8748 133.113 65.3605 133.327 65.3377 131.972Z" fill="#20D3F3"/>
<path fill-rule="evenodd" clip-rule="evenodd" d="M60.6517 132.333C61.5501 131.282 62.5525 131.342 62.2615 132.771C61.625 132.87 61.0805 132.897 60.6517 132.333Z" fill="#7776C8"/>
<path fill-rule="evenodd" clip-rule="evenodd" d="M75.4675 134.567C74.4679 134.616 72.7636 133.091 74.5804 133.521C75.4994 133.389 75.494 133.739 75.4675 134.567Z" fill="#20D3F3"/>
<path fill-rule="evenodd" clip-rule="evenodd" d="M76.9036 133.185C77.2806 133.439 77.6364 133.678 77.9921 133.917C77.4643 134.632 75.8679 133.55 76.9036 133.185Z" fill="#20D3F3"/>
<path fill-rule="evenodd" clip-rule="evenodd" d="M107.057 189.998C106.311 191.418 106.099 190.739 105.49 189.632C106.012 189.754 106.535 189.876 107.057 189.998Z" fill="#7776C8"/>
<path fill-rule="evenodd" clip-rule="evenodd" d="M99.4292 189.582C99.0906 189.869 98.7521 190.157 98.4146 190.444C97.3267 189.805 98.8388 189.525 99.4292 189.582Z" fill="#7776C8"/>
<path fill-rule="evenodd" clip-rule="evenodd" d="M99.9055 186.426C100.124 186.271 100.343 186.116 100.56 185.96C100.8 186.758 100.374 186.622 99.9055 186.426Z" fill="#7776C8"/>
<path fill-rule="evenodd" clip-rule="evenodd" d="M97.8517 188.707C98.197 188.322 98.2897 188.538 98.4776 188.921C98.269 188.85 98.0603 188.778 97.8517 188.707Z" fill="#7776C8"/>
<path fill-rule="evenodd" clip-rule="evenodd" d="M98.3469 187.999C98.4764 187.781 98.606 187.562 98.7357 187.344C98.6064 187.563 98.4766 187.781 98.3469 187.999Z" fill="#7776C8"/>
<path fill-rule="evenodd" clip-rule="evenodd" d="M101.054 185.57C101.053 185.457 101.063 185.345 101.087 185.235C101.076 185.347 101.065 185.458 101.054 185.57Z" fill="#7776C8"/>
<path fill-rule="evenodd" clip-rule="evenodd" d="M34.5644 149.559C34.6128 149.497 34.6611 149.435 34.7095 149.373C34.7504 149.509 34.5828 149.506 34.5644 149.559Z" fill="#B54E2B"/>
<path fill-rule="evenodd" clip-rule="evenodd" d="M40.5808 147.162C40.6028 147.103 40.6247 147.043 40.6468 146.984C40.6272 147.045 40.5259 147.115 40.5808 147.162Z" fill="#B54E2B"/>
<path fill-rule="evenodd" clip-rule="evenodd" d="M75.4365 133.526C75.4628 133.481 75.4892 133.435 75.5155 133.39C75.495 133.435 75.4342 133.482 75.4365 133.526Z" fill="#20D3F3"/>
<path fill-rule="evenodd" clip-rule="evenodd" d="M141.176 77.4117C146.73 77.0835 149.57 81.4603 152.813 85.2323C154.417 87.9084 144.207 92.1551 142.253 94.5344C137.248 98.2158 131.905 101.395 126.544 104.524C123.259 106.647 125.159 99.359 124.663 97.6327C128.239 89.9504 135.794 84.0045 141.176 77.4117Z" fill="#7776C8"/>
<path fill-rule="evenodd" clip-rule="evenodd" d="M121.208 125.683C122.142 130.263 116.087 130.057 113.425 132.468C106.764 135.291 99.1307 143.332 93.9664 145.049C99.6586 135.617 103.511 122.166 113.028 116.247C123.374 109.72 119.316 118.655 121.208 125.683Z" fill="#7776C8"/>
<path fill-rule="evenodd" clip-rule="evenodd" d="M131.078 76.4374C141.731 73.9531 126.819 85.4611 125.004 88.5049C122.905 87.1076 125.346 80.396 125.003 77.3197C126.971 75.8713 129.535 78.4692 131.078 76.4374Z" fill="#7776C8"/>
<path fill-rule="evenodd" clip-rule="evenodd" d="M119.113 71.7391C120.738 72.4228 120.376 69.7418 121.879 71.0074C122.137 70.6128 122.419 70.1537 121.912 69.8195C116.861 66.5653 120.048 69.0801 119.113 71.7391ZM126.827 76.7336C120.208 80.2598 124.579 69.4477 119.575 73.2399C118.707 75.0272 118.509 71.4038 115.765 72.4019C117.053 71.9143 115.767 70.9452 116.174 70.1633C116.829 68.8657 115.583 68.96 114.662 68.664C114.994 67.7788 116.127 68.6694 116.829 68.5227C117.282 68.5323 117.976 68.6283 117.322 67.6874C116.517 67.1559 118.359 65.51 117.795 65.6893C118.795 66.8803 119.349 65.4811 120.043 64.8333C122.088 66.4229 120.126 66.8697 121.766 68.5036C123.586 69.1617 126.575 66.8995 124.191 70.5042C124.191 70.5034 124.141 70.4272 124.141 70.4272C125.516 71.856 122.782 73.6533 124.136 75.2073C125.024 76.1002 124.846 74.2351 125.56 74.7023C126.468 75.9631 128.235 75.618 126.827 76.7336Z" fill="#0A1328"/>
<path fill-rule="evenodd" clip-rule="evenodd" d="M119.067 105.935C119.072 107.374 120.243 109.25 118.047 109.36C115.903 109.918 114.697 111.403 114.134 108.412C114.123 108.382 114.718 108.017 114.803 108.087C116.504 110.075 119.117 102.041 119.067 105.935Z" fill="#7776C8"/>
<path fill-rule="evenodd" clip-rule="evenodd" d="M148.008 79.6365C147.208 79.087 148.606 78.0507 147.215 77.7363C145.93 77.2302 146.421 79.1987 145.338 77.9469C146.522 78.6979 147.198 77.6497 147.859 76.8564C147.308 77.0747 147.788 78.2371 147.973 78.344C149.366 78.8764 149.697 77.1597 151.038 77.2292C150.919 79.9924 153.842 79.2807 148.008 79.6365Z" fill="#0A1328"/>
<path fill-rule="evenodd" clip-rule="evenodd" d="M121.083 130.269C121.698 130.935 122.117 131.199 121.341 131.874C120.649 131.267 120.1 131.169 121.083 130.269Z" fill="#9391F7"/>
<path fill-rule="evenodd" clip-rule="evenodd" d="M121.608 168.068C121.641 167.975 121.674 167.881 121.707 167.788C121.887 167.997 121.911 168.064 121.608 168.068Z" fill="#9391F7"/>
<path fill-rule="evenodd" clip-rule="evenodd" d="M171.22 180.222C169.648 181.685 169.534 180.801 168.487 179.752C169.501 178.69 169.979 179.607 171.22 180.222Z" fill="#20D3F3"/>
<path fill-rule="evenodd" clip-rule="evenodd" d="M159.138 182.705C158.134 181.741 158.523 180.906 159.472 180.642C160.727 181.304 160.425 181.962 159.138 182.705Z" fill="#20D3F3"/>
<path fill-rule="evenodd" clip-rule="evenodd" d="M82.6401 71.2023C82.109 71.9315 79.737 73.1223 80.4814 71.18C80.6462 70.3213 79.2023 69.8739 80.8969 69.5483C81.6261 71.0894 80.7109 71.41 82.6401 71.2023Z" fill="#B54E2B"/>
<path fill-rule="evenodd" clip-rule="evenodd" d="M92.0604 66.8429C94.159 64.7511 92.7915 70.2483 91.8909 68.161C89.2882 67.1062 92.5345 67.8323 92.0604 66.8429Z" fill="#20D3F3"/>
<path fill-rule="evenodd" clip-rule="evenodd" d="M95.652 70.8208C97.5073 69.1938 96.7929 71.513 96.9825 72.7915C95.8756 73.0103 95.8249 71.6105 95.652 70.8208Z" fill="#B54E2B"/>
<path fill-rule="evenodd" clip-rule="evenodd" d="M102.367 68.9579C102.599 69.9746 101.633 71.9094 100.58 70.4209C101.134 70.032 101.737 68.7542 102.367 68.9579Z" fill="#B54E2B"/>
<path fill-rule="evenodd" clip-rule="evenodd" d="M82.8455 70.4161C83.2969 69.2821 84.105 70.3128 83.6664 71.1775C83.4125 70.8996 83.1829 70.5973 82.8455 70.4161Z" fill="#B54E2B"/>
<path fill-rule="evenodd" clip-rule="evenodd" d="M110.857 58.9289C108.804 58.4058 109.325 59.5402 108.802 60.8561C107.79 57.1607 109.368 54.2802 110.857 58.9289Z" fill="#20D3F3"/>
<path fill-rule="evenodd" clip-rule="evenodd" d="M114.136 55.4649C114.079 56.8762 111.87 55.4528 111.297 54.7858C112.601 54.3373 113.602 52.8457 114.136 55.4649Z" fill="#20D3F3"/>
<path fill-rule="evenodd" clip-rule="evenodd" d="M109.123 47.2563C109.871 47.8921 109.705 49.1671 108.586 48.5573C108.768 48.1207 108.945 47.6886 109.123 47.2563Z" fill="#B54E2B"/>
<path fill-rule="evenodd" clip-rule="evenodd" d="M115.849 60.2465C115.897 59.3795 116.267 58.4801 115.685 57.73C117.488 58.5853 117.305 59.0193 115.849 60.2465Z" fill="#20D3F3"/>
<path fill-rule="evenodd" clip-rule="evenodd" d="M107.949 49.3264C107.983 50.018 108.017 50.7094 108.047 51.3946C108.013 50.7011 107.981 50.0138 107.949 49.3264Z" fill="#B54E2B"/>
<path fill-rule="evenodd" clip-rule="evenodd" d="M95.4601 82.6204C96.0858 82.5831 97.5979 81.4194 97.7204 82.2276C96.3198 83.4494 97.1207 88.1794 95.2301 85.2999C95.0142 85.0177 94.5428 84.4799 94.2408 84.0741C94.6456 83.6555 95.8057 83.7889 95.4601 82.6204Z" fill="#B54E2B"/>
<path fill-rule="evenodd" clip-rule="evenodd" d="M99.5326 80.4879C98.0888 78.2244 101.297 78.2906 101.825 79.6996C101.401 80.9524 100.386 80.4845 99.5326 80.4879Z" fill="#20D3F3"/>
<path fill-rule="evenodd" clip-rule="evenodd" d="M85.8839 112.987C85.5296 112.565 85.5829 112.326 86.178 112.33C86.0793 112.55 85.9816 112.768 85.8839 112.987Z" fill="#9391F7"/>
<path fill-rule="evenodd" clip-rule="evenodd" d="M167.591 167.59C167.313 166.283 167.313 166.283 168.766 166.329C168.375 166.749 167.983 167.169 167.591 167.59Z" fill="#9391F7"/>
<path fill-rule="evenodd" clip-rule="evenodd" d="M165.547 169.927C165.745 169.696 165.943 169.464 166.142 169.232C165.945 169.464 165.746 169.696 165.547 169.927Z" fill="#9391F7"/>
<path fill-rule="evenodd" clip-rule="evenodd" d="M6.92268 181.292C6.99178 181.968 7.57989 182.581 6.86126 182.934C6.63803 182.217 5.88063 181.799 6.92268 181.292Z" fill="#20D3F3"/>
<path fill-rule="evenodd" clip-rule="evenodd" d="M71.8902 106.313C75.8362 106.413 87.1799 103.311 85.7422 98.6852C79.9598 93.8228 72.2294 89.3966 64.9932 94.3995C53.5432 100.564 63.6694 105.912 71.8902 106.313ZM71.7152 108.667C53.9743 107.742 52.8929 94.3372 70.0405 90.178C77.1847 88.9722 83.966 92.802 88.5219 98.0654C90.5648 103.532 76.4206 109.095 71.7152 108.667Z" fill="#0A1328"/>
<path fill-rule="evenodd" clip-rule="evenodd" d="M101.494 79.1141C100.66 79.1027 99.5399 77.7085 99.1017 79.6095C98.4925 78.525 97.4802 78.7283 96.423 78.7563C96.2468 79.6306 97.1418 81.5719 95.6195 80.7724C96.3126 83.4824 94.8408 81.6772 93.6577 81.0571C95.9909 75.0654 95.3884 78.3215 92.2598 76.6595C91.8732 76.9923 92.0064 78.1818 91.3553 77.8574C90.8238 76.2754 89.578 76.3117 88.7092 75.1904C89.795 75.9428 92.5613 73.4169 90.4119 73.7572C94.1663 71.6619 92.0546 76.3762 94.5982 76.4303C96.2757 75.918 97.0099 79.2024 98.6704 77.1152C100.92 76.5641 98.7882 75.6046 98.4938 74.4286C99.5466 73.4259 99.6336 74.1054 100.981 74.585C101.318 74.8063 103.105 74.595 101.39 75.6399C102.345 77.1584 100.304 77.7129 101.494 79.1141Z" fill="#0A1328"/>
<path fill-rule="evenodd" clip-rule="evenodd" d="M62.4152 73.4033C62.2095 73.5083 62.3352 73.6255 62.4053 73.7728C62.6112 73.6678 62.4853 73.5505 62.4152 73.4033ZM60.9928 72.6399C66.6942 74.3321 59.1192 74.535 59.3106 77.5958C59.2808 78.036 59.1601 78.9078 58.2584 78.5423C57.4142 78.2003 58.3864 77.6617 58.2666 77.5225C57.7415 75.7069 54.017 75.7181 55.5802 74.0206C58.0369 70.1627 55.8128 79.2331 59.0904 75.278C61.791 74.5973 58.1096 72.7108 58.9463 71.5685C59.9323 70.1981 60.1114 72.1061 60.9928 72.6399Z" fill="#B54E2B"/>
<path fill-rule="evenodd" clip-rule="evenodd" d="M49.2721 100.24C49.9895 94.9687 45.6189 97.3063 49.8181 94.9848C51.3218 94.7303 49.6189 95.8704 50.394 96.6505C52.0283 97.6167 49.8665 98.2378 51.1853 99.4908C49.8143 99.7058 49.5893 100.246 49.9613 101.527C50.2938 102.409 49.15 103.382 48.9271 102.091C48.9162 101.999 48.4392 101.907 48.179 101.91C45.9555 101.972 45.7071 99.8065 46.4578 98.2443C47.0538 97.4324 47.658 98.1603 48.1239 98.6814C46.6937 99.6098 48.8751 99.4038 49.2721 100.24Z" fill="#0A1328"/>
<path fill-rule="evenodd" clip-rule="evenodd" d="M82.8454 70.4161C83.704 71.262 83.927 71.1106 83.6654 69.9109C84.5706 69.3048 86.2744 66.7065 87.0959 68.5741C86.6808 69.352 82.0836 74.1645 82.8454 70.4161Z" fill="#0A1328"/>
<path fill-rule="evenodd" clip-rule="evenodd" d="M53.3423 92.9659C51.6048 93.0448 50.9162 90.4118 49.2958 92.0339C49.2474 92.0838 48.8645 91.8444 48.6764 91.6918C48.9395 90.8868 50.895 90.0031 51.5342 90.7626C51.2989 92.2412 53.7463 92.1364 53.3423 92.9659Z" fill="#20D3F3"/>
<path fill-rule="evenodd" clip-rule="evenodd" d="M48.238 87.5651C48.5993 85.6319 49.1118 85.7162 48.654 83.6417C49.1327 83.5557 49.7457 84.1956 49.7379 84.4925C48.8313 85.9388 50.183 86.959 48.238 87.5651Z" fill="#B54E2B"/>
<path fill-rule="evenodd" clip-rule="evenodd" d="M48.852 73.7726C49.1983 72.4821 51.0465 69.9829 51.1914 72.5689C50.605 73.0495 49.5591 74.8595 48.852 73.7726Z" fill="#B54E2B"/>
<path fill-rule="evenodd" clip-rule="evenodd" d="M79.2079 68.9707C77.7512 68.0119 78.3105 67.5883 79.343 66.6123C80.0655 67.0225 79.2261 68.1584 79.2079 68.9707Z" fill="#0A1328"/>
<path fill-rule="evenodd" clip-rule="evenodd" d="M71.1674 68.8256C71.1025 68.9023 70.959 69.0724 70.8154 69.2423C72.1342 67.9749 69.7943 68.5697 69.2914 67.4587C70.3071 66.6305 71.4273 67.5002 71.1674 68.8256Z" fill="#B54E2B"/>
<path fill-rule="evenodd" clip-rule="evenodd" d="M86.887 70.7575C87.9671 67.1162 87.8715 70.9829 89.0147 71.7606C89.0412 71.7725 88.9439 72.291 88.7968 72.3674C87.6675 72.9814 87.3964 71.3451 86.887 70.7575Z" fill="#0A1328"/>
<path fill-rule="evenodd" clip-rule="evenodd" d="M60.0597 69.8986C58.8054 71.0823 58.5618 69.1133 57.8915 68.3229C58.5263 66.8409 59.2608 69.1747 60.0597 69.8986Z" fill="#20D3F3"/>
<path fill-rule="evenodd" clip-rule="evenodd" d="M93.3151 71.1491C93.7601 72.1084 93.215 72.1449 92.37 72.3078C90.1629 71.9414 92.1263 69.2786 93.3151 71.1491Z" fill="#0A1328"/>
<path fill-rule="evenodd" clip-rule="evenodd" d="M92.3703 72.3083C92.8283 72.2163 93.2901 72.0534 93.7389 71.9829C94.9541 73.4564 90.7826 74.0023 92.3703 72.3083Z" fill="#20D3F3"/>
<path fill-rule="evenodd" clip-rule="evenodd" d="M61.4166 72.2115C61.3496 71.3033 62.4207 71.3939 63.0385 71.123C63.9115 72.4947 62.1825 72.181 61.4166 72.2115Z" fill="#20D3F3"/>
<path fill-rule="evenodd" clip-rule="evenodd" d="M57.5355 79.8916C57.622 80.7204 58.5779 81.6738 57.6873 82.0114C57.4825 81.1559 56.3427 80.5237 57.5355 79.8916Z" fill="#20D3F3"/>
<path fill-rule="evenodd" clip-rule="evenodd" d="M94.2205 84.0071C94.0889 84.5904 93.8372 85.0219 94.4917 85.4263C93.333 85.4843 92.8568 83.8852 94.2205 84.0071Z" fill="#20D3F3"/>
<path fill-rule="evenodd" clip-rule="evenodd" d="M47.0863 96.9989C46.2412 97.5884 46.0141 96.5509 45.4577 96.3801C45.9447 94.7947 46.8328 96.3436 47.0863 96.9989Z" fill="#0A1328"/>
<path fill-rule="evenodd" clip-rule="evenodd" d="M47.7224 70.316C48.1304 70.4148 49.0306 70.1066 49.1742 70.4563C48.7663 70.3578 47.8644 70.6661 47.7224 70.316Z" fill="#20D3F3"/>
<path fill-rule="evenodd" clip-rule="evenodd" d="M91.8918 77.3469C92.0162 77.1177 92.1405 76.8881 92.2597 76.6589C92.1336 76.8883 92.0127 77.1177 91.8918 77.3469Z" fill="#B54E2B"/>
<path fill-rule="evenodd" clip-rule="evenodd" d="M89.8563 68.2046C90.4183 68.6802 89.6561 68.7936 89.9139 68.1785L89.8563 68.2046Z" fill="#0A1328"/>
<path fill-rule="evenodd" clip-rule="evenodd" d="M60.9771 72.6249C61.1097 72.481 61.3124 72.3466 61.4065 72.2019C61.2604 72.3269 61.1243 72.557 60.9771 72.6249Z" fill="#20D3F3"/>
<path fill-rule="evenodd" clip-rule="evenodd" d="M47.0322 97.0238C47.3831 97.4478 46.724 97.3265 47.0833 97C47.0863 96.9989 47.0322 97.0238 47.0322 97.0238Z" fill="#0A1328"/>
<path fill-rule="evenodd" clip-rule="evenodd" d="M95.1597 85.2297C95.2482 85.2042 95.2601 85.2101 95.23 85.2997C95.2292 85.2994 95.1597 85.2297 95.1597 85.2297Z" fill="#20D3F3"/>
<path fill-rule="evenodd" clip-rule="evenodd" d="M105.48 170.786C108.345 168.669 111.618 162.215 114.844 167.248C112.341 168.819 107.769 171.656 105.48 170.786Z" fill="#9391F7"/>
<path fill-rule="evenodd" clip-rule="evenodd" d="M68.8527 118.636C70.8865 118.174 72.8305 117.832 74.7977 118.762C73.185 119.179 69.6619 119.819 68.8527 118.636Z" fill="#20D3F3"/>
<path fill-rule="evenodd" clip-rule="evenodd" d="M105.478 171.178L105.329 171.36C105.29 171.219 105.512 171.239 105.478 171.178Z" fill="#9391F7"/>
<path fill-rule="evenodd" clip-rule="evenodd" d="M117.89 53.0326C117.73 52.2821 116.123 51.0162 115.885 52.2371C116.448 52.8855 116.966 53.6226 117.89 53.0326ZM133.761 64.8855C154.701 69.6543 164.805 38.5909 144.422 30.8946C132.344 25.5723 118.224 37.0627 120.838 50.0227C121.016 51.7441 122.634 48.9327 122.604 50.3298C122.805 52.0738 120.728 50.0039 121.08 51.5953C122.299 58.1562 128.721 62.9883 133.761 64.8855ZM114.136 55.4648C114.096 54.3571 113.423 53.9061 112.417 53.8026C109.823 51.241 114.67 52.2254 111.928 47.8849C115.367 48.7797 113.087 51.1204 117.522 50.2199C118.314 50.5396 118.33 49.9127 118.285 49.3229C115.703 24.8662 152.958 18.9924 157.826 43.256C163.8 59.4921 137.453 75.1889 128.638 63.5056C124.179 65.479 120.977 56.6835 118.788 53.4752C118.073 53.9427 118.451 56.2547 117.343 54.9357C116.49 52.6212 116.159 54.7809 114.847 55.4671C114.616 55.4414 114.372 55.4712 114.136 55.4648Z" fill="#0A1328"/>
<path fill-rule="evenodd" clip-rule="evenodd" d="M126.827 76.7336C128.234 75.6188 126.472 75.9649 125.56 74.7019C124.845 74.2347 125.024 76.101 124.136 75.2071C122.861 73.8785 125.069 72.1798 124.436 70.947C126.389 70.8036 125.606 72.2994 128.217 71.8687C124.038 72.7961 131.559 77.6636 126.827 76.7336Z" fill="#20D3F3"/>
<path fill-rule="evenodd" clip-rule="evenodd" d="M110.095 34.9532C110.869 34.8618 111.759 35.0705 112.477 34.767C112.929 32.794 113.851 33.7537 114.124 35.381C111.343 36.306 113.423 38.8033 111.706 40.4623C110.373 39.6795 111.924 39.0066 111.724 38.5467C112.381 37.377 110.955 37.6248 111.098 36.7236C111.22 34.919 106.582 39.054 110.095 34.9532Z" fill="#0A1328"/>
<path fill-rule="evenodd" clip-rule="evenodd" d="M163.182 68.5589C162.653 69.6409 161.76 69.7841 162.173 71.0156C162.146 74.3813 158.618 69.4169 161.428 68.4453C162.213 68.0583 161.081 68.1242 160.855 67.933C159.882 66.4645 162.536 68.2319 163.182 68.5589Z" fill="#0A1328"/>
<path fill-rule="evenodd" clip-rule="evenodd" d="M111.707 40.4619C112.176 39.3636 112.62 39.5107 113.504 40.1362C110.442 39.6896 114.241 42.8347 114.349 44.2493C112.78 45.677 110.317 41.7844 111.707 40.4619Z" fill="#B54E2B"/>
<path fill-rule="evenodd" clip-rule="evenodd" d="M127.357 72.444C130.276 71.0258 128.717 75.5068 131.077 76.4376C130.485 77.5831 129.465 77.1892 128.544 77.1395C127.541 75.4067 130.386 75.4852 127.911 74.6456C126.32 73.8247 129.133 73.2285 127.357 72.444Z" fill="#0A1328"/>
<path fill-rule="evenodd" clip-rule="evenodd" d="M115.824 60.2219C115.573 61.1235 115.453 61.9922 115.823 62.9321C115.967 63.8391 114.092 64.9151 114.195 63.2214C114.214 62.9183 114.275 61.8699 113.259 62.3853C112.753 61.6058 114.918 60.4338 115.85 60.2465C115.849 60.2465 115.824 60.2219 115.824 60.2219Z" fill="#0A1328"/>
<path fill-rule="evenodd" clip-rule="evenodd" d="M113.371 27.1198C112.952 29.3446 116.057 26.5467 114.631 29.4897C114.264 30.656 113.001 27.1859 111.72 27.5123C109.962 27.6601 111.654 25.0275 112.855 25.7853C114.563 26.4365 111.185 26.205 113.371 27.1198Z" fill="#B54E2B"/>
<path fill-rule="evenodd" clip-rule="evenodd" d="M151.038 77.2291C148.589 77.6903 151.395 77.0795 150.924 75.7891C151.753 75.3763 152.482 76.7375 152.992 75.5093C154.631 76.4893 152.08 77.4131 151.038 77.2291Z" fill="#B54E2B"/>
<path fill-rule="evenodd" clip-rule="evenodd" d="M118.173 22.4306C117.953 23.4456 117.312 23.8665 116.464 24.312C116.644 23.2337 117.381 20.0889 118.173 22.4306Z" fill="#20D3F3"/>
<path fill-rule="evenodd" clip-rule="evenodd" d="M115.765 72.4019C116.673 72.4295 117.581 72.4569 118.484 72.4777C117.15 73.1911 117.69 72.6642 117.258 74.0694C117.425 72.8863 116.187 73.919 115.989 73.2664C115.966 72.9441 115.148 72.4222 115.765 72.4019Z" fill="#B54E2B"/>
<path fill-rule="evenodd" clip-rule="evenodd" d="M113.371 27.1198C111.163 26.1382 114.854 26.0983 115.784 25.5693C115.366 26.8492 114.756 27.3889 113.371 27.1198Z" fill="#0A1328"/>
<path fill-rule="evenodd" clip-rule="evenodd" d="M133.543 72.8496C134.8 73.7796 135.166 74.1203 133.873 75.1374C133.271 74.3696 133.384 73.9049 133.543 72.8496Z" fill="#0A1328"/>
<path fill-rule="evenodd" clip-rule="evenodd" d="M110.199 49.4321C110.524 50.3976 110.458 51.5252 109.607 52.0976C109.266 51.1874 109.262 50.0456 110.199 49.4321Z" fill="#B54E2B"/>
<path fill-rule="evenodd" clip-rule="evenodd" d="M117.113 47.6249C115.902 47.9928 115.358 48.885 114.475 48.1306C115.538 47.57 115.747 46.6947 117.113 47.6249Z" fill="#20D3F3"/>
<path fill-rule="evenodd" clip-rule="evenodd" d="M157.704 78.6951C157.008 79.2516 156.638 78.7779 156.137 78.2807C156.684 77.7475 157.463 78.0189 157.704 78.6951Z" fill="#20D3F3"/>
<path fill-rule="evenodd" clip-rule="evenodd" d="M112.347 29.5878C111.66 29.966 111.299 30.6704 110.567 30.2214C110.873 29.1763 111.358 29.4042 112.347 29.5878Z" fill="#20D3F3"/>
<path fill-rule="evenodd" clip-rule="evenodd" d="M108.414 37.4011C108.666 37.3011 108.919 37.2007 109.168 37.1021C108.966 37.7437 108.914 38.0499 108.414 37.4011Z" fill="#20D3F3"/>
<path fill-rule="evenodd" clip-rule="evenodd" d="M110.102 36.4794C110.637 35.8397 111.36 35.6731 111.099 36.7234C110.767 36.6403 110.435 36.5598 110.102 36.4794Z" fill="#20D3F3"/>
<path fill-rule="evenodd" clip-rule="evenodd" d="M111.656 31.3287C111.175 32.2832 111.095 31.8986 110.761 31.1861C110.994 30.8331 111.407 30.9834 111.656 31.3287Z" fill="#20D3F3"/>
<path fill-rule="evenodd" clip-rule="evenodd" d="M110.095 34.9529C109.493 35.4337 109.444 34.8034 109.198 34.3264C109.497 34.5352 109.796 34.7441 110.095 34.9529Z" fill="#B54E2B"/>
<path fill-rule="evenodd" clip-rule="evenodd" d="M111.723 38.5463C111.797 38.5157 111.848 38.5547 111.878 38.6562C111.624 38.7443 111.491 38.8403 111.723 38.5463Z" fill="#B54E2B"/>
<path fill-rule="evenodd" clip-rule="evenodd" d="M114.828 55.4573L114.848 55.468L114.828 55.4573Z" fill="#20D3F3"/>
<path fill-rule="evenodd" clip-rule="evenodd" d="M124.172 70.5046L124.141 70.4272C124.138 70.4351 124.223 70.5219 124.172 70.5046Z" fill="#20D3F3"/>
<path fill-rule="evenodd" clip-rule="evenodd" d="M146.141 78.571C146.046 77.7115 146.616 77.548 147.215 77.7363C148.911 78.6171 147.261 79.6127 146.141 78.571Z" fill="#20D3F3"/>
<path fill-rule="evenodd" clip-rule="evenodd" d="M96.3786 72.7941C97.2842 72.563 96.9914 73.5258 97.1433 74.1396C96.0561 74.1272 96.2145 73.6037 96.3786 72.7941Z" fill="#0A1328"/>
<path fill-rule="evenodd" clip-rule="evenodd" d="M111.149 35.958C110.997 35.9545 110.845 35.9512 110.695 35.947C110.849 35.9503 110.999 35.9539 111.149 35.958Z" fill="#B54E2B"/>
<path fill-rule="evenodd" clip-rule="evenodd" d="M77.0209 99.4106C77.4524 108.182 66.34 106.544 65.7665 98.9503C66.3481 91.6421 77.1814 91.7634 77.0209 99.4106Z" fill="#0A1328"/>
<path fill-rule="evenodd" clip-rule="evenodd" d="M127.447 46.9085C130.547 47.8669 131.987 53.1974 135.15 53.0671C139.404 49.3371 143.698 45.5432 147.511 41.3612C149.782 38.9523 151.237 43.0311 148.737 44.1776C143.204 47.3045 139.394 55.5873 133.774 56.9618C131.7 55.5718 123.476 48.5129 127.447 46.9085Z" fill="#0A1328"/>
</svg>
