<svg width="188" height="221" viewBox="0 0 188 221" fill="none" xmlns="http://www.w3.org/2000/svg">
<path fill-rule="evenodd" clip-rule="evenodd" d="M20.3704 96.9519C20.6645 96.6501 21.1737 96.4362 20.6878 96.1424C20.1923 96.3388 19.9318 96.4302 20.3704 96.9519ZM54.6572 137.357C54.7757 134.386 51.2923 128.408 47.7455 130.064C46.2764 131.165 46.0093 127.991 44.3692 129.116C39.2394 129.939 38.64 135.392 40.1079 139.555C42.3961 148.235 55.1401 145.513 54.6572 137.357ZM10.1127 119.635C11.5488 132.235 22.4229 135.286 26.0255 121.976C28.4232 110.028 10.3204 105.177 10.1127 119.635ZM37.4885 175.558C38.0973 186.83 54.8216 181.438 54.2792 172.246C54.1757 167.015 49.3949 161.794 43.9358 162.605C38.134 163.449 38.6774 170.904 37.4885 175.558ZM20.7195 150.432C20.7559 150.453 20.7922 150.474 20.8287 150.495C16.7639 143.564 33.7046 151.436 22.9205 154.561C20.4329 155.036 19.3014 149.619 18.081 151.396C17.9827 159.047 27.644 158.636 29.4741 152.307C29.2996 140.041 11.455 147.085 20.7195 150.432ZM74.9323 147.456C76.1276 142.039 66.7683 140.527 69.0238 143.764C71.923 143.964 74.0117 148.136 69.8518 147.696C68.0288 147.578 69.1981 142.857 66.8823 145.561C65.5414 147.573 66.8793 150.265 69.4159 150.711C72.5967 150.797 74.4941 148.401 77.7227 150.087C78.5965 150.03 77.6614 149.181 78.575 148.924C81.7187 145.935 76.5722 148.693 74.9323 147.456ZM24.7871 92.1282C31.3881 88.7434 22.8011 98.5017 32.1855 102.751C49.6697 102.407 43.4019 78.1758 30.8256 88.7986C29.6433 88.866 29.0289 89.764 28.2803 90.4703C25.8279 88.7612 23.8039 93.4809 24.7871 92.1282ZM23.2824 93.5878C20.2998 95.1154 22.3019 96.5492 23.4851 93.4294C23.4176 93.4822 23.3499 93.5351 23.2824 93.5878ZM44.4562 202.519C34.6779 196.082 30.8758 183.642 23.9593 174.509C16.3005 162.302 9.60789 149.888 6.66011 135.713C0.767701 111.103 1.53394 111.677 17.9536 92.9065C25.1323 81.4833 34.5227 75.6567 47.7948 81.3909C53.0231 82.2657 55.1158 86.9202 57.678 90.9106C58.9904 94.7957 63.1023 98.0321 63.3969 101.665C67.643 103.408 62.7378 104.439 61.8032 106.554C59.6671 110.446 60.1714 117.356 65.4679 118.083C69.7539 119.169 72.8446 116.133 76.3406 114.235C79.146 117.221 81.6842 120.376 85.5688 122.022C87.5863 123.467 95.58 124.88 91.5048 127.788C89.3505 131.379 87.3809 135.945 87.7404 140.314C86.2203 143.203 88.3245 146.121 88.9132 148.583C89.2663 153.601 104.234 161.422 96.4634 162.483C94.4707 163.494 88.3577 169.183 87.0377 167.069C87.1562 161.035 79.7528 157.238 76.2522 163.04C73.1503 166.594 77.0471 172.332 73.7482 174.999C72.2298 175.696 70.0223 175.172 69.593 177.167C68.3362 178.625 66.2692 179.762 66.249 181.518C61.0364 186.184 69.7687 194.976 72.3789 199.542C72.6077 200.483 71.2595 201.325 72.6316 201.665C75.0768 205.031 76.8564 208.587 80.0355 211.319C75.3471 214.322 64.4674 213.018 58.1726 210.166C57.7056 207.142 58.4583 204.305 56.0037 201.99C51.9187 195.716 47.9585 205.1 44.4562 202.519Z" fill="#19326B"/>
<path fill-rule="evenodd" clip-rule="evenodd" d="M114.96 138.902C115.186 140.234 118.178 136.453 117.386 135.675C115.515 135.422 115.223 137.39 114.96 138.902ZM155.532 163.66C155.898 162.045 155.11 159.257 154.518 157.407C153.717 158.834 155.487 169.373 155.532 163.66ZM110.818 145.182C108.993 144.317 104.383 144.413 107.303 147.015C108.56 149.487 109.83 146.473 110.818 145.182ZM152.773 138.886C151.957 139.43 148.552 145.412 150.81 145.6C155.271 146.758 152.574 141.563 152.773 138.886ZM153.134 121.888C153.414 125.725 157.383 120.636 159.615 121.812C163.132 119.116 156.373 118.563 154.492 117.599C152.609 117.11 153.592 120.737 153.134 121.888ZM106.126 143.735C110.462 143.093 113.434 144.375 113.739 138.813C114.933 134.301 104.875 139.428 102.291 138.821C99.5073 139.087 104.571 144.485 106.126 143.735ZM153.641 103.376C154.354 100.805 137.88 113.584 143.093 113.024C156.439 117.753 151.367 114.337 153.641 103.376ZM115.989 133.928C120.26 137.586 132.863 117.028 137.802 114.087C138.85 111.645 127.688 111.502 125.492 110.4C121.563 109.865 117.677 129.808 115.989 133.928ZM154.137 156.532C157.861 151.555 154.597 166.004 158.59 164.4C161.756 163.01 182.318 156.57 178.933 154.062C171.388 151.505 163.724 149.09 155.861 147.757C153.414 147.1 156.851 156.005 154.341 153.088C154.255 149.539 153.872 145.961 149.343 146.979C152.678 149.075 153.846 152.521 154.137 156.532ZM152.114 120.605C152.114 119.446 152.825 116.969 151.087 116.561C147.336 115.955 143.329 113.558 139.617 114.045C137.167 116.362 120.299 132.576 123.201 133.221C131.893 130.986 140.442 128.298 148.893 125.285C152.152 124.291 152.057 123.842 152.114 120.605ZM112.356 145.232C110.895 147.22 107.935 149.692 111.376 151.392C112.554 149.605 111.782 147.045 112.432 145.071C112.407 145.125 112.381 145.178 112.356 145.232ZM91.5752 127.779C95.2801 126.658 96.5866 138.481 101.591 138.213C121.018 135.718 113.216 131.388 120.102 116.397C120.268 114.577 123.427 110.833 121.197 109.918C117.404 109.573 113.614 109.209 109.822 108.852C109.613 107.158 111.436 107.34 112.47 107.684C115.907 107.222 122.069 110.67 123.757 106.813C126.173 101.666 127.817 95.8272 132.068 91.7865C131.585 95.5039 122.37 107.288 125.648 109.237C136.009 111.168 139.782 114.721 147.576 105.515C150.789 102.884 154.902 101.337 154.948 96.5953C155.203 92.3391 160.206 86.4146 155.394 83.7296C157.195 82.6287 158.144 85.7224 159.961 85.8582C160.206 85.8901 160.373 86.543 160.576 86.9095C156.663 86.5042 157.374 95.5738 155.767 98.3948C155.406 99.9687 156.987 98.7128 157.889 98.7441C157.56 99.235 157.414 99.9604 156.789 100.161C153.066 103.419 154.938 110.363 153.582 114.958C153.095 116.422 162.068 119.581 162.585 117.671C164.682 115.605 172.083 99.9574 172.056 108.091C170.065 105.759 164.5 116.867 163.632 118.712C167.048 116.884 173.873 114.448 172.511 109.591C178.768 114.111 163.312 119.147 165.825 120.128C169.241 122.224 175.375 122.182 176.495 125.934C172.078 124.527 165.391 118.653 161.306 122.062C157.193 128.87 152.06 135.74 154.508 143.987C154.787 146.243 154.805 146.309 157.127 146.741C165.505 148.223 173.583 150.821 181.612 153.574C183.87 154.385 182.356 151.31 182.654 150.212C182.248 146.765 180.828 143.465 179.71 140.191C179.968 138.153 181.844 140.772 181.237 141.883C182.48 146.174 183.919 150.853 183.554 155.609C175.147 157.904 167.123 163.808 158.214 165.926C156.391 169.005 159.277 174.622 159.302 178.463C159.852 181.394 159.963 181.373 162.405 181.904C155.075 186.768 159.375 163.931 154.727 167.775C153.3 177.131 156.198 186.799 153.417 195.987C153.924 199.015 151.524 201.07 150.675 203.6C148.248 203.727 148.666 206.6 146.974 207.426C145.487 210.591 141.904 211.441 139.077 212.947C140.201 201.227 145.181 186.106 146.133 172.949C146.21 167.359 151.31 149.12 147.246 146.258C144.399 147.811 147.107 153.958 145.817 156.981C145.664 159.693 144.088 162.079 144.807 164.871C145.112 167.757 142.681 169.98 143.679 173.01C142.838 175.516 141.148 177.694 142.57 180.12C141.387 182.702 141.295 186.047 139.555 188.305C134.939 195 135.056 206.493 132.509 214.825C127.862 217.898 125.953 197.422 124.477 193.394C123.248 187.647 122.15 182.397 125.125 176.995C125.282 173.099 137.39 148.397 131.38 150.278C129.843 151.379 131.425 154.116 129.442 154.147C129.332 155.54 130.044 155.686 128.806 157.169C128.343 158.794 129.465 160.519 128.015 161.794C126.863 163.001 127.257 164.422 126.605 165.822C126.09 166.785 125.003 167.812 125.123 168.677C121.694 182.464 120.917 170.678 120.704 164.423C120.962 160.09 119.054 154.796 120.76 150.896C124.545 149.739 127.996 147.139 131.887 146.766C133.397 146.41 132.47 147.828 133.204 148.757C133.402 147.966 134.663 149.012 134.732 147.831C136.828 143.805 133.632 146.057 131.556 144.374C136.529 141.934 144.228 146.978 148.727 144.288C149.96 140.6 152.819 137.305 152.443 133.244C151.875 132.04 151.251 124.439 153.172 128.456C153.207 137.413 157.051 126.583 159.099 123.51C159.808 121.64 153.516 124.871 153.144 125.831C152.735 126.735 152.511 127.148 151.985 125.895C148.319 125.525 144.677 129.313 140.574 128.996C139.71 129.575 138.651 130.071 137.613 130.342C131.752 132.031 125.468 132.954 120.01 135.471C119.227 137.281 112.619 142.197 115.458 143.244C119.936 143.707 127.06 141.922 130.454 144.477C128.014 145.319 125.114 144.371 122.512 144.56C119.716 144.802 116.238 143.844 113.739 144.933C114.087 147.094 111.195 153.632 114.469 153.392C116.681 151.803 118.323 153.464 118.073 155.823C118.552 159.295 117.126 163.461 117.748 166.538C118.802 167.307 119.014 168.36 118.885 169.628C118.078 173.468 120.002 177.335 118.993 181.174C119.132 181.979 119.991 182.804 118.536 183.241C118.769 186.132 116.219 185.465 118.023 188.754C118.029 188.849 117.816 188.958 117.703 189.061C116.998 187.583 115.886 192.111 115.809 192.822C115.562 195.322 113.49 200.035 111.539 200.68C110.944 200.366 110.667 200.724 111.062 201.228C111.535 201.769 112.089 202.278 110.794 202.396C110.954 203.502 110.682 204.645 110.607 205.759C110.579 205.981 110.291 206.378 110.241 206.36C108.823 205.62 108.94 208.496 108.203 207.659C106.531 205.201 104.671 214.662 103.654 216.081C103.813 219.527 101.29 218.811 98.5592 218.995C98.286 214.631 98.0075 210.268 97.7419 205.904C97.3682 193.967 95.5399 181.668 103.923 171.947C106.361 166.635 111.182 161.913 112.094 156.15C109.304 146.785 106.28 152.909 103.312 158.104C104.348 157.226 112.743 154.431 108.883 157.872C106.508 158.295 107.345 160.466 106.84 162.079C104.672 165.824 102.54 169.442 99.9233 172.892C96.7109 174.444 98.0309 169.436 97.8028 167.601C97.2123 160.724 103.491 156.545 106.705 150.863C109.105 139.475 85.582 150.432 88.3726 146.088C90.5538 145.085 103.676 145.284 102.056 142.805C99.0728 136.824 92.4836 141.99 87.496 140.775C102.431 137.477 98.9429 140.642 91.5752 127.779Z" fill="#BBB9FF"/>
<path fill-rule="evenodd" clip-rule="evenodd" d="M73.6666 56.0616C73.732 55.9761 73.7368 55.9628 73.623 55.9602L73.6666 56.0616ZM61.8996 82.7281C62.1552 82.6654 62.2421 82.5717 62.137 82.3103C61.8809 82.4099 61.6748 82.4516 61.8996 82.7281ZM60.7534 84.9587C61.4127 86.771 61.761 86.9279 63.0458 85.4404C62.1138 84.9155 61.2576 83.2315 60.7534 84.9587ZM94.6466 69.8235C88.2903 68.749 92.1748 76.5082 93.6205 79.5677C102.575 90.4394 112.106 70.5563 94.6466 69.8235ZM81.2497 35.8694C81.9603 36.6814 81.8819 39.1154 83.5335 37.9545C84.1992 38.0626 84.7945 39.3075 85.4889 38.2923C86.6604 36.3741 89.8298 40.0282 90.2652 37.5983C90.2585 37.3889 90.7524 37.1644 91.0155 36.9469C91.4398 37.3537 90.8224 38.4056 91.9277 38.3991C94.2041 38.9025 95.5043 36.7856 96.0553 34.7945C103.369 30.9968 77.1922 33.5794 75.1957 33.1172C76.0539 34.7711 76.8547 36.8056 79.0525 36.6934C79.5533 35.9784 80.1287 35.4383 81.2497 35.8694ZM132.066 91.7646C127.672 93.5594 133.971 85.7564 134.77 83.9159C145.121 65.8814 126.759 70.9227 119.074 79.9881C112.723 85.5227 108.646 94.1193 106.077 101.074C105.604 104.149 106.273 112.389 103.467 113.664C102.752 106.205 104.107 98.9214 107.375 92.2341C108.975 86.5044 115.848 83.1727 115.901 77.2011C115.702 66.0889 115.63 54.9771 116.058 43.8702C116.087 42.6362 115.941 42.5259 114.882 43.1189C109.052 46.3719 103.149 49.7587 99.5122 55.5152C97.986 54.5367 97.8704 56.2229 97.2269 56.795C95.7618 58.7252 89.3028 66.3348 92.5717 67.4859C98.2943 66.4002 106.292 69.1043 107.455 75.3545C109.661 85.6149 93.9693 90.1229 90.6781 79.9727C89.2119 78.3938 89.7438 70.2383 87.0533 72.2179C81.5811 75.9225 80.7305 83.1911 83.1266 88.8769C82.1831 89.8995 84.0189 89.6056 84.2426 90.3397C84.5964 92.501 92.8844 96.8688 87.8448 96.5769C78.1259 93.2104 81.7626 80.0976 77.1416 84.71C77.175 82.6149 73.6873 84.7939 74.4857 82.2167C72.8878 83.0982 72.2117 82.7056 72.0511 80.8527C72.6539 79.6608 75.4889 81.8588 75.3193 82.9116C76.8101 79.3164 79.6848 84.2118 79.693 79.0691C80.9934 74.1476 84.3864 70.828 88.5086 68.1812C89.5733 62.002 92.9581 56.876 97.5694 52.3016C98.363 51.4318 100.794 50.5275 100.014 49.0967C100.697 48.7965 101.5 48.6041 102.13 48.2416C103.562 46.9341 101.726 47.7072 101.947 46.0873C102.86 46.3163 103.185 47.5448 104.147 46.6727C107.487 43.3722 112.808 42.1671 115.738 38.8269C116.165 32.1576 109.577 31.8363 104.646 32.8353C100.927 32.382 99.2672 36.955 97.4182 39.4534C95.9921 43.8571 91.5947 41.4805 89.0264 41.8645C88.037 40.8187 87.8635 41.517 86.7525 41.6997C86.1009 41.5396 85.3558 40.9057 84.9587 42.0503C83.7748 41.9948 82.4066 42.0544 80.4873 41.7933C79.8652 41.8918 78.9387 41.5548 79.095 42.7679C78.1179 43.423 75.9299 44.9894 76.3024 42.5737C76.371 42.3418 76.3429 41.8834 76.2194 41.8252C72.8153 42.0004 74.6962 36.7177 72.3324 37.6441C70.9858 37.6665 72.5527 32.7704 71.1841 36.0242C69.7069 35.4216 71.0694 32.888 69.75 32.9595C67.5083 34.0699 70.3957 36.3415 69.5512 37.9836C67.3827 33.8737 68.1916 36.7576 65.1684 36.1355C65.3033 35.3029 63.6908 34.2812 63.3809 34.3332C62.4773 34.872 63.8776 35.1396 63.7534 35.7122C64.1691 38.6407 62.6763 35.0144 61.74 36.5328C61.6752 36.6148 61.3753 36.6428 61.3177 36.5777C60.0417 35.1199 60.3447 38.6266 60.6587 38.93C61.8766 39.7609 60.4309 40.8385 61.5521 41.5836C62.3683 41.8814 62.9122 40.4607 63.4065 40.3014C64.6956 40.238 63.8112 39.5217 63.8548 39.0948C63.9842 38.0796 64.9138 38.6023 65.1702 39.2689C65.2225 38.4503 66.2088 39.4518 66.3282 39.0433C63.8439 38.2374 68.5678 36.6675 66.9512 39.3511C69.6785 36.8673 69.9754 40.5437 67.9135 42.303C68.4759 44.0924 66.4382 44.6127 66.4577 42.5743C67.6405 42.723 66.3954 42.0503 66.8858 41.4377C67.7387 40.8627 67.3169 40.3861 66.6204 41.1395C64.0125 40.4456 66.0952 41.1043 63.6917 42.6614C64.6087 43.3868 65.6037 42.4209 65.8669 43.8782C66.8695 45.3213 69.3156 44.5151 71.084 45.0773C72.1031 45.0875 72.3422 44.5348 72.3077 43.6822C73.1788 44.2578 73.6117 43.3748 74.2285 43.1041C75.0969 44.221 74.6449 44.7521 73.8233 45.7165C71.0975 45.361 70.6116 49.0346 72.757 49.4908C72.3259 51.5312 72.3268 51.5276 74.6566 52.2666C74.8074 53.319 73.2479 54.5317 74.3903 55.4425C75.0057 56.6097 73.5192 57.7052 72.7182 56.492C72.896 55.6348 72.5944 53.4842 71.7086 54.9682C70.9169 52.8063 72.0535 53.6806 71.9413 52.4616C71.2529 52.1609 70.2417 52.9765 71.0575 51.7885C72.8402 50.2275 70.4587 49.416 69.1492 48.8668C69.4904 49.918 68.4483 51.0377 67.7869 51.8232C68.5725 51.0064 67.6264 47.8952 66.8191 49.7263C66.2748 50.3611 65.0904 49.6109 64.5652 49.218C64.595 48.1913 66.0928 47.3347 64.5944 46.414C65.1004 44.8368 62.6974 44.3571 61.6931 43.3768C60.435 41.2856 59.9064 50.3268 61.2482 49.9981C61.1283 51.6669 59.7202 52.8089 61.0034 54.4414C61.1277 56.3954 61.6687 59.0156 60.6929 60.7502C61.4253 61.4153 60.9363 62.1068 60.9061 62.8014C60.4285 64.4275 62.1031 65.4815 61.5138 66.9662C60.6757 67.4967 61.6881 67.6719 61.7182 68.0357C61.7484 69.5061 61.2132 70.8951 60.9704 72.3314C62.0125 73.6712 62.6196 71.8024 62.6537 71.0171C64.4719 71.1847 63.0837 75.3226 62.0927 74.3525C61.4439 73.5439 61.131 73.9624 61.3032 74.7506C62.9604 75.5025 61.7652 76.0172 61.0975 77.0209C61.2011 78.3267 62.3207 80.2814 61.2396 81.2766C62.9204 80.4692 64.2221 81.8975 62.7847 83.3887C63.4324 83.443 63.6836 84.7262 64.5913 83.9724C66.3552 84.2958 64.2833 86.4106 66.3612 86.7004C66.7431 87.792 65.5107 88.0506 64.7744 88.0343C63.6952 88.3415 64.456 89.244 64.1991 89.8173C62.367 93.274 61.5327 91.9223 63.1443 88.911C60.7611 85.1615 61.3086 95.0987 61.3966 96.6546C55.6407 91.3404 58.2281 83.4699 57.5922 76.3881C57.492 67.2738 57.2844 58.148 57.1788 49.002C56.5672 32.7923 56.0025 27.8226 74.3506 29.5717C86.0519 29.7801 98.3569 29.3445 110.334 28.9639C116.948 28.4115 117.42 34.9528 120.427 37.35C124.48 36.6356 131.342 31.4617 134.56 34.4698C132.84 38.3687 124.825 37.9919 121.18 40.4017C119.694 40.665 119.454 41.5797 119.486 42.9094C119.771 54.0268 119.772 65.2758 119.95 76.3113C141.403 58.7311 147.363 77.5968 132.066 91.7646Z" fill="#0A1328"/>
<path fill-rule="evenodd" clip-rule="evenodd" d="M117.353 190.776C117.107 190.609 117.025 190.675 116.959 190.942C117.207 191.111 117.29 191.049 117.353 190.776ZM103.214 218.767C103.171 217.539 106.713 204.771 108.16 207.69C108.494 208.332 108.489 207.698 108.639 207.54C110.341 204.926 110.894 207.748 110.751 202.428C113.008 202.475 109.404 200.237 111.495 200.711C113.392 200.189 115.57 195.218 115.766 192.856C115.784 192.354 117.018 187.423 117.659 189.094C117.772 188.991 117.984 188.882 117.978 188.787C116.169 185.424 118.723 186.227 118.493 183.274C119.947 182.838 119.088 182.013 118.949 181.208C119.958 177.367 118.033 173.503 118.841 169.663C118.464 164.864 116.607 168.441 117.897 161.37C117.827 158.597 119.48 150.601 114.427 153.427C111.124 153.644 114.072 147.161 113.695 144.971C118.804 143.42 125.18 145.659 130.406 144.515C127.452 141.947 121.421 143.94 117.432 143.157C110.344 144.898 119.305 135.956 121.235 134.86C131.381 132.158 142.144 128.538 151.933 125.932C152.46 127.186 152.684 126.773 153.091 125.87C154.455 124.13 157.163 123.455 159.221 122.879C158.204 124.598 154.573 134.007 153.452 131.799C153.515 130.453 152.566 124.609 151.702 128.751C153.471 134.476 151.153 139.276 148.674 144.325C144.401 146.545 137.605 143.121 132.496 143.81C129.238 145.702 136.424 144.304 135.364 146.155C134.005 148.624 135.564 147.846 133.157 148.794C132.445 143.778 126.789 149.296 123.738 149.691C122.424 150.34 120.123 150.445 120.031 152.283C120.689 159.837 120.091 167.843 121.96 175.153C122.052 175.259 122.885 175.463 122.9 174.981C123.276 172.791 125.435 171.279 125.077 168.712C124.922 167.538 126.88 166.119 126.965 164.811C126.41 162.358 129.815 161.194 128.623 158.663C128.252 156.532 129.988 156.871 129.394 154.183C131.398 154.117 129.772 151.441 131.333 150.315C136.648 148.647 128.626 164.697 128.13 167.576C126.518 172.343 125.149 177.192 123.343 181.893C120.047 185.912 133.667 220.354 128.165 215.164C124.577 207.686 122.947 199.622 121.512 191.514C118.271 185.694 112.503 225.499 103.214 218.767Z" fill="#2B54B5"/>
<path fill-rule="evenodd" clip-rule="evenodd" d="M179.977 139.137C178.835 141.193 185.705 153.585 181.525 153.41C173.48 150.662 165.385 148.069 156.989 146.589C154.662 146.158 154.644 146.093 154.364 143.842C154.272 141.061 153.167 138.059 153.833 135.368C157.226 131.171 158.39 120.472 164.748 120.904C181.26 126.158 174.369 126.124 179.977 139.137Z" fill="#2B54B5"/>
<path fill-rule="evenodd" clip-rule="evenodd" d="M132.008 91.6766C132.493 90.9178 132.224 89.15 134.049 90.1356C138.577 85.4405 145.73 83.2014 152.256 83.3272C162.062 82.8504 154.374 93.8809 154.266 99.2406C152.01 103.568 146.188 105.461 143.081 109.445C138.544 114.494 131.314 109.44 125.604 109.158C122.31 107.211 131.525 95.4425 132.008 91.6766Z" fill="#2B54B5"/>
<mask id="mask0_57_2360" style="mask-type:luminance" maskUnits="userSpaceOnUse" x="157" y="155" width="28" height="27">
<path d="M157.396 155.505H184.571V181.927H157.396V155.505Z" fill="white"/>
</mask>
<g mask="url(#mask0_57_2360)">
<path fill-rule="evenodd" clip-rule="evenodd" d="M169.846 167.031C170.78 165.809 170.931 165.51 169.829 164.646C168.653 165.515 168.82 165.789 169.846 167.031ZM162.323 181.831C157.059 180.89 159.04 171.232 157.396 167.015C159.958 163.66 166.837 163.575 170.73 161.124C175.084 159.84 178.994 155.561 183.47 155.505C188.253 169.514 176.767 183.214 162.323 181.831Z" fill="#2B54B5"/>
</g>
<path fill-rule="evenodd" clip-rule="evenodd" d="M150.34 17.9007C149.25 16.9596 149.027 17.2998 148.215 18.0604C149.044 18.7828 149.362 18.5263 150.34 17.9007ZM168.012 20.3642C169.033 20.2202 169.144 19.43 169.377 18.7259C162.96 22.314 154.006 26.2318 146.713 30.2039C144.557 31.6293 149.039 35.892 149.464 38.0603C149.814 38.7193 150.249 38.6478 150.752 38.1253C156.477 32.1775 162.246 26.2717 168.012 20.3642ZM166.149 17.4064C178.033 13.9013 144.083 20.7484 141.25 20.1092C139.311 20.9039 143.822 25.0531 144.03 26.8332C144.553 27.9403 144.868 27.6961 145.728 27.2695C152.472 23.8506 159.533 20.7938 166.149 17.4064ZM141.275 17.2142C150.008 16.9842 155.581 14.6919 162.739 13.9617C188.653 7.44011 171.884 19.6885 162.683 29.2827C158.665 32.1133 152.183 44.2429 147.144 41.3024C145.828 40.7154 145.386 37.6192 143.762 38.4808C134.905 45.8288 138.991 35.3899 140.614 30.2015C141.631 25.8486 133.158 18.2229 141.275 17.2142Z" fill="#0A1328"/>
<path fill-rule="evenodd" clip-rule="evenodd" d="M97.2301 174.391C97.2726 174.324 97.3091 174.294 97.2025 174.292L97.2301 174.391ZM110.172 155.681C110.12 155.755 110.097 155.778 110.206 155.78L110.172 155.681ZM98.1566 161.879C95.3002 182.006 102.795 170.681 106.923 160.642C106.707 159.126 107.357 158.247 108.762 157.83C110.553 157.359 109.468 155.086 107.97 156.233C106.463 156.755 104.813 157.491 103.313 157.77C104.979 155.942 106.54 150.583 109.062 151.098C117.691 157.175 101.095 173.522 98.2572 181.328C95.3002 184.9 100.163 224.357 97.2171 217.466C95.1642 207.634 95.6102 197.739 94.4414 187.785C90.3147 195.799 84.0508 203.162 80.0553 211.263C73.6359 206.058 77.1388 205.593 80.5845 199.895C81.8634 198.845 84.2342 192.409 85.6559 193.998C85.679 194.047 86.2171 193.892 86.4673 193.747C85.0948 189.884 88.2243 194.552 90.1014 187.964C90.8229 186.264 88.4924 186.369 91.2289 185.224C91.4411 185.082 91.5682 184.812 91.7346 184.6C90.799 183.541 93.1463 181.89 93.2633 180.522C92.9831 177.737 95.4797 165.138 92.2116 165.456C94.1618 164.202 95.7871 162.272 98.1566 161.879Z" fill="#2B54B5"/>
<path fill-rule="evenodd" clip-rule="evenodd" d="M159.102 98.3491C161.772 97.4565 161.498 95.6701 158.946 97.6333C158.735 97.8904 158.668 98.1525 159.102 98.3491ZM170.965 104.97C168.157 109.137 165.327 113.288 162.563 117.483C160.569 119.589 156.973 116.27 154.446 116.135C152.217 112.887 155.239 106.871 154.965 102.741C154.834 100.534 157.173 100.331 157.87 98.5903C153.062 100.274 158.451 90.8468 158.395 87.9306C159.569 84.6508 160.771 88.2379 162.285 88.7627C162.6 89.4039 162.588 90.3573 163.742 89.9137C166.779 94.7928 169.78 99.2914 170.965 104.97Z" fill="#2B54B5"/>
<path fill-rule="evenodd" clip-rule="evenodd" d="M80.0886 211.152C84.0788 203.074 90.3352 195.731 94.4571 187.739C96.1521 197.918 94.2585 209.749 98.1554 218.994C91.8234 218.696 84.1333 215.979 80.0886 211.152Z" fill="#BBB9FF"/>
<path fill-rule="evenodd" clip-rule="evenodd" d="M108.454 218.886C112.522 210.177 116.354 201.36 119.405 192.236C122.153 186.32 122.603 200.588 123.651 202.702C123.931 207.136 128.583 213.518 128.113 216.541C121.614 217.958 115.256 219.407 108.454 218.886Z" fill="#BBB9FF"/>
<path fill-rule="evenodd" clip-rule="evenodd" d="M132.482 214.829C135.032 206.497 134.919 194.976 139.545 188.277C141.293 186.021 141.387 182.662 142.571 180.085C141.147 177.65 142.839 175.482 143.684 172.967C142.683 169.937 145.123 167.703 144.816 164.819C144.094 162.023 145.675 159.635 145.829 156.92C147.123 153.882 144.406 147.748 147.259 146.185C151.727 150.397 144.697 176.637 144.505 184.42C141.646 192.157 142.801 215.405 132.482 214.829Z" fill="#2B54B5"/>
<path fill-rule="evenodd" clip-rule="evenodd" d="M46.8 56.2686C45.2586 53.2394 42.281 56.5074 43.3595 58.7192C44.3767 61.7087 46.7622 57.9628 46.8 56.2686ZM50.4541 56.4983C50.7475 66.0529 37.533 66.4185 39.6727 56.4837C40.0517 49.0521 50.1176 49.7039 50.4541 56.4983Z" fill="#0A1328"/>
<path fill-rule="evenodd" clip-rule="evenodd" d="M148.492 64.0701C148.153 68.1316 154.154 63.6254 151.714 61.8513C149.438 60.1737 148.591 61.3433 148.492 64.0701ZM149.697 69.4005C141.771 69.3557 145.233 55.8642 151.931 58.3168C158.971 60.073 155.255 69.4711 149.697 69.4005Z" fill="#0A1328"/>
<mask id="mask1_57_2360" style="mask-type:luminance" maskUnits="userSpaceOnUse" x="90" y="1" width="14" height="13">
<path d="M90.6688 1.53394H103.507V13.5775H90.6688V1.53394Z" fill="white"/>
</mask>
<g mask="url(#mask1_57_2360)">
<path fill-rule="evenodd" clip-rule="evenodd" d="M95.9215 9.69061C92.8121 11.4374 87.6085 9.21762 93.0201 7.41705C96.0417 6.77635 94.0338 4.86894 94.4081 2.78246C95.3673 0.0182289 97.5538 2.44945 97.8565 4.25857C98.3605 5.90389 100.031 4.38943 101.087 4.25988C103.922 3.5369 104.429 6.99246 101.733 7.74727C98.0505 8.54973 101.904 11.5476 99.6944 13.3319C97.4432 14.5748 97.019 10.7486 95.9215 9.69061Z" fill="#0A1328"/>
</g>
<path fill-rule="evenodd" clip-rule="evenodd" d="M175.662 123.589C174.762 123.858 163.895 119.784 165.532 119.201C174.615 113.386 174.191 111.271 175.662 123.589Z" fill="#2B54B5"/>
<path fill-rule="evenodd" clip-rule="evenodd" d="M45.5809 203.291C49.0368 201.946 52.8199 197.118 56.0574 201.936C58.513 204.261 57.7629 207.104 58.2277 210.142C56.9834 209.365 55.7385 208.59 54.4938 207.815C56.2357 202.082 48.5593 201.358 49.8556 205.758C48.4306 204.936 47.0058 204.113 45.5809 203.291Z" fill="#BBB9FF"/>
<path fill-rule="evenodd" clip-rule="evenodd" d="M155.007 181.3C154.787 176.701 152.375 170.39 155.822 166.781C157.792 171.31 157.596 176.77 158.679 181.637C156.994 182.237 157.074 180.674 155.007 181.3Z" fill="#2B54B5"/>
<path fill-rule="evenodd" clip-rule="evenodd" d="M172.412 109.461C173.779 114.284 166.955 116.738 163.557 118.543C164.524 116.592 171.219 102.921 172.412 109.461Z" fill="#2B54B5"/>
<path fill-rule="evenodd" clip-rule="evenodd" d="M49.9315 205.695C49.3089 204.389 49.3864 204.154 50.7235 203.301C55.5337 200.747 57.0245 211.927 49.9315 205.695Z" fill="#19326B"/>
<path fill-rule="evenodd" clip-rule="evenodd" d="M177.968 132.816C177.326 131.32 176.864 129.781 176.934 128.118C178.186 129.471 178.444 131.057 177.968 132.816Z" fill="#BBB9FF"/>
<path fill-rule="evenodd" clip-rule="evenodd" d="M176.89 14.8389C176.442 14.0489 176.301 13.2035 176.431 12.3096C177.72 13.4064 177.73 13.4598 176.89 14.8389Z" fill="#2B54B5"/>
<path fill-rule="evenodd" clip-rule="evenodd" d="M162.262 88.7325C161.53 88.3746 160.624 88.1744 160.668 87.1064C161.337 87.5236 162.495 87.4927 162.262 88.7325Z" fill="#BBB9FF"/>
<path fill-rule="evenodd" clip-rule="evenodd" d="M144.226 17.0681C143.503 17.108 142.78 17.148 142.058 17.1878C142.751 16.7886 143.468 16.6796 144.226 17.0681Z" fill="#BBB9FF"/>
<path fill-rule="evenodd" clip-rule="evenodd" d="M163.728 90.0629C162.616 90.4981 162.532 89.6051 162.293 88.9131C163.051 88.9352 163.835 88.9228 163.728 90.0629Z" fill="#BBB9FF"/>
<path fill-rule="evenodd" clip-rule="evenodd" d="M178.489 135.525C177.794 135.16 178.002 134.62 178.213 134.08C178.87 134.453 178.837 134.959 178.489 135.525Z" fill="#BBB9FF"/>
<path fill-rule="evenodd" clip-rule="evenodd" d="M159.221 14.4858C158.739 14.5406 158.257 14.5953 157.776 14.6497C158.258 14.595 158.74 14.5404 159.221 14.4858Z" fill="#2B54B5"/>
<path fill-rule="evenodd" clip-rule="evenodd" d="M153.621 83.2639C153.199 83.2801 152.777 83.2963 152.356 83.3123C152.742 82.5389 153.17 82.6573 153.621 83.2639Z" fill="#BBB9FF"/>
<path fill-rule="evenodd" clip-rule="evenodd" d="M170.061 12.6819C169.7 12.735 169.338 12.7881 168.977 12.8409C169.339 12.7878 169.7 12.7348 170.061 12.6819Z" fill="#2B54B5"/>
<path fill-rule="evenodd" clip-rule="evenodd" d="M147.839 16.4648C147.513 16.672 147.347 17.3791 146.755 16.7551C147.117 16.6584 147.478 16.5617 147.839 16.4648Z" fill="#BBB9FF"/>
<path fill-rule="evenodd" clip-rule="evenodd" d="M174.217 11.9626C173.976 12.0134 173.734 12.0642 173.494 12.1146C173.736 12.0636 173.976 12.0132 174.217 11.9626Z" fill="#2B54B5"/>
<path fill-rule="evenodd" clip-rule="evenodd" d="M52.627 207.251C52.868 207.383 53.1091 207.515 53.3497 207.647C52.7766 207.976 52.6353 207.706 52.627 207.251Z" fill="#BBB9FF"/>
<path fill-rule="evenodd" clip-rule="evenodd" d="M44.4969 202.373C44.7378 202.554 44.9791 202.734 45.2196 202.915C44.9783 202.734 44.7375 202.554 44.4969 202.373Z" fill="#BBB9FF"/>
<path fill-rule="evenodd" clip-rule="evenodd" d="M171.687 20.4395C171.868 20.1983 172.049 19.9572 172.229 19.7168C172.049 19.9582 171.868 20.1988 171.687 20.4395Z" fill="#2B54B5"/>
<path fill-rule="evenodd" clip-rule="evenodd" d="M141.155 17.2744C140.914 17.2769 140.672 17.2793 140.432 17.2818C140.673 17.2793 140.914 17.2768 141.155 17.2744Z" fill="#BBB9FF"/>
<path fill-rule="evenodd" clip-rule="evenodd" d="M165.725 13.2129C165.484 13.3336 165.243 13.4542 165.003 13.5742C165.244 13.4533 165.485 13.333 165.725 13.2129Z" fill="#2B54B5"/>
<path fill-rule="evenodd" clip-rule="evenodd" d="M163.377 13.7549C163.135 13.8152 162.894 13.8754 162.654 13.9356C162.896 13.8752 163.136 13.815 163.377 13.7549Z" fill="#2B54B5"/>
<path fill-rule="evenodd" clip-rule="evenodd" d="M151.633 15.7424C151.36 15.9048 151.411 16.6305 150.73 16.0836C151.031 15.9703 151.332 15.8564 151.633 15.7424Z" fill="#BBB9FF"/>
<path fill-rule="evenodd" clip-rule="evenodd" d="M155.608 181.259C156.271 180.838 156.194 181.092 156.056 181.777C155.907 181.604 155.757 181.431 155.608 181.259Z" fill="#BBB9FF"/>
<path fill-rule="evenodd" clip-rule="evenodd" d="M176.935 127.034C176.812 126.793 176.689 126.552 176.566 126.312C176.928 126.401 177.352 126.451 176.935 127.034Z" fill="#BBB9FF"/>
<path fill-rule="evenodd" clip-rule="evenodd" d="M179.818 138.416C179.637 138.175 179.456 137.934 179.276 137.694C179.456 137.935 179.637 138.175 179.818 138.416Z" fill="#BBB9FF"/>
<path fill-rule="evenodd" clip-rule="evenodd" d="M157.629 14.8391C157.597 15.0929 157.904 15.7186 157.629 15.7425C157.619 15.4508 157.669 15.0963 157.629 14.8391Z" fill="#2B54B5"/>
<path fill-rule="evenodd" clip-rule="evenodd" d="M105.202 219.223C105.557 218.956 105.706 218.836 105.744 219.356C105.563 219.311 105.382 219.267 105.202 219.223Z" fill="#BBB9FF"/>
<path fill-rule="evenodd" clip-rule="evenodd" d="M156.331 180.879C156.451 180.935 156.571 180.992 156.692 181.048C156.571 180.992 156.451 180.935 156.331 180.879Z" fill="#BBB9FF"/>
<path fill-rule="evenodd" clip-rule="evenodd" d="M83.0161 190.024C82.4947 190.56 82.1465 191.097 82.7527 191.516C83.7672 191.112 83.8509 190.895 83.0161 190.024ZM92.2754 165.442C95.6238 165.253 93.0058 177.651 93.3344 180.465C93.2186 181.808 90.8453 183.508 91.7953 184.532C91.6289 184.743 91.5012 185.013 91.2875 185.154C90.5588 185.637 89.0894 185.764 90.4418 187.147C88.6059 194.146 85.1904 190.451 86.3519 193.014C86.8407 193.712 86.0107 193.915 85.6879 193.904C85.215 192.921 84.8202 193.528 84.5123 193.976C81.5817 197.966 79.2273 202.501 75.9332 206.167C70.6889 201.453 73.1308 195.803 74.8268 189.977C77.7944 183.239 76.5491 172.931 84.0147 170.324C85.2509 167.907 84.3951 164.776 82.6156 162.618C83.4753 162.858 84.3624 161.862 83.3512 161.283C82.4957 161.382 82.6117 162.043 82.6364 162.637C76.4745 161.343 76.3681 168.363 77.3395 172.419C74.5246 179.618 72.7607 187.235 71.5132 194.876C70.2817 200.127 63.8384 185.932 65.5316 186.092C63.9115 182.714 67.21 180.296 68.4705 178.083C69.4787 176.939 71.4054 176.073 72.8639 176.127C73.1527 176.515 73.2243 176.622 73.3816 176.092C76.9955 171.625 72.1683 159.967 81.6662 160.098C90.0939 160.988 82.7921 171.601 92.2754 165.442Z" fill="#BBB9FF"/>
<path fill-rule="evenodd" clip-rule="evenodd" d="M103.407 113.556C107.44 107.237 114.439 109.049 121.201 109.77C123.46 110.672 120.248 114.449 120.105 116.262C116.726 122.056 117.559 131.13 113.094 135.577C108.379 135.58 101.179 141.016 98.2262 135.776C95.4976 131.474 89.3866 125.968 95.6312 121.983C97.8649 118.767 100.46 116.147 103.407 113.556Z" fill="#2B54B5"/>
<path fill-rule="evenodd" clip-rule="evenodd" d="M88.58 147.351C93.6527 147.129 100.316 143.7 104.762 146.175C109.805 149.828 104.289 153.416 102.198 157.19C99.4681 165.771 90.1115 151.743 88.58 147.351Z" fill="#2B54B5"/>
<path fill-rule="evenodd" clip-rule="evenodd" d="M40.0843 173.381C39.4952 182.413 51.5693 178.111 51.0843 171.53C51.3257 166.955 43.0456 161.964 41.2391 167.766C40.7486 169.531 40.6442 171.618 40.0843 173.381ZM37.4509 175.444C38.6397 170.798 38.0958 163.378 43.8968 162.528C49.3572 161.722 54.1353 166.923 54.2402 172.142C54.7799 181.305 38.0596 186.684 37.4509 175.444Z" fill="#BBB9FF"/>
<path fill-rule="evenodd" clip-rule="evenodd" d="M23.3635 119.778C24.1589 114.855 16.6412 109.543 14.0008 114.741C15.6163 117.93 12.0916 121.929 15.5087 125.054C16.6184 131.913 24.1546 124.08 23.3635 119.778ZM10.1699 119.491C10.3773 105.054 28.4244 109.9 26.0308 121.831C22.4335 135.123 11.6011 132.069 10.1699 119.491Z" fill="#BBB9FF"/>
<path fill-rule="evenodd" clip-rule="evenodd" d="M103.034 114.23C99.0439 119.237 97.2953 106.77 88.6947 103.359C77.0962 99.2142 72.3717 108.324 81.4139 116.413C81.8816 117.673 82.0009 117.061 82.8628 116.669C83.8462 120.709 90.4513 121.465 93.5987 123.992C91.3227 126.488 86.172 121.517 83.1933 120.514C59.2728 100.59 90.9439 89.7296 103.034 114.23Z" fill="#0A1328"/>
<path fill-rule="evenodd" clip-rule="evenodd" d="M51.8141 137.924C51.6323 134.258 49.3819 132.007 45.7557 131.768C42.3134 131.602 44.9846 136.438 43.992 138.331C42.5559 137.627 42.5426 135.888 42.1552 134.543C39.9708 131.829 41.6664 138.388 42.5172 139.372C44.7238 143.644 51.724 142.759 51.8141 137.924ZM54.6011 137.352C55.08 145.531 42.406 148.266 40.1301 139.556C38.673 135.381 39.2635 129.911 44.3691 129.086C46.0019 127.959 46.2636 131.141 47.726 130.038C51.2633 128.376 54.7068 134.369 54.6011 137.352Z" fill="#BBB9FF"/>
<path fill-rule="evenodd" clip-rule="evenodd" d="M40.4057 93.5113C40.5255 88.0217 31.8894 87.108 30.0347 91.7408C27.1764 100.503 39.5395 101.822 40.4057 93.5113ZM28.3245 90.3927C36.9724 80.2249 48.8047 90.6782 40.2941 99.3708C33.5979 107.068 23.7479 99.0021 28.3245 90.3927Z" fill="#BBB9FF"/>
<path fill-rule="evenodd" clip-rule="evenodd" d="M20.7757 150.353C11.5397 146.99 29.3409 139.961 29.5014 152.232C27.6739 158.566 18.0494 158.98 18.1457 151.318C19.353 149.536 20.4984 154.965 22.9702 154.486C33.5335 151.574 17.2934 143.407 20.7757 150.353Z" fill="#BBB9FF"/>
<path fill-rule="evenodd" clip-rule="evenodd" d="M76.1098 113.285C77.801 114.797 67.3756 119.519 65.4581 118.099C58.8528 117.233 59.1299 105.375 65.2052 103.908C67.3018 104.915 60.0121 109.91 64.7396 114.325C68.6224 117.959 72.1018 110.834 76.1098 113.285Z" fill="#BBB9FF"/>
<path fill-rule="evenodd" clip-rule="evenodd" d="M91.4551 127.757C92.1175 129.974 100.121 138.3 97.1258 138.943C83.5532 142.517 86.9802 137.007 91.4551 127.757Z" fill="#2B54B5"/>
<path fill-rule="evenodd" clip-rule="evenodd" d="M70.3325 196.435C73.0721 193.633 71.3476 189.201 73.4032 186.016C74.5812 184.009 73.4741 181.044 74.9494 178.999C75.5787 176.683 76.7717 174.76 77.28 172.436C82.7205 171.382 74.7794 186.042 74.7872 189.977C73.2895 193.031 73.4897 202.879 70.3325 196.435Z" fill="#2B54B5"/>
<path fill-rule="evenodd" clip-rule="evenodd" d="M87.4565 140.614C92.4438 141.846 99.0409 136.613 102.022 142.668C103.622 144.796 98.1068 144.069 96.8885 144.67C92.4696 145.307 85.5611 147.909 87.4565 140.614Z" fill="#2B54B5"/>
<path fill-rule="evenodd" clip-rule="evenodd" d="M73.985 149.158C69.6496 153.768 62.584 146.766 68.344 144.881C68.7808 147.005 69.7744 149.146 72.0729 146.889C73.1117 144.912 70.2971 144.367 68.9941 143.747C66.8121 139.747 78.4949 143.223 73.985 149.158Z" fill="#BBB9FF"/>
<path fill-rule="evenodd" clip-rule="evenodd" d="M74.1265 149.032C74.8194 146.524 77.744 147.951 79.9079 147.269C79.7989 148.295 77.6783 148.728 78.3841 149.646C77.0725 150.177 75.5166 149.158 74.1265 149.032Z" fill="#2B54B5"/>
<path fill-rule="evenodd" clip-rule="evenodd" d="M63.2864 100.316C66.1841 98.7959 67.8931 106.445 65.166 103.943C64.9074 102.911 64.8474 101.848 63.3348 101.648C62.5554 101.545 63.0923 100.786 63.2864 100.316Z" fill="#0A1328"/>
<path fill-rule="evenodd" clip-rule="evenodd" d="M73.7652 174.911C73.528 175.3 73.4425 177.228 72.866 176.203C67.4536 177.69 70.11 175.548 73.7652 174.911Z" fill="#2B54B5"/>
<path fill-rule="evenodd" clip-rule="evenodd" d="M28.2368 90.4381C26.3397 92.7342 22.2201 91.8167 27.1076 90.0229C27.282 89.8932 27.85 90.286 28.2368 90.4381Z" fill="#2B54B5"/>
<path fill-rule="evenodd" clip-rule="evenodd" d="M65.5542 181.777C65.7132 183.198 64.6415 184.644 65.6351 186.049C63.8786 186.67 64.5598 182.585 65.5542 181.777Z" fill="#2B54B5"/>
<path fill-rule="evenodd" clip-rule="evenodd" d="M23.3587 93.6106C22.7819 94.1074 22.3356 96.13 21.552 95.4652C21.7199 94.6024 22.2898 93.6508 23.3587 93.6106Z" fill="#2B54B5"/>
<path fill-rule="evenodd" clip-rule="evenodd" d="M67.2611 179.971C66.9659 180.453 66.6709 180.934 66.3757 181.415C66.3434 180.697 66.2493 179.935 67.2611 179.971Z" fill="#2B54B5"/>
<path fill-rule="evenodd" clip-rule="evenodd" d="M69.6098 177.079C69.2486 177.441 68.8871 177.802 68.5258 178.163C68.8871 177.802 69.2486 177.44 69.6098 177.079Z" fill="#2B54B5"/>
<path fill-rule="evenodd" clip-rule="evenodd" d="M20.3244 96.8623C19.8973 96.3967 20.1511 96.315 20.6334 96.1396C21.1063 96.4024 20.6108 96.5926 20.3244 96.8623Z" fill="#2B54B5"/>
<path fill-rule="evenodd" clip-rule="evenodd" d="M72.3744 200.385C72.4767 200.747 72.5791 201.108 72.6812 201.47C71.9919 201.242 71.6219 200.942 72.3744 200.385Z" fill="#2B54B5"/>
<path fill-rule="evenodd" clip-rule="evenodd" d="M68.1554 178.525C68.2093 179.103 68.0307 179.393 67.4418 179.175C67.6795 178.958 67.9175 178.741 68.1554 178.525Z" fill="#2B54B5"/>
<path fill-rule="evenodd" clip-rule="evenodd" d="M24.8041 91.9844C24.6309 92.1233 24.4555 92.7363 24.2621 92.4521C24.4323 92.2936 24.6692 92.1451 24.8041 91.9844Z" fill="#2B54B5"/>
<path fill-rule="evenodd" clip-rule="evenodd" d="M20.6743 150.421C20.7175 150.433 20.7611 150.446 20.8043 150.458C20.7609 150.445 20.7083 150.37 20.6743 150.421Z" fill="#BBB9FF"/>
<path fill-rule="evenodd" clip-rule="evenodd" d="M23.3587 93.5834C23.4192 93.5321 23.4798 93.481 23.5402 93.4297C23.4761 93.4859 23.4281 93.6833 23.3587 93.5834Z" fill="#2B54B5"/>
<path fill-rule="evenodd" clip-rule="evenodd" d="M152.031 120.489C151.968 123.737 152.072 124.184 148.81 125.182C140.358 128.204 131.809 130.9 123.116 133.141C122.193 133.3 121.868 132.924 122.545 132.156C128.146 126.003 133.157 119.304 139.533 113.911C143.247 113.42 147.251 115.826 151.004 116.432C152.748 116.838 152.027 119.329 152.031 120.489Z" fill="#2B54B5"/>
<path fill-rule="evenodd" clip-rule="evenodd" d="M154.063 156.445C153.774 152.437 152.609 148.995 149.285 146.901C153.813 145.891 154.169 149.454 154.267 153.004C156.766 155.912 153.348 147.031 155.781 147.679C163.621 149.01 171.261 151.423 178.782 153.976C181.815 156.74 161.904 162.746 158.505 164.306C154.521 165.917 157.776 151.466 154.063 156.445Z" fill="#2B54B5"/>
<path fill-rule="evenodd" clip-rule="evenodd" d="M115.861 133.803C117.473 129.83 121.535 109.532 125.355 110.25C127.588 111.345 138.651 111.503 137.659 113.938C132.829 116.822 119.951 137.581 115.861 133.803Z" fill="#2B54B5"/>
<path fill-rule="evenodd" clip-rule="evenodd" d="M130.193 91.9844C132.113 92.8279 124.276 102.495 123.734 106.661C122.907 108.498 122.936 108.535 120.897 108.354C118.091 107.515 112.514 108.852 111.164 106.481C117.542 101.682 123.888 96.9692 130.193 91.9844Z" fill="#2B54B5"/>
<path fill-rule="evenodd" clip-rule="evenodd" d="M111.18 106.6C106.984 112.37 111.044 99.4035 113.262 96.7297C114.489 93.9988 130.016 72.2081 130.495 80.7821C122.849 88.2033 115.175 96.623 111.18 106.6Z" fill="#0A1328"/>
<path fill-rule="evenodd" clip-rule="evenodd" d="M153.6 103.345C151.331 114.368 156.384 117.766 143.078 113.027C137.877 113.594 154.288 100.78 153.6 103.345Z" fill="#2B54B5"/>
<path fill-rule="evenodd" clip-rule="evenodd" d="M106.032 143.583C104.477 144.339 99.4654 138.935 102.219 138.673C104.795 139.279 114.769 134.156 113.598 138.663C113.295 144.22 110.34 142.946 106.032 143.583Z" fill="#2B54B5"/>
<path fill-rule="evenodd" clip-rule="evenodd" d="M153.079 121.786C153.527 120.636 152.564 117.017 154.423 117.503C156.283 118.463 162.982 119.021 159.497 121.709C157.288 120.536 153.356 125.615 153.079 121.786Z" fill="#2B54B5"/>
<path fill-rule="evenodd" clip-rule="evenodd" d="M152.797 138.778C152.593 141.448 155.355 146.634 150.788 145.477C148.474 145.286 151.959 139.333 152.797 138.778Z" fill="#2B54B5"/>
<path fill-rule="evenodd" clip-rule="evenodd" d="M110.802 145.045C109.803 146.33 108.515 149.332 107.243 146.87C104.285 144.279 108.955 144.185 110.802 145.045Z" fill="#2B54B5"/>
<path fill-rule="evenodd" clip-rule="evenodd" d="M112.248 145.101C111.722 146.493 112.713 152.145 110.575 150.88C107.814 149.015 111.336 146.908 112.248 145.101Z" fill="#2B54B5"/>
<path fill-rule="evenodd" clip-rule="evenodd" d="M155.518 163.649C155.475 169.371 153.772 158.818 154.543 157.386C155.112 159.236 155.871 162.035 155.518 163.649Z" fill="#2B54B5"/>
<path fill-rule="evenodd" clip-rule="evenodd" d="M114.969 138.806C114.78 137.334 116.935 133.995 117.668 136.333C116.977 136.962 115.474 140.166 114.969 138.806Z" fill="#2B54B5"/>
<path fill-rule="evenodd" clip-rule="evenodd" d="M103.386 157.8C103.332 157.903 103.277 158.006 103.223 158.109C103.278 157.998 103.287 157.608 103.386 157.8Z" fill="#2B54B5"/>
<path fill-rule="evenodd" clip-rule="evenodd" d="M112.309 145.09C112.334 145.037 112.359 144.985 112.383 144.932C112.359 144.987 112.253 145.042 112.309 145.09Z" fill="#2B54B5"/>
<path fill-rule="evenodd" clip-rule="evenodd" d="M61.5072 79.1571C60.1139 76.6474 62.8773 75.15 63.3483 72.6644C63.6762 71.809 63.3462 71.264 62.5209 70.9702C63.0292 69.762 64.9176 70.2623 64.0092 68.5522C63.0244 70.2216 60.0626 68.5229 62.2678 67.9831C63.5905 67.9348 63.7587 66.9248 63.7119 65.8599C66.7773 65.1072 63.9119 70.4841 67.7943 70.2567C67.6691 69.4984 66.3103 68.6128 67.648 68.3668C72.3344 71.2988 70.9018 70.1592 68.0987 73.5051C67.0151 72.4491 64.6806 71.1866 65.1632 73.9327L65.1811 73.9017C62.8836 75.2141 64.9154 74.4352 65.5799 75.7318C64.5664 76.0841 64.7148 77.6361 63.7744 75.8941C63.9806 77.3469 62.3607 76.9245 62.1899 78.0515C62.169 78.4317 61.748 78.7893 61.5072 79.1571Z" fill="#BBB9FF"/>
<path fill-rule="evenodd" clip-rule="evenodd" d="M89.6049 33.7183C89.4853 33.4317 89.3587 33.4283 89.1232 33.6001C89.3027 33.8405 89.398 34.0615 89.6049 33.7183ZM87.9202 32.7229C89.863 33.1891 100.805 31.1472 96.0779 34.6282C92.6511 34.5015 94.3513 36.3482 93.8916 38.2835C92.3517 38.3446 91.117 38.5655 91.014 36.7998C92.0504 35.2004 90.7266 35.1023 89.4507 34.8574C86.2002 33.4282 91.4993 39.7112 87.485 37.8505C89.0223 37.1355 84.8803 36.6342 87.9202 32.7229Z" fill="#BBB9FF"/>
<path fill-rule="evenodd" clip-rule="evenodd" d="M76.8197 53.3029C76.8938 53.388 76.8931 53.3626 76.9109 53.2684L76.8197 53.3029ZM75.9674 50.0329C74.7784 49.3841 73.9051 51.3803 75.4476 51.3362C75.6318 52.3133 77.2698 51.6778 77.2349 52.8984C77.3831 52.8051 77.6208 52.7411 77.6636 52.6135C77.8241 52.1342 77.2019 51.3212 78.2945 51.2418C78.1838 50.2686 76.9961 49.5218 75.9674 50.0329ZM79.3088 53.1718C79.6054 54.8858 78.3939 53.7195 77.7744 53.7416C77.2546 54.4227 76.0993 54.9024 76.6946 56.0855C73.9102 57.0687 73.9239 55.5418 75.3752 53.6341C75.7337 52.6722 75.1581 52.6384 74.4328 52.9384C74.3683 50.9474 71.4991 52.8271 72.5517 49.5144C75.1264 47.7434 80.7695 49.4066 79.3088 53.1718Z" fill="#BBB9FF"/>
<path fill-rule="evenodd" clip-rule="evenodd" d="M61.4663 79.1046C62.2412 78.4958 61.9619 77.0862 63.0813 77.25C64.5104 78.2883 65.8692 78.1817 65.4539 75.8494C65.4756 75.6235 65.7015 75.7805 65.8556 75.7424C67.1053 76.8282 67.4196 77.4358 66.2364 78.3795C67.1197 81.4072 69.1801 83.744 64.3926 83.8544C67.3393 80.1861 60.1291 82.512 61.4663 79.1046Z" fill="#19326B"/>
<path fill-rule="evenodd" clip-rule="evenodd" d="M62.3889 56.2411C62.3195 56.3412 62.3259 56.3488 62.447 56.3436L62.3889 56.2411ZM62.5304 53.3956C62.3103 52.7765 61.9033 52.3066 61.3772 51.9136C61.4502 52.4075 61.9834 54.4796 62.5304 53.3956ZM61.2593 56.5471C61.0008 54.6725 59.6335 52.7801 60.9798 51.0552C61.0591 48.8987 64.1613 49.5842 64.8964 51.3365C65.0863 52.6928 63.5319 53.1501 63.5432 54.7955C66.3412 54.9556 61.3645 62.5654 61.1339 58.3999C62.5077 58.1499 62.9929 56.5415 61.2593 56.5471Z" fill="#19326B"/>
<path fill-rule="evenodd" clip-rule="evenodd" d="M65.2717 84.2603C66.1238 83.2482 69.0746 82.2647 67.4345 84.413C67.1784 84.6748 65.8536 85.0642 67.3981 85.5317C68.8141 86.715 65.3719 88.7518 68.2279 88.7758C68.3226 93.1343 69.572 89.5717 71.5972 90.6315C70.1755 91.4263 69.5426 93.9265 67.2994 92.7667C67.6046 90.4278 64.8842 90.1865 64.7318 87.9348C65.5053 87.9167 66.6437 87.7404 66.3151 86.6057C64.6608 86.3932 65.6082 85.0389 65.2717 84.2603Z" fill="#BBB9FF"/>
<path fill-rule="evenodd" clip-rule="evenodd" d="M84.7541 46.8091C85.9351 49.4666 83.6682 49.9413 83.714 47.9034C84.7502 46.6251 83.0548 45.8938 82.347 45.1642C81.8211 45.869 81.9259 47.9966 80.7348 46.8128C79.5686 45.4001 82.401 45.0767 81.7703 43.4942C81.9207 43.4613 82.1931 43.3783 82.2031 43.4025C82.5063 44.1427 82.8291 44.8627 83.8436 44.5035C84.984 44.0996 83.6994 43.2781 84.1196 42.7383L84.091 42.7663C84.8344 41.3754 86.9203 40.5879 86.7651 42.6814C85.2552 44.4676 86.5906 46.6721 84.7541 46.8091Z" fill="#19326B"/>
<path fill-rule="evenodd" clip-rule="evenodd" d="M61.2108 59.433C63.7492 58.8481 65.9479 60.084 67.6225 61.316C66.5528 62.3131 65.817 62.7503 65.3947 61.0403C64.4628 62.6269 64.0669 60.6056 62.89 60.2192C61.3918 62.0722 62.7185 64.1045 63.7664 65.7888C59.8854 66.8729 61.414 62.7763 60.5882 60.6643C60.4941 60.5812 60.9888 59.8592 61.2108 59.433Z" fill="#2B54B5"/>
<path fill-rule="evenodd" clip-rule="evenodd" d="M64.7788 49.5123C65.2936 49.767 66.1976 50.2818 66.6214 49.7274C67.4328 47.9179 68.3881 50.9913 67.5955 51.8011C68.7334 51.2801 68.7186 48.2638 69.9712 49.4728C69.4038 50.7991 68.2089 51.9882 68.8526 53.4997C68.3097 53.4929 67.8249 53.5492 67.9672 54.287C63.7323 54.8815 66.3913 53.1362 64.7318 51.3141L64.7484 51.3379C64.7587 50.7294 64.7686 50.1208 64.7788 49.5123Z" fill="#19326B"/>
<path fill-rule="evenodd" clip-rule="evenodd" d="M64.9098 38.8936C61.252 35.0145 60.1383 40.5765 63.679 39.0189C63.6359 39.4502 64.5182 40.1747 63.2323 40.239C62.7407 40.3988 62.1942 41.8401 61.3822 41.536C60.264 40.7821 61.7054 39.6924 60.4908 38.8518C60.164 38.5453 59.887 34.997 61.1481 36.4717C61.2058 36.5377 61.5049 36.5092 61.5696 36.4265C62.5958 35.124 62.6645 37.1097 63.6766 36.7013C65.3365 36.2282 66.0247 38.8882 64.9098 38.8936Z" fill="#BBB9FF"/>
<path fill-rule="evenodd" clip-rule="evenodd" d="M70.8659 37.4959C70.9328 37.3685 70.9999 37.2411 71.0666 37.1137C70.7803 37.2299 70.64 37.4118 70.6143 37.7221C70.698 37.6467 70.7819 37.5713 70.8659 37.4959ZM71.0152 39.6731C69.5933 40.7576 68.0872 38.398 68.9691 37.3726C70.0216 38.5385 69.8035 36.7289 69.3723 35.6955C68.4532 34.8087 68.8048 31.732 70.2913 33.3864C69.7253 35.3801 71.9811 35.6799 71.8994 37.4623C71.8992 37.4619 71.9585 37.4474 71.9585 37.4474C71.8953 37.4487 71.8323 37.45 71.7692 37.4513C71.8855 38.0551 71.1821 38.9702 71.0152 39.6731Z" fill="#BBB9FF"/>
<path fill-rule="evenodd" clip-rule="evenodd" d="M69.0136 53.4557C68.5445 52.1587 69.4332 49.3879 70.8115 49.3467C71.8751 50.6034 71.8722 50.6777 70.9989 51.7076C69.8436 53.2448 72.1806 51.5226 71.9412 52.8596C70.8331 53.3878 71.6482 54.1978 71.6385 54.8808C70.9148 55.5916 70.9054 56.5445 70.7873 57.5018C69.3917 58.3951 70.5651 55.2282 69.0136 53.4557Z" fill="#2B54B5"/>
<path fill-rule="evenodd" clip-rule="evenodd" d="M62.8232 92.7478C61.9537 88.4349 68.6651 90.4498 64.3642 92.31C64.1567 92.4249 63.9733 93.0086 63.98 93.0121C65.525 93.8383 64.3932 95.6852 65.4063 96.7083C65.3457 97.4805 64.3781 97.1587 63.8353 97.1499C64.6133 96.1128 63.9449 95.6695 63.0645 95.3131C62.9056 94.2955 63.9286 93.3858 62.8232 92.7478Z" fill="#BBB9FF"/>
<path fill-rule="evenodd" clip-rule="evenodd" d="M60.4244 47.954C60.1439 46.1429 61.9976 45.5093 62.6116 43.9265C65.4786 45.5886 63.5273 50.3729 60.4244 47.954Z" fill="#19326B"/>
<path fill-rule="evenodd" clip-rule="evenodd" d="M74.1875 42.9475C73.0667 40.6397 74.3277 40.6979 76.2021 41.6738C76.2179 43.4157 76.2537 43.2475 77.523 44.3663C77.4962 44.8519 77.8405 45.441 76.8408 45.4881C74.9568 45.9073 74.9248 44.1929 74.1875 42.9475Z" fill="#BBB9FF"/>
<path fill-rule="evenodd" clip-rule="evenodd" d="M84.2134 42.7742C83.789 43.3184 85.0861 44.1464 83.9349 44.5532C82.9107 44.9153 82.5848 44.1896 82.2787 43.4436C81.4814 43.6272 80.4503 43.7563 79.6798 44.0776C78.6278 44.7012 79.131 43.3775 78.8239 42.7951C79.5686 42.6401 80.5284 43.0474 80.4297 41.7608C82.0951 41.721 83.1194 42.2046 84.2134 42.7742Z" fill="#BBB9FF"/>
<path fill-rule="evenodd" clip-rule="evenodd" d="M60.4574 47.9199C62.6026 49.0716 63.1529 48.8193 64.1711 46.4572C65.5983 46.4078 65.0803 48.0251 64.5287 48.7111C64.5186 49.5066 65.0983 50.2595 64.8316 51.3341C63.6489 48.1332 59.8694 51.7779 60.4574 47.9199Z" fill="#BBB9FF"/>
<path fill-rule="evenodd" clip-rule="evenodd" d="M79.7836 44.83C79.9042 44.7503 79.906 44.6993 79.7903 44.6114C79.7131 44.7086 79.6269 44.7882 79.7836 44.83ZM78.731 42.6619C78.6647 45.074 80.1696 43.5059 81.6832 43.418C82.2742 47.7025 74.2853 44.5196 78.731 42.6619Z" fill="#2B54B5"/>
<path fill-rule="evenodd" clip-rule="evenodd" d="M79.6633 35.6364C78.5937 38.1867 76.1768 35.5517 75.5719 33.9593C76.3905 33.8763 77.2607 33.4954 77.9221 34.4011C78.9276 33.5455 80.003 34.2135 79.6633 35.6364Z" fill="#19326B"/>
<path fill-rule="evenodd" clip-rule="evenodd" d="M86.3401 35.8393C86.6216 36.3565 88.7895 37.9042 87.3917 37.9254C86.6798 37.749 86.0297 37.261 85.3637 38.2277C84.0761 39.4766 81.295 36.0904 85.0518 36.6615C83.6898 35.9856 85.566 34.8127 86.3401 35.8393Z" fill="#2B54B5"/>
<path fill-rule="evenodd" clip-rule="evenodd" d="M69.6098 87.1876C69.9468 86.4415 71.457 87.0731 71.3182 85.568C71.784 84.4924 71.5069 83.0926 72.3745 82.0476C72.956 86.4406 74.7369 82.4456 71.5906 88.2924C71.1936 89.0433 70.7077 88.666 70.2394 88.3811C71.5804 87.912 70.6538 87.1173 69.6098 87.1876Z" fill="#19326B"/>
<path fill-rule="evenodd" clip-rule="evenodd" d="M69.3789 41.9392C70.3296 42.3017 69.9162 42.988 69.5235 43.6409C70.0026 43.843 70.4623 44.304 70.9178 43.5215C71.0418 43.3275 71.7704 43.4636 72.1341 43.4025C72.3739 46.8082 64.1185 44.0682 69.3789 41.9392Z" fill="#BBB9FF"/>
<path fill-rule="evenodd" clip-rule="evenodd" d="M68.8871 37.3968C68.2044 38.1693 66.4296 40.2128 67.1156 38.1612C64.7222 36.0725 68.751 34.0494 68.8871 37.3968Z" fill="#2B54B5"/>
<path fill-rule="evenodd" clip-rule="evenodd" d="M73.6991 45.6216C74.1705 47.5562 71.9365 47.082 72.7667 48.7043C71.7832 51.3721 69.8854 44.8175 73.6991 45.6216Z" fill="#BBB9FF"/>
<path fill-rule="evenodd" clip-rule="evenodd" d="M94.0719 37.4227C93.1478 35.4886 93.6643 34.7578 95.9874 34.7126C95.495 35.714 95.596 37.1091 94.0719 37.4227Z" fill="#2B54B5"/>
<path fill-rule="evenodd" clip-rule="evenodd" d="M67.6225 43.8234C66.665 46.4463 65.776 41.895 64.3692 42.8766C64.2357 42.9455 63.8933 42.6262 63.6478 42.4866C65.5684 39.9734 66.073 43.4281 67.6225 43.8234Z" fill="#19326B"/>
<path fill-rule="evenodd" clip-rule="evenodd" d="M62.0989 91.0458C60.358 91.46 61.1979 88.0786 62.5845 87.8289C63.4109 88.9691 62.5275 89.9571 62.0989 91.0458Z" fill="#BBB9FF"/>
<path fill-rule="evenodd" clip-rule="evenodd" d="M63.455 81.325C66.7824 81.3304 64.9358 85.6667 62.7444 83.358C63.1935 82.7413 63.4633 82.0958 63.455 81.325Z" fill="#BBB9FF"/>
<path fill-rule="evenodd" clip-rule="evenodd" d="M89.4623 34.8931C91.6268 34.971 91.8377 36.2734 90.2603 37.4909C90.2916 38.5105 89.7175 38.3662 89.1011 38.23C88.3588 36.6503 90.5034 36.2924 89.4623 34.8931Z" fill="#2B54B5"/>
<path fill-rule="evenodd" clip-rule="evenodd" d="M70.7182 57.5823C70.4982 55.9116 71.8364 55.4017 72.028 56.9994C73.0023 54.9812 74.8516 59.988 72.9193 58.7105C72.4538 57.3351 71.3917 58.9646 70.7182 57.5823Z" fill="#BBB9FF"/>
<path fill-rule="evenodd" clip-rule="evenodd" d="M62.5638 43.8196C61.2213 46.5164 60.1473 46.835 60.7466 43.437C60.8541 41.9459 61.9052 43.7173 62.5638 43.8196Z" fill="#BBB9FF"/>
<path fill-rule="evenodd" clip-rule="evenodd" d="M61.6332 69.2202C62.0635 69.287 62.4939 69.3535 62.9251 69.4203C62.8227 69.7942 61.7105 69.8715 62.6134 70.5413C61.9763 74.8594 60.2691 72.3006 61.6332 69.2202Z" fill="#2B54B5"/>
<path fill-rule="evenodd" clip-rule="evenodd" d="M100.826 34.5317C101.973 34.7011 102.943 35.6352 102.27 36.633C101.817 37.6527 100.739 36.6021 100.671 36.0487C98.8764 36.198 100.258 35.3966 100.826 34.5317Z" fill="#BBB9FF"/>
<path fill-rule="evenodd" clip-rule="evenodd" d="M60.5764 84.9479C61.0931 83.2836 61.9706 84.9061 62.9251 85.4127C61.6076 86.8454 61.2522 86.6941 60.5764 84.9479Z" fill="#BBB9FF"/>
<path fill-rule="evenodd" clip-rule="evenodd" d="M78.5421 33.9888C77.6139 34.6495 76.9007 33.2454 75.4896 33.9034C73.9314 32.2525 79.448 31.9065 78.5421 33.9888Z" fill="#2B54B5"/>
<path fill-rule="evenodd" clip-rule="evenodd" d="M73.4039 84.7578C73.4675 83.3074 76.4984 82.9798 77.0173 84.4345C75.9085 84.906 74.591 84.6038 73.4039 84.7578Z" fill="#2B54B5"/>
<path fill-rule="evenodd" clip-rule="evenodd" d="M84.757 36.3787C84.8871 36.4525 85.0172 36.5263 85.1473 36.6001C84.0412 36.6698 82.6158 36.4359 83.4771 37.8687C81.7328 39.0546 81.1148 36.0918 82.3962 35.2544C82.8946 36.7981 83.5884 35.6422 84.757 36.3787Z" fill="#BBB9FF"/>
<path fill-rule="evenodd" clip-rule="evenodd" d="M74.3895 83.5306C74.0443 83.8192 73.6993 84.1078 73.3547 84.3965C70.2376 83.6109 75.2375 80.4961 74.3895 83.5306Z" fill="#BBB9FF"/>
<path fill-rule="evenodd" clip-rule="evenodd" d="M63.6324 39.0446C62.0074 40.0885 61.1343 38.7101 62.002 37.2419C62.7693 37.5529 64.3879 38.0629 63.6324 39.0446Z" fill="#19326B"/>
<path fill-rule="evenodd" clip-rule="evenodd" d="M79.6352 34.3381C80.501 34.4796 81.9409 33.7479 82.4373 34.562C82.1728 34.9226 81.2724 33.9045 81.3808 35.074C81.0436 36.4287 79.1147 35.7042 79.6352 34.3381Z" fill="#BBB9FF"/>
<path fill-rule="evenodd" clip-rule="evenodd" d="M74.4175 52.7904C76.7793 51.5515 74.1513 56.8063 73.7652 54.5645C73.8997 53.9534 74.1887 53.379 74.4175 52.7904Z" fill="#19326B"/>
<path fill-rule="evenodd" clip-rule="evenodd" d="M70.8745 39.8083C71.2283 39.0914 71.4311 38.2596 71.8699 37.6033C73.8532 37.6566 71.6768 41.7038 70.8745 39.8083Z" fill="#19326B"/>
<path fill-rule="evenodd" clip-rule="evenodd" d="M85.328 32.9058C84.4251 33.6146 82.2952 34.072 81.5339 32.9582C82.7988 32.9405 84.0633 32.9231 85.328 32.9058Z" fill="#BBB9FF"/>
<path fill-rule="evenodd" clip-rule="evenodd" d="M79.5466 84.793C79.0115 85.4535 77.7352 85.0255 77.9433 84.2647C79.1243 82.8444 79.3224 83.0062 79.5466 84.793Z" fill="#19326B"/>
<path fill-rule="evenodd" clip-rule="evenodd" d="M65.1809 90.1778C64.1205 90.154 63.4496 88.6277 64.6429 88.0098C64.7237 88.6678 65.5458 89.66 65.1809 90.1778Z" fill="#19326B"/>
<path fill-rule="evenodd" clip-rule="evenodd" d="M61.2034 56.434C62.0209 56.2132 62.1577 56.9311 62.5638 57.2779C61.5703 58.363 60.4041 57.7576 61.2034 56.434Z" fill="#BBB9FF"/>
<path fill-rule="evenodd" clip-rule="evenodd" d="M69.4292 42.0654C68.9112 42.445 68.3933 42.8245 67.8757 43.2039C67.4672 41.9131 68.893 40.1409 69.4292 42.0654Z" fill="#19326B"/>
<path fill-rule="evenodd" clip-rule="evenodd" d="M72.6375 56.3766C70.8367 56.5588 70.885 55.1669 72.1352 54.2249C72.8179 54.824 72.6874 55.5841 72.6375 56.3766Z" fill="#19326B"/>
<path fill-rule="evenodd" clip-rule="evenodd" d="M62.5638 74.5732C62.3342 75.9812 60.6309 74.6528 61.2551 73.5562C61.6605 73.9392 62.0719 74.3086 62.5638 74.5732Z" fill="#19326B"/>
<path fill-rule="evenodd" clip-rule="evenodd" d="M99.5913 36.0604C101.14 35.5421 100.853 37.6469 99.9067 36.8986C99.2182 36.728 98.979 36.9251 99.5913 36.0604Z" fill="#2B54B5"/>
<path fill-rule="evenodd" clip-rule="evenodd" d="M65.4545 36.1041C65.2434 37.002 64.4315 36.6261 63.6854 36.5994C63.3939 35.7491 64.8719 35.9754 65.4545 36.1041Z" fill="#2B54B5"/>
<path fill-rule="evenodd" clip-rule="evenodd" d="M76.9545 80.241C77.2872 81.3439 76.2291 81.4876 75.3912 81.1901C75.6961 80.5313 76.3178 80.4206 76.9545 80.241Z" fill="#BBB9FF"/>
<path fill-rule="evenodd" clip-rule="evenodd" d="M90.9224 42.0378C90.9957 42.5027 90.4078 42.9404 90.2172 43.3846C90.1578 42.681 90.3269 40.2567 90.9224 42.0378Z" fill="#19326B"/>
<path fill-rule="evenodd" clip-rule="evenodd" d="M73.0539 38.6774C72.3883 37.8297 72.1297 37.4745 73.3994 37.2419C73.3761 37.8129 74.0114 38.7965 73.0539 38.6774Z" fill="#BBB9FF"/>
<path fill-rule="evenodd" clip-rule="evenodd" d="M80.4432 41.7585C80.5309 42.7727 79.7483 42.6738 79.0221 42.6456C78.8641 41.5417 79.8089 41.8483 80.4432 41.7585Z" fill="#2B54B5"/>
<path fill-rule="evenodd" clip-rule="evenodd" d="M88.9413 41.7586C88.4594 41.662 87.9776 41.5655 87.496 41.4689C87.8475 40.4893 88.3807 41.4325 88.9413 41.7586Z" fill="#19326B"/>
<path fill-rule="evenodd" clip-rule="evenodd" d="M81.1726 35.6832C81.3518 34.9073 81.746 35.0088 82.4373 35.2469C81.9332 35.7886 81.6525 36.7349 81.1726 35.6832Z" fill="#19326B"/>
<path fill-rule="evenodd" clip-rule="evenodd" d="M66.4099 42.4812C65.7318 42.2358 63.8288 40.4637 65.7422 40.9344C66.9165 40.9688 66.8869 41.7015 66.4099 42.4812Z" fill="#2B54B5"/>
<path fill-rule="evenodd" clip-rule="evenodd" d="M61.445 66.8716C61.7843 67.4091 62.8443 68.0979 61.6468 67.9298C61.6174 67.5696 60.6187 67.3962 61.445 66.8716Z" fill="#2B54B5"/>
<path fill-rule="evenodd" clip-rule="evenodd" d="M71.4705 35.9716C70.4214 36.1115 71.6785 33.6094 71.7778 35.3034C71.7821 35.5242 71.5811 35.7488 71.4705 35.9716Z" fill="#2B54B5"/>
<path fill-rule="evenodd" clip-rule="evenodd" d="M73.6671 57.6573C72.9841 57.0144 73.7864 56.807 74.3092 56.3926C74.8852 57.1725 73.9055 57.2469 73.6671 57.6573Z" fill="#19326B"/>
<path fill-rule="evenodd" clip-rule="evenodd" d="M84.0633 42.6441C83.0557 42.8098 83.1943 41.7738 83.912 41.3972C84.0773 41.7723 84.0361 42.3824 84.0633 42.6441Z" fill="#19326B"/>
<path fill-rule="evenodd" clip-rule="evenodd" d="M72.1392 81.7306C71.897 81.4107 71.2425 82.7652 71.2359 81.4878C71.845 80.8011 72.0539 80.6979 72.1392 81.7306Z" fill="#2B54B5"/>
<path fill-rule="evenodd" clip-rule="evenodd" d="M74.5302 44.6494C74.7481 45.5268 74.8419 46.3653 73.7652 45.6364C74.0205 45.3073 74.2753 44.9783 74.5302 44.6494Z" fill="#BBB9FF"/>
<path fill-rule="evenodd" clip-rule="evenodd" d="M64.4786 46.3581C64.404 46.4326 64.2543 46.4752 64.1511 46.4477C63.1215 44.5729 64.9252 44.5219 64.4786 46.3581Z" fill="#2B54B5"/>
<path fill-rule="evenodd" clip-rule="evenodd" d="M75.0298 81.6865C76.0645 81.8321 75.8328 82.1098 75.2978 82.7705C75.2086 82.4092 75.1192 82.0479 75.0298 81.6865Z" fill="#BBB9FF"/>
<path fill-rule="evenodd" clip-rule="evenodd" d="M78.5011 33.9898C78.4978 33.2108 78.224 32.466 79.1853 32.8124C78.9572 33.1621 78.961 33.9632 78.5011 33.9898Z" fill="#BBB9FF"/>
<path fill-rule="evenodd" clip-rule="evenodd" d="M92.5547 42.0193C92.3136 42.0262 92.0726 42.033 91.8321 42.0399C92.0732 42.033 92.314 42.0262 92.5547 42.0193Z" fill="#19326B"/>
<path fill-rule="evenodd" clip-rule="evenodd" d="M61.7522 82.5899C61.5376 82.3508 61.7346 82.3145 61.9801 82.2285C62.0805 82.4549 61.9973 82.5359 61.7522 82.5899Z" fill="#19326B"/>
<path fill-rule="evenodd" clip-rule="evenodd" d="M70.2635 33.4478C70.0453 33.2164 69.827 32.9853 69.6098 32.7543C70.1516 32.659 70.4841 32.7738 70.2635 33.4478Z" fill="#2B54B5"/>
<path fill-rule="evenodd" clip-rule="evenodd" d="M66.5385 40.9701C66.8467 40.7823 67.2481 40.1783 67.4418 40.7038C67.1212 40.9884 66.8427 41.5363 66.5385 40.9701Z" fill="#2B54B5"/>
<path fill-rule="evenodd" clip-rule="evenodd" d="M66.5385 42.3956C66.5828 42.1229 66.6271 41.8502 66.671 41.5779C66.7672 42.061 67.2021 42.7179 66.5385 42.3956Z" fill="#19326B"/>
<path fill-rule="evenodd" clip-rule="evenodd" d="M65.4545 38.7946C65.5006 38.5007 65.9718 38.9023 66.1771 38.9133C66.1611 39.2696 65.6656 38.8113 65.4545 38.7946Z" fill="#19326B"/>
<path fill-rule="evenodd" clip-rule="evenodd" d="M84.0765 42.6619C83.9968 42.1055 84.2843 42.0125 84.786 41.9392C84.5495 42.1802 84.3129 42.4209 84.0765 42.6619Z" fill="#BBB9FF"/>
<path fill-rule="evenodd" clip-rule="evenodd" d="M73.4202 80.7821C73.4768 80.5405 73.2082 80.0827 73.7652 80.2962C73.6503 80.4172 73.5413 80.8033 73.4202 80.7821Z" fill="#2B54B5"/>
<path fill-rule="evenodd" clip-rule="evenodd" d="M77.7399 81.802C77.9809 81.7847 78.222 81.7675 78.4626 81.7507C78.2216 81.7683 77.9808 81.7851 77.7399 81.802Z" fill="#BBB9FF"/>
<path fill-rule="evenodd" clip-rule="evenodd" d="M61.4797 80.9634C61.3594 81.0236 61.2388 81.0837 61.1184 81.144C61.2284 81.0811 61.4097 81.0304 61.4797 80.9634Z" fill="#19326B"/>
<path fill-rule="evenodd" clip-rule="evenodd" d="M78.6433 81.382C78.8829 81.2422 79.1228 81.1024 79.3625 80.9634C79.4028 81.5779 79.0907 81.5949 78.6433 81.382Z" fill="#BBB9FF"/>
<path fill-rule="evenodd" clip-rule="evenodd" d="M60.9377 57.8381C61.0159 57.9961 61.0456 58.253 61.1184 58.3801C61.0583 58.1994 60.998 58.0189 60.9377 57.8381Z" fill="#19326B"/>
<path fill-rule="evenodd" clip-rule="evenodd" d="M64.9312 38.8896C65.1563 38.7846 65.0612 39.0834 65.0112 39.229C64.9846 39.1158 64.9577 39.0028 64.9312 38.8896Z" fill="#19326B"/>
<path fill-rule="evenodd" clip-rule="evenodd" d="M76.6559 84.5377C76.7706 84.4904 76.8853 84.4431 77.0001 84.3965C77.0859 84.629 76.8308 84.5891 76.6559 84.5377Z" fill="#19326B"/>
<path fill-rule="evenodd" clip-rule="evenodd" d="M73.4931 55.9911L73.4504 55.8918C73.5621 55.8944 73.557 55.9076 73.4931 55.9911Z" fill="#19326B"/>
<path fill-rule="evenodd" clip-rule="evenodd" d="M69.25 49.166C69.1893 49.0454 69.1286 48.9251 69.0678 48.8047C69.3669 48.9107 69.6085 48.9341 69.25 49.166Z" fill="#19326B"/>
<path fill-rule="evenodd" clip-rule="evenodd" d="M70.6939 49.2793C70.5732 49.2643 70.453 49.2493 70.3325 49.2334C70.4531 49.248 70.5734 49.2638 70.6939 49.2793Z" fill="#19326B"/>
<path fill-rule="evenodd" clip-rule="evenodd" d="M117.306 190.724C117.248 191.004 117.172 191.068 116.945 190.894C117.006 190.619 117.081 190.551 117.306 190.724Z" fill="#BBB9FF"/>
<path fill-rule="evenodd" clip-rule="evenodd" d="M169.831 166.962C168.783 165.739 168.613 165.468 169.814 164.613C170.94 165.465 170.785 165.759 169.831 166.962Z" fill="#BBB9FF"/>
<path fill-rule="evenodd" clip-rule="evenodd" d="M165.961 17.3682C164.87 15.9949 167.89 16.4666 168.526 16.1035C169.121 17.0063 166.597 17.0053 165.961 17.3682Z" fill="#2B54B5"/>
<path fill-rule="evenodd" clip-rule="evenodd" d="M150.369 17.8987C149.372 18.4789 149.046 18.7168 148.201 18.0465C149.03 17.3413 149.256 17.0259 150.369 17.8987Z" fill="#2B54B5"/>
<path fill-rule="evenodd" clip-rule="evenodd" d="M167.893 20.4397C167.948 19.9383 168.808 18.1922 169.339 18.7373C169.093 19.469 168.975 20.2901 167.893 20.4397Z" fill="#2B54B5"/>
<path fill-rule="evenodd" clip-rule="evenodd" d="M165.364 17.0068C165.002 16.9735 164.641 16.9401 164.28 16.9067C164.716 16.191 164.925 16.433 165.364 17.0068Z" fill="#2B54B5"/>
<path fill-rule="evenodd" clip-rule="evenodd" d="M110.187 155.623C110.218 155.706 110.234 155.733 110.13 155.708L110.187 155.623Z" fill="#BBB9FF"/>
<path fill-rule="evenodd" clip-rule="evenodd" d="M97.3355 174.327L97.3084 174.231C97.4131 174.233 97.377 174.262 97.3355 174.327Z" fill="#BBB9FF"/>
<path fill-rule="evenodd" clip-rule="evenodd" d="M158.995 98.4886C158.57 98.2889 158.633 98.023 158.842 97.7618C161.355 95.7667 161.617 97.5849 158.995 98.4886Z" fill="#BBB9FF"/>
<path fill-rule="evenodd" clip-rule="evenodd" d="M79.7161 172.314C74.3285 173.44 76.5344 160.16 82.6007 162.554L82.5802 162.534C84.0795 164.524 85.4603 167.772 83.9547 169.962C82.173 170.302 80.6309 170.57 79.7161 172.314Z" fill="#19326B"/>
<path fill-rule="evenodd" clip-rule="evenodd" d="M80.0886 172.201C80.7928 170.419 82.5183 170.462 84.0633 170.033C83.5664 171.24 81.5007 172.104 80.0886 172.201Z" fill="#2B54B5"/>
<path fill-rule="evenodd" clip-rule="evenodd" d="M82.987 190.087C83.7727 190.931 83.6936 191.141 82.7386 191.533C82.1687 191.125 82.496 190.608 82.987 190.087Z" fill="#2B54B5"/>
<path fill-rule="evenodd" clip-rule="evenodd" d="M82.6784 162.626C82.3737 161.933 83.2922 160.71 83.8518 161.788C84.0644 162.743 83.1242 162.5 82.6784 162.626Z" fill="#2B54B5"/>
<path fill-rule="evenodd" clip-rule="evenodd" d="M84.0633 169.853C84.1332 169.746 84.2539 169.686 84.4246 169.672C84.3037 169.732 84.1835 169.792 84.0633 169.853Z" fill="#2B54B5"/>
<path fill-rule="evenodd" clip-rule="evenodd" d="M86.9883 109.569C90.2679 111.677 98.7932 116.083 97.2471 120.357C94.6991 124.439 92.2356 115.686 89.2125 114.432C86.58 112.157 79.6154 109.037 86.9883 109.569Z" fill="#0A1328"/>
<path fill-rule="evenodd" clip-rule="evenodd" d="M92.7832 118.148C100.449 127.561 86.8238 121.734 82.9948 118.037C82.5874 115.468 90.3238 119.083 92.7832 118.148Z" fill="#19326B"/>
<path fill-rule="evenodd" clip-rule="evenodd" d="M97.7941 118.723C97.892 118.104 97.9304 117.958 98.6975 118.01L97.7941 118.723Z" fill="#19326B"/>
<path fill-rule="evenodd" clip-rule="evenodd" d="M40.1817 173.383C40.7408 171.622 40.8451 169.538 41.3355 167.774C43.1405 161.978 51.4068 166.965 51.1676 171.535C51.6494 178.107 39.5942 182.406 40.1817 173.383Z" fill="#19326B"/>
<path fill-rule="evenodd" clip-rule="evenodd" d="M23.4802 119.763C24.28 124.071 16.6593 131.916 15.536 125.046C12.0811 121.916 15.6463 117.915 14.0124 114.72C16.6827 109.516 24.2841 114.833 23.4802 119.763Z" fill="#19326B"/>
<path fill-rule="evenodd" clip-rule="evenodd" d="M81.5339 116.507C82.0218 116.148 82.4829 115.961 82.7986 116.714C82.059 117.508 81.9213 117.485 81.5339 116.507Z" fill="#19326B"/>
<path fill-rule="evenodd" clip-rule="evenodd" d="M51.9043 137.858C51.811 142.665 44.7417 143.547 42.5108 139.298C41.6426 138.322 39.9457 131.796 42.1453 134.496C42.5362 135.833 42.55 137.564 44.0011 138.263C45.0026 136.381 42.3057 131.571 45.7828 131.736C49.4469 131.974 51.7206 134.213 51.9043 137.858Z" fill="#19326B"/>
<path fill-rule="evenodd" clip-rule="evenodd" d="M40.3403 93.4716C39.4692 101.767 27.0603 100.45 29.9317 91.7035C31.7935 87.0801 40.4603 87.9916 40.3403 93.4716Z" fill="#19326B"/>
<path fill-rule="evenodd" clip-rule="evenodd" d="M66.2874 104.812C66.8853 104.964 68.0106 104.985 68.1818 105.681C67.9717 108.648 71.6381 109.697 73.2232 111.763C68.352 120.248 57.8366 111.62 66.2874 104.812Z" fill="#19326B"/>
<path fill-rule="evenodd" clip-rule="evenodd" d="M67.6211 94.9317C67.2377 94.2466 66.9082 92.8153 66.4126 94.0835C66.7279 94.4922 67.1175 95.6797 67.6211 94.9317ZM66.8773 98.1582C67.0102 97.7342 66.9171 97.7026 66.5121 97.8314C66.3922 98.338 66.3796 98.4646 66.8773 98.1582ZM63.8285 97.2557C64.3635 97.2627 65.3261 97.5867 65.3837 96.8174C64.3807 95.8017 65.5012 93.9682 63.9717 93.1481C63.9651 93.1446 64.1466 92.5652 64.3517 92.4504C67.2919 90.6414 68.4468 94.5255 68.3679 96.8148C69.5108 97.8729 68.506 98.0111 67.8418 98.3804C67.4766 98.5294 67.1803 99.1818 66.7437 99.0609C65.3195 97.7092 65.0313 102.038 63.8285 97.2557Z" fill="#19326B"/>
<path fill-rule="evenodd" clip-rule="evenodd" d="M63.8456 97.2239C62.7022 97.0927 62.8666 96.1787 63.0724 95.4172C63.9555 95.7676 64.6256 96.2038 63.8456 97.2239Z" fill="#0A1328"/>
<path fill-rule="evenodd" clip-rule="evenodd" d="M64.6414 99.5862C65.2638 99.5066 65.1186 99.779 64.9353 100.287C64.2147 100.335 64.2617 100.181 64.6414 99.5862Z" fill="#2B54B5"/>
<path fill-rule="evenodd" clip-rule="evenodd" d="M63.4671 93.791C63.3281 94.1524 63.1891 94.5137 63.0503 94.875C62.6405 94.2234 62.5224 93.9323 63.4671 93.791Z" fill="#2B54B5"/>
<path fill-rule="evenodd" clip-rule="evenodd" d="M64.9125 100.302C65.4436 97.877 70.9884 104.342 66.7766 103.239C66.0817 102.307 66.105 100.916 64.9125 100.302Z" fill="#BBB9FF"/>
<path fill-rule="evenodd" clip-rule="evenodd" d="M70.5132 92.3293C70.567 89.0548 73.2838 92.0566 73.1422 90.1129C73.0242 88.9723 74.8193 89.1293 75.2106 89.7892C74.3165 90.5397 75.1331 91.6962 74.572 92.4972C73.4068 92.8106 71.6552 93.2656 70.5132 92.3293Z" fill="#19326B"/>
<path fill-rule="evenodd" clip-rule="evenodd" d="M76.6178 98.3063C74.236 98.3735 73.6086 96.3221 75.144 95.4172C76.3008 96.206 78.1462 96.8067 76.6178 98.3063Z" fill="#BBB9FF"/>
<path fill-rule="evenodd" clip-rule="evenodd" d="M99.7815 104.812C101.903 105.185 101.681 106.099 101.436 107.693C100.469 107.858 100.454 105.796 99.7815 104.812Z" fill="#BBB9FF"/>
<path fill-rule="evenodd" clip-rule="evenodd" d="M74.8375 89.3524C72.5519 90.0347 73.8401 87.0693 75.1761 87.751C76.0026 88.3206 75.3586 88.8778 74.8375 89.3524Z" fill="#BBB9FF"/>
<path fill-rule="evenodd" clip-rule="evenodd" d="M70.3325 90.2845C69.7404 90.427 69.6066 91.1922 69.2389 91.6231C67.8067 90.3237 68.7173 89.5431 70.3325 90.2845Z" fill="#19326B"/>
<path fill-rule="evenodd" clip-rule="evenodd" d="M69.5451 87.3306C70.2009 87.3011 70.6809 87.4851 71.0552 88.0161C70.0486 89.2183 66.5195 86.9505 69.5451 87.3306Z" fill="#BBB9FF"/>
<path fill-rule="evenodd" clip-rule="evenodd" d="M73.2232 89.4871C72.9763 90.6023 72.8804 91.4535 71.8842 90.4636C70.9757 89.4099 72.4456 89.4033 73.2232 89.4871Z" fill="#BBB9FF"/>
<path fill-rule="evenodd" clip-rule="evenodd" d="M68.3192 87.2506C68.4403 88.5289 68.1664 89.1891 66.8998 88.3733C67.2195 87.7942 67.7217 86.2604 68.3192 87.2506Z" fill="#19326B"/>
<path fill-rule="evenodd" clip-rule="evenodd" d="M72.947 103.366C73.1692 104.011 73.6584 104.534 73.2402 105.173C72.1679 104.565 71.9838 104.311 72.947 103.366Z" fill="#BBB9FF"/>
<path fill-rule="evenodd" clip-rule="evenodd" d="M79.264 48.0376C79.9751 47.4308 81.0909 48.2588 81.1246 47.2175C82.2499 47.1844 81.7339 45.8971 82.361 45.1914C85.2091 47.3142 83.3193 46.8386 83.9741 49.01C85.3395 49.6077 85.1296 48.4746 84.9966 47.6039C85.3315 47.7099 85.6838 47.9413 85.997 47.8968C88.388 47.0945 86.6033 49.0826 88.2187 49.0981C88.0076 49.5833 87.6838 50.2101 87.6648 50.7455C87.65 51.5326 86.0932 51.9391 87.1583 52.9319C86.8942 53.6108 84.8616 54.33 85.3546 53.4693C87.6691 52.9049 83.8078 50.9488 86.2233 50.9186C86.5518 49.7777 85.1467 49.3791 84.3229 50.6006C83.0382 49.0605 80.9629 51.8508 80.8825 50.014C82.0985 47.9184 78.6272 50.4194 79.264 48.0376Z" fill="#BBB9FF"/>
<path fill-rule="evenodd" clip-rule="evenodd" d="M70.7515 57.491C72.619 59.0185 70.8783 61.6091 70.4138 63.2188C69.4673 63.2699 69.2402 63.8696 69.32 64.7034C67.7994 64.5986 67.476 62.9494 66.3578 62.3258C68.5398 61.1075 69.6637 57.7837 68.5943 55.8948C71.1222 51.8288 68.8422 58.6403 70.7515 57.491Z" fill="#0A1328"/>
<path fill-rule="evenodd" clip-rule="evenodd" d="M69.8923 81.3552C67.4043 82.8908 65.1887 78.6656 67.5328 77.2954C68.9916 77.6738 68.2176 73.6512 69.6734 75.8364C72.2075 76.2083 68.0294 79.2062 69.7809 79.7653C70.9257 80.2583 69.7378 80.8429 69.8923 81.3552Z" fill="#BBB9FF"/>
<path fill-rule="evenodd" clip-rule="evenodd" d="M70.0096 75.7667C69.9087 75.7753 69.5932 75.7551 69.6356 75.7831C68.0063 74.0461 68.9771 77.6233 67.4319 77.3335C66.2031 76.2764 65.6759 75.531 66.7805 74.1396C67.8886 75.3358 67.5977 73.5535 68.1286 73.5204C68.34 72.649 69.7565 72.6295 69.5945 71.4942C69.8701 71.4902 70.2122 71.5851 70.4059 71.4585C71.3542 68.688 73.1469 70.8077 71.8852 72.6157C69.6565 72.6578 70.3471 74.1631 70.0096 75.7667Z" fill="#0A1328"/>
<path fill-rule="evenodd" clip-rule="evenodd" d="M79.2059 48.0818C78.9275 49.7901 80.0193 48.9615 81.2783 49.1963C80.3245 50.267 81.452 52.2205 82.2842 53.0379C83.7133 53.2109 83.0818 53.7586 82.5642 54.3066C80.9544 55.4028 80.7337 52.9005 79.2254 53.1542C78.9959 52.3242 79.9108 51.5007 79.2872 50.7361C77.8228 49.4899 76.3087 48.3658 79.2059 48.0818Z" fill="#19326B"/>
<path fill-rule="evenodd" clip-rule="evenodd" d="M76.3366 63.184C74.1263 61.9224 78.958 61.036 78.1732 62.8139C79.796 63.7073 77.596 66.2765 79.5466 66.4852C79.0168 68.6897 76.4735 65.4473 76.881 64.1047C76.9166 63.8259 76.5288 63.4922 76.3366 63.184Z" fill="#BBB9FF"/>
<path fill-rule="evenodd" clip-rule="evenodd" d="M78.8239 72.4039C76.528 72.8269 75.3768 71.2507 76.1973 68.6782C78.3735 69.2052 77.6743 70.7518 78.8239 72.4039Z" fill="#2B54B5"/>
<path fill-rule="evenodd" clip-rule="evenodd" d="M79.6974 67.5415C80.8147 67.8247 81.8795 67.7319 82.9793 67.4136C82.0264 68.0035 82.7698 70.8129 81.3343 69.0067C79.3236 70.2789 77.7849 70.043 79.6974 67.5415Z" fill="#2B54B5"/>
<path fill-rule="evenodd" clip-rule="evenodd" d="M76.3492 63.2581C77.1787 64.6727 76.9824 66.2601 78.4626 67.2623C77.5461 68.5199 77.4882 68.448 77.1229 66.8641C76.0614 65.6894 75.7702 65.6209 75.3601 67.379C74.7398 65.6073 76.2433 64.5978 76.3492 63.2581Z" fill="#2B54B5"/>
<path fill-rule="evenodd" clip-rule="evenodd" d="M78.9834 63.6195C77.449 62.4309 79.776 61.3349 79.9557 59.9599C79.8992 58.9565 79.8811 58.9574 80.8551 59.3376C80.8548 59.3372 80.8213 59.3068 80.8213 59.3068C82.4521 61.5143 80.9089 60.5298 79.9142 61.9127C80.2379 62.8704 79.473 63.1579 78.9834 63.6195Z" fill="#2B54B5"/>
<path fill-rule="evenodd" clip-rule="evenodd" d="M80.8113 58.0008C85.3 56.9067 85.253 61.7562 84.1967 59.9669C83.1914 58.8241 80.5512 59.7801 80.8848 58.9947C81.7818 58.6352 81.0304 58.2161 80.8113 58.0008Z" fill="#2B54B5"/>
<path fill-rule="evenodd" clip-rule="evenodd" d="M79.5466 60.6225C79.0824 61.32 78.6184 62.0177 78.1542 62.7161C78.7 61.3067 74.8359 61.9521 77.3111 59.4641C78.3204 59.9308 78.3226 61.2467 79.5466 60.6225Z" fill="#19326B"/>
<path fill-rule="evenodd" clip-rule="evenodd" d="M70.1561 74.9071C70.1188 72.6841 70.2898 72.9411 72.1392 72.2915C71.7392 76.0785 72.8396 75.5541 70.1561 74.9071Z" fill="#BBB9FF"/>
<path fill-rule="evenodd" clip-rule="evenodd" d="M81.789 52.2374C80.347 50.464 82.8112 49.425 84.4246 50.5146C83.5658 51.1181 82.7513 51.7823 81.789 52.2374Z" fill="#2B54B5"/>
<path fill-rule="evenodd" clip-rule="evenodd" d="M73.5154 67.5265C74.9233 69.1168 73.5884 71.5005 72.6151 68.5224C72.198 67.7994 71.679 67.9248 71.1404 68.3744C70.7251 65.688 71.8766 66.8619 73.5154 67.5265Z" fill="#2B54B5"/>
<path fill-rule="evenodd" clip-rule="evenodd" d="M70.3325 63.2618C70.7577 62.5952 71.3629 59.0804 72.2975 61.2431C71.6487 61.8397 72.2269 62.0833 72.656 62.3697C72.8956 63.6313 71.3718 64.3619 70.3325 63.2618Z" fill="#19326B"/>
<path fill-rule="evenodd" clip-rule="evenodd" d="M73.4293 67.5941C70.4321 66.8099 72.4017 66.2219 72.5458 64.1614C74.7695 64.2152 73.7596 66.2036 73.4293 67.5941Z" fill="#19326B"/>
<path fill-rule="evenodd" clip-rule="evenodd" d="M69.8744 81.422C69.7239 80.9078 70.8811 80.3211 69.7663 79.8267C67.9013 75.1988 74.6002 82.3456 69.8744 81.422Z" fill="#19326B"/>
<path fill-rule="evenodd" clip-rule="evenodd" d="M76.7463 55.9625C76.2575 54.2846 77.8404 52.9694 79.366 54.1126C78.5187 54.8982 78.1705 56.9126 76.7463 55.9625Z" fill="#19326B"/>
<path fill-rule="evenodd" clip-rule="evenodd" d="M81.8373 63.4353C81.3814 62.422 82.3245 61.3807 82.5755 60.3674C82.8469 61.693 84.5224 63.5296 81.8373 63.4353Z" fill="#BBB9FF"/>
<path fill-rule="evenodd" clip-rule="evenodd" d="M77.4559 59.5421C75.4295 61.7351 75.8394 55.317 77.7399 57.624C77.3805 58.8689 76.3751 58.1616 77.4559 59.5421Z" fill="#BBB9FF"/>
<path fill-rule="evenodd" clip-rule="evenodd" d="M74.9462 75.7242C74.5739 75.3937 74.5791 74.773 74.3214 74.3687C74.1135 74.0382 73.2283 73.8872 74.2427 73.4075C76.1089 71.9548 76.1254 74.9357 74.9462 75.7242Z" fill="#2B54B5"/>
<path fill-rule="evenodd" clip-rule="evenodd" d="M77.4252 67.6599C77.9353 68.9786 77.5378 67.5907 78.5381 67.5942C82.1268 67.7883 74.7783 71.5179 77.4252 67.6599Z" fill="#BBB9FF"/>
<path fill-rule="evenodd" clip-rule="evenodd" d="M76.6559 77.4746C76.0181 78.2515 75.7415 79.9898 74.9252 80.0604C74.5809 79.1571 75.4501 75.7357 76.6559 77.4746Z" fill="#2B54B5"/>
<path fill-rule="evenodd" clip-rule="evenodd" d="M72.3367 61.1865C72.0353 57.8584 75.9073 61.6355 73.0994 61.9935C73.9058 60.7179 72.5293 61.5141 72.3367 61.1865Z" fill="#2B54B5"/>
<path fill-rule="evenodd" clip-rule="evenodd" d="M88.7372 43.3399C88.9244 44.4391 87.9435 47.1566 87.496 45.2579C87.7469 44.7156 87.8898 42.661 88.7372 43.3399Z" fill="#BBB9FF"/>
<path fill-rule="evenodd" clip-rule="evenodd" d="M70.0609 74.9123C70.9314 74.5598 71.2571 75.3171 71.7778 75.6769C71.6558 77.6368 69.512 76.1547 70.0609 74.9123Z" fill="#19326B"/>
<path fill-rule="evenodd" clip-rule="evenodd" d="M76.9892 80.2001C74.3405 81.2843 77.3652 77.9671 78.5605 79.2955C79.0018 80.3755 77.5619 79.776 76.9892 80.2001Z" fill="#19326B"/>
<path fill-rule="evenodd" clip-rule="evenodd" d="M73.4265 69.9429C74.3433 69.9452 74.928 72.2251 73.1847 71.3817C71.7498 72.1174 72.2908 70.2626 73.4265 69.9429Z" fill="#BBB9FF"/>
<path fill-rule="evenodd" clip-rule="evenodd" d="M82.4599 55.3564C82.9376 55.9713 82.7675 56.7365 82.7757 57.4766C82.3856 56.6513 80.7939 55.0078 82.4599 55.3564Z" fill="#2B54B5"/>
<path fill-rule="evenodd" clip-rule="evenodd" d="M73.4048 64.1481C72.1686 64.2974 72.4493 63.1557 72.7979 62.3547C73.9591 62.5319 73.9591 62.5319 73.4048 64.1481Z" fill="#BBB9FF"/>
<path fill-rule="evenodd" clip-rule="evenodd" d="M79.629 66.3294C78.3256 66.3066 78.9989 65.0357 78.9897 64.1614C79.6995 64.7238 79.8595 65.4637 79.629 66.3294Z" fill="#19326B"/>
<path fill-rule="evenodd" clip-rule="evenodd" d="M82.9647 67.5177C81.8021 67.6919 80.7284 68.2433 81.7846 66.8716C82.1803 67.0832 83.1061 66.4572 82.9647 67.5177Z" fill="#BBB9FF"/>
<path fill-rule="evenodd" clip-rule="evenodd" d="M92.9161 54.7402C92.4568 55.1591 92.0077 55.9273 91.6514 55.1675C92.1303 54.6071 92.4006 53.6116 92.9161 54.7402Z" fill="#BBB9FF"/>
<path fill-rule="evenodd" clip-rule="evenodd" d="M82.5368 55.4469C81.5629 55.6685 81.2483 54.9908 80.8113 54.2249C81.8142 55.0267 82.931 53.742 82.5368 55.4469Z" fill="#BBB9FF"/>
<path fill-rule="evenodd" clip-rule="evenodd" d="M101.934 39.2293C101.166 38.4028 101.287 38.2157 101.978 37.6033C102.455 38.2309 102.401 38.4871 101.934 39.2293Z" fill="#BBB9FF"/>
<path fill-rule="evenodd" clip-rule="evenodd" d="M72.2262 61.0901C72.4155 61.4175 73.7691 60.6216 72.9763 61.8964C72.5914 62.6211 71.4425 61.7759 72.2262 61.0901Z" fill="#BBB9FF"/>
<path fill-rule="evenodd" clip-rule="evenodd" d="M89.122 56.4472C88.3075 56.7872 88.2451 56.9152 87.6767 56.4605C88.2245 55.8404 88.282 55.9428 89.122 56.4472Z" fill="#BBB9FF"/>
<path fill-rule="evenodd" clip-rule="evenodd" d="M88.2187 48.9854C88.2561 48.4559 88.5242 48.4202 88.9414 48.4515C88.8066 48.817 88.5041 48.9255 88.2187 48.9854Z" fill="#BBB9FF"/>
<path fill-rule="evenodd" clip-rule="evenodd" d="M102.037 39.9519C101.771 39.9084 101.673 39.7496 101.881 39.5913C102.156 39.5776 102.197 39.7596 102.037 39.9519Z" fill="#BBB9FF"/>
<path fill-rule="evenodd" clip-rule="evenodd" d="M84.835 46.8171C84.6504 46.4707 85.0252 46.7141 85.328 46.7975C85.1636 46.8038 84.9993 46.8105 84.835 46.8171Z" fill="#BBB9FF"/>
<path fill-rule="evenodd" clip-rule="evenodd" d="M74.8492 68.0765C74.8014 68.235 74.7354 68.4502 74.6685 68.2082C74.7113 68.0105 74.7471 67.8268 74.8492 68.0765Z" fill="#2B54B5"/>
<path fill-rule="evenodd" clip-rule="evenodd" d="M76.295 68.6317C76.2518 68.6781 76.1794 68.6922 76.1143 68.666C76.1337 68.4505 76.1527 68.4447 76.295 68.6317Z" fill="#BBB9FF"/>
<path fill-rule="evenodd" clip-rule="evenodd" d="M78.8391 72.41C78.8894 72.3913 78.9398 72.3725 78.9901 72.3538C78.9391 72.3701 78.8667 72.3567 78.8391 72.41Z" fill="#2B54B5"/>
<path fill-rule="evenodd" clip-rule="evenodd" d="M80.8121 57.8376C80.7516 57.7774 80.691 57.7174 80.6306 57.6572C80.6927 57.7053 80.7397 57.853 80.8121 57.8376Z" fill="#2B54B5"/>
<path fill-rule="evenodd" clip-rule="evenodd" d="M68.7538 66.2056C68.6838 66.3083 68.6735 66.3272 68.8071 66.3254L68.7538 66.2056ZM67.721 68.3935C66.3924 68.6421 67.7418 69.5372 67.8658 70.3041C65.1964 70.1179 65.3701 67.902 65.2738 65.74C67.2027 65.8116 70.8599 64.6639 69.4909 68.0174C68.6944 67.1279 68.1658 67.5549 67.721 68.3935Z" fill="#2B54B5"/>
<path fill-rule="evenodd" clip-rule="evenodd" d="M68.1645 73.4206C67.643 73.4537 67.9288 75.2261 66.8403 74.0366C66.1174 76.0714 65.1818 76.093 65.2811 73.8113C66.2404 72.8127 66.9771 71.9926 68.1645 73.4206Z" fill="#2B54B5"/>
<path fill-rule="evenodd" clip-rule="evenodd" d="M67.6225 68.4366C68.0832 67.6246 68.6307 67.211 69.4558 68.072C72.9624 71.152 69.9442 70.331 67.6225 68.4366Z" fill="#19326B"/>
<path fill-rule="evenodd" clip-rule="evenodd" d="M65.6351 77.3139C64.8047 78.9111 63.9503 77.5214 63.1057 77.333C63.622 76.1228 64.7898 76.7114 65.6351 77.3139Z" fill="#0A1328"/>
<path fill-rule="evenodd" clip-rule="evenodd" d="M62.562 70.4849C61.6368 69.8342 62.7767 69.7591 62.8814 69.3958C64.4607 67.7784 64.8967 70.3148 62.562 70.4849Z" fill="#19326B"/>
<path fill-rule="evenodd" clip-rule="evenodd" d="M63.8215 65.7876C62.1379 63.7899 64.9352 63.9666 65.2738 65.6822C64.8695 65.6883 64.2873 65.7603 63.8215 65.7876Z" fill="#19326B"/>
<path fill-rule="evenodd" clip-rule="evenodd" d="M66.7191 72.4763C66.1896 72.9567 65.6601 73.4371 65.1306 73.9175C64.9688 72.3351 65.3 72.0347 66.7191 72.4763Z" fill="#0A1328"/>
<path fill-rule="evenodd" clip-rule="evenodd" d="M65.6351 77.1697C64.9323 76.9248 64.4645 75.6864 65.5822 75.7253C65.5996 76.2075 65.6174 76.6887 65.6351 77.1697Z" fill="#2B54B5"/>
<path fill-rule="evenodd" clip-rule="evenodd" d="M65.2248 73.9177C65.4363 75.1121 64.9617 75.148 63.8285 74.8347C64.2643 74.4883 64.7076 74.1566 65.2248 73.9177Z" fill="#0A1328"/>
<path fill-rule="evenodd" clip-rule="evenodd" d="M64.1898 76.6275C63.5764 76.6193 63.6074 76.3566 63.6963 75.9048C63.8608 76.1456 64.0254 76.3866 64.1898 76.6275Z" fill="#19326B"/>
<path fill-rule="evenodd" clip-rule="evenodd" d="M82.2567 33.9112C83.9576 32.8156 84.2651 35.3169 85.6253 34.4579C90.138 33.4631 83.1827 37.9216 82.2567 33.9112Z" fill="#19326B"/>
<path fill-rule="evenodd" clip-rule="evenodd" d="M76.0334 49.876C77.0262 49.3578 78.1763 50.1152 78.2819 51.101C77.2261 51.1813 77.8273 52.0049 77.6722 52.4907C77.6309 52.6198 77.4012 52.6849 77.258 52.7794C76.8494 51.244 74.6256 52.1475 76.0334 49.876Z" fill="#0A1328"/>
<path fill-rule="evenodd" clip-rule="evenodd" d="M72.7033 48.6784C72.6111 48.1118 72.0785 47.4013 73.2321 47.2714C74.5303 44.3426 74.4667 50.3763 72.7033 48.6784Z" fill="#19326B"/>
<path fill-rule="evenodd" clip-rule="evenodd" d="M75.9332 49.9911C75.8807 50.9887 74.6326 52.1705 74.6693 50.488C74.8872 49.6723 75.425 49.8929 75.9332 49.9911Z" fill="#2B54B5"/>
<path fill-rule="evenodd" clip-rule="evenodd" d="M72.8259 48.624C73.2473 48.9079 72.974 49.0801 72.6812 49.3467C72.7295 49.1059 72.7778 48.8649 72.8259 48.624Z" fill="#0A1328"/>
<path fill-rule="evenodd" clip-rule="evenodd" d="M76.883 53.2227L76.9712 53.1887C76.9539 53.2817 76.9545 53.3062 76.883 53.2227Z" fill="#0A1328"/>
<path fill-rule="evenodd" clip-rule="evenodd" d="M65.0842 56.2122C61.8498 53.0674 70.8827 54.3916 66.9917 55.2314C65.9128 54.7603 65.5202 55.4925 65.0842 56.2122Z" fill="#2B54B5"/>
<path fill-rule="evenodd" clip-rule="evenodd" d="M65.0653 53.8336C64.4878 56.2789 62.8599 54.0925 64.106 53.0075C65.0888 52.5949 64.7448 51.8024 64.911 51.1533C65.6628 52.0047 66.0034 52.8808 65.0653 53.8336Z" fill="#BBB9FF"/>
<path fill-rule="evenodd" clip-rule="evenodd" d="M62.5638 53.3709C62.0487 54.4622 61.5494 52.3772 61.4798 51.876C61.9742 52.2723 62.3568 52.7464 62.5638 53.3709Z" fill="#2B54B5"/>
<path fill-rule="evenodd" clip-rule="evenodd" d="M61.0729 58.3801C60.5856 57.5508 61.5364 57.9451 62.0218 57.8557C61.7059 58.0308 61.3893 58.2055 61.0729 58.3801Z" fill="#0A1328"/>
<path fill-rule="evenodd" clip-rule="evenodd" d="M62.2864 56.0713L62.3426 56.1713C62.2252 56.1766 62.2192 56.1688 62.2864 56.0713Z" fill="#BBB9FF"/>
<path fill-rule="evenodd" clip-rule="evenodd" d="M67.2331 92.8878C66.3465 92.2238 65.0168 91.0493 65.317 89.9971C66.5567 90.581 67.4313 91.3956 67.2331 92.8878Z" fill="#0A1328"/>
<path fill-rule="evenodd" clip-rule="evenodd" d="M69.6098 86.2705C69.3793 86.3755 69.0765 86.4838 69.0678 86.2148C69.3468 86.0122 69.5037 85.8873 69.6098 86.2705Z" fill="#BBB9FF"/>
<path fill-rule="evenodd" clip-rule="evenodd" d="M79.4346 45.5717C80.6511 45.4629 80.443 45.8153 80.4264 46.8162C79.6269 46.8396 79.1877 46.5262 79.4346 45.5717Z" fill="#BBB9FF"/>
<path fill-rule="evenodd" clip-rule="evenodd" d="M81.1726 47.1407C81.0772 47.5328 81.0202 47.9951 80.4517 47.5171C80.4268 46.8658 80.6677 46.525 81.1726 47.1407Z" fill="#2B54B5"/>
<path fill-rule="evenodd" clip-rule="evenodd" d="M74.1932 47.1787C73.9569 46.648 74.4044 46.811 74.6685 46.9843C74.5101 47.0491 74.3518 47.1139 74.1932 47.1787Z" fill="#BBB9FF"/>
<path fill-rule="evenodd" clip-rule="evenodd" d="M74.1537 48.2627C74.0252 47.702 74.3784 47.9231 74.6685 48.0739C74.4967 48.1369 74.3252 48.1997 74.1537 48.2627Z" fill="#BBB9FF"/>
<path fill-rule="evenodd" clip-rule="evenodd" d="M65.0931 56.1272C65.5887 54.6969 68.2228 54.5158 68.6781 55.8657C67.1291 55.883 68.3431 56.8283 68.6685 57.6162C69.3822 58.658 68.1905 62.0133 67.363 60.847C68.2863 55.9817 66.5578 58.5146 65.0931 56.1272Z" fill="#19326B"/>
<path fill-rule="evenodd" clip-rule="evenodd" d="M65.041 63.9065C66.0864 64.0397 65.548 63.0114 66.3392 62.3547C67.2314 63.5541 69.2226 64.3537 69.4292 65.6338C67.7756 65.3959 64.1908 66.85 65.041 63.9065Z" fill="#BBB9FF"/>
<path fill-rule="evenodd" clip-rule="evenodd" d="M65.4279 57.1249C67.7799 56.9504 67.5805 59.2416 67.2311 60.8378C66.2226 61.2851 65.6394 59.5153 65.7401 58.9557C66.3098 57.8795 64.8048 57.8894 65.4279 57.1249Z" fill="#BBB9FF"/>
<path fill-rule="evenodd" clip-rule="evenodd" d="M65.146 57.4768C66.1653 58.2755 65.3558 59.6399 66.3578 60.9095C65.2201 59.9874 63.692 58.8382 65.146 57.4768Z" fill="#19326B"/>
<path fill-rule="evenodd" clip-rule="evenodd" d="M65.6351 61.6321C65.236 61.5429 65.1604 61.461 65.4439 61.0901C65.5075 61.2708 65.5712 61.4514 65.6351 61.6321Z" fill="#BBB9FF"/>
<path fill-rule="evenodd" clip-rule="evenodd" d="M68.5279 55.8509C68.0121 55.1123 67.4696 53.1306 68.9077 53.3364C69.5724 54.3148 69.1669 54.9943 68.5279 55.8509Z" fill="#BBB9FF"/>
<path fill-rule="evenodd" clip-rule="evenodd" d="M71.9585 43.4317C71.6042 43.4601 71.0313 43.3633 70.9333 43.5387C68.186 45.565 71.1518 38.7622 71.9585 43.4317Z" fill="#19326B"/>
<path fill-rule="evenodd" clip-rule="evenodd" d="M72.6812 40.9552C72.5348 41.3036 72.3893 41.31 72.3199 40.9364C72.4197 40.5653 72.5652 40.6041 72.6812 40.9552Z" fill="#BBB9FF"/>
<path fill-rule="evenodd" clip-rule="evenodd" d="M72.1392 39.7712C72.1997 39.6509 72.2599 39.5303 72.3199 39.4099C72.2593 39.5305 72.1994 39.6509 72.1392 39.7712Z" fill="#BBB9FF"/>
<path fill-rule="evenodd" clip-rule="evenodd" d="M69.4864 37.4226C69.9367 37.5089 69.8434 37.5654 69.4895 37.7839C69.4534 37.6547 69.3756 37.5347 69.4864 37.4226Z" fill="#2B54B5"/>
<path fill-rule="evenodd" clip-rule="evenodd" d="M70.6938 37.4652C70.8145 37.3907 70.9347 37.3164 71.0552 37.2419C70.9301 37.4433 70.8923 37.8013 70.6938 37.4652Z" fill="#2B54B5"/>
<path fill-rule="evenodd" clip-rule="evenodd" d="M71.9594 37.4866C71.9012 37.565 71.8442 37.5477 71.7779 37.4904C71.8381 37.4891 71.8988 37.4878 71.9594 37.4866Z" fill="#0A1328"/>
<path fill-rule="evenodd" clip-rule="evenodd" d="M70.6939 37.5564C70.6336 37.6322 70.5733 37.7081 70.5132 37.7839C70.5646 37.5756 70.5385 37.2309 70.6939 37.5564Z" fill="#2B54B5"/>
<path fill-rule="evenodd" clip-rule="evenodd" d="M79.8158 44.8309C79.6606 44.7962 79.7457 44.7301 79.8227 44.6494C79.937 44.7224 79.9356 44.7647 79.8158 44.8309Z" fill="#BBB9FF"/>
<path fill-rule="evenodd" clip-rule="evenodd" d="M84.3548 34.1704C83.5468 33.4447 83.8316 33.4548 84.786 33.4478C84.6421 33.6886 84.4985 33.9295 84.3548 34.1704Z" fill="#2B54B5"/>
<path fill-rule="evenodd" clip-rule="evenodd" d="M84.0633 104.29C82.8361 105.936 82.4545 106.649 81.1726 104.806C82.1924 104.245 82.882 103.414 84.0633 104.29Z" fill="#19326B"/>
<path fill-rule="evenodd" clip-rule="evenodd" d="M86.9821 109.679C86.4755 109.739 85.9603 109.76 85.4639 109.87C82.5421 109.602 88.1076 106.88 86.9821 109.679Z" fill="#BBB9FF"/>
<path fill-rule="evenodd" clip-rule="evenodd" d="M79.9079 113.192C80.0951 112.877 80.6019 112.903 80.9285 112.761C81.2685 113.137 80.1422 113.49 79.9079 113.192Z" fill="#BBB9FF"/>
<path fill-rule="evenodd" clip-rule="evenodd" d="M88.1046 105.534C87.8499 105.317 87.0019 105.194 87.4379 104.812C87.6511 104.979 88.5283 105.215 88.1046 105.534Z" fill="#BBB9FF"/>
<path fill-rule="evenodd" clip-rule="evenodd" d="M88.3454 105.354C88.3929 105.67 88.8205 106.08 88.3888 106.257C88.3795 105.963 88.0409 105.535 88.3454 105.354Z" fill="#BBB9FF"/>
<path fill-rule="evenodd" clip-rule="evenodd" d="M80.0886 113.242C79.9681 113.383 79.8478 113.524 79.7273 113.665C79.8365 113.434 79.7874 112.88 80.0886 113.242Z" fill="#BBB9FF"/>
<path fill-rule="evenodd" clip-rule="evenodd" d="M97.7879 118.032C97.79 118.202 97.792 118.372 97.7941 118.542C97.6405 118.272 97.0677 117.888 97.7879 118.032Z" fill="#2B54B5"/>
<path fill-rule="evenodd" clip-rule="evenodd" d="M67.6225 94.8091C67.0957 95.5712 66.688 94.3616 66.3578 93.9452C66.877 92.6539 67.221 94.1113 67.6225 94.8091Z" fill="#BBB9FF"/>
<path fill-rule="evenodd" clip-rule="evenodd" d="M69.3081 65.6067C69.2599 64.6337 68.9656 63.2928 70.3334 63.2581C72.2571 63.9159 70.7178 65.4917 69.3081 65.6067Z" fill="#2B54B5"/>
<path fill-rule="evenodd" clip-rule="evenodd" d="M68.512 57.6575C68.3738 57.4108 68.28 57.1218 68.0891 56.9248C66.8017 55.0543 70.3895 56.528 68.512 57.6575Z" fill="#2B54B5"/>
<path fill-rule="evenodd" clip-rule="evenodd" d="M69.7178 75.7577C69.6514 75.7256 69.7007 75.8358 69.6944 75.8777C69.7022 75.8378 69.71 75.7979 69.7178 75.7577Z" fill="#19326B"/>
<path fill-rule="evenodd" clip-rule="evenodd" d="M69.8436 66.5248C71.655 66.3259 71.3534 68.18 70.8496 69.4007C69.8157 68.5574 69.2669 67.8385 69.8436 66.5248Z" fill="#BBB9FF"/>
<path fill-rule="evenodd" clip-rule="evenodd" d="M68.8121 66.1821C68.8673 66.2898 68.875 66.3094 68.7444 66.2898L68.8121 66.1821Z" fill="#BBB9FF"/>
<path fill-rule="evenodd" clip-rule="evenodd" d="M65.0915 63.8748C65.1233 65.0877 64.6838 64.7362 63.8285 64.2812C63.9632 63.1697 64.2563 63.2941 65.0915 63.8748Z" fill="#2B54B5"/>
</svg>
