<svg width="107" height="35" viewBox="0 0 107 35" fill="none" xmlns="http://www.w3.org/2000/svg">
<path d="M101.753 19.2198L96.5265 17.1607L94.355 22.1478L92.1881 17.1607L86.9585 19.2198L89.1295 14.24L83.8923 12.1727L89.1295 10.1068L86.9585 5.12649L92.1881 7.18511L94.355 2.20532L96.5265 7.18511L96.5001 7.19818L101.753 5.12646L99.5897 10.1067L104.823 12.1726L99.5882 14.24L101.753 19.2198ZM94.355 0.534546C87.6036 0.534546 82.1274 5.75024 82.1274 12.1838C82.1274 18.6194 87.6036 23.8346 94.355 23.8346C101.108 23.8346 106.583 18.6194 106.583 12.1838C106.583 5.75024 101.108 0.534546 94.355 0.534546Z" fill="#B9B1B1"/>
<path d="M100.647 6.18005L89.9073 10.4181L94.3553 12.1729L96.1971 16.4066L100.647 6.18005Z" fill="#B9B1B1"/>
<path d="M104.751 23.2777C104.965 23.2777 105.258 23.3131 105.258 23.0602C105.258 22.8772 105.09 22.8534 104.898 22.8534H104.504V23.2777H104.751ZM105.464 24.1029H105.205L104.77 23.4529H104.504V24.1029H104.279V22.6923H104.943C105.07 22.6923 105.198 22.699 105.314 22.7598C105.427 22.82 105.482 22.9452 105.482 23.0631C105.482 23.3418 105.273 23.4456 105.002 23.4529L105.464 24.1029ZM103.679 23.3918C103.679 23.9665 104.171 24.413 104.786 24.413C105.392 24.413 105.884 23.9665 105.884 23.3918C105.884 22.835 105.392 22.3855 104.786 22.3855C104.171 22.3855 103.679 22.835 103.679 23.3918ZM103.421 23.3918C103.421 22.7025 104.031 22.1389 104.786 22.1389C105.535 22.1389 106.142 22.7025 106.142 23.3918C106.142 24.0956 105.535 24.6596 104.786 24.6596C104.031 24.6596 103.421 24.0956 103.421 23.3918Z" fill="#B9B1B1"/>
<path d="M62.28 14.8209C62.28 15.3447 61.796 15.7752 61.2167 15.7752C60.6511 15.7752 60.1492 15.3447 60.1492 14.8209C60.1492 14.2981 60.6511 13.8525 61.2167 13.8525C61.796 13.8525 62.28 14.2981 62.28 14.8209ZM63.2486 23.816V24.1068H59.2627V23.816L60.3434 23.5675V17.9275L59.2627 17.6659V17.3882L62.1827 17.1887V23.5675L63.2486 23.816Z" fill="#B9B1B1"/>
<path d="M74.6731 17.6963C73.8192 17.6963 73.2485 18.5647 73.1405 19.7239H76.0304C75.9881 18.6264 75.6422 17.6963 74.6731 17.6963ZM75.4654 23.5096C76.6546 23.5096 77.4881 22.9314 77.7159 22.7858L77.9823 23.2004C77.7047 23.4358 76.6322 24.2595 74.8968 24.2595C72.657 24.2595 71.1091 22.8615 71.1091 20.7243C71.1091 18.8798 72.5653 17.1881 74.6731 17.1881C76.7942 17.1881 77.8275 18.4065 77.8371 20.2637H73.0926C72.9815 21.9271 73.5451 23.5096 75.4654 23.5096Z" fill="#B9B1B1"/>
<path d="M27.6401 17.6963C26.7851 17.6963 26.2134 18.5632 26.1054 19.7219L28.9959 19.7253C28.9536 18.6273 28.6081 17.6963 27.6401 17.6963ZM28.4313 23.5096C29.6205 23.5096 30.4546 22.9314 30.6798 22.7858L30.9478 23.2004C30.6696 23.4358 29.5976 24.2595 27.8617 24.2595C25.6219 24.2595 24.0735 22.8615 24.0735 20.7243C24.0735 18.8798 25.5307 17.1881 27.6401 17.1881C29.7606 17.1881 30.7929 18.4065 30.8026 20.2636H26.058C25.947 21.9271 26.5105 23.5096 28.4313 23.5096Z" fill="#B9B1B1"/>
<path d="M6.67122 20.3855L5.21556 16.0955H5.18702L3.5566 20.3855H6.67122ZM0.874054 23.8295L1.52418 23.5844C1.52418 23.5844 4.75242 15.6387 4.85941 15.3722C4.71369 14.9135 4.02077 14.8514 3.41649 14.7732V14.4116H6.48423L9.70533 23.5674L10.3504 23.8159V24.1066H6.3487V23.8159L7.65558 23.5363L6.86483 20.9554H3.34822L2.44435 23.5363L4.13795 23.7999V24.1066H0.874054V23.8295Z" fill="#B9B1B1"/>
<path d="M20.5202 17.189C21.714 17.189 22.2638 17.8345 22.2638 19.0345V23.5677L23.1666 23.8157V24.1075H19.5685V23.8157L20.4387 23.5852V19.301C20.4387 18.6699 20.3485 18.1306 19.6551 18.1306C19.1181 18.1306 18.4588 18.6054 18.1643 18.8243V23.5677L19.0513 23.8157V24.1075H15.4695V23.8157L16.3418 23.5852V19.301C16.3418 18.6408 16.2332 18.1306 15.5561 18.1306C14.9636 18.1306 14.3267 18.6039 14.049 18.8068V23.5677L14.985 23.8157V24.1075H11.1285V23.8157L12.2097 23.5677V17.8642L11.1285 17.6045V17.3283L13.9873 17.1865L14.0164 18.2136C14.4051 17.9069 15.2417 17.189 16.437 17.189C17.4866 17.189 17.9503 17.6972 18.1042 18.2666C18.5398 17.8816 19.3912 17.189 20.5202 17.189Z" fill="#B9B1B1"/>
<path d="M47.5731 23.4456C48.5565 23.4456 49.4746 22.5209 49.4746 20.6166C49.4746 18.7944 48.664 18.0644 47.6475 18.0644C46.8287 18.0644 46.2408 18.4425 45.9565 18.6041V23C46.3146 23.1757 46.8659 23.4456 47.5731 23.4456ZM47.781 27.2745V27.6439H43.0039V27.3492L44.1019 27.058V17.9115L43.0192 17.6503V17.3727L45.9086 17.1843L45.9386 17.9882C46.4166 17.7047 47.2695 17.1892 48.3934 17.1892C50.3296 17.1892 51.4923 18.4046 51.4923 20.5856C51.4923 23.1388 49.9102 24.2596 48.2645 24.2596C47.055 24.2596 46.2479 23.7849 45.9565 23.5985V26.9983L47.781 27.2745Z" fill="#B9B1B1"/>
<path d="M57.3406 17.189C57.9581 17.189 58.3703 17.5035 58.545 17.6137L58.0391 18.9253C57.8261 18.8093 57.5082 18.6195 56.9778 18.6195C56.2996 18.6195 55.888 19.0699 55.4712 19.4471V23.5226L57.0359 23.7682V24.1075H52.5497V23.8157L53.6319 23.5677V17.9112L52.5497 17.6506V17.3724L55.3413 17.1885L55.3723 18.8063H55.41C55.7453 18.2423 56.2309 17.189 57.3406 17.189Z" fill="#B9B1B1"/>
<path d="M41.4323 14.8209C41.4323 15.3447 40.9488 15.7752 40.3669 15.7752C39.8029 15.7752 39.302 15.3447 39.302 14.8209C39.302 14.2981 39.8029 13.8525 40.3669 13.8525C40.9488 13.8525 41.4323 14.2981 41.4323 14.8209ZM42.4003 23.816V24.1068H38.415V23.816L39.4956 23.5675V17.9275L38.415 17.6659V17.3882L41.3365 17.1887V23.5675L42.4003 23.816Z" fill="#B9B1B1"/>
<path d="M36.4922 17.189C37.1097 17.189 37.525 17.5035 37.6977 17.6137L37.1917 18.9253C36.9793 18.8093 36.6603 18.6195 36.1304 18.6195C35.4523 18.6195 35.0406 19.0699 34.6238 19.4471V23.5226L36.1875 23.7682V24.1075H31.7023V23.8157L32.7845 23.5677V17.9112L31.7023 17.6506V17.3724L34.4934 17.1885L34.525 18.8063H34.5627C34.8969 18.2423 35.3845 17.189 36.4922 17.189Z" fill="#B9B1B1"/>
<path d="M69.2966 17.5122L69.1244 19.2141H68.648L68.4488 18.0229C68.3107 17.9525 67.7813 17.6947 67.1434 17.6947C66.423 17.6947 65.8717 18.0637 65.8717 18.586C65.8697 19.2733 66.7114 19.5398 67.5673 19.8932C68.3917 20.2145 69.7602 20.7174 69.7567 22.0692C69.7536 23.4366 68.4228 24.2584 66.7852 24.2584C65.5573 24.2584 64.7839 24.0342 64.5653 23.9672L64.3972 22.0289H64.9362L65.3663 23.4711C65.4401 23.5036 65.9986 23.7536 66.6614 23.7536C67.6264 23.7536 68.3321 23.3104 68.3321 22.6483C68.3321 21.9188 67.1633 21.5319 66.3634 21.2042C65.6154 20.897 64.4639 20.4344 64.4639 19.0544C64.4639 17.9442 65.542 17.187 67.1072 17.187C68.2343 17.187 69.1397 17.4671 69.2966 17.5122Z" fill="#B9B1B1"/>
<path d="M53.6312 27.6604L53.597 27.8555L54.2864 28.023L53.4223 33.8489L52.6906 34.0061L52.6631 34.2047H55.6595L55.6906 34.0076L54.6089 33.8401L55.0201 31.0146H56.2582L56.3326 31.916H56.6607L56.9791 29.7593H56.6495L56.3326 30.6617H55.071L55.4634 28.0123H57.3944L57.456 29.0307H57.8479L58.0547 27.6604H53.6312Z" fill="#B9B1B1"/>
<path d="M79.2115 30.1872C78.4768 30.1872 77.8811 31.0036 77.8811 32.5191C77.8811 33.3127 78.25 33.8224 78.9012 33.8224C79.4891 33.8224 79.9288 33.3884 80.1449 33.2011L80.3303 33.4064C80.0934 33.6734 79.5717 34.3005 78.4768 34.3005C77.4684 34.3005 76.7638 33.6545 76.7638 32.4293C76.7638 31.0871 77.7018 29.8872 79.2278 29.8872C79.8957 29.8872 80.3991 29.9896 80.5168 30.0129L80.2799 31.1711H79.9192L79.8922 30.3945C79.855 30.3673 79.6053 30.1872 79.2115 30.1872Z" fill="#B9B1B1"/>
<path d="M60.1422 28.2009C60.0979 28.4815 59.8707 28.7305 59.5186 28.7305C59.2002 28.7305 59.0183 28.4722 59.0646 28.2009C59.1202 27.898 59.3928 27.6606 59.6878 27.6606C59.9945 27.6606 60.1759 27.9194 60.1422 28.2009ZM58.8298 30.2886L58.1103 30.112L58.1307 29.9751L59.9109 29.8872L59.3245 33.8797L60.0103 34.0486L59.9879 34.2035H58.2718L58.8298 30.2886Z" fill="#B9B1B1"/>
<path d="M83.2159 28.2009C83.1701 28.4815 82.9444 28.7305 82.5908 28.7305C82.2723 28.7305 82.092 28.4722 82.1368 28.2009C82.1939 27.898 82.4649 27.6606 82.7615 27.6606C83.0677 27.6606 83.2506 27.9194 83.2159 28.2009ZM81.904 30.2886L81.184 30.112L81.2039 29.9751L82.9841 29.8872L82.3956 33.8797L83.0835 34.0486L83.0636 34.2035H81.3425L81.904 30.2886Z" fill="#B9B1B1"/>
<path d="M89.5711 27.4054L89.5517 27.5515L90.2095 27.7204L89.2685 34.2186H91.0033L91.0242 34.0593L90.3186 33.8933L91.2978 27.2802L89.5711 27.4054Z" fill="#B9B1B1"/>
<path d="M64.1197 31.3382C64.2145 30.7479 64.2073 30.5373 63.9755 30.5373C63.2688 30.5373 62.583 32.0687 62.3273 32.6143L62.0893 34.2045H61.0774L61.6547 30.2888L60.9241 30.1111L60.945 29.9742L62.7277 29.8868L62.4725 31.6217C62.9381 30.7999 63.5139 29.8868 64.4784 29.8868C65.447 29.8868 65.2105 30.7683 65.1606 31.1411L64.7586 33.8803L65.4546 34.0478L65.4327 34.2045H63.7039L64.1197 31.3382Z" fill="#B9B1B1"/>
<path d="M74.6539 31.3382C74.7466 30.7479 74.7395 30.5373 74.5077 30.5373C73.8035 30.5373 73.1162 32.0687 72.862 32.6143L72.6225 34.2045H71.6122L72.1879 30.2888L71.4573 30.1111L71.4792 29.9742L73.2619 29.8868L73.0072 31.6217C73.4724 30.7999 74.0496 29.8868 75.0126 29.8868C75.9812 29.8868 75.7448 30.7683 75.6918 31.1411L75.2898 33.8803L75.9893 34.0478L75.9659 34.2045H74.2387L74.6539 31.3382Z" fill="#B9B1B1"/>
<path d="M68.8045 30.1905C68.0061 30.1905 67.3448 31.6676 67.3448 32.899C67.3448 33.3844 67.5516 33.5796 67.8283 33.5796C68.4927 33.5796 69.0618 32.0719 69.2274 31.6724L69.4001 30.3453C69.3527 30.322 69.1245 30.1905 68.8045 30.1905ZM70.4787 30.0541L69.9045 33.88L70.6499 34.0475L70.6387 34.2058H68.8574L69.0607 32.8005C68.779 33.3539 68.2384 34.3009 67.2994 34.3009C66.4485 34.3009 66.2325 33.6679 66.2325 32.9296C66.2325 31.4409 67.3829 29.8871 69.0954 29.8871C69.7404 29.8871 70.2867 30.0128 70.4787 30.0541Z" fill="#B9B1B1"/>
<path d="M86.4387 30.1905C85.6403 30.1905 84.979 31.6676 84.979 32.899C84.979 33.3844 85.1833 33.5796 85.463 33.5796C86.1254 33.5796 86.697 32.0719 86.8611 31.6724L87.0349 30.3453C86.9854 30.322 86.7567 30.1905 86.4387 30.1905ZM88.1119 30.0541L87.5382 33.88L88.2836 34.0475L88.2724 34.2058H86.4917L86.6955 32.8005C86.4106 33.3539 85.8731 34.3009 84.9331 34.3009C84.0827 34.3009 83.8657 33.6679 83.8657 32.9296C83.8657 31.4409 85.0192 29.8871 86.7281 29.8871C87.3741 29.8871 87.9188 30.0128 88.1119 30.0541Z" fill="#B9B1B1"/>
</svg>
