<svg width="106" height="55" viewBox="0 0 106 55" fill="none" xmlns="http://www.w3.org/2000/svg">
<path d="M101.714 23.6669C101.714 26.8366 97.8575 29.6893 94.8463 29.6893C92.8388 29.6893 91.0955 28.2629 91.0955 27.4177C91.0955 26.8894 91.254 25.3574 91.9936 25.3574C92.5219 25.3574 92.9973 25.78 93.5256 26.2555C94.2652 26.9422 95.1633 27.7346 96.484 27.7346C97.8047 27.7346 99.1782 26.8366 99.1782 25.3574C99.1782 24.4593 98.4914 23.6141 97.7518 22.6103C96.8009 21.3953 95.6916 19.9689 95.6916 18.1728C95.6916 14.8975 98.9669 10.6712 102.665 10.6712C104.302 10.6712 105.253 11.6221 105.253 12.5202C105.253 13.2598 104.461 14.2107 103.563 14.2107C102.876 14.2107 102.348 13.9466 101.82 13.7352C101.291 13.5239 100.763 13.2598 100.129 13.2598C98.8612 13.2598 98.016 14.2107 98.016 15.6899C98.016 16.7993 98.8084 17.8558 99.6536 18.9652C100.605 20.3387 101.714 21.8707 101.714 23.6669ZM21.1514 0.422607C21.0985 0.422607 20.9929 0.528261 20.9929 0.581089V1.47917C20.9929 1.53199 21.0457 1.58482 21.0985 1.63765L21.6268 1.69047L22.3136 1.74331C23.2117 1.90179 23.423 2.06027 23.423 2.48289C23.423 3.22248 22.5777 5.59974 21.4155 8.87507L20.3589 11.8334C19.4609 14.4748 18.0345 18.12 16.8195 21.3425C15.3403 25.1989 14.1781 28.2101 14.1781 28.6327C14.1781 29.1082 14.4422 29.2666 15.5516 29.2666C16.7666 29.2666 17.2949 29.0553 17.4006 28.6327C19.4609 21.8179 25.1663 14.0522 28.1246 14.0522C29.0756 14.0522 29.3925 14.3692 29.3925 15.3201C29.3925 16.8521 28.1246 19.7048 26.8568 22.4518C25.7474 24.8819 24.7437 27.1535 24.7437 28.2629C24.7437 29.2666 25.2191 29.7949 26.0644 29.7949C28.9699 29.7949 31.1887 27.1535 32.9848 25.0404L33.249 24.7234L33.3018 24.6178L33.249 24.5121L32.6678 23.7725C32.6678 23.7725 32.615 23.7197 32.5622 23.7197C32.5094 23.7197 32.4565 23.7197 32.4565 23.7725C31.4528 24.8291 29.7623 26.4139 29.2869 26.4668C29.1284 26.4668 29.0755 26.4668 29.0227 26.4139C28.9699 26.3611 28.9699 26.2026 28.9699 25.9385C29.0227 25.7272 29.2869 24.9876 29.7623 23.931C30.8717 21.2368 32.7207 16.7993 32.7207 14.105C32.7207 11.9919 31.7169 10.7769 29.9208 10.7769C26.3285 10.7769 23.4758 14.8446 22.1023 16.7993C21.7853 17.2747 21.4683 17.6973 21.4155 17.6973H21.3627C21.3098 17.5917 21.5212 17.1691 21.891 16.3238C22.2607 15.4257 22.8419 14.0522 23.6871 11.9919C26.3813 5.01863 27.4907 1.26785 27.4907 0.950887C27.4907 0.528263 27.1209 0.475435 26.6983 0.475435H21.1514V0.422607ZM13.28 25.4102C13.28 25.3574 13.28 25.3046 13.28 25.2517L12.6461 24.6178C12.6461 24.565 12.5932 24.565 12.5404 24.565C12.4876 24.565 12.4876 24.565 12.4348 24.6178L12.3819 24.6706C11.2725 25.6743 9.1066 27.4177 7.20479 27.5762C6.4652 27.629 5.77844 27.4177 5.25016 26.9422C4.61623 26.3611 4.24643 25.5159 4.1936 24.4065C4.08795 21.5009 6.51803 17.1691 8.94812 14.5805C10.2688 13.207 11.4839 12.4674 12.3291 12.4674C13.3328 12.4674 13.9668 13.207 14.6007 13.9466C15.129 14.5805 15.6573 15.2144 16.3969 15.2144C16.661 15.2144 16.978 15.0559 17.2421 14.8446C17.5062 14.5805 17.6119 14.2107 17.6119 13.8409C17.6119 12.6259 16.5553 10.8297 13.9668 10.7769C11.0084 10.724 7.36328 12.5202 4.61623 15.3201C2.02766 18.0143 0.654134 21.184 0.812618 24.3008C0.918274 26.8894 2.34463 29.6893 5.93693 29.6893C9.58205 29.6893 12.7517 26.4139 13.28 25.4102ZM60.8251 18.7539C60.7723 18.9124 60.561 19.335 60.5082 19.2822H60.4553V19.1237C60.4553 18.9652 60.6666 18.1728 60.8779 17.2219C61.3006 15.4257 61.8817 12.9428 61.8817 12.2032C61.8817 11.2523 61.3534 10.7769 60.4553 10.7769C58.5007 10.7769 55.5423 13.9994 54.5386 15.6899L54.4858 15.7427C54.4858 15.7955 54.4858 15.7955 54.5386 15.8484L55.1197 16.4295C55.1197 16.4823 55.1725 16.4823 55.2254 16.4823C55.2782 16.4823 55.331 16.4295 55.331 16.4295L55.4895 16.2182L55.648 16.0068C56.2819 15.1616 57.6554 13.4711 58.395 13.4711C58.7648 13.4711 58.9762 13.8409 58.9762 14.5277C58.9762 16.271 57.0743 21.5009 55.8065 24.9876C55.1197 26.9422 54.5914 28.3686 54.5914 28.6327C54.5914 29.0025 54.7499 29.161 55.0669 29.161H56.7045C57.0215 29.161 57.18 28.9497 57.3913 28.4214C57.3913 28.4214 58.1837 26.5196 58.6592 25.5687C61.8817 18.9652 63.6778 15.5842 65.0514 14.2635C65.9494 13.3654 66.5834 12.9956 67.0588 12.9956C67.4286 12.9956 67.6399 13.3126 67.9041 13.5768C68.1682 13.8937 68.4324 14.2107 68.9078 14.2635C69.2248 14.2635 69.5417 14.1579 69.8059 13.9466C70.2285 13.5768 70.4398 12.89 70.4398 12.2032C70.4398 10.9882 69.5946 10.5656 68.855 10.5656C65.9494 10.724 63.7835 12.9428 60.8251 18.7539ZM50.6822 10.4071C50.7878 10.3543 50.9463 10.4071 51.1048 10.5127C51.1048 10.5127 51.1576 10.5127 51.1576 10.5656L52.267 11.3052C52.5311 11.4108 52.5311 11.7278 52.5311 11.7806C52.4783 12.1504 51.6331 14.4748 50.5765 17.1691C49.203 20.8142 47.4597 25.3574 47.4068 26.2026C47.4068 26.5196 47.4068 26.6781 47.5125 26.7309C47.5653 26.7837 47.671 26.8366 47.8295 26.8366C48.4634 26.8366 49.52 25.5159 50.3652 24.5121L50.9991 23.7197C51.052 23.6669 51.1576 23.6669 51.2104 23.7197L51.8444 24.4593L51.8972 24.565C51.8972 24.565 51.8444 24.6706 51.8444 24.6178C50.9463 25.9913 48.4634 29.6364 45.6107 29.6893C45.0824 29.6893 44.7126 29.5836 44.4485 29.2666C44.1315 28.9497 43.973 28.4742 43.973 27.7875C43.973 26.4139 44.6598 24.8819 45.0296 24.0895L45.2409 23.5612C45.2937 23.4556 45.2937 23.4027 45.2409 23.3499H45.1881C45.0824 23.3499 44.4485 24.4593 44.4485 24.4593C41.4373 29.0553 39.06 29.6364 37.3167 29.6364C35.8904 29.6364 34.5168 28.4742 34.5168 25.8857C34.5168 22.0821 38.7959 11.0938 46.9842 11.0938C47.7238 11.0938 48.2521 11.1995 48.6747 11.3052C48.9917 11.358 49.2558 11.4108 49.52 11.4108C49.8369 11.4108 49.9954 11.1467 50.1539 10.8825C50.2595 10.724 50.418 10.5127 50.6822 10.4071ZM37.6865 25.0404C37.6865 26.5724 38.1091 26.8366 38.9015 26.8366C42.4938 26.8366 48.3049 16.6936 48.3049 14.5277C48.3049 13.1013 47.5125 12.3089 46.139 12.3089C41.9127 12.3089 37.6865 19.7048 37.6865 25.0404ZM77.2546 24.5121C77.2546 17.8558 84.7033 10.7769 89.9333 10.7769C92.4162 10.7769 93.7369 12.3089 93.7369 13.7352C93.7369 17.2219 88.0315 18.7011 84.9675 18.7011L83.2242 18.6482C83.2242 18.6482 82.96 18.6482 82.9072 18.6482C82.9072 18.7011 82.8015 18.8067 82.8015 18.8067C81.9563 20.0746 80.8469 21.8179 80.8469 24.1423C80.8469 26.0441 82.0091 27.2592 83.8581 27.2592C85.3901 27.2592 87.4504 25.7272 88.5598 24.8819L89.0352 24.565C89.0881 24.5121 89.1937 24.5121 89.2466 24.565L89.7748 25.2517C89.8277 25.3046 89.8277 25.3574 89.7748 25.4102C88.9296 26.5196 85.3901 29.6893 82.062 29.6893C79.2621 29.6893 77.2546 27.5762 77.2546 24.5121ZM89.3522 11.9391C87.0806 11.9391 84.6505 15.637 83.8053 17.1691C88.3485 17.1162 90.937 15.7427 90.937 13.5239C90.937 12.6259 90.2503 11.9391 89.3522 11.9391ZM75.7226 24.7234C75.7754 24.6706 75.7226 24.565 75.7226 24.565C75.7226 24.5121 75.0887 23.7725 75.0887 23.7725C75.0358 23.7197 75.0358 23.7197 74.983 23.7197C74.9302 23.7197 74.8773 23.7197 74.8773 23.7725L74.666 23.9839C73.0812 25.7272 72.1831 26.7309 71.4435 26.7309C71.3379 26.7309 71.2322 26.7309 71.1266 26.6253C71.0209 26.5196 70.9681 26.3083 70.9681 26.097C71.0209 25.0932 72.6058 20.4972 75.8283 12.0447L78.1527 5.96954C79.3677 2.79986 80.0017 1.21503 80.0017 1.00371C80.0017 0.84523 79.9488 0.739575 79.896 0.686747C79.7903 0.581091 79.579 0.528262 79.2621 0.528262H73.768C73.6623 0.528262 73.6095 0.581091 73.6095 0.686747L73.5567 1.58482C73.5567 1.63765 73.6095 1.74331 73.6623 1.74331L74.8773 1.84896C75.6698 2.00744 75.9867 2.21875 75.9339 2.74703C75.8811 3.53945 72.3416 12.3089 72.3416 12.3089C70.4398 17.0634 67.2173 25.2517 67.1645 27.2064C67.1116 28.0516 67.323 28.7384 67.7456 29.2138C68.1154 29.6364 68.6965 29.7949 69.3832 29.7949C71.602 29.7949 73.8208 26.995 75.3 25.1461L75.7226 24.7234ZM0.812618 41.2586C0.812618 43.8472 2.87291 45.2207 4.82754 46.2772L5.67279 46.6999C7.68025 47.7036 8.47266 48.7073 8.47266 50.2393C8.47266 51.9827 7.36328 53.2505 5.72561 53.2505C3.13705 53.2505 1.65786 50.5563 1.02393 48.9186V48.8658L0.125854 49.1828V49.2356C0.389994 50.8733 0.706962 52.6694 0.918273 53.3562L1.3409 53.5147L2.50311 53.9373C3.29553 54.2014 4.24643 54.4127 5.19733 54.4127C8.84246 54.4127 11.3254 52.194 11.3254 48.9715C11.3254 45.9603 9.00094 44.5867 7.31045 43.7943L6.62369 43.4774C4.40492 42.4736 3.50684 41.4699 3.50684 40.0964C3.50684 38.7228 4.35209 37.3493 6.20107 37.3493C8.36701 37.3493 9.21225 39.0398 9.74053 40.7303V40.7831L10.6914 40.6246V40.5718C10.4801 39.2511 10.2688 38.0889 10.1632 36.9795V36.9267L9.52922 36.7154L9.00094 36.5569C8.31418 36.2928 7.41611 36.1871 6.57086 36.1871C3.18987 36.1343 0.812618 38.2474 0.812618 41.2586ZM13.3328 45.5376C13.3328 49.9224 16.3969 54.3599 23.2117 54.3599C24.955 54.3599 27.2794 53.8316 28.2303 53.5675C28.7058 52.5109 29.3397 50.2393 29.6038 49.0771V49.0243L28.7586 48.8658V48.9186C27.3851 51.7185 26.0644 53.2505 23.1588 53.2505C19.408 53.2505 16.8723 49.8695 16.8723 44.9037C16.8723 41.4171 18.51 37.3493 23.1588 37.3493C25.9059 37.3493 27.3851 38.5115 28.1246 41.2586V41.3114L28.9699 41.2058L28.8642 39.9907L28.4944 36.8739H28.4416L27.9662 36.7682C27.0681 36.5569 25.5361 36.1871 23.6343 36.1871C17.6119 36.1343 13.3328 39.9907 13.3328 45.5376ZM49.5728 36.5041H41.9656V37.3493H42.0184C43.973 37.5078 44.2372 37.6135 44.2372 40.5718V44.1113H36.1545V40.5718C36.1545 37.6663 36.4186 37.5078 38.3204 37.3493H38.3733V36.5041H30.6604V37.3493H30.7132C32.9848 37.5078 33.1433 37.7191 33.1433 40.5718V49.9224C33.1433 52.7222 32.9848 52.9864 30.8189 53.1449H30.766V53.9901H38.4789V53.1449H38.4261C36.4186 52.9864 36.1545 52.8279 36.1545 49.9224V45.432H44.1843V49.9224C44.1843 52.7751 44.0258 52.9864 41.7542 53.1449H41.7014V53.9901H49.52V53.1449H49.4671C47.4597 52.9864 47.1955 52.8807 47.1955 49.9224V40.5718C47.1955 37.7191 47.354 37.5078 49.4671 37.3493H49.52L49.5728 36.5041ZM76.3565 36.5041H70.1757V37.3493L71.1266 37.4021C71.6549 37.455 71.919 37.5606 72.0775 37.7719C72.1831 37.8776 72.1831 38.0361 72.1831 38.3002C72.1831 38.5644 72.1303 38.987 71.9718 39.5153C71.919 39.7794 70.4398 45.5376 69.2776 49.4469C69.0663 48.9186 64.6287 36.821 64.6287 36.821V36.7682H63.5722C63.5722 36.7682 59.6101 49.2356 59.5573 49.4469C59.3988 48.8658 56.4404 39.0926 56.4404 39.0926C56.3348 38.7228 56.2819 38.4059 56.2819 38.1946C56.2819 38.0361 56.3348 37.8776 56.3876 37.8248C56.5461 37.6135 56.8102 37.5078 57.2857 37.455L58.1309 37.4021V37.3493V36.5569H50.8407V37.4021H50.8935C52.3198 37.5606 52.7425 37.7191 53.482 39.9907L57.8668 54.2542H59.1346C59.1346 54.2542 63.2552 41.9453 63.2552 41.7869C63.4665 42.3151 67.7984 54.2014 67.7984 54.2014V54.2542H69.0663V54.2014C71.5492 45.9603 73.5567 40.1492 73.5567 40.0964C74.4547 37.6663 74.666 37.5606 76.3037 37.4021H76.3565V36.5041ZM80.8997 40.7303C80.8997 40.7831 78.8923 46.3829 78.8394 46.4885H82.96C82.9072 46.3829 80.9526 40.7831 80.8997 40.7303ZM87.6617 50.4506C88.5598 52.8807 88.9824 52.9864 90.4616 53.1449H90.5144V53.9901H83.3826V53.1449L84.1751 53.0392C84.6505 52.9864 84.9147 52.8807 85.0203 52.7222C85.0731 52.6694 85.0731 52.5638 85.0731 52.4581C85.0731 52.2468 85.0203 52.0355 84.9147 51.6657C84.6505 50.8733 84.0166 49.2884 83.4883 47.8621H78.5753C78.2583 48.5488 77.8885 49.7639 77.5187 50.8204L77.3603 51.2431C77.2018 51.7185 77.149 52.0355 77.149 52.2996C77.149 52.4581 77.2018 52.5638 77.2546 52.6694C77.4131 52.8807 77.6772 52.9864 78.2583 53.0392L79.0508 53.1449V53.9901H73.0284V53.1449H73.0812C74.7189 52.9336 74.983 52.8279 75.9339 50.4506L81.3752 36.4512L82.4846 36.3456H82.5374L84.3335 41.2058L87.6617 50.4506ZM96.9066 44.1113H97.9103C100.288 44.1113 101.608 42.9491 101.608 40.836C101.608 37.8776 99.0725 37.6135 98.2801 37.6135C97.4349 37.6135 97.1179 37.7191 97.0651 37.7191C96.8538 37.8248 96.8538 38.3002 96.8538 38.8813V44.1113H96.9066ZM99.1782 36.5041C101.186 36.5041 102.295 36.7154 103.299 37.4021C104.302 38.0889 104.831 39.0926 104.831 40.4662C104.831 42.8963 102.454 44.0585 101.133 44.3226C104.091 44.7452 105.835 46.3829 105.835 48.813C105.835 50.5563 105.042 51.877 103.404 52.8807C102.242 53.5675 100.393 53.9373 98.2801 53.9373H91.571V53.092H91.6238C93.6313 52.9336 93.8954 52.7751 93.8954 49.8695V40.519C93.8954 37.6135 93.6841 37.455 91.7823 37.2965H91.7295V36.4512H91.7823H99.1782V36.5041ZM96.9066 45.1678V49.8695C96.9066 51.1902 97.0123 52.0355 97.4349 52.4581C97.699 52.7222 98.1216 52.8279 98.914 52.8279C100.605 52.8279 102.454 51.877 102.454 49.1299C102.454 46.5942 100.763 45.1678 97.8047 45.1678H96.9066Z" fill="#B9B1B1"/>
</svg>
