<svg width="106" height="19" viewBox="0 0 106 19" fill="none" xmlns="http://www.w3.org/2000/svg">
<path d="M93.0868 0.0593262C92.7035 0.0593262 92.393 0.355139 92.393 0.7199V5.35287H105.239L99.3888 0.0597535L93.0868 0.0593262Z" fill="#B9B1B1"/>
<path d="M105.709 6.75439C105.709 6.38877 105.4 6.09424 105.015 6.09424H100.153V18.3327L105.706 12.757L105.709 6.75439Z" fill="#B9B1B1"/>
<path d="M98.6802 18.7759C99.0626 18.7759 99.3731 18.4796 99.3731 18.114V13.4828H86.527L92.3777 18.775L98.6802 18.7759Z" fill="#B9B1B1"/>
<path d="M86.0575 12.0817C86.0575 12.4468 86.368 12.7444 86.7522 12.7444H91.6129V0.505005L86.0584 6.07902L86.0575 12.0817Z" fill="#B9B1B1"/>
<path d="M27.1778 2.29344V7.94535H18.9127V2.29344L15.9025 2.29089V16.5418H18.9127V10.4195H27.1778V16.5418H30.193V2.29344H27.1778Z" fill="#B9B1B1"/>
<path d="M67.2239 2.29346V16.5384H80.4306L78.7579 14.0306H70.2427V10.4195H78.4881V8.0041H70.2427V4.74252H78.7436L80.3823 2.29346H67.2239Z" fill="#B9B1B1"/>
<path d="M4.71288 2.29004C1.58155 2.29004 0 4.10364 0 6.74254V12.062C0 15.1159 2.03812 16.5418 4.69724 16.5418L14.1417 16.5409L12.3909 13.9361H5.28071C3.7702 13.9361 3.11213 13.416 3.11213 11.8054V6.97919C3.11213 5.42224 3.66612 4.81487 5.32091 4.81487H12.465L14.1462 2.29004H4.71288Z" fill="#B9B1B1"/>
<path d="M54.0141 2.28661C52.2057 2.28661 50.3521 3.32216 50.3521 5.98574V6.67015C50.3521 9.44694 52.1355 10.5063 53.9199 10.5136H60.183C60.8335 10.5136 61.362 10.6166 61.362 11.664L61.3611 12.8741C61.3446 13.8152 60.8518 14.0305 60.1607 14.0305H51.9211L50.2332 16.5383H60.3546C62.7952 16.5383 64.4522 15.3815 64.4522 12.7094V11.7275C64.4522 9.1439 62.9127 7.92319 60.5257 7.92319H54.5453C53.8823 7.92319 53.4204 7.75081 53.4204 6.81529V5.82996C53.4204 5.03318 53.7371 4.74248 54.5096 4.74248L62.3565 4.7395L63.9965 2.2832L54.0141 2.28661Z" fill="#B9B1B1"/>
<path d="M38.9387 2.29346L31.8464 16.5409H35.1984L36.5798 13.5986H44.2868L45.6638 16.5409H49.0305L41.9217 2.29346H38.9387ZM40.4259 5.25157L43.1512 11.1733H37.7181L40.4259 5.25157Z" fill="#B9B1B1"/>
</svg>
