<svg width="196" height="16" viewBox="0 0 196 16" fill="none" xmlns="http://www.w3.org/2000/svg">
<path d="M195.115 5.21844C195.019 4.93044 194.827 4.73843 194.539 4.64243C193.195 4.16243 191.755 4.16244 190.411 3.97044C189.643 3.87444 188.971 3.87443 188.203 3.68243C187.723 3.58643 187.147 3.49044 186.571 3.49044C186.091 3.49044 185.611 3.29844 185.131 3.29844C185.035 3.29844 184.843 3.20244 184.747 3.29844C184.075 3.49044 183.499 3.29843 182.923 3.20243C182.347 3.10643 181.867 3.10644 181.387 3.01044C180.811 3.29844 180.331 2.81843 179.851 2.91443C179.275 3.01043 178.603 2.72244 178.027 2.81844C177.355 2.91444 176.683 2.53044 176.011 2.81844C175.915 2.81844 175.627 2.72243 175.435 2.72243C175.051 2.72243 174.571 2.62644 174.187 2.53044C173.611 2.43444 172.939 2.24243 172.363 2.43443C171.691 2.62643 171.115 2.33844 170.539 2.24244L169.579 2.33844C169.483 2.33844 169.291 2.43444 169.195 2.33844C168.427 2.05044 167.755 2.24244 166.987 2.24244C166.699 2.14644 166.315 2.24244 166.027 2.14644C164.587 1.66644 163.147 1.95443 161.707 1.95443C160.939 1.95443 160.171 1.85844 159.403 1.85844C158.155 1.85844 156.907 1.66643 155.659 1.66643C154.603 1.66643 153.547 1.66643 152.395 1.47443C151.723 1.37843 151.051 1.37844 150.379 1.37844C150.187 1.37844 149.995 1.47444 149.803 1.37844C148.843 1.28244 147.883 1.37844 146.827 1.28244C145.003 1.09044 143.083 1.47443 141.259 0.994434C141.067 0.994434 140.875 1.09044 140.683 1.09044C139.915 1.09044 139.243 1.18643 138.475 1.18643C138.091 1.18643 137.611 0.898431 137.131 1.18643C136.651 0.898431 136.171 0.994431 135.595 1.18643C135.307 1.28243 135.019 1.28243 134.731 1.18643C133.963 0.898431 133.291 0.898438 132.523 1.09044C132.139 1.18644 131.659 0.898431 131.179 1.18643C130.507 0.898431 129.643 1.18644 128.875 1.09044C128.107 0.994438 127.339 0.898431 126.571 1.18643C125.899 0.898431 125.035 0.994434 124.267 0.994434C123.979 1.09043 123.691 1.09044 123.403 1.09044C123.211 1.09044 122.923 1.28243 122.731 1.18643C122.347 0.994431 121.867 1.09044 121.387 1.09044C121.003 1.09044 120.523 0.994434 120.043 0.994434C119.275 0.994434 118.603 1.09043 117.835 0.994434C117.163 0.898434 116.491 1.18643 115.819 0.994434C115.147 0.802434 114.379 1.18643 113.707 1.18643C111.403 1.18643 109.195 1.18644 106.987 1.28244C106.411 0.994436 105.835 1.28244 105.259 1.28244C104.683 1.28244 104.107 1.09044 103.531 1.28244C103.243 1.37844 102.859 1.37844 102.475 1.37844C101.227 1.37844 99.8827 1.47444 98.6347 1.37844C97.9627 1.66644 97.1947 1.57044 96.4267 1.57044C94.8907 1.57044 93.2587 1.47443 91.6267 1.66643C90.6667 1.76243 89.8027 1.85844 88.8427 1.85844H86.6347C85.8667 1.85844 85.0987 1.76243 84.3307 1.95443C83.5627 2.14643 82.8907 1.85843 82.2187 1.95443C81.3547 2.05043 80.4907 1.95444 79.7227 2.14644C78.9547 2.33844 78.0907 1.95443 77.3227 2.43443H77.0347C76.0747 2.05043 75.1147 2.24244 74.2507 2.24244C73.2907 2.24244 72.3307 2.24244 71.4667 2.53044C71.1787 2.62644 70.9867 2.62644 70.6987 2.53044C70.5067 2.43444 70.2187 2.43444 69.9307 2.53044C69.1627 2.53044 68.3947 2.33843 67.6267 2.72243C66.8587 2.53043 66.0907 2.62643 65.3227 2.72243C64.5547 2.81843 63.8827 2.81844 63.1147 2.81844C62.3467 2.81844 61.5787 2.81844 60.8107 3.01044C60.0427 2.81844 59.3707 3.29843 58.6987 2.91443C57.9307 3.20243 57.2587 2.91444 56.4907 3.10644C55.5307 3.29844 54.5707 3.39444 53.6107 3.29844C52.9387 3.20244 52.3627 3.39444 51.7867 3.49044C51.2107 3.58644 50.7307 3.58644 50.2507 3.58644C49.6747 3.58644 49.0987 3.39444 48.5227 3.58644C47.4667 3.97044 46.3147 3.58644 45.1627 3.97044C44.1067 3.68244 43.0507 4.16243 41.9947 4.16243C41.5147 4.16243 40.9387 4.06644 40.4587 4.25844C39.7867 4.54644 39.0187 4.45044 38.2507 4.45044C37.8667 4.35444 37.3867 4.35444 36.9067 4.54644C36.4267 4.73844 35.8507 4.93044 35.2747 4.73844C34.9867 4.64244 34.6987 4.73844 34.3147 4.83444C33.7387 4.83444 33.1627 4.93043 32.4907 4.93043C31.9147 4.93043 31.3387 5.41043 30.6667 5.12243C30.4747 5.02643 30.2827 5.21843 30.2827 5.41043C30.1867 5.69843 30.0907 5.98644 29.8027 5.50644C29.7067 5.31444 29.4187 5.31444 29.1307 5.31444C28.7467 5.31444 28.4587 5.50643 28.0747 5.41043C27.7867 5.31443 27.4027 5.69844 27.0187 5.50644C26.8267 5.41044 26.8267 5.69844 26.7307 5.79444C26.7307 6.08244 26.6347 6.17844 26.3467 5.98644C25.5787 5.69844 24.9067 5.60244 24.2347 6.27444C24.0427 6.46644 24.0427 6.37044 23.9467 6.17844C23.9467 5.98644 24.0427 5.79444 23.6587 5.79444C22.8907 5.98644 22.1227 6.27444 21.3547 6.27444C20.4907 6.27444 19.7227 6.46643 18.9547 6.56243C17.3227 6.75443 15.6907 6.75444 13.9627 7.13843C13.0027 7.33043 11.9467 7.42644 10.9867 7.71444C10.6987 7.81044 10.4107 7.81043 10.2187 7.81043C9.83467 7.81043 9.35467 8.09844 8.97067 8.00244C8.49067 7.90644 8.10667 8.09843 7.62667 8.29043C7.33867 8.38643 7.05067 8.38644 6.76267 8.48244C5.61067 8.48244 4.55467 8.77044 3.59467 9.25044C3.40267 9.34644 3.11467 9.34644 2.82667 9.44244C2.53867 9.63444 2.34667 9.63443 1.96267 9.53843C1.29067 9.34643 0.618666 9.34643 0.0426668 9.82644C0.0426668 9.92243 -0.0533334 10.0184 0.0426668 10.1144C0.0426668 10.2104 0.138666 10.2104 0.234666 10.3064C0.426667 10.3064 0.522666 10.3064 0.714667 10.2104C0.906666 10.1144 1.09867 10.0184 1.29067 10.1144C2.25067 10.5944 3.21067 10.4024 4.17067 10.2104C4.65067 10.1144 5.03467 10.3064 5.41867 9.92244C5.70667 9.63444 6.09067 9.63444 6.37867 9.63444C6.85867 9.63444 7.24267 9.53843 7.62667 9.53843C8.39467 9.53843 8.97067 9.25044 9.54667 8.67444C9.73867 8.38644 10.1227 8.38643 10.4107 8.57843C10.9867 9.15443 11.5627 9.05843 12.3307 9.05843C12.9067 9.05843 13.4827 8.86644 14.1547 8.86644C14.3467 8.86644 14.5387 8.96243 14.7307 8.77043C15.2107 8.29043 16.0747 8.48244 16.6507 8.19444C16.8427 8.09844 17.0347 8.19444 17.2267 8.19444C17.5147 8.29044 17.8027 8.29043 17.9947 8.29043C19.4347 8.29043 20.8747 8.00243 22.3147 7.81043L22.6027 7.61843C22.7947 7.23443 22.9867 7.42644 23.3707 7.42644C23.7547 7.42644 24.3307 7.52244 24.7147 7.42644C25.4827 7.23444 26.2507 6.94643 27.1147 7.13843C27.7867 6.75444 28.4587 6.94643 29.1307 6.85043H31.8187C32.1067 6.85043 32.4907 6.94643 32.7787 6.56243C32.7787 6.37043 32.8747 6.37044 32.9707 6.46644C33.2587 7.04244 33.8347 6.85044 34.2187 6.75444C34.9867 6.56244 35.6587 6.46643 36.4267 6.08243C36.6187 5.98643 36.7147 6.17844 36.8107 6.27444C37.0027 6.46644 37.0987 6.46644 37.1947 6.46644C37.9627 6.17844 38.7307 6.27444 39.4987 6.17844C40.3627 6.08244 41.1307 6.17844 41.9947 6.17844C42.3787 6.17844 42.7627 6.27444 43.0507 6.17844C44.0107 5.89044 44.8747 5.89043 45.8347 5.89043C46.6027 5.89043 47.1787 5.98643 47.9467 5.60243C48.1387 5.50643 48.4267 5.60243 48.6187 5.60243C50.3467 5.60243 52.0747 5.69844 53.7067 5.31444H54.1867C54.8587 5.31444 55.4347 5.31444 56.1067 5.21844C56.7787 5.12244 57.3547 5.31444 58.0267 5.31444C58.4107 5.21844 58.7947 5.31443 59.0827 5.12243C59.5627 4.83443 59.9467 5.31443 60.3307 5.12243C61.0027 4.73843 61.5787 4.93043 62.2507 4.93043C63.1147 4.93043 63.9787 5.02643 64.7467 4.93043C65.8987 4.73843 67.0507 4.64243 68.1067 4.64243C68.3947 4.64243 68.6827 4.73843 68.8747 4.64243C69.3547 4.45043 69.7387 4.45044 70.1227 4.54644C70.5067 4.64244 70.8907 4.35444 71.3707 4.54644C71.7547 4.73844 72.2347 4.45044 72.7147 4.54644C73.0987 4.64244 73.4827 4.73844 73.9627 4.54644C74.3467 4.35444 74.8267 4.54644 75.3067 4.45044C75.7867 4.35444 76.2667 4.25844 76.8427 4.25844C77.4187 4.25844 77.8987 4.35444 78.4747 4.35444C79.0507 4.35444 79.5307 4.16244 80.0107 4.25844C80.5867 4.35444 81.1627 4.35444 81.7387 4.35444C82.6027 4.35444 83.5627 4.54643 84.3307 4.16243C84.5227 4.06643 84.7147 4.16243 84.9067 4.16243C85.7707 4.35443 86.5387 4.45043 87.4027 4.16243C88.0747 3.97043 88.7467 3.68244 89.4187 4.06644C91.0507 4.06644 92.7787 3.97044 94.5067 3.97044C95.0827 3.77844 95.7547 3.87443 96.3307 3.87443C96.7147 3.87443 97.0027 4.06644 97.3867 3.77844C98.3467 3.97044 99.2107 3.68243 100.171 3.68243C101.419 3.68243 102.763 3.87444 104.107 3.58644H104.395C105.067 3.87444 105.643 3.68244 106.315 3.58644C106.507 3.49044 106.603 3.58644 106.795 3.58644C107.851 3.87444 108.907 3.97044 110.059 3.58644C110.347 3.49044 110.635 3.49044 110.923 3.58644C111.403 3.77844 111.883 3.77844 112.363 3.58644C112.747 3.39444 113.131 3.39444 113.515 3.58644C113.707 3.68244 113.995 3.68243 114.187 3.68243H117.355C117.739 3.77843 118.219 3.77843 118.603 3.68243C119.563 3.49043 120.427 3.68243 121.387 3.68243C121.771 3.68243 122.251 3.77844 122.731 3.49044C123.211 3.20244 123.595 3.10644 124.075 3.58644C124.267 3.68244 124.555 3.68243 124.843 3.68243C125.707 3.68243 126.571 3.77844 127.435 3.58644C128.203 3.87444 129.067 3.68243 129.835 3.68243C130.603 3.68243 131.371 3.77843 132.139 3.68243C132.907 3.58643 133.675 3.68243 134.443 3.68243C136.075 3.68243 137.707 3.58643 139.243 3.87443C139.339 3.97043 139.531 3.97043 139.627 3.87443C140.203 3.68243 140.779 3.87444 141.451 3.97044C142.603 4.16244 143.851 4.06643 145.099 3.68243C145.387 3.58643 145.675 3.58643 145.963 3.68243C146.827 3.97043 147.691 4.06644 148.555 4.06644C149.515 4.06644 150.379 4.16243 151.243 4.16243C151.819 4.16243 152.395 4.25844 152.875 4.25844C153.547 4.25844 154.123 4.35443 154.795 4.16243C155.371 3.97043 155.947 4.35444 156.619 4.35444H157.195C158.155 4.16244 158.923 4.45044 159.787 4.45044C159.883 4.45044 159.883 4.54644 159.979 4.54644V4.64243C160.075 4.83443 159.979 4.93043 159.883 4.93043C159.691 4.93043 159.499 5.02643 159.403 4.93043C159.019 4.54643 158.347 4.73843 157.771 4.93043C157.483 5.02643 157.195 5.02644 156.907 5.02644H152.971C152.587 5.02644 152.203 5.12244 151.915 5.21844C151.435 5.41044 151.147 4.83444 150.667 5.02644C150.379 5.12244 150.091 5.02643 149.803 5.12243C149.515 5.21843 149.323 5.21844 149.035 5.21844C148.651 5.21844 148.363 5.31443 147.979 5.12243C147.595 4.93043 147.211 5.31443 146.827 5.12243H143.563C143.179 5.12243 142.891 5.31444 142.603 5.21844C141.835 4.93044 141.067 5.50643 140.395 5.12243C139.531 5.41043 138.763 5.31444 137.899 5.31444H135.595C134.827 5.31444 134.059 5.41043 133.291 5.41043C132.427 5.41043 131.659 5.69843 130.795 5.41043C130.699 5.31443 130.507 5.41044 130.315 5.50644C129.931 5.50644 129.451 5.60243 128.971 5.60243C127.243 5.60243 125.419 5.60244 123.691 5.79444C122.635 5.89044 121.483 5.89043 120.427 5.89043C119.563 5.89043 118.603 6.08243 117.739 6.56243C117.643 6.65843 117.451 6.65844 117.355 6.75444C117.163 6.17844 116.683 6.56244 116.395 6.46644C115.723 6.27444 115.051 6.27444 114.283 6.46644C114.091 6.46644 113.899 6.56244 113.707 6.46644C113.323 6.27444 112.939 6.46644 112.651 6.46644C111.883 6.46644 111.115 6.65843 110.347 6.56243C109.771 6.46643 109.195 6.65844 108.715 6.94644C108.427 7.04244 108.235 7.04244 107.947 6.94644C107.659 6.94644 107.371 7.04244 106.987 7.04244C106.795 7.04244 106.507 7.13843 106.219 7.13843C105.643 6.94643 105.067 7.23443 104.491 7.33043C104.107 7.42643 103.819 7.52244 103.531 7.42644C103.243 7.33044 103.051 7.52243 103.147 7.81043C103.243 8.86643 104.011 9.34643 104.875 8.77043C105.163 8.57843 105.355 8.57844 105.547 8.67444C106.123 8.77044 106.507 9.05843 107.083 8.77043C107.275 8.67443 107.563 8.67444 107.851 8.67444C108.523 8.67444 109.099 8.67443 109.675 8.57843C110.347 8.48243 110.923 8.38644 111.595 8.38644H113.419C113.707 8.38644 114.091 8.38643 114.475 8.29043C115.051 8.09843 115.723 7.90643 116.395 8.09843C116.683 8.19443 116.971 8.09844 117.163 8.00244C117.547 7.81044 117.931 8.09844 118.219 8.00244C118.699 7.71444 118.987 8.00243 119.467 8.09843C120.043 8.19443 120.715 8.19444 121.291 8.00244C121.387 7.90644 121.579 7.81044 121.675 7.90644C122.155 8.09844 122.443 7.81044 122.731 7.71444C123.115 7.61844 123.595 7.81043 123.787 7.33043C123.883 7.23443 123.979 7.23444 124.075 7.23444C124.555 7.23444 124.939 7.61843 125.419 7.33043H125.515C125.803 7.90643 126.379 7.71443 126.763 7.81043C127.243 7.81043 127.627 7.71443 128.011 7.81043C128.491 7.81043 128.971 7.81044 129.163 7.42644C129.259 7.23444 129.451 7.33044 129.547 7.42644C129.835 7.71444 130.123 7.61843 130.411 7.61843C130.699 7.61843 130.987 7.52244 131.371 7.52244C131.851 7.52244 132.427 7.61844 132.907 7.42644C133.483 7.23444 133.963 7.52244 134.539 7.52244H135.019C135.979 7.52244 136.843 7.52243 137.803 7.33043C138.763 7.13843 139.723 7.52244 140.683 7.23444C140.971 7.13844 141.355 7.13843 141.643 7.33043C142.027 7.52243 142.411 7.42643 142.795 7.33043C144.331 6.94643 145.867 7.23444 147.307 7.13843C148.363 7.04243 149.515 7.13843 150.571 7.13843C151.147 7.23444 151.531 6.85043 151.723 6.37043C152.395 7.13843 152.395 7.23444 153.163 7.13843C153.835 7.04243 154.603 7.13844 155.275 6.94644H155.947C156.427 7.23444 157.003 7.13843 157.579 7.13843C158.635 7.13843 159.691 7.04244 160.747 7.23444C161.323 7.33044 161.899 7.04244 162.571 7.04244C162.667 7.04244 162.763 6.85044 162.859 6.75444C163.147 6.17844 163.147 6.56244 163.147 6.75444C163.243 7.04244 163.435 7.13843 163.627 7.13843C164.011 7.13843 164.491 6.94643 164.779 7.13843C165.163 7.42643 165.739 6.94644 166.219 7.04244C166.699 7.13844 167.179 7.23444 167.659 7.42644H168.139C169.099 7.42644 169.963 7.42644 170.923 7.42644H172.267C172.555 7.42644 172.747 7.33044 173.035 7.42644C173.899 7.52244 174.763 7.42643 175.627 7.33043C176.203 7.23443 176.779 7.23444 177.355 7.42644C177.643 7.52244 178.027 7.33043 178.411 7.33043C178.507 7.33043 178.603 7.23443 178.795 7.33043C179.467 7.61843 180.139 7.52243 180.811 7.33043L181.963 7.04244C182.443 6.94644 182.635 7.61844 183.115 7.42644C183.403 7.33044 183.595 7.42644 183.883 7.52244H185.419C185.899 7.52244 186.283 7.23444 186.763 7.42644C187.243 7.61844 187.819 7.61843 188.299 7.61843H188.779C188.971 7.61843 189.163 7.61844 189.259 7.52244C189.643 7.13844 190.027 7.42644 190.507 7.42644H194.443C194.731 7.42644 195.019 7.23443 195.115 6.85043C195.211 6.37043 195.307 5.79444 195.115 5.21844ZM102.187 7.33043C101.707 7.33043 101.323 7.23443 100.939 7.61843C100.843 7.71443 100.651 7.71443 100.651 7.61843C100.267 7.42643 99.7867 7.52244 99.4027 7.52244C97.3867 7.52244 95.4667 8.00243 93.4507 7.81043C93.4507 7.81043 93.3547 7.81044 93.3547 7.90644C92.8747 8.19444 92.2987 8.09843 91.8187 8.09843C91.5307 8.09843 91.2427 8.09844 91.0507 8.19444C90.4747 8.48244 89.8027 8.48244 89.2267 8.38644C88.6507 8.29044 88.2667 8.67444 87.6907 8.86644C87.5947 8.86644 87.4987 9.05844 87.4987 9.15444C87.4027 9.25044 87.4027 9.44244 87.4027 9.44244C87.3067 9.53844 87.2107 9.63444 87.1147 9.63444C86.9227 9.53844 86.9227 9.34644 86.9227 9.25044C86.9227 9.15444 87.0187 9.05844 87.1147 8.96244C87.2107 8.67444 87.1147 8.57843 86.8267 8.57843C86.5387 8.67443 86.1547 8.77043 85.8667 8.77043C85.0987 8.57843 84.2347 8.77043 83.4667 8.77043C82.9867 8.77043 82.6027 8.77044 82.2187 8.86644C81.8347 8.96244 81.4507 9.25044 81.0667 9.15444H79.8187C79.2427 9.25044 78.6667 9.15444 78.0907 9.34644C77.7067 9.44244 77.3227 9.63443 76.9387 9.53843C76.3627 9.44243 75.9787 9.53844 75.4987 9.73044C75.0187 9.92244 74.6347 10.0184 74.0587 9.82644C73.7707 9.73043 73.2907 9.73044 73.1947 9.92244C72.8107 10.3064 72.4267 10.1144 72.0427 10.1144H70.7947C70.3147 10.1144 69.9307 10.3064 69.4507 10.3064C68.8747 10.3064 68.2987 10.3064 67.9147 10.4984C67.4347 10.6904 66.9547 10.4024 66.4747 10.5944C65.6107 10.8824 64.6507 10.8824 63.7867 10.9784C62.6347 11.0744 61.6747 11.1704 60.9067 11.9384C60.9067 12.0344 60.7147 11.9384 60.6187 11.9384C60.6187 11.8424 60.6187 11.7464 60.7147 11.6504C60.7147 11.3624 60.6187 11.2664 60.4267 11.3624L59.5627 11.6504C59.4667 11.6504 59.3707 11.8424 59.4667 11.9384C59.4667 12.0344 59.5627 12.0344 59.6587 12.0344C59.8507 11.9384 60.0427 11.8424 60.1387 12.0344C60.1387 12.1304 60.0427 12.3224 59.9467 12.4184C59.8507 12.5144 59.6587 12.6104 59.8507 12.8024C59.9467 12.8984 60.0427 12.9944 60.2347 12.9944C60.6187 12.9944 61.0987 12.8024 61.5787 12.8024C62.0587 12.8024 62.4427 12.7064 62.6347 12.3224C62.7307 12.1304 63.1147 12.1304 63.2107 12.3224C63.4987 12.8024 63.8827 12.8024 64.2667 12.5144C64.7467 12.1304 65.2267 11.8424 65.8027 12.1304C65.9947 12.2264 66.2827 12.1304 66.5707 12.0344C66.8587 11.9384 66.9547 11.7464 66.9547 11.3624C66.9547 11.2664 67.1467 11.0744 67.2427 11.0744C67.4347 11.0744 67.5307 11.2664 67.6267 11.3624C67.6267 11.4584 67.6267 11.5544 67.5307 11.6504C67.5307 12.0344 67.6267 12.1304 67.9147 12.1304C68.4907 12.1304 68.5867 12.1304 68.5867 11.6504C68.5867 11.3624 68.6827 11.1704 68.8747 11.2664C69.1627 11.3624 69.3547 11.4584 69.5467 11.6504C69.7387 11.7464 69.9307 11.8424 70.1227 11.8424C70.7947 11.8424 71.3707 11.8424 71.9467 11.7464C73.1947 11.5544 74.3467 11.1704 75.4987 11.1704C75.7867 11.1704 76.0747 10.8824 76.3627 11.0744C76.9387 11.4584 77.4187 10.9784 77.8987 10.9784C78.0907 10.9784 78.3787 10.8824 78.5707 10.9784C79.0507 11.1704 79.4347 10.9784 79.8187 10.9784C80.4907 10.9784 81.0667 10.4024 81.7387 10.7864C82.7947 10.5944 83.9467 10.5944 85.0027 10.5944C85.4827 10.5944 85.9627 10.4024 86.2507 10.0184C86.5387 9.63443 86.4427 9.92244 86.6347 10.1144C86.7307 10.2104 86.9227 10.3064 87.0187 10.3064L87.9787 10.0184H89.3227C89.8027 10.0184 90.3787 9.82643 90.8587 10.0184C91.0507 10.0184 91.2427 10.0184 91.4347 9.92244C92.3947 9.82644 93.2587 9.44243 94.2187 9.53843L94.4107 9.34644C94.5067 9.25043 94.5067 9.15444 94.6027 9.34644C94.7947 9.44244 94.8907 9.63444 95.1787 9.63444C95.6587 9.63444 96.1387 9.44243 96.6187 9.53843C96.7147 9.63443 96.8107 9.44244 96.7147 9.34644C96.7147 9.25043 96.7147 9.05844 96.8107 9.15444C97.5787 9.44244 98.3467 9.25044 99.1147 9.25044H101.611C101.995 9.25044 101.995 9.05844 101.995 8.67444C101.899 8.38644 101.899 8.29043 102.283 8.29043C102.475 8.29043 102.475 8.19444 102.571 8.00244C102.667 7.81044 103.051 7.61843 102.763 7.33043C102.571 7.13843 102.379 7.33043 102.187 7.33043ZM58.7947 11.9384H57.8347C57.3547 11.8424 56.8747 12.2264 56.3947 12.1304C55.5307 11.9384 54.9547 12.3224 54.2827 12.5144C53.9947 12.6104 53.9947 12.8984 53.9947 13.1864V13.3784C54.6667 13.4744 55.4347 13.4744 56.1067 13.4744C56.3947 13.4744 56.6827 13.3784 56.7787 13.1864C56.9707 12.8984 57.1627 12.6104 57.3547 12.4184C57.6427 12.1304 58.0267 12.6104 58.4107 12.4184C58.5067 12.3224 58.6987 12.4184 58.7947 12.4184C58.8907 12.4184 58.9867 12.2264 58.9867 12.1304C58.8907 12.1304 58.8907 11.9384 58.7947 11.9384ZM53.5147 12.6104C53.3227 12.5144 53.1307 12.5144 52.9387 12.5144C52.4587 12.5144 51.9787 12.5144 51.5947 12.8984C51.4027 13.0904 51.0187 13.1864 50.7307 12.9944C50.3467 12.8024 49.9627 12.8984 49.5787 13.1864C49.1947 13.4744 49.1947 13.5704 48.6187 14.1464C48.5227 14.2424 48.5227 14.2424 48.6187 14.3384C48.9067 14.3384 49.1947 14.3384 49.3867 14.1464C49.7707 13.7624 50.2507 13.6664 50.8267 13.7624C51.7867 13.9544 52.8427 13.6664 53.8027 13.6664C53.8987 13.6664 53.8987 13.4744 53.9947 13.4744L53.7067 13.1864C53.6107 12.9944 53.7067 12.7064 53.5147 12.6104Z" fill="#9896FF"/>
</svg>
