<svg width="23" height="26" viewBox="0 0 23 26" fill="none" xmlns="http://www.w3.org/2000/svg">
<g clip-path="url(#clip0_62_5013)">
<path d="M22.281 10.9837C20.147 10.9883 18.0655 10.3221 16.3307 9.07942V17.7432C16.3302 19.3478 15.8398 20.9139 14.9251 22.2322C14.0104 23.5505 12.7149 24.5581 11.212 25.1202C9.70916 25.6824 8.07047 25.7722 6.51513 25.3778C4.9598 24.9833 3.56197 24.1234 2.5086 22.913C1.45524 21.7026 0.796543 20.1995 0.620623 18.6046C0.444702 17.0097 0.75994 15.3991 1.52418 13.9882C2.28841 12.5773 3.46521 11.4334 4.89719 10.7094C6.32916 9.9855 7.94804 9.71603 9.53731 9.93707V14.2932C8.81061 14.0644 8.03022 14.0711 7.30755 14.3123C6.58488 14.5535 5.9569 15.0169 5.51326 15.6362C5.06962 16.2556 4.83302 16.9993 4.83723 17.7611C4.84144 18.523 5.08625 19.264 5.53671 19.8784C5.98717 20.4928 6.62024 20.9492 7.34553 21.1824C8.07082 21.4156 8.85124 21.4136 9.57536 21.1769C10.2995 20.9401 10.9303 20.4806 11.3777 19.8639C11.8251 19.2473 12.0662 18.505 12.0667 17.7432V0.812988H16.3307C16.3283 1.17362 16.3591 1.53371 16.4228 1.88869C16.5711 2.67996 16.8792 3.43269 17.3282 4.10085C17.7773 4.76902 18.3579 5.3386 19.0345 5.77479C19.9977 6.41092 21.1267 6.74964 22.281 6.74873V10.9837Z" fill="white"/>
</g>
<defs>
<clipPath id="clip0_62_5013">
<rect width="21.7079" height="24.809" fill="white" transform="translate(0.57312 0.812988)"/>
</clipPath>
</defs>
</svg>
