<svg width="102" height="36" viewBox="0 0 102 36" fill="none" xmlns="http://www.w3.org/2000/svg">
<path d="M26.7949 18C23.9839 21.1408 19.8988 23.1173 15.352 23.1173C10.8053 23.1173 6.72018 21.1408 3.90913 18C6.72018 14.8592 10.8053 12.8827 15.352 12.8827C19.8988 12.8827 23.9839 14.8592 26.7949 18Z" fill="white"/>
<path fill-rule="evenodd" clip-rule="evenodd" d="M0 28.2347C0 19.756 6.87332 12.8827 15.352 12.8827C10.8053 12.8827 6.72019 14.8592 3.90913 18C6.72019 21.1408 10.8053 23.1173 15.352 23.1173C19.8988 23.1173 23.9839 21.1408 26.7949 18C29.2258 20.7161 30.704 24.3027 30.704 28.2347V34.0343C30.704 34.788 30.093 35.3989 29.3394 35.3989H1.36462C0.610962 35.3989 0 34.788 0 34.0343V28.2347Z" fill="#19C3B2"/>
<path fill-rule="evenodd" clip-rule="evenodd" d="M9.59365 22.0008C7.4016 21.1133 5.46118 19.7341 3.90914 18C6.72019 14.8592 10.8053 12.8827 15.352 12.8827C19.8988 12.8827 23.9839 14.8592 26.7949 18C26.7949 18 26.7949 18 26.7949 18C29.2259 15.2839 30.704 11.6972 30.704 7.76533V1.96568C30.704 1.21202 30.093 0.601062 29.3394 0.601062L1.36463 0.601059C0.610971 0.601059 8.2023e-06 1.21202 8.13642e-06 1.96568L7.62939e-06 7.76533C6.60963e-06 14.2076 3.96819 19.7231 9.59365 22.0008Z" fill="#9896FF"/>
<path d="M41.7574 26V11.5772H44.8965V26H41.7574ZM44.0481 26V23.4548H51.3868V26H44.0481ZM62.2876 19.128L60.5908 20.2733C60.5908 19.1138 60.3787 18.223 59.9545 17.6008C59.5303 16.9787 58.9152 16.6676 58.1092 16.6676C57.3032 16.6676 56.6881 16.9787 56.2639 17.6008C55.8539 18.223 55.6488 19.128 55.6488 20.3157C55.6488 21.4752 55.868 22.366 56.3063 22.9882C56.7588 23.6103 57.4022 23.9214 58.2365 23.9214C58.8303 23.9214 59.3182 23.7871 59.6999 23.5184C60.0959 23.2498 60.3787 22.8326 60.5483 22.267H63.6662C63.3693 23.5821 62.733 24.586 61.7573 25.2789C60.7817 25.9717 59.608 26.3181 58.2365 26.3181C57.077 26.3181 56.073 26.0778 55.2246 25.597C54.3904 25.1162 53.747 24.4305 53.2945 23.5396C52.842 22.6347 52.6158 21.56 52.6158 20.3157C52.6158 19.029 52.842 17.9402 53.2945 17.0494C53.747 16.1444 54.3833 15.4586 55.2034 14.992C56.0377 14.5112 57.0063 14.2709 58.1092 14.2709C59.2404 14.2709 60.209 14.5112 61.015 14.992C61.8351 15.4728 62.4643 16.1586 62.9027 17.0494C63.3551 17.9402 63.5814 19.0007 63.5814 20.2309V20.9096H53.8248V19.128H62.2876ZM65.4899 26V14.6102H68.4805V26H65.4899ZM68.4805 19.4249H67.6109C67.6816 18.2513 67.9008 17.2898 68.2684 16.5403C68.6361 15.7768 69.1239 15.2112 69.7319 14.8435C70.34 14.4618 71.0328 14.2709 71.8105 14.2709C72.5599 14.2709 73.2174 14.4264 73.783 14.7375C74.3628 15.0344 74.8153 15.4869 75.1405 16.0949C75.4798 16.7029 75.6495 17.4736 75.6495 18.4068V26H72.6589V19.0007C72.6589 18.5058 72.5882 18.0887 72.4468 17.7493C72.3196 17.4099 72.1145 17.1554 71.8317 16.9858C71.5489 16.8019 71.1884 16.71 70.75 16.71C70.4107 16.71 70.0996 16.7807 69.8168 16.9221C69.534 17.0635 69.2936 17.2615 69.0956 17.516C68.8977 17.7564 68.7421 18.0392 68.629 18.3644C68.53 18.6896 68.4805 19.0431 68.4805 19.4249ZM82.2642 26.3181C81.2886 26.3181 80.4402 26.0778 79.719 25.597C78.9979 25.1162 78.4464 24.4305 78.0647 23.5396C77.6829 22.6347 77.492 21.56 77.492 20.3157C77.492 18.3785 77.9233 16.8868 78.7858 15.8404C79.6625 14.794 80.822 14.2709 82.2642 14.2709C83.5227 14.2709 84.5125 14.794 85.2336 15.8404C85.9548 16.8726 86.3153 18.3644 86.3153 20.3157C86.3153 21.56 86.1457 22.6347 85.8063 23.5396C85.4811 24.4446 85.0145 25.1375 84.4064 25.6182C83.7984 26.0848 83.0844 26.3181 82.2642 26.3181ZM82.8581 23.879C83.6217 23.879 84.2014 23.575 84.5973 22.967C84.9933 22.359 85.1912 21.4752 85.1912 20.3157C85.1912 19.1562 84.9862 18.2654 84.5761 17.6433C84.1802 17.0211 83.6075 16.71 82.8581 16.71C82.1087 16.71 81.536 17.0211 81.1401 17.6433C80.7442 18.2513 80.5462 19.1421 80.5462 20.3157C80.5462 21.4611 80.7442 22.3448 81.1401 22.967C81.5502 23.575 82.1228 23.879 82.8581 23.879ZM85.1912 26V10.7288H88.1818V26H85.1912ZM97.5104 26L95.5803 23.0094L94.7743 21.4186H95.3258L94.4986 23.0094L92.6109 26H89.4506L93.4381 20.1248L89.7263 14.6102H93.2048L94.8379 17.1978L95.6651 18.831H95.1137L95.9409 17.1978L97.5528 14.6102H100.713L97.0226 20.1248L100.989 26H97.5104Z" fill="#0F1921"/>
</svg>
