<svg width="102" height="36" viewBox="0 0 102 36" fill="none" xmlns="http://www.w3.org/2000/svg">
<path d="M26.7949 17.8131C23.9839 20.9539 19.8988 22.9305 15.352 22.9305C10.8053 22.9305 6.72018 20.9539 3.90913 17.8131C6.72018 14.6724 10.8053 12.6958 15.352 12.6958C19.8988 12.6958 23.9839 14.6724 26.7949 17.8131Z" fill="white"/>
<path fill-rule="evenodd" clip-rule="evenodd" d="M0 28.0478C0 19.5691 6.87332 12.6958 15.352 12.6958C10.8053 12.6958 6.72019 14.6724 3.90913 17.8131C6.72019 20.9539 10.8053 22.9305 15.352 22.9305C19.8988 22.9305 23.9839 20.9539 26.7949 17.8132C29.2258 20.5292 30.704 24.1159 30.704 28.0478V33.8474C30.704 34.6011 30.093 35.2121 29.3394 35.2121H1.36462C0.610962 35.2121 0 34.6011 0 33.8474V28.0478Z" fill="#19C3B2"/>
<path fill-rule="evenodd" clip-rule="evenodd" d="M9.59365 21.8138C7.4016 20.9263 5.46118 19.5471 3.90914 17.813C6.72019 14.6722 10.8053 12.6957 15.352 12.6957C19.8988 12.6957 23.9839 14.6722 26.7949 17.813C26.7949 17.813 26.7949 17.813 26.7949 17.813C29.2259 15.0969 30.704 11.5102 30.704 7.57833V1.77869C30.704 1.02503 30.093 0.414065 29.3394 0.414065L1.36463 0.414063C0.610971 0.414062 8.2023e-06 1.02503 8.13642e-06 1.77868L7.62939e-06 7.57833C6.60963e-06 14.0206 3.96819 19.5361 9.59365 21.8138Z" fill="#9896FF"/>
<path d="M41.7574 25.813V11.3902H44.8965V25.813H41.7574ZM44.0481 25.813V23.2678H51.3868V25.813H44.0481ZM62.2876 18.9409L60.5908 20.0863C60.5908 18.9268 60.3787 18.036 59.9545 17.4138C59.5303 16.7917 58.9152 16.4806 58.1092 16.4806C57.3032 16.4806 56.6881 16.7917 56.2639 17.4138C55.8539 18.036 55.6488 18.9409 55.6488 20.1287C55.6488 21.2882 55.868 22.179 56.3063 22.8012C56.7588 23.4233 57.4022 23.7344 58.2365 23.7344C58.8303 23.7344 59.3182 23.6001 59.6999 23.3314C60.0959 23.0628 60.3787 22.6456 60.5483 22.08H63.6662C63.3693 23.395 62.733 24.399 61.7573 25.0918C60.7817 25.7847 59.608 26.1311 58.2365 26.1311C57.077 26.1311 56.073 25.8908 55.2246 25.41C54.3904 24.9292 53.747 24.2434 53.2945 23.3526C52.842 22.4477 52.6158 21.373 52.6158 20.1287C52.6158 18.842 52.842 17.7532 53.2945 16.8624C53.747 15.9574 54.3833 15.2716 55.2034 14.805C56.0377 14.3242 57.0063 14.0839 58.1092 14.0839C59.2404 14.0839 60.209 14.3242 61.015 14.805C61.8351 15.2858 62.4643 15.9715 62.9027 16.8624C63.3551 17.7532 63.5814 18.8137 63.5814 20.0439V20.7226H53.8248V18.9409H62.2876ZM65.4899 25.813V14.4232H68.4805V25.813H65.4899ZM68.4805 19.2379H67.6109C67.6816 18.0643 67.9008 17.1027 68.2684 16.3533C68.6361 15.5898 69.1239 15.0242 69.7319 14.6565C70.34 14.2747 71.0328 14.0839 71.8105 14.0839C72.5599 14.0839 73.2174 14.2394 73.783 14.5505C74.3628 14.8474 74.8153 15.2999 75.1405 15.9079C75.4798 16.5159 75.6495 17.2866 75.6495 18.2198V25.813H72.6589V18.8137C72.6589 18.3188 72.5882 17.9017 72.4468 17.5623C72.3196 17.2229 72.1145 16.9684 71.8317 16.7987C71.5489 16.6149 71.1884 16.523 70.75 16.523C70.4107 16.523 70.0996 16.5937 69.8168 16.7351C69.534 16.8765 69.2936 17.0745 69.0956 17.329C68.8977 17.5694 68.7421 17.8522 68.629 18.1774C68.53 18.5026 68.4805 18.8561 68.4805 19.2379ZM82.2642 26.1311C81.2886 26.1311 80.4402 25.8908 79.719 25.41C78.9979 24.9292 78.4464 24.2434 78.0647 23.3526C77.6829 22.4477 77.492 21.373 77.492 20.1287C77.492 18.1915 77.9233 16.6998 78.7858 15.6534C79.6625 14.607 80.822 14.0839 82.2642 14.0839C83.5227 14.0839 84.5125 14.607 85.2336 15.6534C85.9548 16.6856 86.3153 18.1774 86.3153 20.1287C86.3153 21.373 86.1457 22.4477 85.8063 23.3526C85.4811 24.2576 85.0145 24.9504 84.4064 25.4312C83.7984 25.8978 83.0844 26.1311 82.2642 26.1311ZM82.8581 23.692C83.6217 23.692 84.2014 23.388 84.5973 22.78C84.9933 22.1719 85.1912 21.2882 85.1912 20.1287C85.1912 18.9692 84.9862 18.0784 84.5761 17.4562C84.1802 16.8341 83.6075 16.523 82.8581 16.523C82.1087 16.523 81.536 16.8341 81.1401 17.4562C80.7442 18.0643 80.5462 18.9551 80.5462 20.1287C80.5462 21.274 80.7442 22.1578 81.1401 22.78C81.5502 23.388 82.1228 23.692 82.8581 23.692ZM85.1912 25.813V10.5418H88.1818V25.813H85.1912ZM97.5104 25.813L95.5803 22.8224L94.7743 21.2316H95.3258L94.4986 22.8224L92.6109 25.813H89.4506L93.4381 19.9378L89.7263 14.4232H93.2048L94.8379 17.0108L95.6651 18.644H95.1137L95.9409 17.0108L97.5528 14.4232H100.713L97.0226 19.9378L100.989 25.813H97.5104Z" fill="white"/>
</svg>
