<svg width="22" height="26" viewBox="0 0 22 26" fill="none" xmlns="http://www.w3.org/2000/svg">
<g clip-path="url(#clip0_62_5021)">
<path d="M11.0161 7.64506C7.93436 7.64506 5.44861 10.1308 5.44861 13.2125C5.44861 16.2943 7.93436 18.78 11.0161 18.78C14.0978 18.78 16.5836 16.2943 16.5836 13.2125C16.5836 10.1308 14.0978 7.64506 11.0161 7.64506ZM11.0161 16.8321C9.0246 16.8321 7.3965 15.2089 7.3965 13.2125C7.3965 11.2162 9.01975 9.59295 11.0161 9.59295C13.0124 9.59295 14.6357 11.2162 14.6357 13.2125C14.6357 15.2089 13.0076 16.8321 11.0161 16.8321ZM18.1099 7.41732C18.1099 8.1393 17.5285 8.71592 16.8113 8.71592C16.0893 8.71592 15.5127 8.13446 15.5127 7.41732C15.5127 6.70019 16.0942 6.11873 16.8113 6.11873C17.5285 6.11873 18.1099 6.70019 18.1099 7.41732ZM21.7973 8.7353C21.715 6.99576 21.3176 5.45489 20.0433 4.18537C18.7738 2.91585 17.2329 2.51852 15.4933 2.4313C13.7005 2.32954 8.32684 2.32954 6.53401 2.4313C4.79931 2.51367 3.25844 2.911 1.98408 4.18052C0.709708 5.45005 0.317222 6.99092 0.230003 8.73045C0.128248 10.5233 0.128248 15.897 0.230003 17.6898C0.312377 19.4293 0.709708 20.9702 1.98408 22.2397C3.25844 23.5092 4.79447 23.9066 6.53401 23.9938C8.32684 24.0955 13.7005 24.0955 15.4933 23.9938C17.2329 23.9114 18.7738 23.5141 20.0433 22.2397C21.3128 20.9702 21.7101 19.4293 21.7973 17.6898C21.8991 15.897 21.8991 10.5281 21.7973 8.7353ZM19.4812 19.6135C19.1032 20.5632 18.3716 21.2948 17.417 21.6776C15.9876 22.2446 12.5957 22.1137 11.0161 22.1137C9.43646 22.1137 6.03976 22.2397 4.61519 21.6776C3.66547 21.2997 2.9338 20.568 2.551 19.6135C1.98408 18.184 2.1149 14.7922 2.1149 13.2125C2.1149 11.6329 1.98892 8.23621 2.551 6.81163C2.92895 5.86191 3.66062 5.13024 4.61519 4.74745C6.04461 4.18052 9.43646 4.31135 11.0161 4.31135C12.5957 4.31135 15.9924 4.18537 17.417 4.74745C18.3667 5.1254 19.0984 5.85707 19.4812 6.81163C20.0481 8.24106 19.9173 11.6329 19.9173 13.2125C19.9173 14.7922 20.0481 18.1889 19.4812 19.6135Z" fill="white"/>
</g>
<defs>
<clipPath id="clip0_62_5021">
<rect width="21.7079" height="24.809" fill="white" transform="translate(0.157349 0.812988)"/>
</clipPath>
</defs>
</svg>
