<svg width="23" height="26" viewBox="0 0 23 26" fill="none" xmlns="http://www.w3.org/2000/svg">
<g clip-path="url(#clip0_62_5019)">
<path d="M21.0225 2.36377H2.41095C1.55814 2.36377 0.865234 3.06637 0.865234 3.92887V22.5065C0.865234 23.369 1.55814 24.0716 2.41095 24.0716H21.0225C21.8753 24.0716 22.5731 23.369 22.5731 22.5065V3.92887C22.5731 3.06637 21.8753 2.36377 21.0225 2.36377ZM7.42605 20.9705H4.20863V10.6108H7.43089V20.9705H7.42605ZM5.81734 9.19593C4.78525 9.19593 3.95182 8.35766 3.95182 7.33041C3.95182 6.30317 4.78525 5.46489 5.81734 5.46489C6.84459 5.46489 7.68286 6.30317 7.68286 7.33041C7.68286 8.3625 6.84943 9.19593 5.81734 9.19593ZM19.4865 20.9705H16.2691V15.9312C16.2691 14.7295 16.2449 13.1838 14.5974 13.1838C12.9209 13.1838 12.664 14.4921 12.664 15.844V20.9705H9.44662V10.6108H12.5332V12.0257H12.5768C13.0081 11.2117 14.0595 10.354 15.6246 10.354C18.8808 10.354 19.4865 12.5006 19.4865 15.2916V20.9705Z" fill="white"/>
</g>
<defs>
<clipPath id="clip0_62_5019">
<rect width="21.7079" height="24.809" fill="white" transform="translate(0.865234 0.812988)"/>
</clipPath>
</defs>
</svg>
