<svg width="28" height="26" viewBox="0 0 28 26" fill="none" xmlns="http://www.w3.org/2000/svg">
<g clip-path="url(#clip0_62_5017)">
<path d="M26.7258 6.82621C26.4205 5.67783 25.5241 4.77656 24.3854 4.4713C22.3212 3.91406 14.0451 3.91406 14.0451 3.91406C14.0451 3.91406 5.76896 3.91406 3.70478 4.4713C2.56608 4.77656 1.66967 5.67783 1.3644 6.82621C0.812012 8.90493 0.812012 13.2368 0.812012 13.2368C0.812012 13.2368 0.812012 17.5687 1.3644 19.6474C1.66967 20.7958 2.56608 21.6583 3.70478 21.9636C5.76896 22.5208 14.0451 22.5208 14.0451 22.5208C14.0451 22.5208 22.3212 22.5208 24.3854 21.9636C25.5241 21.6583 26.4205 20.791 26.7258 19.6474C27.2782 17.5687 27.2782 13.2368 27.2782 13.2368C27.2782 13.2368 27.2782 8.90493 26.7258 6.82621ZM11.3413 17.1714V9.30226L18.2558 13.2368L11.3413 17.1714Z" fill="white"/>
</g>
<defs>
<clipPath id="clip0_62_5017">
<rect width="27.9101" height="24.809" fill="white" transform="translate(0.0899658 0.812988)"/>
</clipPath>
</defs>
</svg>
