<svg width="271" height="19" viewBox="0 0 271 19" fill="none" xmlns="http://www.w3.org/2000/svg">
<path d="M12.6166 10.4575C12.8919 10.5368 13.3049 10.5368 13.7178 10.4575C14.9567 10.2196 16.1956 10.2989 17.4344 10.2989C18.2603 10.2989 19.0862 10.2196 19.7745 9.98165C20.3251 9.82304 20.738 9.74373 21.151 10.1403C21.151 10.1403 21.4263 10.2196 21.5639 10.1403C22.6651 9.90234 23.904 9.98165 25.1429 9.98165C25.6935 9.98165 26.1064 9.82303 26.3817 9.50582C26.3817 9.42651 26.657 9.2679 26.7947 9.42651C27.07 9.74373 27.6206 9.82304 28.1712 9.74373C29.2724 9.58512 30.5112 9.66442 31.6124 9.66442C32.0254 9.66442 32.3007 9.58512 32.576 9.42651C32.7137 9.2679 32.8513 9.1093 32.989 9.1093L33.5396 9.34721C33.9525 9.58512 34.2278 9.82304 34.7784 9.34721C35.742 9.74373 36.8432 9.1886 37.9444 9.42651C38.3573 9.50581 38.7703 9.34721 39.0456 9.34721C40.2844 9.34721 41.3857 9.1093 42.6245 9.1886C43.8634 9.26791 45.1022 9.2679 46.3411 9.02999C46.754 9.02999 47.167 8.95068 47.4423 9.02999C48.1305 9.1886 48.6811 9.1093 49.2317 8.95069C50.1953 8.71278 51.1589 8.63347 52.2601 8.71277C53.2236 8.79208 54.1872 8.71278 55.1507 8.79208C56.1143 8.87139 57.2155 8.63347 58.1791 8.63347C59.2803 8.63347 60.3815 8.47486 61.4827 8.47486C62.1709 8.47486 62.9968 8.55417 63.6851 8.39556C64.511 8.23695 65.1992 8.55416 66.0251 8.47486C66.3005 8.39555 66.5758 8.47486 66.7134 8.39556C67.264 8.23695 67.9523 8.39556 68.5029 8.39556C69.0535 8.39556 69.6041 8.23695 70.2923 8.31625C70.9806 8.39556 71.6688 8.15765 72.3571 8.15765H74.8348C75.5231 8.15765 76.2113 7.91973 76.8996 8.07834C77.5878 7.91973 78.2761 7.99904 79.102 7.91973C80.2032 7.84043 81.3044 7.99903 82.4056 7.84042C83.5068 7.68181 84.4704 7.68181 85.4339 7.84042C85.9845 7.91973 86.5351 7.91973 86.9481 7.84042C87.4987 7.76112 88.0493 7.68182 88.5999 7.68182C90.114 7.68182 91.6282 7.5232 93.1424 7.60251C93.5553 7.68181 93.9683 7.68181 94.3812 7.60251C95.3448 7.4439 96.446 7.60251 97.4095 7.4439C98.3731 7.28529 99.4743 7.44391 100.576 7.3646C101.401 7.2853 102.09 7.28529 102.916 7.28529C103.191 7.04738 103.466 7.12669 103.879 7.12669C104.843 7.12669 105.806 7.28529 106.77 7.04738C107.045 6.96808 107.32 6.96808 107.596 7.04738C108.697 7.20599 109.798 7.28529 110.899 7.04738C111.312 6.96808 111.588 6.96808 112.001 6.96808C113.102 6.96808 114.203 7.04738 115.304 6.80947C116.405 6.57155 117.507 7.04738 118.608 6.88877H118.883C120.673 6.65086 122.462 6.80947 124.389 6.65086C127.004 6.41295 129.62 6.57155 132.235 6.41294C133.749 6.33364 135.126 6.49225 136.502 6.25434C137.191 6.41295 137.604 6.09573 138.154 6.01642C138.842 6.01642 139.531 6.17504 140.219 6.17504C141.871 6.17504 143.66 6.17504 145.312 5.93712C146.276 5.77851 147.239 5.69921 148.34 5.85782C149.029 5.93712 149.992 6.01642 150.818 5.77851C150.956 5.6992 151.231 5.69921 151.369 5.69921C152.057 5.93712 152.883 5.77851 153.571 5.77851C154.535 5.77851 155.636 5.5406 156.599 5.5406C157.701 5.5406 158.664 5.38199 159.765 5.6199C160.041 5.6199 160.454 5.61991 160.867 5.5406C161.968 5.30269 163.069 5.38199 164.17 5.38199C164.858 5.38199 165.547 5.22338 166.373 5.30269C167.061 5.38199 167.749 5.30268 168.575 5.22338C169.539 5.14408 170.502 5.14408 171.466 5.06477C172.429 4.98547 173.393 4.98547 174.494 4.98547C175.182 4.90616 175.87 4.82686 176.696 4.82686C178.623 4.82686 180.551 4.74756 182.478 4.74756C183.028 4.74756 183.579 4.58894 183.992 4.58894C184.955 4.82686 185.919 4.50965 186.883 4.50965C187.846 4.50965 188.947 4.58895 189.911 4.43034C190.461 4.35103 191.012 4.27173 191.7 4.27173C192.389 4.27173 193.214 4.35103 193.903 4.27173C194.729 4.19243 195.555 4.43034 196.243 4.27173C196.656 4.19243 197.069 4.27173 197.344 4.19242C197.757 4.19242 198.17 4.11312 198.445 4.11312C199.959 4.11312 201.336 4.11312 202.712 3.95451C203.538 3.8752 204.364 3.8752 205.328 3.95451C206.016 4.03381 206.98 4.11312 207.668 3.7959C208.494 3.55799 209.32 3.7959 210.008 3.55799C210.834 3.95451 211.935 3.7166 212.899 3.7959C214.275 3.87521 215.652 3.87521 217.028 3.7166C218.267 3.55799 219.368 3.63729 220.607 3.55799C222.947 3.39938 225.425 3.87521 227.49 3.32008C227.765 3.24078 228.04 3.24078 228.178 3.32008C229.004 3.55799 229.83 3.39938 230.793 3.39938C231.481 3.39938 232.17 3.24078 232.996 3.32008C234.51 3.32008 236.024 3.16147 237.676 3.24077C239.19 3.32008 240.842 3.00286 242.493 3.24077C243.044 3.32008 243.457 3.16147 244.008 3.16147C245.522 3.00286 246.898 2.92355 248.412 3.00286C249.651 3.08216 250.89 3.08216 252.129 2.84425C252.542 2.76495 253.093 2.76495 253.506 2.84425C253.781 2.84425 254.056 2.92356 254.331 2.84425C255.57 2.68564 256.671 2.76494 257.91 2.76494C258.461 2.76494 259.012 2.84425 259.425 2.76494C260.113 2.60634 260.663 2.44773 261.214 2.44773C261.765 2.44773 262.315 2.68565 262.866 2.68565H263.279C264.518 2.44773 265.619 2.52704 266.858 2.52704C267.271 2.52704 267.684 2.52704 267.959 2.28912C268.234 2.05121 268.647 2.20982 269.06 2.20982C269.198 2.20982 269.335 2.13051 269.335 2.13051C269.198 1.89259 269.473 1.73399 269.473 1.49608C269.473 1.33747 269.335 1.17886 269.06 1.09956C268.785 1.09956 268.647 1.02025 268.372 1.02025C267.271 1.17886 266.169 0.940947 265.068 1.02025H261.765H254.469C253.781 1.02025 252.955 0.940951 252.404 1.09956C251.441 1.33747 250.753 1.02025 249.927 1.02025H249.238C248.137 1.25816 246.898 1.25816 245.797 1.17886C244.971 1.09955 244.558 1.33747 244.283 1.65469C243.319 1.49608 242.493 1.17886 241.392 1.25817H238.364C237.4 1.25817 236.299 1.25816 235.336 1.33746C234.372 1.41677 233.271 1.17886 232.307 1.49608C232.17 1.49608 231.894 1.49608 231.757 1.41677C231.206 1.33747 230.931 1.33746 230.38 1.33746C228.04 1.57538 225.838 1.49608 223.498 1.49608C222.534 1.49608 221.571 1.49608 220.607 1.65469C220.056 1.73399 219.506 1.8133 218.818 1.65469C218.68 1.57538 218.405 1.57538 218.267 1.57538C217.303 1.81329 216.34 1.73399 215.376 1.57538C214.826 1.57538 214.275 1.49608 213.862 1.65469C213.036 1.8133 212.073 1.65469 211.247 1.81329C210.283 1.9719 209.457 1.81329 208.631 1.81329C204.639 1.81329 200.648 2.05121 196.793 2.05121H194.729C194.453 2.05121 194.04 2.0512 193.627 2.13051C192.939 2.28912 192.251 2.28912 191.425 2.20982C191.15 2.13051 190.874 2.13051 190.599 2.20982C189.636 2.44773 188.534 2.36843 187.571 2.28912C186.057 2.13051 184.68 2.52703 183.304 2.36842C183.028 2.28912 182.753 2.44773 182.478 2.44773C182.065 2.52703 181.514 2.52704 181.101 2.52704C179.449 2.52704 177.798 2.44773 176.283 2.76494C175.87 2.84425 175.458 2.76494 175.182 2.76494C173.393 2.76494 171.741 2.84426 170.089 2.92356C168.437 3.00286 166.923 3.08217 165.409 3.08217C164.17 3.08217 162.931 3.08216 161.83 3.39938C161.555 3.47868 161.417 3.39939 161.28 3.32008C161.004 3.16147 160.867 3.16147 160.454 3.24077C159.215 3.32008 157.976 3.39938 156.737 3.39938C156.186 3.39938 155.498 3.39938 154.948 3.47869C154.535 3.55799 154.122 3.55799 153.709 3.55799C151.782 3.55799 149.854 3.63729 147.927 3.63729H146.964C146.138 3.87521 145.174 3.7959 144.348 3.87521C143.11 3.95451 142.008 3.71659 140.77 3.95451C139.806 4.11312 138.842 4.11312 137.879 4.11312C136.915 4.11312 136.089 4.35104 135.126 4.11312L134.162 4.19242C133.749 4.35103 133.199 4.35104 132.648 4.35104C131.822 4.35104 130.859 4.35103 130.033 4.43034C129.069 4.50964 128.243 4.27173 127.417 4.43034H126.729C125.766 4.58895 124.802 4.58894 123.838 4.58894C122.737 4.58894 121.774 4.90616 120.673 4.66825L120.122 4.74756C119.158 4.90617 118.195 4.90617 117.231 4.90617C116.405 4.90617 115.579 4.98547 114.754 4.90617C113.79 4.82686 112.826 5.14408 111.863 5.06477C110.211 4.90616 108.697 5.06477 107.045 5.22338C106.907 5.30268 106.77 5.22338 106.632 5.22338C105.669 5.22338 104.567 5.30269 103.604 5.30269C102.503 5.30269 101.539 5.22338 100.576 5.46129C100.3 5.5406 100.163 5.5406 99.8872 5.46129C99.3366 5.30269 98.786 5.38199 98.0978 5.46129C97.5472 5.5406 96.9966 5.46129 96.446 5.46129C93.28 5.46129 90.114 5.85782 87.0857 5.85782C85.8469 5.85782 84.4704 5.93712 83.2315 5.93712C82.1303 5.93712 80.8914 5.93712 79.7902 6.09573C78.5514 6.25434 77.4502 6.49225 76.0737 6.25434C76.0737 6.17503 75.7984 6.25434 75.6607 6.33365C75.2478 6.41295 74.8348 6.33364 74.4218 6.41294C73.4583 6.57155 72.4947 6.41295 71.5312 6.49225C70.8429 6.57156 70.017 6.41294 69.4664 6.80947C68.6405 6.73016 67.8146 6.65086 67.1264 6.65086C66.9887 6.65086 66.851 6.65086 66.851 6.73017C66.1628 6.80947 65.4745 6.73017 64.6486 6.73017C63.6851 6.73017 62.7215 6.57156 61.8956 6.96808C61.758 7.12669 61.4827 7.04738 61.2074 7.04738C60.6568 6.88877 60.1062 6.88878 59.5556 6.96808C58.592 7.12669 57.7661 7.04738 56.8025 7.04738C55.9766 7.04738 55.1507 7.12669 54.3248 7.3646C53.6366 7.12669 52.9483 7.4439 52.2601 7.4439C51.5718 7.4439 50.8836 7.3646 50.333 7.52321C50.0577 7.60251 49.92 7.60251 49.6447 7.52321C49.3694 7.3646 49.0941 7.2853 48.6811 7.3646C47.3046 7.60252 45.7905 7.68182 44.2763 7.68182C43.7257 7.68182 43.0375 7.68182 42.4869 7.76112C41.3857 7.91973 40.2844 7.99903 39.1832 7.84042C38.9079 7.76112 38.6326 7.76112 38.3573 7.91973C37.8067 8.23695 37.1185 7.91973 36.7055 8.31625C36.4302 8.47486 36.0173 8.47486 35.6043 8.47486C34.5031 8.31625 33.5396 8.15765 32.4383 8.39556C30.9242 8.07834 29.5477 8.39556 28.3088 8.55417C27.7582 8.63347 27.3453 8.71278 26.9323 8.55417C26.657 8.47486 26.3817 8.47486 26.1064 8.63347C25.5558 8.95068 25.2805 9.02999 24.7299 8.63347C24.7299 8.55416 24.317 8.55416 24.1793 8.63347C24.0417 8.87138 23.7664 9.02999 23.904 9.2679C24.0417 9.34721 24.0417 9.42651 23.7664 9.42651C23.6287 9.42651 23.491 9.42651 23.491 9.34721C23.2157 9.26791 23.2157 9.1093 22.9404 8.95069C22.8028 8.87138 22.5275 8.79208 22.3898 8.79208C21.7016 8.79208 21.0133 8.71277 20.4627 8.87138C19.9121 9.02999 19.6368 9.10929 19.0862 9.02999C18.2603 9.02999 17.4344 8.95069 16.6085 9.1093C15.7826 9.2679 15.0944 9.1886 14.2684 9.1093C13.4425 9.02999 12.6166 8.95069 11.9284 9.34721C11.7907 9.42651 11.5154 9.42651 11.3778 9.42651C10.4142 9.42651 9.45067 9.58512 8.48711 9.58512C8.21181 9.58512 8.21181 9.74373 8.34946 9.82303C8.62477 9.98164 8.48711 10.2989 9.03772 10.1403C10.2766 10.3782 11.5154 10.1402 12.6166 10.4575ZM56.1143 15.0571C56.5272 15.0571 56.8025 14.8985 57.2155 14.9778C58.4544 14.9778 59.2803 14.6606 59.8309 13.9469C60.1062 14.2641 60.3815 14.5813 60.9321 14.5813C61.4827 14.5813 62.1709 14.6606 62.7215 14.502C62.9968 14.4227 63.1345 14.3434 62.9968 14.1055C62.8592 14.0262 62.9968 13.9469 63.1345 13.9469C63.5474 13.9469 63.8227 14.1055 64.2357 14.1055C65.7498 14.1055 67.1264 14.1848 68.6405 14.0262C69.8794 13.8676 71.1182 13.709 72.3571 13.6296C74.4218 13.471 76.4866 13.3124 78.4137 13.0745C79.6526 12.9159 80.7538 12.8366 81.9926 12.8366C82.4056 12.8366 82.9562 12.8366 83.3691 12.7573C85.4339 12.3608 87.774 12.5987 89.9764 12.1229C90.6646 11.9643 91.3529 11.9643 92.1788 11.9643C92.7294 11.9643 93.4177 12.1229 94.1059 11.8849C95.7577 11.9642 97.2719 11.5677 98.9237 11.5677C99.7496 11.2505 100.576 11.647 101.264 11.4884C101.814 11.3298 102.365 11.3298 102.778 11.3298C104.017 11.3298 105.256 11.2505 106.357 11.0919C106.632 11.0126 106.907 10.9333 107.183 10.9333C109.11 11.1712 111.037 10.6954 112.964 10.6954C113.102 10.6954 113.239 10.6161 113.377 10.6161C113.515 10.5368 113.515 10.3782 113.79 10.4575C114.341 10.6161 114.754 10.3782 115.304 10.4575C116.681 10.6161 117.919 10.5368 119.296 10.2989C120.673 10.0609 122.187 10.0609 123.701 10.0609C124.664 10.0609 125.628 10.0609 126.591 9.82303H127.142C128.243 10.0609 129.069 9.98165 130.17 9.58512C130.583 9.42652 130.996 9.74373 131.409 9.66442C132.098 9.50581 132.923 9.50582 133.612 9.50582C133.749 9.50582 134.025 9.34721 134.162 9.2679C134.438 9.10929 134.438 9.1886 134.575 9.2679C134.851 9.42651 134.851 9.50581 135.126 9.42651C136.089 9.42651 137.053 9.34721 137.879 8.87138C138.017 8.79208 138.292 8.79208 138.429 8.87138C138.705 9.02999 138.705 9.1093 139.118 9.1093C140.081 9.1093 141.182 9.1886 142.146 9.1093C142.834 9.02999 143.247 9.02999 143.798 8.87138C144.624 9.02999 145.587 8.87138 146.413 8.71277C146.689 8.71277 147.101 8.71278 147.514 8.79208C147.927 8.95069 148.34 8.87138 148.753 8.71277C149.029 8.63347 149.304 8.47486 149.717 8.55417C150.818 8.79208 152.057 8.71277 153.158 8.63347C154.535 8.55416 156.049 8.55416 157.425 8.23694C158.526 7.99903 159.49 7.91973 160.454 8.07834C161.417 8.23695 162.243 8.23695 163.207 8.07834C164.721 7.84042 166.235 7.91973 167.749 7.84042C168.988 7.76112 170.227 7.76112 171.466 7.60251C171.879 7.60251 172.292 7.5232 172.705 7.60251C173.806 7.84042 174.769 7.76112 175.87 7.52321C176.146 7.52321 176.559 7.44391 176.696 7.52321C177.522 7.76112 178.348 7.4439 179.036 7.4439C180.826 7.4439 182.615 7.4439 184.405 7.28529C185.368 7.20599 186.332 7.20599 187.296 7.20599C187.984 7.12668 188.672 7.04738 189.36 7.04738C190.049 7.04738 190.874 7.20599 191.563 7.12669C192.526 7.04738 193.627 6.96808 194.591 6.96808C196.243 6.96808 197.757 6.96807 199.271 6.80947C200.648 6.65086 201.886 6.73016 203.125 6.65086C204.227 6.57155 205.465 6.65086 206.704 6.57156C207.117 6.49226 207.668 6.49226 208.218 6.57156C208.631 6.65086 209.182 6.65086 209.733 6.49225C210.283 6.33364 211.384 6.25434 211.66 6.33365C212.486 6.57156 213.312 6.49225 214.275 6.41294C214.963 6.33364 215.652 6.33365 216.477 6.57156C216.753 6.65086 217.303 6.49226 217.441 6.17504L217.303 5.85782C217.303 5.77851 217.303 5.77851 217.441 5.69921H217.579C218.129 6.01643 218.542 6.33364 218.267 6.80947C218.129 7.04738 218.129 7.12668 218.542 7.20599C219.781 7.20599 220.882 7.20599 221.846 6.88877C222.121 6.73016 222.534 6.73016 222.947 6.65086C223.085 6.57155 223.36 6.49225 223.085 6.33365C222.947 6.25434 222.947 6.09573 222.672 6.01642C221.846 5.6199 221.02 5.22338 219.781 5.22338C218.818 5.22338 217.854 5.22339 216.89 5.14408C215.789 5.06478 214.826 5.06477 213.862 5.06477C212.21 5.06477 210.558 5.14408 208.907 5.14408C208.631 5.14408 208.218 5.14408 207.943 5.06477C207.117 4.82686 206.016 4.90617 205.19 4.90617C203.538 4.90617 202.024 4.98547 200.51 5.06477C198.858 5.14408 197.206 5.06478 195.555 5.14408C193.49 5.22339 191.287 5.06477 189.085 5.22338L185.781 5.46129C184.68 5.5406 183.579 5.46129 182.478 5.46129C182.065 5.46129 181.652 5.38199 181.239 5.46129C180 5.69921 178.761 5.6199 177.66 5.69921C175.87 5.85782 174.219 5.77851 172.567 5.85782C171.328 5.93712 170.089 5.77851 168.988 6.09573C168.713 6.17504 168.3 6.17504 168.162 6.09573C167.198 5.93712 166.373 6.01643 165.409 6.17504C164.858 6.25434 164.308 6.25434 163.757 6.25434C163.344 6.25434 163.207 6.57156 162.794 6.49225C161.83 6.33364 160.867 6.49225 159.903 6.49225C158.939 6.49225 158.114 6.57155 157.15 6.65086C156.049 6.73016 155.085 7.04738 154.122 6.73017C153.296 6.80947 152.607 6.65086 151.919 6.80947C150.956 6.88877 149.992 6.96808 149.029 6.96808C146.826 6.96808 144.761 7.20599 142.559 7.20599C142.421 7.20599 142.284 7.20599 142.146 7.28529C141.045 7.52321 139.944 7.4439 138.842 7.4439C138.017 7.4439 137.328 7.52321 136.64 7.84042L136.089 7.91973C135.126 7.60251 134.025 7.76112 133.061 7.91973C132.923 7.99904 132.648 7.99904 132.373 7.91973C131.409 7.84043 130.583 7.99903 129.62 8.07834C128.656 8.15764 127.693 8.23694 126.729 8.23694C126.041 8.23694 125.49 8.47486 124.802 8.31625C124.114 8.15764 123.288 8.47486 122.6 8.47486C121.636 8.47486 120.948 8.71277 119.984 8.63347C119.021 8.55416 118.057 8.71278 117.094 8.79208C116.13 8.87139 115.166 9.1093 114.341 9.1093C113.239 9.1093 112.276 9.02999 111.175 9.1093C109.11 9.2679 106.907 9.50582 104.843 9.58512C102.778 9.66443 100.713 9.74373 98.6484 10.0609C97.5472 10.2196 96.3083 10.2989 95.2071 10.2989C94.2436 10.2989 93.28 10.2989 92.3165 10.5368C91.7658 10.6954 91.2152 10.7747 90.8023 10.6954C88.3246 10.6161 86.1222 11.0919 83.6445 11.1712C82.6809 11.4091 81.442 11.2505 80.3408 11.4091C78.689 11.647 77.0372 11.8849 75.3854 11.8849C74.6971 11.8849 74.1465 12.1229 73.4583 12.2022C72.77 12.2815 72.0818 12.0436 71.5312 12.2022C71.3935 12.2022 71.2559 12.2815 71.1182 12.2815C68.6405 12.2815 66.3005 12.7573 63.8227 13.0745C63.1345 13.1538 62.7215 13.3124 62.4462 13.6296C62.1709 13.8676 62.0333 13.7883 61.758 13.6296C61.758 13.5503 61.4827 13.471 61.4827 13.471C59.5556 13.7882 57.6284 13.7883 55.7013 14.0262C55.426 14.0262 55.1507 14.3434 55.1507 14.6606C55.1507 14.8192 55.7013 15.0571 56.1143 15.0571ZM1.87988 10.854C2.56813 10.7747 3.11873 10.7747 3.53169 10.7747C3.80699 10.6954 4.21994 10.5368 4.21994 10.4575C4.21994 10.2196 3.94464 10.061 3.53169 10.2196C3.25638 10.2196 3.11873 10.1402 2.84343 10.0609C2.01753 9.82303 1.05397 9.90234 0.228067 10.1403C-0.0472341 10.2196 -0.0472341 10.3782 0.0904159 10.4575C0.365718 10.6161 0.503369 10.6954 0.77867 10.7747C1.19162 10.854 1.60457 10.7747 1.87988 10.854ZM77.4502 18.15C78.1384 17.9121 79.102 18.0707 79.7902 17.6742C79.9279 17.5949 80.0655 17.5949 80.2032 17.7535C80.4785 18.15 81.3044 18.0707 81.7173 17.9121C82.5432 17.5949 83.5068 17.9914 84.0574 17.6742C85.021 17.119 85.7092 17.6742 86.5351 17.5156C87.2234 17.3569 88.1869 17.5156 88.8752 17.1983C89.2881 17.119 89.5634 17.119 89.9764 17.1983C91.2152 17.4363 92.3165 17.2776 93.4177 16.9604C93.693 16.8811 93.9683 16.8018 94.2436 16.8811C94.7942 17.0397 95.3448 16.9604 95.8954 16.9604C96.7213 16.8018 97.6848 16.7225 98.6484 16.7225C98.9237 16.7225 99.3366 16.6432 99.6119 16.5639C100.025 16.4846 100.576 16.4846 101.126 16.4846C101.677 16.4846 102.227 16.4053 102.916 16.4053C102.778 16.326 102.778 16.326 102.778 16.2467C102.64 16.2467 102.503 16.1674 102.365 16.0881C102.503 16.0881 102.64 16.0088 102.778 16.0088C103.191 16.0088 103.604 16.0881 104.017 16.0881C105.806 16.0881 107.733 15.9295 109.523 15.9295C110.349 15.9295 111.037 15.9295 111.725 15.6916C112.001 15.6122 112.276 15.5329 112.551 15.6123C113.928 15.7709 115.166 15.6123 116.543 15.4536C118.195 15.295 119.709 15.2157 121.361 15.1364C123.15 15.0571 124.664 14.7399 126.454 14.8192C127.142 14.502 127.968 14.9778 128.656 14.7399C130.446 14.8985 132.235 14.2641 134.025 14.5813C134.162 14.5813 134.438 14.5813 134.575 14.502C135.401 14.3434 136.365 14.4227 137.328 14.3434C138.154 14.2641 138.98 14.3434 139.806 14.2641C140.77 14.1848 141.871 14.0262 142.972 14.0262C143.935 14.0262 144.899 13.7882 146 13.8676C147.239 13.9469 148.616 13.9469 149.717 13.7883C150.956 13.6296 152.057 13.709 153.158 13.6296C154.122 13.5503 155.085 13.5503 156.049 13.471C156.875 13.3917 157.838 13.3124 158.802 13.3917C160.454 13.5503 161.968 13.3124 163.482 13.3124C163.62 13.3124 163.895 13.3124 164.17 13.2331C164.858 13.0745 165.547 13.0745 166.373 13.0745H168.988C170.089 13.0745 171.053 12.8366 172.016 12.7573C172.429 12.2815 172.567 12.678 172.98 12.7573C173.255 12.8366 173.668 12.8366 173.943 12.8366C175.182 12.8366 176.421 12.7573 177.522 12.8366C178.623 12.9159 179.725 12.5987 180.826 12.5987C182.891 12.5987 185.093 12.5194 187.158 12.5194C187.433 12.5194 187.846 12.5194 188.259 12.4401C188.672 12.3608 189.223 12.2815 189.773 12.4401C190.049 12.5194 190.324 12.5194 190.599 12.4401C191.287 12.2815 191.976 12.3608 192.526 12.3608C193.352 12.3608 194.316 12.3608 195.004 12.2815C195.83 12.2022 196.656 12.0436 197.482 12.2815C197.757 12.3608 198.032 12.2815 198.17 12.1229L199.546 11.9643C200.097 11.8849 200.51 12.1229 201.061 12.1229C202.024 12.1229 202.85 11.8849 203.676 12.1229H210.421C212.073 12.1229 213.862 12.1229 215.514 12.2022C216.89 12.2815 218.267 12.3608 219.506 12.2815C222.534 12.1229 225.562 12.3608 228.453 12.3608C229.004 12.3608 229.417 12.3608 229.83 12.4401C230.655 12.5987 231.481 12.5987 232.307 12.5987H233.133C234.234 12.9159 235.473 12.8366 236.712 12.8366C237.263 12.9159 237.813 12.8366 238.226 12.9159C239.328 13.1538 240.291 13.0745 241.668 13.1538C241.255 12.8366 240.842 12.7573 240.842 12.4401C240.704 12.2022 240.429 12.2022 240.153 12.2815C239.878 12.3608 239.328 12.3608 239.328 12.2815C239.328 11.7263 238.777 11.8056 238.364 11.8056C237.125 11.647 236.024 11.647 234.923 11.3298H234.234C232.17 11.3298 230.243 10.9333 228.178 11.0126C227.627 10.7747 227.077 11.0126 226.526 11.0919C225.838 11.0919 225.287 10.854 224.461 10.9333C224.186 11.0126 223.911 10.854 223.498 10.9333C223.222 10.9333 222.947 10.9333 222.809 10.854C222.121 10.4575 221.158 10.6954 220.332 10.6954C219.781 10.6954 219.093 10.854 218.542 10.9333C218.129 11.0126 217.854 10.9333 217.579 10.7747C217.441 10.6954 217.166 10.6161 217.028 10.6161C216.34 10.7747 215.514 10.854 214.826 10.6954C214.413 10.6161 214.137 10.7747 214 11.0126C213.862 11.0919 213.862 11.2505 213.862 11.3298C213.862 11.4091 213.724 11.4884 213.724 11.4884L213.312 11.3298L213.036 11.0919C212.761 10.5368 212.761 10.6161 211.935 10.6161C211.522 10.6161 211.109 10.6954 210.834 10.6161C210.008 10.5368 209.32 10.6954 208.631 10.6954C207.943 10.6954 207.117 10.6161 206.429 10.5368C205.603 10.4575 204.777 10.5368 203.951 10.6161C202.988 10.6954 202.162 10.4575 201.336 10.5368C199.822 10.6954 198.17 10.6161 196.656 10.6161C196.243 10.6161 195.692 10.5368 195.279 10.6954C194.729 10.9333 193.903 10.7747 193.077 10.7747H191.15C189.773 10.7747 188.534 10.854 187.296 10.854C185.919 10.854 184.68 11.1712 183.304 10.854C183.166 10.854 182.891 10.854 182.615 10.9333C182.065 11.0919 181.377 11.0126 180.688 11.0126C178.761 11.0126 176.834 11.0126 174.907 11.1712C173.806 11.2505 172.705 11.2505 171.603 11.3298C169.676 11.4884 167.749 11.4091 165.96 11.4091C165.547 11.4091 164.996 11.4091 164.583 11.4884C163.895 11.647 163.344 11.5677 162.656 11.5677C160.041 11.5677 157.563 11.8849 155.085 11.8849C154.81 11.8849 154.535 11.9643 154.259 12.0436C153.846 12.2022 153.571 12.2022 153.02 12.1229C152.47 12.0436 151.782 12.0436 151.093 12.1229C148.616 12.4401 146.138 12.4401 143.66 12.4401C143.11 12.4401 142.559 12.3608 142.008 12.5987C141.458 12.8366 141.045 12.9159 140.357 12.7573C139.806 12.5987 139.118 12.678 138.567 12.678C138.154 12.678 137.741 12.8366 137.328 12.7573C136.502 12.7573 135.814 12.8366 135.126 12.9159C134.3 12.9952 133.474 12.7573 132.923 13.3124C132.923 13.3124 132.51 13.3124 132.235 13.2331C131.96 13.2331 131.547 13.0745 131.272 13.1538C129.757 13.2331 128.106 12.7573 126.867 13.471C126.729 13.5503 126.591 13.5503 126.454 13.471C125.903 13.3917 125.353 13.3124 124.94 13.471C124.389 13.7089 123.838 13.471 123.15 13.5503C121.911 13.7089 120.535 13.8676 119.296 13.8676C116.681 13.8676 114.065 14.0262 111.588 14.4227C111.312 14.4227 111.037 14.502 110.899 14.4227C109.936 14.3434 109.11 14.7399 108.284 14.502C107.458 14.8192 106.494 14.7399 105.669 14.7399C105.393 14.7399 105.118 14.8192 104.843 14.9778C104.843 15.0571 104.567 15.0571 104.567 15.0571C103.053 14.8985 101.539 15.0571 100.163 15.2157C98.2354 15.4536 96.3083 15.5329 94.3812 15.7709C93.8306 15.8502 93.28 15.6123 92.867 15.8502C92.4541 16.0881 91.9035 16.0881 91.3529 16.0088C90.527 15.8502 89.7011 15.9295 88.8752 16.0881C88.4622 16.1674 88.1869 16.2467 87.774 16.2467C86.9481 16.2467 86.2598 16.4846 85.4339 16.4053C84.4704 16.326 83.6445 16.5639 82.8185 16.6432C82.5432 16.7225 82.2679 16.7225 81.9926 16.7225C81.1667 16.7225 80.3408 16.8811 79.5149 16.8811C79.102 16.8811 78.5514 16.9604 78.2761 17.0397C77.7255 17.1983 77.1749 17.0397 76.7619 17.119C76.4866 17.1983 76.349 17.3569 76.349 17.5156L76.7619 17.9914C76.8996 18.2293 77.1749 18.3086 77.4502 18.15Z" fill="#9896FF"/>
</svg>
