<svg width="106" height="18" viewBox="0 0 106 18" fill="none" xmlns="http://www.w3.org/2000/svg">
<path d="M105.647 5.82622C105.082 4.84959 103.862 4.10886 102.538 4.10886C101.373 4.10886 100.349 4.56336 100.349 5.74181C100.349 6.73413 101.638 7.40722 102.981 8.23235C104.446 9.10725 105.966 10.1834 105.966 12.0523C105.966 14.4925 103.476 15.9897 100.596 15.9897C99.4126 15.9897 98.1767 15.7711 96.7813 15.2662L97.0102 12.0182C97.6821 13.3146 98.9366 14.3405 100.79 14.3405C102.221 14.3405 103.28 13.6847 103.28 12.5398C103.28 11.5637 102.414 10.9583 101.355 10.3528C99.1292 9.07425 97.7173 8.04676 97.7173 6.1963C97.7173 3.419 100.154 2.49377 102.68 2.49377C104.145 2.49377 105.065 2.74644 106 2.74644L105.647 5.82622ZM93.3016 8.73663C92.9824 9.24198 92.5781 9.93076 92.3293 10.4367C92.118 11.3954 92.0118 12.6751 92.0118 14.0878C92.0118 14.677 92.118 15.4675 92.4003 15.737H88.7093C89.3619 15.1483 89.6277 11.5312 89.593 10.3863C89.0983 8.75447 88.4259 7.18917 87.4019 5.28731C86.75 4.09317 85.9895 2.96449 85.5124 2.74644C86.3422 2.67989 87.4019 2.62904 87.9148 2.62904C88.8326 2.62904 89.0807 2.74645 89.6464 3.9249C90.5278 5.82675 91.1815 7.25572 91.5706 8.31676C92.5071 6.91971 93.1602 5.96094 94.0081 4.64831C94.22 4.32854 94.3966 3.92489 94.3966 3.53749C94.3966 3.23395 94.3432 2.89794 94.2024 2.74644H97.8587C97.1522 2.89794 93.9724 7.66044 93.3016 8.73663ZM80.4607 5.79321L78.2713 10.3187H81.8385L80.4607 5.79321ZM84.7531 15.8544C83.5866 15.8544 83.4991 15.8214 82.5626 12.7589L82.2275 11.6313C81.663 11.8835 80.6549 12.0014 79.0482 12.0014H77.4234L77.1405 12.5733C76.7345 13.4326 76.187 14.4406 76.187 15.1488C76.187 15.3171 76.2046 15.5016 76.2756 15.7375H66.6315C67.1796 15.1488 67.3562 13.2475 67.6209 9.79712L67.6737 8.97306C67.8151 7.00411 67.9224 5.48966 67.9037 4.43025C67.8861 3.55534 67.7975 2.99967 67.5504 2.74753H71.2778C70.7473 3.13494 70.5525 5.22076 70.306 8.67115L70.235 9.49519C70.1465 10.7743 69.9704 12.0864 69.9704 13.3655C69.9704 13.9536 70.2174 14.0883 70.8541 14.0883C73.1139 14.0883 73.6801 14.038 74.7035 13.3817C75.3391 12.2709 76.0643 10.8738 76.7697 9.42703L77.7249 7.49216C78.6251 5.67471 79.5077 3.82318 79.5077 3.4704C79.5077 3.21718 79.4373 2.98235 79.3322 2.74644H82.2991C82.2991 2.74644 83.4997 6.98734 83.7649 7.89525L84.347 9.94861C85.3534 13.3985 85.9901 15.0807 86.838 15.737C86.1303 15.8214 85.124 15.8544 84.7531 15.8544ZM60.7154 15.9897C57.2004 15.9897 55.1689 13.2302 55.1689 10.1342C55.1689 5.82674 57.6236 2.49377 62.3044 2.49377C63.7703 2.49377 64.4597 2.74644 65.6422 2.74644L65.2895 6.06158C64.6182 4.90045 63.5227 4.1094 62.0574 4.1094C59.1433 4.1094 57.9598 7.10529 57.9598 9.6797C57.9598 12.4727 59.6028 14.0034 61.7922 14.0034C62.9757 14.0034 64.0173 13.7004 65.7666 12.5398C65.0601 14.6943 63.417 15.9897 60.7154 15.9897ZM48.5287 4.32853C48.193 4.32853 47.7858 4.32852 47.4689 4.36207C47.3627 4.91721 47.2741 5.87654 47.1503 7.42399L47.0793 8.33353C47.2571 8.36762 47.486 8.38493 47.6984 8.38493C49.3931 8.38493 50.5596 7.40775 50.5596 5.92793C50.5596 4.91721 49.8179 4.32853 48.5287 4.32853ZM53.4555 16.2927C52.4491 16.2927 52.2015 16.1406 51.8664 15.7029L48.051 10.6547C47.7506 10.2678 47.5212 9.94807 47.0447 9.94807H46.9561L46.8862 10.9242C46.7971 12.2536 46.7442 13.3146 46.7442 14.1051C46.7618 14.98 46.868 15.5178 47.1157 15.737H43.4241C43.9534 15.2825 44.1471 13.768 44.4481 9.79657L44.5015 8.97253C44.6429 7.0209 44.7491 5.50589 44.7309 4.44648C44.7128 3.52071 44.6077 2.94826 44.3419 2.74644C46.4438 2.74644 49.3755 2.74644 49.3755 2.74644C51.0179 2.74644 53.2789 3.01644 53.2789 5.55676C53.2789 7.64258 51.8125 8.78748 49.994 9.3253C50.1706 9.47734 50.488 9.86421 50.6828 10.1001L53.4555 13.6003C55.1866 15.7711 55.3274 15.8717 55.9464 16.1747C55.1689 16.2586 54.1274 16.2927 53.4555 16.2927ZM36.254 5.79321L34.0447 10.3187H37.6301L36.254 5.79321ZM40.5447 15.8544C39.3799 15.8544 39.2913 15.8214 38.3553 12.7589L38.0197 11.6313C37.4534 11.8835 36.4471 12.0014 34.8398 12.0014H33.215L32.9327 12.5733C32.6499 13.1799 31.961 14.4254 31.9786 15.1488C31.9786 15.3171 31.9962 15.4854 32.0672 15.7375H28.7998C29.7358 14.8458 30.9194 12.7762 32.5618 9.42756L33.516 7.4927C34.3809 5.74288 35.2998 3.75717 35.2998 3.47094C35.2998 3.21772 35.23 2.98289 35.1232 2.74699H38.0912C38.0912 2.74699 38.867 5.5573 39.5565 7.8958L40.1392 9.94916C41.1461 13.399 41.7816 15.0812 42.6296 15.7375C41.8702 15.8214 40.9161 15.8544 40.5447 15.8544ZM23.7299 4.31176C23.4647 4.31176 23.112 4.31175 22.7764 4.34584C22.6349 5.25429 22.5464 6.12922 22.4765 7.08799C22.4765 7.08799 22.4231 7.91204 22.4231 7.87849H22.7764C24.5074 7.87849 26.0976 7.30658 26.0976 5.79321C26.0976 4.91722 25.3377 4.31176 23.7299 4.31176ZM23.2892 9.46057H22.318L22.1766 11.3787C22.1062 12.2206 22.0704 12.9267 22.0528 13.768C22.0528 13.8865 22.4413 14.1386 23.3591 14.1386C25.2667 14.1386 26.5213 13.2302 26.5213 11.732C26.5213 10.066 25.0901 9.46057 23.2892 9.46057ZM23.501 15.737H18.7321C19.333 15.2316 19.492 13.2632 19.7567 9.79657L19.8095 8.98929C19.9515 7.02034 20.0571 5.50589 20.0395 4.44648C20.0219 3.53748 19.9157 2.94826 19.6505 2.74644H24.9845C26.2561 2.74644 28.7998 2.81408 28.7998 5.33762C28.7998 7.02035 27.1568 8.06353 25.6558 8.4347C27.7753 8.63652 29.365 9.61207 29.365 11.6984C29.3644 13.9531 27.1392 15.737 23.501 15.737Z" fill="#B9B1B1"/>
<path d="M7.99854 0.927726C7.52602 0.927726 7.42834 1.00619 7.275 1.16905C7.21479 1.16526 7.15176 1.16418 7.08588 1.16418C6.7224 1.16418 6.25556 1.21503 5.85744 1.46879C5.47295 1.71065 5.29007 2.13863 5.4951 2.45191C5.4951 2.45191 5.63254 2.25984 6.08461 2.25984C6.14822 2.25984 6.21864 2.26632 6.29361 2.27227C6.91833 2.34261 7.38063 2.6559 7.32441 3.48319C7.27443 4.30994 6.949 5.23193 5.61777 5.24275C5.61777 5.24275 5.44625 5.24276 5.26338 5.22652C4.64377 5.16214 4.44897 4.7915 4.44897 4.7915C4.44897 4.7915 4.98453 4.65298 4.98907 4.00532C4.98453 3.56489 4.58186 3.1618 4.00087 2.99894C3.81061 2.94591 3.60161 2.91995 3.38409 2.91995C2.69917 2.91995 1.93019 3.19318 1.41166 3.83814C0.236044 5.31688 0.140632 7.47249 0.427438 9.47716C0.715947 11.4861 2.05343 13.3469 2.09261 13.3978C2.12101 13.4335 2.14657 13.4529 2.17553 13.4529C2.1903 13.4529 2.20563 13.4464 2.22154 13.434C2.79912 12.9 3.35002 12.1701 3.58571 11.682C3.83787 11.8736 3.70611 12.281 3.56753 12.716C3.43577 13.1607 3.11546 13.751 2.9996 13.9415C2.88772 14.1276 2.73779 14.3441 2.9394 14.4571C2.95985 14.469 2.98597 14.4755 3.01721 14.4755C3.27619 14.4755 3.88558 14.0454 4.56539 13.1819C5.32642 12.2101 5.71261 11.3476 5.71261 11.3476C5.76827 11.3595 5.86141 11.4494 5.84608 11.6939C5.83586 11.9423 5.56779 12.8664 5.04586 13.7267C4.51825 14.5865 4.03097 15.1243 3.93271 15.2466C3.87195 15.3175 3.92363 15.3618 3.96282 15.3905C4.00144 15.4154 4.93455 16.2454 6.2902 16.9466C7.89631 17.762 8.6085 17.9086 8.6085 17.9086C8.6085 17.9086 9.31898 17.7658 10.9251 16.9509C12.2802 16.2486 13.2173 15.4148 13.2519 15.3867C13.2911 15.3613 13.3411 15.3212 13.282 15.2433C13.1894 15.1264 12.7005 14.5859 12.174 13.7262C11.6538 12.8718 11.3755 11.9417 11.3715 11.6966C11.3607 11.4493 11.4482 11.3676 11.5015 11.3471C11.5015 11.3471 11.8917 12.215 12.6527 13.1813C13.336 14.0459 13.9397 14.475 14.1998 14.475C14.2327 14.475 14.2589 14.4685 14.2804 14.4566C14.4758 14.3435 14.3304 14.1238 14.2157 13.9399C14.1089 13.7505 13.7841 13.164 13.6461 12.7155C13.5137 12.2756 13.3763 11.8687 13.633 11.6815C13.8693 12.1695 14.4162 12.9032 14.9955 13.4297C15.0108 13.4448 15.0284 13.4524 15.0454 13.4524C15.071 13.4524 15.0983 13.4334 15.1221 13.4004C15.1647 13.3463 16.5045 11.4888 16.7907 9.47661C17.0781 7.46762 16.9832 5.31687 15.8065 3.83759C15.2914 3.19101 14.5167 2.91615 13.8272 2.91615C13.612 2.91615 13.4064 2.94267 13.2184 2.99407C12.6329 3.1618 12.2319 3.56869 12.2353 4.00479C12.2353 4.65245 12.7737 4.79095 12.7737 4.79095C12.7737 4.79095 12.5937 5.15239 11.9519 5.22598C11.8321 5.24005 11.7157 5.24654 11.6043 5.24654C11.1216 5.24654 10.715 5.10045 10.3401 4.59617C9.97665 4.11083 9.98858 3.11149 9.96756 2.77819C9.95109 2.44002 9.87499 1.68144 9.50186 1.37195C9.12986 1.05434 8.67665 0.947737 8.11156 0.926636C8.0701 0.927718 8.03319 0.927726 7.99854 0.927726Z" fill="#B9B1B1"/>
</svg>
