<svg width="107" height="27" viewBox="0 0 107 27" fill="none" xmlns="http://www.w3.org/2000/svg">
<path d="M13.7081 21.4464L13.6317 21.5168C12.4009 22.7115 10.9762 23.3447 9.50823 23.3447C6.44403 23.3447 4.21974 21.1547 4.21974 18.133C4.21974 15.1167 6.44403 12.9236 9.50823 12.9236C10.9762 12.9236 12.4009 13.5594 13.6317 14.7573L13.7081 14.8298L15.6787 12.5597L15.6261 12.4981C13.9872 10.6531 12.0208 9.75487 9.60336 9.75487C7.17754 9.75487 4.96003 10.5326 3.36187 11.9353C1.62543 13.4543 0.708618 15.5964 0.708618 18.133C0.708618 20.6683 1.62543 22.8157 3.36187 24.3351C4.96003 25.7442 7.17754 26.5177 9.60336 26.5177C12.0208 26.5177 13.9872 25.62 15.6261 23.7742L15.6787 23.7169L13.7081 21.4464Z" fill="#B9B1B1"/>
<path d="M17.6701 26.2087H21.1514V10.0179H17.6701V26.2087Z" fill="#B9B1B1"/>
<path d="M34.7881 22.6881C33.8593 23.2269 32.9949 23.4978 32.2187 23.4978C31.0939 23.4978 30.5856 22.9322 30.5856 21.6724V13.0815H34.1312V10.0326H30.5856V4.99479L27.1734 6.73451V10.0326H24.2298V13.0815H27.1734V22.2205C27.1734 24.7104 28.7216 26.4113 31.0325 26.4555C32.6017 26.4848 33.5477 26.0395 34.1222 25.7139L34.1558 25.6901L34.994 22.5683L34.7881 22.6881Z" fill="#B9B1B1"/>
<path d="M37.6714 26.2087H41.155V10.0179H37.6714V26.2087Z" fill="#B9B1B1"/>
<path d="M96.6788 3.85737V19.3017L97.7632 17.6935C97.7624 17.7007 102.635 10.9779 103.26 10.1207H105.432C104.969 10.7124 101.138 15.736 101.138 15.736C101.138 15.736 106.129 25.6442 106.417 26.2087H104.285C104.167 25.9775 99.8798 17.3301 99.8798 17.3301L96.6788 21.603V26.2087H94.6918V4.93839C94.8656 4.84332 96.2111 4.10851 96.6788 3.85737ZM80.3567 12.0387C81.3816 10.579 82.9874 9.77411 84.8662 9.77411C88.6125 9.77411 90.5978 12.0504 90.5978 16.3578V26.2087H88.6059V16.7657C88.6059 13.101 87.2703 11.3999 84.3769 11.3999C81.6075 11.3999 79.954 13.4066 79.954 16.7657V26.2087H77.9677V10.1207H79.954V12.6155L80.3567 12.0387ZM68.1445 9.77411C71.9995 9.77411 73.8736 11.4536 73.8736 14.9095V26.2087H71.8865V23.8615L71.4998 24.2677C70.0375 25.8048 68.359 26.5564 66.3603 26.5564C64.7942 26.5564 61.1503 26.0626 61.1503 21.4826C61.1503 17.739 64.394 16.4103 67.4327 16.4103C68.9584 16.4103 70.4656 16.745 71.5595 17.3289L71.8865 17.5016V15.192C71.8865 12.6313 70.5738 11.3344 67.9797 11.3344C66.3801 11.3344 64.9363 11.7191 63.456 12.514C63.3254 12.2281 62.8662 11.2609 62.7384 10.985C64.2856 10.2082 66.1961 9.77411 68.1445 9.77411ZM63.0988 21.325C63.0988 23.7299 64.4067 25.0553 66.783 25.0553C68.8056 25.0553 70.602 24.145 71.849 22.4895L71.8865 22.4327V18.9055L71.7761 18.8446C70.5078 18.1557 69.2088 17.8779 67.2996 17.8779C64.6714 17.8779 63.0988 19.1662 63.0988 21.325ZM47.7559 3.85737V12.4635L48.1406 12.0623C49.6039 10.5224 51.2238 9.77411 53.0861 9.77411C56.8129 9.77411 58.952 12.7335 58.952 17.8948C58.952 23.1562 56.5225 26.5564 52.761 26.5564C50.9282 26.5564 49.4606 25.879 48.1426 24.4268L47.7559 23.998V26.2087H45.773V4.93839C45.9419 4.84332 47.2898 4.10851 47.7559 3.85737ZM47.8031 13.8653L47.7559 13.9247V22.2993L47.7914 22.3506C48.8874 23.9666 50.673 24.9328 52.5734 24.9328C55.5084 24.9328 56.9961 22.5761 56.9961 17.9291C56.9961 13.7778 55.3478 11.3999 52.4741 11.3999C50.7322 11.3999 49.1605 12.229 47.8031 13.8653Z" fill="#B9B1B1"/>
<path fill-rule="evenodd" clip-rule="evenodd" d="M43.2403 7.14506C40.0535 2.84461 34.7611 0.278865 29.3765 0.278865C23.9941 0.278865 18.7007 2.84461 15.5192 7.14506L15.356 7.36633H19.3686L19.4131 7.32043C22.1442 4.63494 25.7093 3.21475 29.3765 3.21475C33.0441 3.21475 36.6086 4.63494 39.345 7.32043L39.3894 7.36633H43.4008L43.2403 7.14506Z" fill="#B9B1B1"/>
</svg>
