<svg width="106" height="18" viewBox="0 0 106 18" fill="none" xmlns="http://www.w3.org/2000/svg">
<path d="M8.76649 13.3651C7.7413 14.2471 6.40956 14.6318 4.30133 14.6318H3.42566V4.09357H4.30133C6.40956 4.09357 7.68888 4.45297 8.76649 5.38241C9.8949 6.3397 10.5738 7.82298 10.5738 9.3497C10.5738 10.8795 9.8949 12.4082 8.76649 13.3651ZM4.95493 1.39349H0.165405V17.3297H4.92966C7.46309 17.3297 9.29235 16.7603 10.8982 15.49C12.8063 13.9855 13.9347 11.718 13.9347 9.37264C13.9347 4.66967 10.2464 1.39349 4.95493 1.39349Z" fill="#B9B1B1"/>
<path d="M15.4362 17.3297H18.699V1.39349H15.4362V17.3297Z" fill="#B9B1B1"/>
<path d="M26.6769 7.50879C24.7189 6.81855 24.1439 6.36327 24.1439 5.50226C24.1439 4.49863 25.1682 3.7359 26.5746 3.7359C27.5523 3.7359 28.3557 4.11846 29.2058 5.02656L30.913 2.89674C29.5101 1.72765 27.8315 1.12992 25.9975 1.12992C23.038 1.12992 20.7805 3.08805 20.7805 5.69626C20.7805 7.89182 21.8316 9.01588 24.8961 10.0666C26.1733 10.4958 26.8233 10.7818 27.1515 10.9742C27.8034 11.3797 28.1299 11.9538 28.1299 12.6231C28.1299 13.9144 27.0522 14.871 25.5964 14.871C24.0402 14.871 22.7867 14.1295 22.0355 12.7455L19.9275 14.6791C21.4308 16.7814 23.2362 17.7131 25.7188 17.7131C29.1097 17.7131 31.4882 15.5653 31.4882 12.4802C31.4882 9.94823 30.3885 8.80208 26.6769 7.50879Z" fill="#B9B1B1"/>
<path d="M32.5176 9.37262C32.5176 14.0569 36.3784 17.6891 41.3469 17.6891C42.7515 17.6891 43.9543 17.426 45.4377 16.7603V13.1011C44.1333 14.3449 42.978 14.8465 41.4986 14.8465C38.2126 14.8465 35.8802 12.5768 35.8802 9.34968C35.8802 6.28997 38.2863 3.87639 41.3469 3.87639C42.9031 3.87639 44.0812 4.40546 45.4377 5.66953V2.01214C44.0055 1.3199 42.8278 1.03322 41.4239 1.03322C36.4807 1.03322 32.5176 4.73894 32.5176 9.37262Z" fill="#B9B1B1"/>
<path d="M71.309 12.098L66.8483 1.39355H63.2838L70.3822 17.7386H72.1381L79.3647 1.39355H75.8278L71.309 12.098Z" fill="#B9B1B1"/>
<path d="M80.8397 17.3297H90.093V14.6318H84.0999V10.3302H89.8719V7.63076H84.0999V4.09357H90.093V1.39349H80.8397V17.3297Z" fill="#B9B1B1"/>
<path d="M96.466 8.73034H95.5129V3.90363H96.5175C98.5496 3.90363 99.6543 4.71471 99.6543 6.26568C99.6543 7.86779 98.5496 8.73034 96.466 8.73034ZM103.012 6.09828C103.012 3.11482 100.855 1.39349 97.0921 1.39349H92.254V17.3297H95.5129V10.9279H95.9382L100.455 17.3297H104.467L99.2014 10.616C101.659 10.14 103.012 8.5384 103.012 6.09828Z" fill="#B9B1B1"/>
<path d="M104.476 2.18392H104.417V1.81785H104.48C104.654 1.81785 104.744 1.87738 104.744 1.99798C104.744 2.12194 104.653 2.18392 104.476 2.18392ZM105.095 1.99284C105.095 1.71352 104.893 1.56079 104.538 1.56079H104.066V2.96155H104.417V2.41826L104.829 2.96155H105.257L104.774 2.38391C104.98 2.33083 105.095 2.18729 105.095 1.99284Z" fill="#B9B1B1"/>
<path d="M104.604 3.26112C104.042 3.26112 103.583 2.81566 103.583 2.25988C103.583 1.7021 104.036 1.25687 104.604 1.25687C105.163 1.25687 105.619 1.71232 105.619 2.25988C105.619 2.81098 105.163 3.26112 104.604 3.26112ZM104.609 1.03703C103.895 1.03703 103.328 1.57991 103.328 2.25811C103.328 2.93586 103.901 3.47937 104.609 3.47937C105.304 3.47937 105.874 2.93004 105.874 2.25811C105.874 1.5895 105.304 1.03703 104.609 1.03703Z" fill="#B9B1B1"/>
<path d="M46.5035 9.42034C46.5035 9.42034 46.5035 9.42034 46.5035 9.4152C46.5035 4.73586 50.4878 0.939791 55.3997 0.939791C60.3168 0.939791 64.3012 4.73586 64.3012 9.4152C64.3012 9.42034 64.3012 9.42034 64.3012 9.42034C64.3012 14.0999 60.3168 17.8958 55.3997 17.8958C50.4878 17.8958 46.5035 14.0999 46.5035 9.42034Z" fill="#B9B1B1"/>
</svg>
