<svg width="107" height="41" viewBox="0 0 107 41" fill="none" xmlns="http://www.w3.org/2000/svg">
<path fill-rule="evenodd" clip-rule="evenodd" d="M98.559 18.994H94.4107V3.73311H98.3176V5.44147C98.8041 4.41498 100.024 3.50644 101.611 3.39034C104.298 3.27608 106.126 4.75776 106.126 7.94594V18.994H101.856V7.49075C101.856 6.12518 101.856 4.98443 100.879 4.75776C100.512 4.6435 99.9025 4.75776 99.4141 5.09869C98.8041 5.66998 98.559 6.35185 98.559 7.49075V18.994ZM26.423 11.3627C26.423 14.2099 26.423 16.4877 25.9347 17.6285C25.5679 18.1961 25.2012 18.5388 24.3461 18.5388C23.6145 18.5388 23.1261 18.1961 22.8829 17.6266C22.2729 16.4877 22.2729 14.2099 22.2729 11.3627C22.2729 8.62965 22.2729 6.23943 22.881 5.09869C23.1261 4.52924 23.6145 4.18831 24.3461 4.18831C25.2012 4.18831 25.5679 4.52924 25.9347 5.09869C26.5447 6.23759 26.423 8.62781 26.423 11.3627ZM28.0079 4.75776C27.0312 3.95979 25.8112 3.39034 24.3461 3.39034C22.8829 3.39034 21.7845 3.96163 20.6861 4.75776C18.9759 6.12518 17.8776 8.62965 17.8776 11.3627C17.8776 14.2099 18.9759 16.602 20.6861 17.9694C21.7845 18.7655 22.8829 19.335 24.3461 19.335C25.8112 19.335 27.033 18.7655 28.0098 17.9694C29.8397 16.602 30.8165 14.2099 30.8165 11.3627C30.8165 8.62965 29.8379 6.12518 28.0079 4.75776ZM70.608 24.8028V28.9014H69.7547C69.2664 27.193 68.5329 25.7132 66.5795 25.5989C65.3595 25.4865 64.2611 26.1702 64.1395 27.193C64.0179 28.2195 64.3827 29.128 66.5795 30.2706C69.388 31.7486 71.5847 32.4323 71.5847 35.5081C71.5847 38.8106 68.5329 40.4065 65.9695 40.4065H61.0858V34.712H61.9409C62.5528 37.6717 63.5276 39.4943 65.8478 39.6085C67.3129 39.6085 68.4094 38.8106 68.4094 37.3307C68.4094 35.849 67.4346 34.9387 65.1162 33.6855C62.5528 32.2057 60.966 31.2934 60.966 29.2441C60.966 26.5112 63.0411 24.8028 66.3362 24.8028H70.608ZM75.9782 18.994V7.94594C75.9782 4.75776 74.1482 3.27608 71.4631 3.39034C69.6313 3.5046 68.5329 4.6435 68.0446 5.55388C67.4346 3.95979 66.0911 3.27608 64.1376 3.39034C62.5528 3.5046 61.3309 4.41498 60.8426 5.44147V3.73311H57.0591V18.9922H61.2093V7.49259C61.2093 6.35369 61.3309 5.66998 62.0644 5.10053C62.5528 4.7596 63.0411 4.64534 63.406 4.7596C64.3827 4.98627 64.3827 6.12702 64.3827 7.49259V18.9959H68.5329V7.37649C68.5329 6.35001 68.7762 5.6663 69.388 5.09685C69.8764 4.75591 70.3647 4.64165 70.7296 4.75591C71.7064 4.98259 71.828 6.12333 71.828 7.48891V18.9922H75.9782V18.994ZM33.6232 18.994H37.895V0.543082H33.6232V18.994ZM48.0253 4.98627C48.8804 6.12518 48.8804 8.85633 48.8804 11.0217C48.8804 13.2995 49.0039 16.261 48.0272 17.5124C47.6604 17.9694 47.2937 18.1961 46.6837 18.1961C45.8304 18.1961 45.3421 17.2857 45.0988 15.804C44.9753 14.4384 44.9753 12.7301 44.9753 10.9075C44.9753 7.83353 45.2186 4.41498 46.8072 4.41498C47.4153 4.41498 47.6586 4.6435 48.0253 4.98627ZM53.0324 18.994V0.543082H48.7588V4.87201C48.3939 4.07405 47.5388 3.5046 46.3188 3.5046C43.267 3.5046 40.827 6.46611 40.7035 11.0217C40.5819 14.0975 41.6803 19.2225 45.9521 19.2225C47.6604 19.2225 48.6372 18.3103 49.0039 17.5124V18.994H53.0324ZM86.232 9.88281L84.8885 10.6789C83.5469 11.4769 83.3036 12.5034 83.1802 13.6405C83.0585 14.5527 83.0585 15.3488 83.1802 16.7162C83.3018 17.9694 84.1569 18.1961 84.8885 17.9694C85.7436 17.6266 86.232 16.1468 86.232 14.5527V9.88281ZM88.672 4.18831C89.7721 4.7596 90.5038 5.66814 90.5038 7.71927V18.994H86.4752V17.2857C85.9887 18.5388 84.6452 19.335 82.8134 19.335C81.3502 19.335 78.7867 18.6531 78.7867 15.1221C78.7867 11.8178 81.1051 11.136 83.6704 10.1095C85.9887 9.19911 86.232 9.08485 86.232 8.17446V5.66814C86.232 4.6435 85.622 4.18831 84.4001 4.18831C83.9136 4.30256 83.0585 4.52924 83.0585 5.09869C82.9351 5.7824 83.7902 5.7824 83.9136 6.80704C84.0353 8.40298 82.6918 8.97059 81.4718 8.85817C80.6167 8.85817 79.64 8.40298 79.5183 7.14982C79.3967 5.09869 81.8367 3.39034 85.2552 3.39034C86.842 3.39034 87.8187 3.73311 88.672 4.18831ZM25.8112 31.1792L24.4696 31.9771C23.1261 32.7751 22.8829 33.7998 22.7594 34.9387C22.6396 35.849 22.6396 36.7613 22.7594 38.0126C22.7594 39.38 23.6145 39.6085 24.3461 39.2657C25.3228 38.9248 25.8112 37.5592 25.8112 35.849V31.1792ZM28.253 25.4847C29.3514 26.1684 29.9614 26.9663 29.9614 29.0156V40.4046H26.0581V38.6963C25.5698 39.8352 24.2282 40.6313 22.3963 40.6313C20.8096 40.6313 18.3678 40.0637 18.3678 36.5328C18.3678 33.2303 20.688 32.5466 23.128 31.5201C25.5698 30.4973 25.813 30.383 25.813 29.5851V27.0788C25.813 25.9417 25.203 25.4865 23.9831 25.5989C23.4947 25.5989 22.6414 25.8274 22.6414 26.3969C22.518 27.1949 23.3731 27.1949 23.4947 28.2195C23.6163 29.6993 22.2747 30.2688 21.0529 30.2688C20.1996 30.1545 19.2229 29.6993 19.0994 28.4462C18.9778 26.5112 21.4196 24.801 24.8363 24.801C26.4249 24.801 27.3998 25.0295 28.2549 25.4865L28.253 25.4847ZM57.7926 29.3584C57.7926 26.1702 55.9608 24.5743 53.2757 24.8028C51.9341 24.9152 50.8339 25.4847 50.2239 26.2826V21.8413H46.0719V32.3199C46.0719 36.19 43.1417 39.8352 40.2115 39.7209C38.1382 39.7209 37.6499 38.2411 37.4048 36.647C37.0399 34.3692 37.0399 31.7505 37.2831 28.9014C37.5283 27.0806 38.0166 25.5989 39.4817 25.5989C40.5801 25.5989 40.7017 26.2826 40.2133 26.7378C39.725 27.3091 38.9933 27.8767 39.3582 29.1299C39.725 30.4973 42.0433 30.724 43.1435 29.7012C43.9968 28.789 43.8751 27.3073 43.2651 26.3969C42.5317 25.258 41.3117 24.8028 39.4817 24.8028C37.1615 24.8028 32.7681 26.7378 32.7681 32.8875C32.7681 39.4943 37.2831 40.6332 39.8466 40.6332C42.7768 40.6332 45.3384 38.2411 46.0719 36.3042V40.4046H50.222V28.9014C50.222 27.7643 50.4653 27.0806 51.0771 26.5093C51.5655 26.1684 52.1755 26.0541 52.5422 26.1684C53.519 26.3969 53.519 27.5358 53.519 28.9014V40.4046H57.7908L57.7926 29.3584ZM15.0709 0.202148V6.69463H14.2158C13.4842 3.50644 11.8974 1.11253 9.70071 1.00012C8.23562 0.885858 7.38052 1.68198 6.6489 2.82089C5.91727 4.18831 5.55054 7.03556 5.55054 10.4504C5.55054 13.6405 5.67217 16.0325 6.03891 17.7409C6.28217 18.5388 6.89216 19.7902 8.47888 19.7902C9.33398 19.7902 9.94398 19.5635 10.3107 19.1083C10.9189 18.4246 11.0423 17.0572 11.0423 16.1468V13.071C11.0423 11.9321 10.6774 11.2502 10.0656 10.9075C9.57908 10.6789 8.84562 10.6789 8.48073 10.5647V9.76856H15.3141V26.056H14.4609C14.0941 24.8028 13.8509 23.8906 13.239 22.8659C12.6309 21.8413 11.5307 20.7024 9.70071 20.7024C7.74726 20.5881 6.28217 21.727 6.28217 23.4354C6.28217 25.7132 7.74726 26.2826 10.4323 27.6501C12.9958 29.0156 16.2927 30.1564 16.2927 34.1407C16.2927 38.0126 12.7507 40.4065 8.72399 40.4065H2.25547V32.5466H3.10872C4.20708 38.4696 6.89216 39.4943 8.72399 39.4943C11.0423 39.4943 12.1407 38.1268 12.1407 36.1918C12.0191 33.6855 10.1872 32.7751 7.62563 31.522C3.96382 29.5869 2.25547 28.6747 2.25547 25.4865C2.3771 22.7517 4.69544 21.0452 7.25889 20.3614C1.88873 19.7902 0.30201 15.2364 0.42364 10.338C0.42364 5.44147 3.47546 0.202148 9.45561 0.202148H15.0709Z" fill="#B9B1B1"/>
</svg>
