<svg width="107" height="43" viewBox="0 0 107 43" fill="none" xmlns="http://www.w3.org/2000/svg">
<path d="M68.3667 33.9378C67.0184 33.9378 65.7401 33.6042 64.9696 33.1871C64.9346 33.1705 64.8996 33.1204 64.8996 33.087V17.6391C64.8996 17.5723 64.9521 17.5223 65.0222 17.5223H66.6507C66.7207 17.5223 66.7732 17.5723 66.7732 17.6391V22.9274C67.4387 22.5938 68.2441 22.4269 69.1197 22.4269C71.8514 22.4269 73.69 24.579 73.69 27.9488C73.7075 31.5356 71.8514 33.9378 68.3667 33.9378ZM68.6469 23.528C67.9815 23.528 67.3861 23.6781 66.8608 23.9117C66.8083 23.9283 66.7908 23.9784 66.7908 24.0284V32.4197C66.7908 32.4698 66.8258 32.5198 66.8608 32.5365C67.2986 32.7033 67.8764 32.7867 68.4368 32.7867C70.8357 32.7867 71.7988 30.8516 71.7988 28.0489C71.7988 25.263 70.6606 23.528 68.6469 23.528ZM79.6787 33.9378C76.8769 33.9378 75.2309 32.7868 75.2309 30.568C75.2309 27.8821 77.9976 26.8478 81.78 26.4975V25.8135C81.78 24.2787 80.9044 23.6114 79.2934 23.6114C78.3303 23.6114 77.2797 23.8783 76.4917 24.262C76.4217 24.2954 76.3516 24.262 76.3166 24.1953L75.9489 23.3111C75.9313 23.2444 75.9489 23.1776 76.0014 23.161C76.9645 22.7105 78.2428 22.4102 79.451 22.4102C81.9901 22.4102 83.5485 23.5447 83.5485 26.0303V33.1037C83.5485 33.1538 83.531 33.1871 83.4785 33.2205C82.5679 33.6376 81.2021 33.9378 79.6787 33.9378ZM81.78 27.4484C78.8031 27.782 77.052 28.5661 77.052 30.5179C77.052 32.0194 78.0327 32.8702 79.8538 32.8702C80.5542 32.8702 81.2546 32.7367 81.7099 32.5365C81.7624 32.5198 81.78 32.4698 81.78 32.4197V27.4484ZM93.0744 33.7376C93.0043 33.7376 92.9518 33.6876 92.9518 33.6209V26.0637C92.9518 24.3955 92.2339 23.5613 90.3252 23.5613C89.5547 23.5613 88.9243 23.6781 88.3465 23.895C88.2939 23.9117 88.2589 23.9617 88.2589 24.0118V33.6209C88.2589 33.6876 88.2064 33.7376 88.1363 33.7376H86.4903C86.4203 33.7376 86.3678 33.6876 86.3678 33.6209V23.2611C86.3678 23.211 86.4028 23.161 86.4378 23.1443C87.506 22.6938 88.9068 22.3936 90.3252 22.3936C93.4771 22.3936 94.8605 23.6948 94.8605 26.047V33.6042C94.8605 33.6709 94.8079 33.721 94.7379 33.721H93.0744V33.7376ZM104.211 33.7376C104.176 33.7376 104.141 33.721 104.106 33.6876L99.5533 28.0489H99.5183V33.6042C99.5183 33.6709 99.4658 33.721 99.3957 33.721H97.7848C97.7147 33.721 97.6622 33.6709 97.6622 33.6042V17.6224C97.6622 17.5556 97.7147 17.5056 97.7848 17.5056H99.3957C99.4658 17.5056 99.5183 17.5556 99.5183 17.6224V27.8154H99.5533L103.843 22.6271C103.861 22.5937 103.896 22.5771 103.949 22.5771H105.717C105.822 22.5771 105.875 22.6938 105.822 22.7773L101.322 27.8654L106.26 33.5208C106.33 33.6042 106.277 33.721 106.155 33.721H104.211V33.7376ZM28.092 11.7835C28.092 4.96038 20.0721 0.773071 14.3111 0.773071C10.4587 0.773071 8.05976 2.57478 8.05976 5.46085V7.3126H6.43126C3.59452 7.3126 0.582672 10.182 0.582672 12.9012V33.6209C0.582672 34.6886 1.49323 35.556 2.61392 35.556H7.90216C7.93718 35.556 7.9722 35.556 7.98971 35.5394C9.07538 35.4893 9.9334 34.6385 9.9334 33.6042C9.9334 33.6042 9.9334 13.6019 9.9334 9.09764H14.3461C16.7626 9.09764 18.7413 10.9828 18.7413 13.2849V33.6042C18.7413 34.6719 19.6519 35.5394 20.7726 35.5394H26.0608C27.1815 35.5394 28.092 34.6719 28.092 33.6042C28.1096 24.5957 28.092 11.7835 28.092 11.7835ZM2.98164 33.771C2.70147 33.771 2.47383 33.5541 2.47383 33.2872V12.9179C2.47383 11.2163 4.66267 9.11431 6.43126 9.11431H8.05976C8.05976 24.0451 8.05976 31.6857 8.05976 33.3039C8.05976 33.5708 7.83212 33.7877 7.55194 33.7877H2.98164V33.771ZM26.2184 33.3039C26.2184 33.5708 25.9907 33.771 25.7106 33.771H21.1228C20.8426 33.771 20.615 33.5541 20.615 33.2872V13.3016C20.615 9.99848 17.7957 7.3126 14.3286 7.3126H9.9334V5.46085C9.9334 4.37649 10.4937 2.57478 14.3111 2.57478C21.6831 2.57478 26.2009 7.94654 26.2009 11.7835C26.2184 11.7835 26.2184 24.2954 26.2184 33.3039ZM57.44 7.27924H52.1518C51.0311 7.27924 50.1205 8.14673 50.1205 9.2144C50.1205 9.66483 50.1205 28.7496 50.1205 33.721H45.7253C43.3089 33.721 41.3302 31.8358 41.3302 29.5337V9.2144C41.3302 8.14673 40.4196 7.27924 39.2989 7.27924H34.0107C32.89 7.27924 31.9794 8.14673 31.9794 9.2144C31.9794 18.0728 31.9794 31.0518 31.9794 31.0518C31.9794 37.8749 39.9993 42.0622 45.7604 42.0622C49.6127 42.0622 52.0117 40.2605 52.0117 37.3744V35.5227H53.6402C56.4769 35.5227 59.4888 32.6533 59.4888 29.934V9.2144C59.4713 8.14673 58.5607 7.27924 57.44 7.27924ZM50.1205 37.3911C50.1205 38.4755 49.5602 40.2772 45.7429 40.2772C38.3708 40.2772 33.8531 34.9054 33.8531 31.0684C33.8531 31.0684 33.8356 18.6233 33.8531 9.54805C33.8531 9.28113 34.0807 9.08095 34.3609 9.08095H38.9487C39.2289 9.08095 39.4565 9.29782 39.4565 9.56474V29.567C39.4565 32.8702 42.2757 35.556 45.7429 35.556H50.1381L50.1205 37.3911ZM57.5976 29.934C57.5976 31.6357 55.4088 33.7376 53.6402 33.7376H52.0117C52.0117 23.3111 52.0117 11.6167 52.0117 9.54805C52.0117 9.28113 52.2393 9.08095 52.5195 9.08095H55.7415H57.1073C57.3875 9.08095 57.6151 9.29782 57.6151 9.56474V29.934H57.5976Z" fill="#B9B1B1"/>
</svg>
